<?xml version="1.0" encoding="utf-8"?>
<!-- Generator: Adobe Illustrator 21.0.0, SVG Export Plug-In . SVG Version: 6.00 Build 0)  -->
<svg version="1.1" id="Layer_10" xmlns="http://www.w3.org/2000/svg" xmlns:xlink="http://www.w3.org/1999/xlink" x="0px" y="0px"
	 viewBox="0 0 200 200" style="enable-background:new 0 0 200 200;" xml:space="preserve">
<style type="text/css">
	.st0{fill:#2B3337;}
	.st1{fill:#008954;}
	.st2{fill:#FFFFFF;}
	.st3{fill:#018953;}
	.st4{fill:#AB4742;}
	.st5{fill:#BC9A5B;}
	.st6{fill:#FAB588;}
	.st7{fill:#F9B588;}
	.st8{fill:#058954;}
	.st9{fill:#FEFEFE;}
	.st10{fill:#FDFDFD;}
	.st11{fill:#048954;}
	.st12{fill:#F7F7F7;}
	.st13{fill:#058A54;}
	.st14{fill:#078A54;}
	.st15{fill:#464542;}
	.st16{fill:#FAFAFA;}
	.st17{fill:#F1F1F0;}
	.st18{fill:#FBFAFA;}
	.st19{fill:#0C8A54;}
	.st20{fill:#BC9A5C;}
	.st21{fill:#148A55;}
	.st22{fill:#BB995C;}
	.st23{fill:#E6AA80;}
	.st24{fill:#128A55;}
	.st25{fill:#BA995C;}
	.st26{fill:#4A4743;}
	.st27{fill:#F1B285;}
	.st28{fill:#1A8A54;}
	.st29{fill:#AF8F5B;}
	.st30{fill:#F7F6F6;}
	.st31{fill:#DCDCDD;}
	.st32{fill:#4D5154;}
	.st33{fill:#BB9A5C;}
	.st34{fill:#EDEDED;}
	.st35{fill:#D7D7D7;}
	.st36{fill:#EEEEED;}
	.st37{fill:#B8945C;}
	.st38{fill:#5F584F;}
	.st39{fill:#D8D9D9;}
	.st40{fill:#BC985C;}
	.st41{fill:#B5935C;}
	.st42{fill:#A9905F;}
	.st43{fill:#E1E1E1;}
	.st44{fill:#4F5C51;}
	.st45{fill:#FCFDFC;}
	.st46{fill:#FBFDFC;}
	.st47{fill:#FAFCFB;}
	.st48{fill:#F4F8F5;}
	.st49{fill:#32373A;}
	.st50{fill:#31383B;}
	.st51{fill:#525658;}
	.st52{fill:#FDFEFD;}
	.st53{fill:#FCFEFD;}
	.st54{fill:#FCFDFD;}
	.st55{fill:#3F4447;}
	.st56{fill:#C5C6C6;}
	.st57{fill:#E8AD82;}
	.st58{fill:#515556;}
	.st59{fill:#484A49;}
	.st60{fill:#038954;}
	.st61{fill:#303538;}
	.st62{fill:#3B3C3A;}
	.st63{fill:#655A4C;}
	.st64{fill:#856E56;}
	.st65{fill:#0D8A55;}
	.st66{fill:#1D8C59;}
	.st67{fill:#1E8C59;}
	.st68{fill:#098955;}
	.st69{fill:#E8E8E8;}
</style>
<path class="st0" d="M104.9,184c0.7,3.7,0.1,5-3.4,6.5c-2.6,1.2-5.1,2.3-8.2,1.2c-1.9-0.7-3.7,0-5.1,2c-6.6,9.5-15.8,7.7-22.8,0
	c-1.8-2-1.6-4.1,0-5.9c1-1.2,1-2.1,0.6-3.5c-0.4-1.1-0.8-2.4-0.5-3.5c0.8-3.3-1.2-4.2-3.7-5.5c-28-14.3-45-37-49.5-68.1
	c-3.7-25.4,3-48.3,18.8-68.6c-7.5-14.2-5.6-26.4,5.4-33.7c9.2-6.1,23.1-5.4,31.7,6.3c4.8-1.5,9.7-3.3,14.7-4.2
	c4.6-0.8,9.1-1.8,13.4-3.8c4.4-2,8.9-1.2,13,1.6c3.1,2.1,6.9,1.7,10.3,2.4c34.5,6.9,63.8,37.3,69,72.1c5.5,37.2-7.6,66.7-37.2,89.5
	c2.2,9.9,0.8,20.1,0.5,30.3c-5.5-7.8-2.8-17.9-7.4-26.2C131.8,179.6,118.8,183.5,104.9,184z M89.3,35.9c-1.4,0.2-1.4,1.5-1.9,2.4
	c-0.6-0.2-1.1-1-1.7-0.1c-0.9,0.6-1.8,1.3-2.8,1.7c-1.7,0.7-3,0.2-4.2-1.3c-1.2-1.5,0-2.3,0.7-3.4c0.3-0.5,0.6-1,1.2-2
	c-6.9,2.2-12.5,5.4-18,9.1c-2.1,1.4-2.5,3.2-2,5.1c1,3.6,2.5,7.1,6.4,8.9c2.4,1.1,3.4,3.1,3.4,5.8c0,3,0.2,6,1,8.9
	c0.1,0.3,0.3,0.5,0.4,0.7c0.9,0.3,0.9-1.1,1.9-0.7c1.3,2.6,3.4,4.6,5.3,6.9c-2.9-0.7-4-3.5-6-5.6c-1.5,4.5-4.7,7.6-7.1,11.1
	c1.6,2,3.3,3.7,4.7,5.6c1.4,2,2.5,1.6,4,0.1c1.2-1.3,1.7-3.2,3.4-4.1c0.2,0.9-0.3,1.7-0.8,2.4c-0.8,1.2-0.5,2.2,0.4,3.1
	c1.1,1.3,1.8,0.1,2.7-0.4c0,0.3,0.1,0.6,0.1,0.9c-2.3,2.2-4.7,4.4-7,6.6c-2.2,1.8-4,3.9-5.7,6.2c-0.3,0.5-0.7,0.9-0.9,1.5
	c-0.9,1.9-2.5,3.7,0.8,5.1c1.3,0.6,2,2.4,2,4.1c-1.8-1.5-1.9-4.8-5.6-4.1c1.7-8.5,8-13.1,13.6-18c-1.1-1.6-2.1-2.7-3.7-1.1
	c-1.2,1.1-1.9,0.1-2.7-0.7c-2.6-2.3-4.2-5.6-7.3-7.4c0.5-0.7,0.9-1.2,1.4-1.9c-3.4,0.2-5.4-1.5-6.3-4.4c-0.3-0.9-0.6-1.1-1.5-1.4
	c-4.5-1.5-6.1-5.1-4.2-9.4c0.2-0.4,0.4-1,0.3-1.4c-0.4-2.6,1.1-4.1,2.9-5.4c0.1,0.5-0.1,1.3,0.9,0.8c1.1-0.6,2.2-1.2,3.3-1.9
	c1.4,1.4,3.7,0,5.4,1.5c-2,0.3-3.6,0.6-5.3,0.8c-1.3,0.1-2.4,0.4-2.8,1.8c-0.6,2.3-1.2,4.6-1.7,6.9c-0.1,0.6-0.1,1.2,0.5,1.6
	c0.7,0.4,1.4,0.2,1.9-0.4c1-1.1,2-2.4,3-3.7c0.2,6.5,1,8.8,6.6,7.6c-0.4,1.2-1.3,1.9-2.4,1.8c-3.2-0.3-3.8-3.3-5.1-5.5
	c-1.5,0.6-2.5,2.3-4.2,1.1c-1.7-1.2-1.4-2.8-1-4.6c0.2-1.3,0.8-2.4,1.1-3.6c0.2-0.9,0.4-1.7-1.4-2.3c-0.6,2.9-1.3,5.8-2.3,8.6
	c-0.1,0.2,0.2,0.5,0.3,0.8c1.4,3.2,3.2,4.1,6.9,3.4c-0.5,2-0.6,4,1.6,5.2c2.1,1.2,4,0.5,5.8-0.8c1.2-0.9,2.3-2,3.1-3.2
	c0.7-1,1-2,0.2-3.3c-1.7-2.9-2.2-6.2-2.1-9.5c0.1-2.6-0.7-4.3-3-5.6c-3.4-1.9-5.3-5-5.7-9C60,46.8,60.3,45.7,59,45
	c-1.9,0.9-3.2,2.3-3.2,4.7c-0.2,0-0.4,0-0.6,0c-1.7-0.4-2.1,1.2-2.8,2c-24.5,27.7-20.9,70.1,7.8,93.5c2.9,2.4,5.9,2.5,9,2.1
	c2.6-0.3,4.4,0.3,6,2.3c2,2.5,3.4,2.6,6.3,0.8c-2-2.5-3.4-5.3-4.5-8.4c-1.5-4.3-2.9-8.7-4.5-12.9c-1.8-4.8-3.7-9.5-3.1-14.7
	c1.4,0.2,1.2,1.9,2.3,2.4c2.2,4,5.8,7.3,6.8,12.6c1.5-1.7,3.2-2.3,3.4-4.2c0.2,0,0.4,0,0.7,0c2.9,0.8,4,4,6.6,5.4
	c6.6-4.8,13.7-8.5,21.4-10.8c1-0.5,2.3-0.2,3.2-1.2c2.3-0.1,4.4-1.2,6.7-1.1c1.1,0,2.5,1.1,3.3-0.4c0.7-1.3,0.1-2.7-0.7-3.7
	c-3.9-5-5-10.7-4.1-16.9c0-1.3,1-2.6,0.5-4.1c-3.4-0.3-4.2-3.3-5.8-5.6c-2-11.2,3.4-20.4,8.5-29.6c-4.6-3.4-5-3.4-6.7-0.3
	c0.5,1,2.4,1.5,1.9,3c-1.2,3.3-1.3,6.8-2.7,10c-0.8,1.8-2,3.2-4.1,2.3c-1.3-0.5-1.8,0.1-2.4,1c-0.8,1.1-1.7,2.2-2.6,3.3
	c-3.4,3.4-7.6,6-10.3,10.1c-0.2,0.2-0.4,0.4-0.7,0.7c-0.3-0.4-0.7-0.8-1-1.1c-0.6-2.5-1.4-4.9-2.7-7.1c-0.6,0.4-1.2,0.8-1.7,1.1
	c2.1-3.6,3.7-7.4,6.3-10.7c0.6-0.8,1.3-1.6,0.8-2.7c0.3-0.2,0.5-0.3,0.8-0.5c1.1-0.1,1.6,1.5,3,1.2c0.6-0.8,1-1.9,1.2-3.1
	c-1.7-0.6-3.1-0.4-4.2,0.9c-0.6-0.6-1.2-1.3-1.8-1.9c0.2-0.2,0.4-0.4,0.7-0.6c4.4,0.9,8,0,9.7-4.7c0.5,0.4,0.8,1,1.2,1
	c4.2,0.1,10.1-4.5,10.6-8.6c0.2-2.1,1.1-3.5,2.4-4.9c1.3-1.4,2.3-3,2.5-5c0.1-1.5-0.2-2.9-1.7-3.5c-1.4-0.5-2.5,0.2-3.4,1.3
	c-1.3,1.8-2.5,3.7-2.7,5.9c-0.1,1.3-0.7,1.8-1.8,2.4c-1.8,0.9-3.5,0.4-5.6,0.4c1.7-2.9,3.6-5.2,4.7-8c1.6-4,0.9-7.6-1-11.4
	c-0.9-1.9-2.7-0.4-3.5-1.4c-2.4-2.7-4.5-1-6.4,0.4c-3.5,2.6-6.9,5.3-10.4,8C90,35.1,89.6,35.5,89.3,35.9z M79.5,165.2
	c-1.4-3.6-4.2-0.7-6.2-1.5c1.3,2.8,3.8,1.1,5.6,1.7c-1.5,1.7-3.5,1.3-5.2,0.6c-1.7-0.7-1.3-2.4-1-3.8c2.5-0.2,5,0.5,7.4-0.3
	c-1.4-0.5-2.8-0.7-4.2-0.7c-1.4,0-2.9-0.5-4.3,0.1c-0.9,6.2-0.8,6.3,5.1,6.4c0.8,0,1.6,0,2.4,0c0.7,0,1.5,0,1.7-0.9
	C81,165.9,80.5,165.3,79.5,165.2z M106.7,68.9c0.4,0.3,0.7,0.6,1.1,1c1.7,0.8,3.8,2.9,5.1,0.4c1.8-3.4,3.2-7.2,2.5-11.5
	c-2.6-0.1-4.9,0.4-7.1,1.3c-0.4,0.2-0.9,0.3-1.3,0.5c-0.8,0.4-1.6,0.8-2.3,1.3c-4.1,2.6-4.1,4,0.1,6.2
	C105.4,68.4,106.1,68.6,106.7,68.9z M109.1,9.1c-2.8,0.6-5.4,1.9-7.9,3.1c-1.9,1.2-4.1,1.7-5.8,3.3c-2.5,1.6-5,3.1-6.9,5.4
	c-4.8,2.8-5.5,6.8-1.8,10.3c0.4,0.6,0.9,1.2,1.8,1.1c-2.7,1.9-5.4,3.8-8.4,5.8c1.9,1.3,3.3,0.4,4.6-0.5c3.5-2.5,7.1-4.8,10.2-7.7
	c4.6-4.3,9.9-6.9,15.8-8.5c3.7-1,7.5-2.2,10.7-4.3c2.4-1.5,2.3-2.5-0.1-3.8c0.5-1.5,1.3-0.7,1.8-0.2c1,0.9,1.2,2,0.4,3.2
	c-0.9,1.4-2.4,2.1-3.9,2.7c-2.4,1-3.8,2.1-1.4,4.6c0.6,0.6,0.9,1.8,0.9,2.8c-0.3,5.1,3.5,6.4,7.3,7.6c0.7,0.3,1.5,0.4,2.2,0.8
	c13.6,6.8,24.3,16.8,30.9,30.4c8.7,17.9,9.4,36.4,1.7,55c-0.7,1.7-1.7,3.4-0.8,5.3c-0.5-0.2-0.9-0.2-1.1,0.5
	c-0.7,2.9-2.1,5.5-2.8,8.4c-0.4,1.7-2.5,3-1.2,5.1c-1.2,1.6-1.9-0.9-3.3-0.1c-1.6,0.7-1.6,3.4-3.8,3.9c0.8-1.6,1.4-3-0.4-4.5
	c-0.9-0.8-0.8-2.2-0.8-3.4c0-1.3,1.1-3-0.9-3.4c-2-0.4-2,1.8-2.8,2.9c-0.5,0.7-0.3,1.5-0.3,2.3c0,2.4,0,4.6-1.2,6.9
	c-0.9,1.7-1.5,3.7-1.2,5.7c-1,0-0.9-1.2-1.7-1.3c-7.7,5.3-16,9.2-25.3,10.9c-1.4,0.3-2.5,1.1-3.5,2.1c-2.2,2.5-4.6,4.8-7.9,5.7
	c-3.1,0.8-3.8,2.7-3.6,5.5c0.1,1,0,2,0,3c0.1,2,4.1,6.2,5.8,6.1c12.5-0.7,24.4-3.8,35.6-9.6c0.7-0.4,1.4-0.6,1.7-1.6
	c0.8-3,1.7-5.9,1.9-9c0.3-4.4-1.2-8.1-3.1-11.9c2.1,1.1,2.9,3.1,3.6,5.2c1.4,4.3,0.5,8.6-0.3,12.9c-0.2,1.3-0.7,2.6,0.3,3.7
	c2.6,2.8,3.2,6.2,3.7,9.8c0.5,3.5,1.4,7,2.1,10.4c0.7-0.8,0.7-1.4,0.7-2.1c0-4.1-0.3-8.2,0.1-12.2c0.3-3,0.1-5.5-1.4-8.2
	c-1.4-2.5-1-5.5,0.8-7.6c1.9-2.2,1.7-3.9,0.2-6c2.9,1.1,2.4,3.3,1.6,5.4c-0.5,1.3-1.4,2.5-1,4.3c8.5-6,15.5-13.2,21.1-21.5
	c2.2-3.2,4.9-6.3,5.5-10.3l0,0c3.9-5.8,6-12.3,7.2-19.2l0,0c1.3-3.2,1.6-6.7,2-10.1c1.8-16.2-0.6-31.7-7.5-46.4
	c-11.5-24.2-30.4-39.7-56-47.3c-3.5-1-7-1.8-11-2.1c0.7,2.9,1.5,5.5,1.6,8c1.5,0.6,2.5-0.6,3.7-0.3c-1.4,1.3-3.2,1.8-5,2.5
	c-3.5,1.3-7.2,2-10.6,3.8c-4.6,2.4-8.4,5.8-12.5,8.9c-0.6-0.6,0.1-0.9,0.3-1.4c0.6-0.6,1.2-1.2,1.8-1.9c2.9-2.2,5.9-4.4,8.8-6.6
	c0.7-0.2,1.4-0.4,1.9-1.1c3-0.9,5.8-2.1,8.9-2.5c1.6-2.1,0.7-7.7-1.5-8.9C109.7,8.8,109.3,9,109.1,9.1z M123.4,86.3
	c-0.3,0.9-0.5,1.9-0.8,2.8c-2.9,7.9-3.9,15.6,1.1,23.1c0.9,1.3,1.7,2.9,1.3,4.5c-1.7,6.7-2.1,13.8-5.3,20.1
	c-3.3,6.7-4.4,14.1-7,21.1c8.2-0.5,24.4-8.2,28-13.3c-3-0.9-2.5-3.8-3.5-5.9c1.3,0.4,1.6,1.4,1.7,2.5c0.1,0.9,0.4,1.6,1.4,1.6
	c1.1,0,2-0.5,2.2-1.6c0.1-1.1,0.1-2.2-0.1-3.3c-1.1-4.9,0.5-8,5.2-9.9c1.1,2.5,0.6,5,0.3,7.5c-0.1,1.2-0.5,2.7,1.5,3
	c1.9,0.2,2.3-1.1,2.7-2.5c1.1-3.8,0.5-7.7,0.6-11.5c0-1.7-0.4-2.8-2.1-3.5c-1.6-0.6-2.8-0.4-4,0.9c-0.6,0.7-1.2,1.6-3,2
	c1.5-1.7,2.5-2.9,3.6-4.1c0.9-1,1.9-0.7,3-0.2c1.1,0.4,2.2,1.4,3.4,0.8c2.3-1.3,4-0.5,5.5,1.5c16.9-36-3.2-78.2-38.8-88.5
	c-0.1,1.8-0.1,1.8,0.6,2.6c3.1,3.1,3.3,4.8,1.3,8.7c-0.8,1.6-1.9,3-3,4.4c-2.3,3-2,4.3,1.2,6.1c1,0.6,2.1,1,3.3,1.7
	c-2.5,3.8-4.4,7.7-5.9,11.8c-1.8,5.1-3.5,10.2-3,15.7c0.2,2.4,0.3,5.5,3.3,6c3.1,0.5,3.9-2.4,5-4.6
	C123.1,85.9,123.2,86.1,123.4,86.3z M62.4,158.3c-0.3-2.4-0.4-4.9,0.4-7.3c0.5-1.4,0.2-2.2-1.1-3.2c-8.3-6.1-15.1-13.7-19.7-22.9
	c-6-12-8.5-24.7-6.8-38.1c1.3-10.1,4.6-19.4,10.1-28c2.9-4.5,6.4-8.5,10.8-13c-9.3,2-16.9,0.4-23.4-5.9
	C12.4,67.6,7.8,97.2,20.6,128.7c8.6,21.2,24,36.5,45.3,45.8C69.4,164.4,68.5,160.2,62.4,158.3z M62.2,13.9
	C57.3,27,48,35.6,34.5,40.1c3.3,3.2,7,4.5,11.1,5.5c3.2,0.8,4.2-0.4,4.8-3.5c1.7-8.5,10.4-15.8,19.5-13.7c0.2-0.2,0.4-0.4,0.5-0.7
	c2.7-10.8-6.8-24.2-18-25.3c-2-0.2-3.1,0.4-3.9,2.3c-1.8,4.4-1.7,9.1-2.4,13.7c-0.9,5.9-4.5,10.1-10.2,11.5c-2.3,0.6-4.6,0.9-7,1.4
	c1.3,7.1,4,8.6,10.2,5.5c1.1-0.6,2.3-1.1,3.4-1.8C50.9,29.6,57.6,22.6,62.2,13.9z M67.8,37.2c4.5-2.4,9.1-4.2,13.8-5.6
	c1.7-0.5,2.7-1.2,1.4-3.4c-2.6-4.6-3.1-9.5-1.1-14.6c0.6-1.6,2.3-2.5,2.6-4.4c-5.3,0.9-10.3,2.4-15.3,4.6
	C73.1,21.8,72.5,29.6,67.8,37.2z M30.4,12.5c-2.8,4.9-3.9,9.9-2.9,15.3c0.2,0.9,0.5,1.4,1.5,1.5c5.3,0.4,9.8-1.2,13.2-5.4
	c0.6-0.7,0.9-1.3,0.3-2.1C39.5,17.5,35.7,14.2,30.4,12.5z M44,21c2.5-6.4,0.7-12.7,3.5-18.2c-5.8-0.7-13.6,3.8-16,8.9
	C36.7,12.9,40,16.8,44,21z M107.7,71.2c-0.7-0.5-1.7-1.2-2.6-1.8c-3.4-2.2-6.9-1.6-9.4,1.8c-1.2,1.6-2.2,3.3-3.3,5
	c-0.4,0.7-0.9,1.5-0.5,2.5c0.9,2,1.7,4.1,2.8,6.9C99.2,80.6,103.3,76.1,107.7,71.2z M73.8,157.9c4.4,0.5,8,3,12,4.4
	c1.5,0.5,3,1.2,4-0.4c1.7-2.5,1.4-5.4,0.3-8c-0.9-2.3-3.3-2.6-5.6-2.4c-0.9,0.1-1.8,0.3-2.6,0.6c-2.6,1.1-5.1,1.6-7.6-0.2
	C73.2,154,73.2,155.8,73.8,157.9z M90.7,176.3c1-7.1-3.3-13.5-9.1-13.8c-0.5,2,0,3.9,0.2,5.8c-0.7,0.9-2.1,0-2.7,1.2
	c-0.1,2.9,0,5.8,0.8,8.7C83.7,178.3,87.1,176.8,90.7,176.3z M89.5,164.9c-0.7,1.1,0.1,1.7,0.4,2.4c1.2,3.1,2.5,6.2,2.1,9.5
	c-0.3,2.4,1.3,2.3,2.3,2.4c1.4,0.2,3.8,0.4,3.7-1.7c0-2.9,0-5.9,0.1-9.4C93.8,170.3,93,164.3,89.5,164.9z M94,151.3
	c-3.7-3.6-4.6-3.5-5.7-0.2c1.2,0.2,1.3-1.6,2.7-1.2c1.4,2.2,2.8,4.6,4.3,7c-1-5.7,2.9-11.1,0.2-16.6c2.9-0.4,5.4,0.1,7.7-1.2
	c-4-0.3-8.1-0.2-12-1.2c-4-1-7.3-3.4-10.8-5.3c1.9,2.6,4.4,4.3,7.3,5.4c6.4,2.5,6.4,2.4,6.4,9.5C94,148.5,94,149.6,94,151.3z
	 M56.9,34c-3.9,3-5.4,6.8-6,11.6c4.1-0.4,7.5-1.4,10.5-3.9C60.1,39.1,59.5,36.2,56.9,34z M63.2,40.5c2.7-2.3,4.5-4.9,5.8-8
	c0.5-1.2,0.5-2.1-1-2.5c-3-0.9-7.7,0.8-9.7,3.4c0.8,1.1,1.7,2.2,2.5,3.4C61.7,37.9,62.3,39.1,63.2,40.5z M153.4,137
	c2.4-3.8,4-7.8,4.7-12.1c0.3-1.9-1-2.9-2.6-3.5c-1.1-0.4-1.9-0.2-1.8,1.1C153.9,127.3,153.9,132.1,153.4,137z M65.1,158.1
	c0.6-2.4,0.6-5,1.8-7.4c0.6-1.1-0.1-2.4-1.5-2.2c-1.6,0.3-2.1,1.9-2,3.2c0.2,2.1-2,4.6,0.9,6.2C64.5,158.2,64.8,158.1,65.1,158.1z
	 M80.7,197.9c-6.7,1-10.6-3.8-15.2-7.2C68.6,196.8,75.3,200,80.7,197.9z M96.1,190.6c2.6-0.1,4.6-1.2,6.6-2.4
	c0.6-0.4,1.1-0.9,0.7-1.7c-0.5-0.9-1.1-0.8-2-0.4c-1.4,0.7-2.9,1.4-4.4,1.8C95.5,188.4,95.7,189.3,96.1,190.6z M70.9,184.4
	c-2.6-5.2-2.4-10.2-0.9-15.4C66.8,173.7,67.2,183.5,70.9,184.4z M81.1,179c4.1,5.2,5.1,5.8,7.4,4.4C85.7,182.8,84.9,179.1,81.1,179z
	 M93.2,181.1c-1.9-2.5-2.7-3.1-4.9-3.4C90.2,180.7,91.9,181.9,93.2,181.1z M85.8,180c1,1.8,2,2.6,3.8,1
	C88.7,179.6,87.5,179,85.8,180z"/>
<path class="st1" d="M160.4,125.5c-0.8-2,0.1-3.7,0.8-5.3c7.7-18.6,7-37.1-1.7-55c-6.6-13.6-17.4-23.6-30.9-30.4
	c-0.7-0.3-1.5-0.5-2.2-0.8c-3.8-1.3-7.5-2.5-7.3-7.6c0-0.9-0.3-2.1-0.9-2.8c-2.4-2.5-1-3.6,1.4-4.6c1.4-0.6,2.9-1.3,3.9-2.7
	c0.8-1.2,0.7-2.3-0.4-3.2c-0.6-0.5-1.4-1.3-1.8,0.2c-1,1.2-2.2,2.1-3.5,2.8c-1.2-0.3-2.2,1-3.7,0.3c0-2.5-0.9-5-1.6-8
	c3.9,0.3,7.5,1.1,11,2.1c25.6,7.5,44.5,23.1,56,47.3c7,14.7,9.4,30.2,7.5,46.4c-0.4,3.4-0.6,6.9-2,10.1c0-0.8,0-1.6-0.2-2.4
	c-0.7-3.2-2.2-5.8-5.5-6.8c-3.1-0.9-6-0.6-8.3,1.8c-2.5,2.5-2.6,5.6-1.6,9c1.2-0.4,2.3-0.4,3.2-1.3c-0.2-2.5,0.1-5,3-6
	c1.9-0.7,3.7-0.1,4.7,1.6c1.5,2.3,1,4.5-0.9,6.4c0.6,1.1,1.1,2,2.2,2.4c1.9-1.1,2.5-3.1,3.5-4.8c-1.2,6.9-3.3,13.4-7.2,19.2
	c0.2-1,0.5-1.9,0.7-2.9c0.5-2.7,0.6-5.5-1.9-7c-2.4-1.5-4.2,0.8-6,2.1c-1.4,1.1-2.4,2.7-4.5,2.8c-1-2.6,0.7-4.4,1.9-6.2
	c-1.1-1.1-2-1.1-3,0c-1.1,1.3-2,2.8-2.1,4.5c-0.1,1.8-0.9,4.1,1.1,5.2c1.8,1,3.4-0.3,4.9-1.3c1.1-0.8,2.2-1.7,3.3-2.5
	c0.7-0.5,1.4-1.1,2.5-0.6c1,2.1-0.7,3.7-1.2,5.5c1.4,1,2.7,2.4,4.2,0.3c-0.7,4.1-3.4,7.1-5.5,10.3c-5.6,8.4-12.5,15.5-21.1,21.5
	c-0.4-1.9,0.5-3,1-4.3c0.8-2.1,1.3-4.3-1.6-5.4c-0.6-4.2-3.6-8-2.4-12.5c2.2-0.5,2.2-3.2,3.8-3.9c1.3-0.8,2.1,1.7,3.3,0.1
	C159.4,135.6,162.4,131.5,160.4,125.5z M164.6,57.9c-4-6.1-4-6.1-1.9-7.3c1.4,2.1,2.9,4.2,4.5,6.5c0.9-0.9,2.1-1.1,2.5-2.3
	c-1.4-2.1-2.9-4.2-4.3-6.2c0.5-0.8,1-1.2,1.9-1.3c1.6,2.2,3.2,4.4,4.9,6.7c1-0.7,1.8-1.3,2.8-2c-2.5-3.6-5-7-7.5-10.5
	c-4.2,3-8.2,5.8-12.3,8.7c2.3,3.3,4.5,6.4,6.7,9.5C163.1,59.5,163.9,58.9,164.6,57.9z M152.2,42.1c-2.7-0.9-4.6-2.1-4.4-5.1
	c0.2-2,1.3-3.3,3.3-3.7c3.1-0.7,4.5,1.3,5.4,3.8c1.1-0.3,2.1-0.3,2.9-1c-0.8-4.9-3.7-7.2-8.1-6.8c-4.2,0.4-7.7,4.6-7.5,8.9
	c0.2,4,3.6,7,8.1,7C152,44.3,152.1,43.3,152.2,42.1z M178.3,59.8c-4.6,2-8.9,3.9-13.3,5.9c1.6,3.5,3,6.6,4.4,9.9
	c1.4-1,2.9-1.1,3.9-2.2c-0.8-1.9-1.6-3.7-2.5-5.7c3.2-1.4,6.1-2.6,9.2-4C179.4,62.2,178.9,61.2,178.3,59.8z M172.3,85.4
	c2.8-0.3,5.7-0.6,8.5-0.9c0.2,1.3,0.4,2.4,0.7,3.7c1.3-0.3,2.6,0.2,3.8-0.7c-0.4-4.1-0.7-8.3-1.1-12.4c-1.5-0.3-2.7-0.1-3.9,0.4
	c-0.5,1.7,0.4,3.4-0.3,5.1c-2.7,0.3-5.4,0.7-8.3,1C171.9,83.1,171.7,84.3,172.3,85.4z M172.4,98.6c4.3,0,8.6,0,12.8,0
	c0-1.5,0-2.7,0-4.1c-4.4,0-8.7,0-13.1,0C172.3,96,171.8,97.3,172.4,98.6z"/>
<path class="st2" d="M122.9,85.7c-1,2.2-1.9,5.2-5,4.6c-3-0.5-3.1-3.7-3.3-6c-0.5-5.5,1.2-10.6,3-15.7c1.5-4.1,3.4-8,5.9-11.8
	c-1.2-0.6-2.3-1.1-3.3-1.7c-3.2-1.8-3.5-3.1-1.2-6.1c1.1-1.4,2.2-2.8,3-4.4c2-3.9,1.8-5.6-1.3-8.7c-0.7-0.8-0.7-0.8-0.6-2.6
	c35.6,10.3,55.7,52.5,38.8,88.5c-1.5-2-3.2-2.8-5.5-1.5c-1.1,0.6-2.3-0.3-3.4-0.8c-1.1-0.4-2-0.8-3,0.2c-0.4-0.2-0.7-0.5-1.1-0.7
	c1.3-1.3,0.4-2.6-0.1-3.8c-1.4-3.2-1.1-7.1-3.6-9.9c-0.6-2.6-1-5.2-1.7-7.8c-0.9-3.3-0.6-6.8-1.8-10.1c-0.5-0.4-1.7,0.2-1.3-1.3
	c0.4-1.4,0.2-3,0.6-4.4c2.2-7.8,0.4-14.8-4.2-21.3c-1.1-1.6-2.4-2.8-4.5-1.8c-1.9,0.9-3.7,1.3-5.9-0.8c1.4,3.7,3.6,3.3,5.6,2.3
	c2.1-1.1,3.1-0.4,3.9,1.5c1.3,3,2.6,6,4.1,8.9c0.8,1.6,1,3.1,0.7,4.8c-0.8,4.8-1.4,9.6-2.1,14.2c1.2,0.7,1.6-0.6,2.4-0.4
	c0.2,1.4,0.3,2.7,0.5,4.1c0.8,4.4,1.7,8.8,2.5,13.3c-2.2,1.2-4.6,1.8-6.9,2.6c-1.8,0.6-2.7,0-3.5-1.6c-1.6-3.2-3.4-6.2-5.2-9.3
	c-0.1-1.6,0-3.2,0.8-4.6c2.8-4.8,0.5-9-0.9-13.9C124.1,81.8,123.6,83.8,122.9,85.7z"/>
<path class="st2" d="M56.3,59.2c-1.8,1.4-3.3,2.8-2.9,5.4c0.1,0.4-0.1,1-0.3,1.4c-1.8,4.2-0.2,7.9,4.2,9.4c0.9,0.3,1.2,0.5,1.5,1.4
	c0.9,2.9,2.8,4.6,6.3,4.4c-0.5,0.7-0.9,1.3-1.4,1.9c3.1,1.8,4.7,5.1,7.3,7.4c0.8,0.7,1.6,1.8,2.7,0.7c1.7-1.6,2.6-0.5,3.7,1.1
	c-5.6,5-11.9,9.5-13.6,18c3.7-0.7,3.8,2.7,5.6,4.1l0,0c-0.5,5.2,1.3,10,3.1,14.7c1.6,4.3,3,8.6,4.5,12.9c1,3,2.5,5.8,4.5,8.4
	c-2.9,1.8-4.3,1.6-6.3-0.8c-1.6-2-3.4-2.5-6-2.3c-3.1,0.3-6.1,0.3-9-2.1c-28.7-23.4-32.3-65.8-7.8-93.5c0.7-0.8,1.1-2.4,2.8-2
	c0.1,2.8,2.3,4.7,3.4,7C57.8,57.6,56.6,58,56.3,59.2z"/>
<path class="st3" d="M62.4,158.3c6,1.9,7,6.1,3.5,16.2c-21.3-9.3-36.7-24.7-45.3-45.8C7.8,97.2,12.4,67.6,32.7,39.9
	c6.6,6.3,14.1,7.9,23.4,5.9c-4.4,4.5-7.9,8.5-10.8,13c-5.5,8.6-8.8,17.9-10.1,28C33.5,100.3,36,113,42,125
	c4.6,9.2,11.4,16.8,19.7,22.9c1.3,1,1.6,1.8,1.1,3.2C62,153.5,62.2,155.9,62.4,158.3z M53.2,146.7c-2.7-3-5.1-5.8-7.7-8.5
	c-1.1-1.2-2.6-2.2-4.2-1.5c-1.8,0.8-2,2.5-1.9,4.3c0,0.3-0.1,0.6-0.1,0.9c-2,0.1-4.3-0.5-5.1,2c-0.8,2.3,0.8,4,2.2,5.5
	c1.9,2.2,3.8,4.3,5.8,6.5C46.1,152.6,49.5,149.7,53.2,146.7z M37.1,55.6c-3,0.7-5.7,0.7-8.4,0.6c-2.7-0.1-4,0.9-4.5,3.6
	c4.1,2.4,8.2,4.8,12.4,7.2c1.1-0.9,1.6-2.1,2.2-3.3c-2-1.8-4.8-2.5-6.8-4.5c4.1-1.4,9.8,2.2,11.8-4.5c-4.2-2.4-8.5-4.9-12.8-7.3
	c-0.8,1.1-1.7,1.9-1.8,3.3C31.7,52.1,34.2,53.7,37.1,55.6z M25.9,67.2c-4.4,0-7.9,3.6-7.9,8c0,4.4,3.5,8,7.9,8
	c4.6,0,8.2-3.6,8.2-8.1C33.9,70.8,30.3,67.2,25.9,67.2z M39,127.8c0-4.6-3.5-8.1-8.1-8c-4.3,0.1-8,3.8-7.9,8c0,4.3,3.7,8,8,8
	C35.5,135.9,39,132.4,39,127.8z M29.4,114.3c2.4,0.6,3.1-0.5,2.8-2.5c-0.1-1-0.3-2-0.6-2.9c-0.8-2.5-2.1-4.4-5-4.2
	c-2.8,0.2-3.2,2.6-3.8,4.7c-0.3,1.1,0.4,2.4-0.9,3.4c-2.8-1.4-1-4-1.3-5.9c-2-0.7-2.9,0-3.1,2c-0.2,2.4,0.1,4.6,1.4,6.6
	c0.9,1.3,2.2,2.1,3.8,1.9c1.6-0.2,2.3-1.5,2.7-2.8c0.4-1.3,0.5-2.7,0.7-4.1c0.1-0.6,0.3-1.3,0.9-1.4c0.8-0.1,1.3,0.4,1.6,1.1
	C29.4,111.3,29.3,112.7,29.4,114.3z M20.4,92.7c-0.1-1.6-0.2-2.8-0.3-4.2c-1.1-0.1-2.2-0.5-3,0.1c0,4.1,0,8,0,11.9
	c1.2,0.1,2.2,0.3,3.3-0.3c0-1.3,0-2.6,0-4.4c3.5,0,6.8,0,10.1,0c0-1.3,0-2.2,0-3.2C27.1,92.7,23.9,92.7,20.4,92.7z"/>
<path class="st1" d="M140.7,149.7c2,3.7,3.4,7.5,3.1,11.9c-0.2,3.1-1.1,6-1.9,9c-0.2,0.9-1,1.2-1.7,1.6c-11.1,5.9-23.1,8.9-35.6,9.6
	c-1.7,0.1-5.7-4.1-5.8-6.1c-0.1-1,0.1-2,0-3c-0.3-2.8,0.4-4.8,3.6-5.5c3.3-0.8,5.7-3.2,7.9-5.7c1-1.1,2-1.9,3.5-2.1
	c9.3-1.7,17.5-5.6,25.3-10.9C139.8,148.5,139.8,149.8,140.7,149.7L140.7,149.7z"/>
<path class="st4" d="M62.2,13.9C57.6,22.6,50.9,29.6,42.6,35c-1.1,0.7-2.2,1.3-3.4,1.8c-6.2,3.1-9,1.6-10.2-5.5
	c2.3-0.5,4.7-0.8,7-1.4c5.7-1.5,9.3-5.7,10.2-11.5c0.7-4.6,0.6-9.3,2.4-13.7c0.8-1.9,1.9-2.5,3.9-2.3c11.2,1.2,20.7,14.5,18,25.3
	c-0.1,0.3-0.3,0.5-0.5,0.7c-9.1-2.1-17.9,5.2-19.5,13.7c-0.6,3-1.6,4.2-4.8,3.5c-4-0.9-7.8-2.2-11.1-5.5C48,35.6,57.3,27,62.2,13.9z
	"/>
<path class="st2" d="M137.2,138.7c0.9,2.1,0.5,5,3.5,5.9c-3.6,5.1-19.8,12.9-28,13.3c2.6-7,3.7-14.4,7-21.1
	c3.1-6.4,3.5-13.4,5.3-20.1c0.4-1.6-0.5-3.2-1.3-4.5c-5-7.5-4-15.3-1.1-23.1c0.3-0.9,0.6-1.9,0.8-2.8c1.1-0.8,0.3-2.8,2-3.2
	c1.8,3.6,1.7,7.1,0,10.7c-0.6,1.3-1.5,2.9-0.4,4.5c0.1,0.4,0.1,0.8,0.3,1.1c3.6,5.9,6.6,12.1,7.4,19.2c0.2,1.9,1.2,3.6,3.4,4
	c1.6,0.3,2.3,2.5,2,2.8c-2.8,2.3-1.1,5.7-2.2,8.4c-0.7,1.5-0.2,2.9,0.8,4.1C136.9,138.1,137,138.4,137.2,138.7z"/>
<path class="st2" d="M96.2,66.9c0.5,1.1-0.1,1.9-0.8,2.7c-2.6,3.3-4.2,7.1-6.3,10.7c0,0,0.1,0,0.1,0c-0.8,0.3-1.5,0.8-2.4,0.1
	c-1.6-0.9-3.3-1-5-1.5c-2.5-0.8-3,0.3-2.8,2.4c0,1.3-0.6,2.5-1.1,3.7c-1.6,0.9-2.1,2.8-3.4,4.1c-1.5,1.5-2.6,1.9-4-0.1
	c-1.4-1.9-3-3.7-4.7-5.6c2.4-3.5,5.6-6.7,7.1-11.1c2.1,2.1,3.2,4.9,6,5.6c-1.9-2.2-4-4.3-5.3-6.9c-1-0.3-1,1-1.9,0.7
	c-0.1-0.2-0.3-0.4-0.4-0.7c-0.8-2.9-1-5.9-1-8.9c0-2.7-1-4.7-3.4-5.8c-3.9-1.7-5.3-5.2-6.4-8.9c-0.5-1.9-0.1-3.7,2-5.1
	c5.5-3.7,11.1-6.9,18-9.1c-0.6,0.9-0.9,1.5-1.2,2c-0.6,1-1.8,1.9-0.7,3.4c1.2,1.5,2.5,2,4.2,1.3c1-0.4,1.9-1.1,2.8-1.7
	c1.4,0.9,0.4,1.9-0.1,2.7c-0.4,0.9-1.4,1.4-1.3,2.5c-0.2,1.1-1.9,1.6-1.3,3.1l-0.2,0.1c-2.8,0.7-5.8,0.7-8.5,1.8
	c-1.6-0.3-3,1.1-4.6,0.3c-0.5-1.3,0.4-2.3,0.7-3.4c0.2-0.9,0.4-1.8-0.6-2.3c-2.1-1.1-4.3-0.3-5.8,0.8c-2.1,1.6-0.4,4,0,6
	c0.4,2,2.1,1.7,3.6,1.5c2.8-0.4,5.6-1.3,8.5-1.2c0.9,0.1,1.8,0.3,2.5-0.5c1.3-0.2,2.5-0.4,4.1-0.6c0.5,5.8,5.4,7.1,9.8,8.9
	c-1.9,1-3.3,0-4.8-0.5c-2.3-0.7-3.8,0.1-4.2,2.3c-0.7,3.2-0.9,6.4,0.5,9.5l0-0.1C83.7,71,84.3,72.7,86,72c3.4-1.5,7.2-2.3,10-5.1
	L96.2,66.9z"/>
<path class="st5" d="M110.6,119.7c-7.7,2.3-14.8,6.1-21.4,10.8c-2.5-1.4-3.6-4.5-6.6-5.4c-1.5-6.2-0.4-12,2.9-17.4
	c3.9-6.4,6.7-13.3,9-20.4c0.2-0.2,0.4-0.4,0.7-0.7c0.8,0,1.7-1,2.4,0.4c-0.4,1.3-1.9,2.5-1.1,4.7c1.2-1.6,2.1,0.5,3.3,0.1
	c0.5-1.1,0-2.4,1.2-3.2c0.6,0.4,1.1,1,1.8,1.3c1.9,0.7,3.2-0.4,2.9-2c-0.4-2,0-3.2,1.7-4.1c0.7-0.4,1.3-1.1,0.7-2
	c-0.4-0.7-1.2-0.6-1.9-0.3c-0.5,0.2-1,0.7-1.6,0.2c0.3-1.7,4.8-2.8,0.8-5.2c0.9-1.1,1.8-2.2,2.6-3.3c0.6-0.9,1.2-1.5,2.4-1
	c2.2,0.8,3.3-0.5,4.1-2.3c1.5-3.2,1.5-6.8,2.7-10c0.5-1.5-1.3-2-1.9-3c1.8-3.1,2.2-3.1,6.7,0.3c-5,9.2-10.5,18.3-8.5,29.6
	c-0.9,0.5-1.8,1.3-3,1.2c-1.3,0-2.7-0.4-3.3,1.2c-0.7,1.7,1.2,2.3,1.8,3.4c-3.1,0.8-3.5,1.9-1.5,4.1c0.4,0.5,0.8,0.9,0.7,1.5
	c0,1.2-0.1,2.6,1.4,2.9c1.4,0.3,2.3-0.9,3-2c0.3-0.4,0.3-1.2,1.2-1.2c1.1,1.6-0.9,2.7-0.6,4.2c2.3,0.9,3.2-0.4,3.8-2.3
	c0.4-1.2-0.2-3,1.8-3.3c-0.9,6.2,0.2,11.8,4.1,16.9c0.8,1,1.3,2.4,0.7,3.7c-0.8,1.5-2.2,0.4-3.3,0.4c-2.3-0.1-4.5,1-6.7,1.1
	c0.2-1.2-1.1-2.4-0.3-3.8c1.7,0.6,3.1,2.7,5.2,1.4c2.4-1.4,0.1-2.9,0-4.4c-0.1-1.5,1.5-3.4-0.4-4.3c-1.7-0.8-2.1,2.1-3.8,2.4
	c-0.1-1,0.7-1.4,1.2-2c0.8-0.8,1.6-1.7,0.7-2.8c-0.9-1.1-2-1.1-3.2-0.4c-1.5,0.9-3,1.5-4.8,1.2c-1.2-0.2-1.9,0.7-2.3,1.6
	c-0.4,1,0.3,1.6,1.1,2.1c0.6,0.4,1.4,0.7,1.3,1.7c-0.7,0.6-1.1-0.1-1.6-0.3c-1-0.6-2.4-1.6-3.1-0.1c-1.1,2.2,0.6,4.4,0.8,6.6
	c0.1,1,1.6,1.4,2.8,0.8c0.4-0.2,0.7-0.7,1.1-1c0.6-0.5,0.9-1.3,1.9-1.4C111.1,117.2,110.6,118.4,110.6,119.7z M102.6,97.3
	c-0.3-1.6,0.2-3.6-2-3.2c-2.1,0.3-3.9,1.3-6.3,0.8c-1.3-0.3-1.8,1.6-1.3,3c0.2,0.6,0.8,1.1,1.4,1.9c-3.6-0.2-4.5,0.9-3.4,3.9
	c0.3,0.8,0.5,1.5,0.1,2.3c-0.6,1.2-0.3,2.2,0.7,2.8c1.2,0.7,2.2,0.1,3.2-0.8c0.8-0.9,1.4-2.2,2.9-2.3c0.9,1.5-0.1,2.3-0.8,3.3
	c-0.4,0.7-1,1.3-0.1,2.1c1.1,0.9,1.5-0.3,2.1-0.8c0.3-0.3,0.4-0.7,0.6-1c0.8-1.5,1.3-3.1,3.9-2.7c1.8,0.3,3.1-1.3,2.4-3.4
	c-0.4-1.3-0.6-2.4-0.1-3.7c0.4-0.8,0.4-1.8-0.4-2.5C104.4,96.1,103.5,96.4,102.6,97.3z M93.1,122.2c1.2,0.2,2.1,0.5,3.1,0.5
	c1.8,0,4-2.3,3.1-3.1c-2.3-2.1-0.7-4-0.1-5.8c-0.9-0.8-1.6-0.7-2.4-0.4c-0.7,0.3-0.9,1.3-2,1.2c-0.1-1.2,1.7-2.3,0.1-3.4
	c-1.3-0.9-2.4-0.1-3.5,0.5c-0.8,0.4-1.7,0.7-2.5,0.8c-4.3,0.6-4.3,0.6-2.6,4.8c-2-0.5-3.9-0.4-3.4,2.2c0.3,1.8,1.2,3.5,2.2,5.1
	c0.7,1,1.9,0.8,2.8-0.2c0.5-0.6,0.6-1.7,1.6-2.1c0.8,1.4,0.5,3.4,2,4.5c1-0.2,1.9-0.6,2.5-1.3C94,124.3,92.7,123.6,93.1,122.2z"/>
<path class="st6" d="M90.4,34.7c3.5-2.7,6.9-5.4,10.4-8c2-1.4,4.1-3.1,6.4-0.4c0.9,1,2.6-0.5,3.5,1.4c1.8,3.7,2.6,7.4,1,11.4
	c-1.1,2.8-3,5.1-4.7,8c2.1,0,3.8,0.5,5.6-0.4c1.1-0.5,1.7-1,1.8-2.4c0.2-2.2,1.4-4.1,2.7-5.9c0.8-1.1,2-1.8,3.4-1.3
	c1.5,0.6,1.9,1.9,1.7,3.5c-0.2,2-1.2,3.6-2.5,5c-1.3,1.4-2.2,2.9-2.4,4.9c-0.5,4.1-6.4,8.7-10.6,8.6c-0.3,0-0.7-0.6-1.2-1
	c-1.7,4.7-5.3,5.6-9.7,4.7c-1-1.3-2.7-2.2-2.4-4.1c0.6-0.6,1.4,0.5,1.9-0.6c-2.2-1.5-4.8-1.8-7.1-3c-2.9-1.6-4.3-3.6-4-6.3
	c3.1,1.7,6.2,3.3,9.2,5c2.3,1.3,4.4,1.1,6.3-0.5c1.1-1,2.3-1.9,3.3-3c0.8-0.8,1.6-1.7,3.4-0.6c-0.8-3.2-3-3.5-4.9-3.6
	c-2.2-0.1-4.1-0.6-5.3-2.6c-0.3-0.4-0.7-1.1-1.5-0.5c0,1.2,1.7,1.7,1.3,3.2c-1.5,1.4-3.8,0-5.3,1.2c-1.6,1.2-3.1,0.9-4.6-0.1
	c-0.1-1.6,0.6-2.5,2.1-3c1.5-0.4,2.9-1.2,3.9-2.4c3.1-3.2,3.5-5.6,1.4-8c0.1,1.1,0.5,2.1,0.3,3.1c-0.2,1.4-0.4,3.1-2.5,3
	C92.3,38.1,90.8,36.5,90.4,34.7z M100.6,38.2c-0.5-4.5,1.5-5.4,4.8-5.4c0.9,0,1.7,0.4,2.5,0.8c0.5,0.3,0.9,0,1.2-0.4
	c0.2-0.4,0.3-0.7,0-1c-1.3-1.4-2.6-3.4-4.5-3.2c-3.2,0.3-6.7,0.8-9.1,3.6c1.1,1.7,2.6,2.7,4.7,2.9c-1,3.2-0.7,5.7,3.1,6.3
	c0.2-1.4-2-1-1.6-2.4c3.3-0.5,6.9-0.4,9-3.7C107.6,37.5,104.4,38.8,100.6,38.2z M118.3,44.6c-0.4-2.1,1.3-3.5,2.4-6.1
	c-2.9,1.4-4.3,2.9-5,5C116.4,44.4,117,44.8,118.3,44.6z"/>
<path class="st5" d="M67.6,103.8c1.6-2.3,3.4-4.5,5.7-6.2c1,0.6,2.1-0.1,3.2,0.3c0.6,1.6,0.1,3.2,0.2,4.7c0.1,0.7,0.1,1.4,1.1,1.5
	c1.1,0.1,1.2-0.5,1.5-1.3c0.4-1.4-0.1-3,1.2-4.3c1,1.2,2,3.1,3.8,1.9c2.2-1.4,3.6-3.8,4.2-6.3c0.4-1.7-1.9-0.9-2.6-1.8
	c0.1-1.1,1.5-1.4,1.5-2.6c-0.7-1.3-2.1-1.5-3.5-1.8c0.5-1.1,2-1.7,1.8-3.2l0-0.2l0.2,0c2-0.7,2.9-2.3,3.3-4.2c0,0-0.1,0-0.1,0
	c0.5-0.4,1.1-0.7,1.7-1.1c1.4,2.3,2.1,4.7,2.7,7.1c0,1.4-0.6,2.7-1,4c-2.1,6.8-5.9,12.8-8.9,19.1c-2.4,5.1-3.8,10.2-1.7,15.8
	c-0.2,2-1.9,2.6-3.4,4.2c-1-5.3-4.6-8.6-6.8-12.6c0.3-1.8,1.3-1.8,2.5-0.9c1.5,1.1,2.8,0.4,3.1-0.9c0.5-2.4,0.5-5,0.7-7.5
	c0-0.3-0.5-0.6-0.6-0.8c-2.1,0-2.8,2.4-4.9,2.7c0.3-1.6,1.5-2.5,1.4-3.9c-0.8-0.8-1.5-1.4-2.8-0.9C69.8,105.1,68.6,104.9,67.6,103.8
	z"/>
<path class="st7" d="M55.8,49.7c0-2.4,1.3-3.7,3.2-4.7c1.4,0.6,1,1.8,1.1,2.7c0.3,4,2.3,7,5.7,9c2.3,1.3,3.1,3,3,5.6
	c-0.1,3.3,0.4,6.6,2.1,9.5c0.8,1.3,0.5,2.3-0.2,3.3c-0.8,1.2-1.9,2.3-3.1,3.2c-1.8,1.3-3.7,2-5.8,0.8c-2.2-1.2-2-3.1-1.6-5.2
	c-3.7,0.7-5.4-0.2-6.9-3.4c-0.1-0.3-0.4-0.6-0.3-0.8c1-2.8,1.7-5.7,2.3-8.6c1.8,0.6,1.6,1.4,1.4,2.3c-0.3,1.2-0.9,2.3-1.1,3.6
	c-0.3,1.8-0.6,3.4,1,4.6c1.7,1.2,2.7-0.5,4.2-1.1c1.3,2.2,1.8,5.2,5.1,5.5c1.2,0.1,2-0.6,2.4-1.8c-5.5,1.3-6.4-1.1-6.6-7.6
	c-1.1,1.3-2,2.5-3,3.7c-0.5,0.5-1.2,0.8-1.9,0.4c-0.6-0.4-0.6-1-0.5-1.6c0.5-2.3,1.1-4.6,1.7-6.9c0.4-1.4,1.5-1.7,2.8-1.8
	c1.7-0.2,3.3-0.5,5.3-0.8c-1.8-1.5-4-0.1-5.4-1.5C58.7,55.4,56.9,52.7,55.8,49.7z"/>
<path class="st4" d="M148.3,143.1c-1.2,4.6,1.7,8.3,2.4,12.5c1.5,2.1,1.7,3.8-0.2,6c-1.8,2.1-2.2,5.1-0.8,7.6
	c1.5,2.7,1.7,5.2,1.4,8.2c-0.5,4-0.1,8.1-0.1,12.2c0,0.7-0.1,1.3-0.7,2.1c-0.7-3.5-1.6-6.9-2.1-10.4c-0.5-3.6-1.1-7-3.7-9.8
	c-1-1.1-0.5-2.4-0.3-3.7c0.8-4.3,1.7-8.6,0.3-12.9c-0.7-2.1-1.5-4.1-3.6-5.2l0,0c-0.3-2.1,0.3-4.1,1.2-5.7c1.2-2.3,1.3-4.5,1.2-6.9
	c0-0.8-0.2-1.6,0.3-2.3c0.8-1.1,0.7-3.4,2.8-2.9c2,0.4,0.9,2.2,0.9,3.4c0,1.2-0.1,2.6,0.8,3.4C149.6,140.1,149.1,141.6,148.3,143.1z
	"/>
<path class="st1" d="M67.8,37.2c4.7-7.6,5.2-15.3,1.5-23.5c5-2.2,9.9-3.7,15.3-4.6c-0.3,1.9-2,2.8-2.6,4.4c-2.1,5.1-1.5,10,1.1,14.6
	c1.2,2.2,0.3,2.9-1.4,3.4C76.9,33,72.3,34.8,67.8,37.2z"/>
<path class="st7" d="M137.2,138.7c-0.2-0.3-0.3-0.5-0.5-0.8c0.5-4.5-0.9-9.7,4.5-12.5c0.3-0.2,0.6-0.8,0.6-0.8
	c-1.2-1.4-2.5,1.2-3-0.8c-0.4-1.7,1.3-1.3,2.2-1.7c1.9-0.7,3.5-1.9,5.1-3.1c0.4,0.2,0.7,0.5,1.1,0.7c-1,1.2-2.1,2.3-3.6,4.1
	c1.8-0.4,2.4-1.3,3-2c1.2-1.3,2.4-1.5,4-0.9c1.7,0.7,2.1,1.8,2.1,3.5c-0.1,3.9,0.5,7.7-0.6,11.5c-0.4,1.4-0.8,2.7-2.7,2.5
	c-2-0.3-1.7-1.8-1.5-3c0.3-2.5,0.8-5.1-0.3-7.5c-4.7,1.9-6.3,5-5.2,9.9c0.2,1.1,0.3,2.2,0.1,3.3c-0.1,1.2-1.1,1.6-2.2,1.6
	c-1,0-1.3-0.7-1.4-1.6C138.8,140,138.5,139.1,137.2,138.7z"/>
<path class="st4" d="M30.4,12.5c5.3,1.7,9.1,5,12.1,9.3c0.6,0.8,0.3,1.4-0.3,2.1c-3.4,4.2-7.9,5.8-13.2,5.4c-1-0.1-1.3-0.5-1.5-1.5
	C26.5,22.4,27.6,17.4,30.4,12.5z"/>
<path class="st8" d="M110.6,119.7c0-1.2,0.5-2.5-0.1-3.8c-1,0.1-1.3,1-1.9,1.4c-0.4,0.3-0.7,0.8-1.1,1c-1.2,0.5-2.7,0.2-2.8-0.8
	c-0.2-2.2-1.9-4.4-0.8-6.6c0.7-1.4,2.1-0.5,3.1,0.1c0.5,0.3,0.9,0.9,1.6,0.3c0.1-1-0.7-1.3-1.3-1.7c-0.9-0.5-1.6-1-1.1-2.1
	c0.4-0.9,1.1-1.8,2.3-1.6c1.8,0.3,3.3-0.3,4.8-1.2c1.2-0.7,2.4-0.7,3.2,0.4c0.9,1.1,0.1,2-0.7,2.8c-0.5,0.5-1.3,1-1.2,2
	c1.7-0.3,2.1-3.2,3.8-2.4c1.9,0.9,0.3,2.8,0.4,4.3c0.1,1.5,2.3,3,0,4.4c-2.1,1.3-3.4-0.8-5.2-1.4c-0.7,1.4,0.5,2.5,0.3,3.8
	C112.9,119.5,111.6,119.1,110.6,119.7z"/>
<path class="st4" d="M44,21c-4-4.2-7.3-8.1-12.5-9.4c2.4-5.1,10.1-9.6,16-8.9C44.7,8.3,46.5,14.6,44,21z"/>
<path class="st9" d="M107.7,71.2c-4.4,4.8-8.5,9.4-13,14.3c-1.1-2.8-1.9-4.9-2.8-6.9c-0.5-1,0-1.8,0.5-2.5c1-1.7,2.1-3.4,3.3-5
	c2.4-3.3,5.9-4,9.4-1.8C106.1,70.1,107,70.8,107.7,71.2z"/>
<path class="st10" d="M73.8,157.9c-0.6-2.2-0.6-4,0.6-5.9c2.5,1.7,5,1.3,7.6,0.2c0.8-0.3,1.7-0.6,2.6-0.6c2.3-0.2,4.7,0,5.6,2.4
	c1,2.6,1.3,5.5-0.3,8c-1,1.6-2.6,0.9-4,0.4C81.8,161,78.3,158.4,73.8,157.9z"/>
<path class="st1" d="M90.7,176.3c-3.6,0.4-7,2-10.8,1.9c-0.8-2.9-0.9-5.9-0.8-8.7c0.7-1.2,2-0.2,2.7-1.2c-0.2-1.9-0.7-3.8-0.2-5.8
	C87.5,162.8,91.7,169.2,90.7,176.3z"/>
<path class="st11" d="M119,96.5c-2,0.3-1.4,2.1-1.8,3.3c-0.6,1.9-1.5,3.3-3.8,2.3c-0.3-1.5,1.7-2.7,0.6-4.2c-0.9,0-0.9,0.7-1.2,1.2
	c-0.8,1.1-1.6,2.3-3,2c-1.5-0.3-1.4-1.7-1.4-2.9c0-0.7-0.3-1.1-0.7-1.5c-2-2.1-1.6-3.2,1.5-4.1c-0.7-1.1-2.5-1.7-1.8-3.4
	c0.6-1.6,2.1-1.2,3.3-1.2c1.2,0,2-0.7,3-1.2c1.6,2.3,2.4,5.3,5.8,5.6C120,93.9,119.1,95.1,119,96.5z"/>
<path class="st8" d="M83.9,87.9c1.3,0.3,2.7,0.5,3.5,1.8c0,1.2-1.4,1.5-1.5,2.6c0.7,0.9,2.9,0.1,2.6,1.8c-0.6,2.5-1.9,4.9-4.2,6.3
	c-1.8,1.2-2.7-0.7-3.8-1.9c-1.3,1.3-0.8,3-1.2,4.3c-0.3,0.9-0.4,1.5-1.5,1.3c-0.9-0.1-1-0.8-1.1-1.5c-0.1-1.6,0.4-3.2-0.2-4.7
	c-1.1-0.4-2.2,0.3-3.2-0.3c2.3-2.2,4.7-4.4,7-6.6C81.5,89.9,82.7,88.9,83.9,87.9z"/>
<path class="st12" d="M117.7,16.2c1.4-0.7,2.6-1.6,3.5-2.8c2.4,1.4,2.5,2.3,0.1,3.8c-3.3,2.1-7,3.3-10.7,4.3
	c-6,1.6-11.2,4.2-15.8,8.5c-3.1,2.9-6.8,5.2-10.2,7.7c-1.2,0.9-2.6,1.8-4.6,0.5c2.9-2,5.6-3.9,8.4-5.8c0.6-0.1,1.1-0.4,1.3-1
	c4.1-3.1,7.9-6.6,12.5-8.9c3.4-1.7,7.1-2.5,10.6-3.8C114.5,18,116.3,17.5,117.7,16.2z"/>
<path class="st13" d="M67.6,103.8c1,1.1,2.3,1.3,3.6,0.8c1.3-0.5,2.1,0.1,2.8,0.9c0,1.4-1.2,2.3-1.4,3.9c2-0.3,2.8-2.7,4.9-2.7
	c0.2,0.2,0.6,0.5,0.6,0.8c-0.1,2.5-0.2,5.1-0.7,7.5c-0.3,1.3-1.6,2-3.1,0.9c-1.2-0.9-2.2-0.9-2.5,0.9c-1.1-0.4-1-2.2-2.3-2.4
	c0,0,0,0,0,0c0-1.7-0.7-3.5-2-4.1c-3.3-1.5-1.7-3.3-0.8-5.1C66.9,104.7,67.2,104.3,67.6,103.8z"/>
<path class="st14" d="M105.5,76.6c4,2.4-0.5,3.5-0.8,5.2c0.6,0.5,1.1,0,1.6-0.2c0.7-0.3,1.4-0.4,1.9,0.3c0.5,0.9-0.1,1.6-0.7,2
	c-1.7,1-2.1,2.1-1.7,4.1c0.3,1.6-1,2.7-2.9,2c-0.7-0.3-1.3-0.8-1.8-1.3c-1.2,0.8-0.7,2.1-1.2,3.2c-1.2,0.4-2.1-1.7-3.3-0.1
	c-0.8-2.2,0.8-3.4,1.1-4.7c-0.8-1.4-1.6-0.4-2.4-0.4C97.9,82.6,102.1,80,105.5,76.6z"/>
<path class="st15" d="M86.2,47.3c1.5,1,3,1.3,4.6,0.1c1.5-1.2,3.8,0.1,5.3-1.2c0.4-1.5-1.2-2-1.3-3.2c0.8-0.5,1.2,0.1,1.5,0.5
	c1.2,2,3.1,2.5,5.3,2.6c2,0.1,4.1,0.4,4.9,3.6c-1.8-1.1-2.6-0.2-3.4,0.6c-1.1,1-2.2,2-3.3,3c-2,1.7-4,1.9-6.3,0.5
	c-3-1.7-6.1-3.3-9.2-5c-0.3,2.7,1,4.7,4,6.3c2.3,1.2,4.9,1.5,7.1,3c-0.5,1-1.3,0-1.9,0.6c-0.3,2,1.5,2.8,2.4,4.1
	c-0.2,0.2-0.4,0.4-0.7,0.6c-2.1-2.6-4.8-4.1-8.1-4.8c-2-0.4-2.8,0.1-3.1,1.9c-0.4,3-0.4,6-0.2,8.9c-1.3-3.1-1.1-6.3-0.5-9.5
	c0.5-2.2,1.9-3.1,4.2-2.3c1.4,0.5,2.8,1.5,4.8,0.5c-4.5-1.8-9.3-3.1-9.8-8.9c-1.5,0.2-2.8,0.4-4.1,0.6c-0.4-0.1-0.7-0.1-1.9-0.4
	c3.5-0.4,6.2-0.8,8.9-1C86.4,48.3,86.1,47.8,86.2,47.3L86.2,47.3z M103.6,47.7c-2.6,0.3-4.8-1.4-7.7-0.3c-2.4,0.9-5.2,1-7.6,2.1
	C95.7,55.3,98.3,55.6,103.6,47.7z"/>
<path class="st16" d="M89.5,164.9c3.5-0.6,4.2,5.4,8.6,3.1c-0.1,3.5-0.1,6.5-0.1,9.4c0,2.1-2.3,1.9-3.7,1.7c-1-0.1-2.6-0.1-2.3-2.4
	c0.4-3.2-0.8-6.4-2.1-9.5C89.6,166.6,88.8,166,89.5,164.9z"/>
<path class="st17" d="M94,151.3c0-1.7,0-2.7,0-3.8c0-7.1,0-7.1-6.4-9.5c-2.9-1.1-5.4-2.8-7.3-5.4c3.5,2,6.8,4.3,10.8,5.3
	c4,1,8,0.9,12,1.2c-2.3,1.3-4.8,0.7-7.7,1.2c2.8,5.5-1.2,10.9-0.2,16.6c-1.5-2.4-3-4.8-4.3-7c-1.4-0.5-1.5,1.4-2.7,1.2
	C89.4,147.7,90.4,147.7,94,151.3z"/>
<path class="st4" d="M56.9,34c2.5,2.2,3.2,5.1,4.5,7.8c-3,2.4-6.4,3.5-10.5,3.9C51.5,40.8,53,37,56.9,34z"/>
<path class="st4" d="M63.2,40.5c-0.9-1.4-1.5-2.6-2.3-3.7c-0.8-1.1-1.6-2.2-2.5-3.4c2-2.7,6.7-4.4,9.7-3.4c1.4,0.4,1.5,1.3,1,2.5
	C67.7,35.5,65.9,38.2,63.2,40.5z"/>
<path class="st18" d="M85.9,84.4l-0.2,0l0,0.2c-1.8,1.8-3.6,3.6-5.5,5.4c-0.9,0.4-1.6,1.7-2.7,0.4c-0.8-1-1.2-1.9-0.4-3.1
	c0.4-0.7,1-1.5,0.8-2.4c0.5-1.2,1.1-2.4,1.1-3.7c0.7-1,1.3-1.8,2.8-1.1c1.1,0.5,2.5,0.6,3.7,0.9c0.6,0.2,1.2,0.4,2.1,0.6
	C86.9,82.6,86.4,83.5,85.9,84.4z"/>
<path class="st19" d="M91.8,28.1c-0.6,0.6-1.2,1.2-1.8,1.9c-0.2-0.6,0.1-1.4-0.9-1.7c-0.7,1-1.2,2.3-2.4,3
	c-3.6-3.6-2.9-7.5,1.8-10.3c0.8,0.5,1.6,0.9,2.5,1.4c0.1-1,0.4-1.8,1.7-1.8c1,1.1,0.9,2.8,2,3.8c-0.6,1.2-1.6,1.3-2.5,1.6
	C90.8,26.4,90.9,27.2,91.8,28.1z"/>
<path class="st20" d="M83.8,69.5c-0.2-3-0.2-6,0.2-8.9c0.3-1.8,1.1-2.4,3.1-1.9c3.3,0.7,6,2.3,8.1,4.8c0.6,0.6,1.2,1.3,1.8,1.9
	c0,0.3,0,0.7,0,1c-0.3,0.2-0.5,0.3-0.8,0.5c0,0-0.3,0-0.3,0c-1.6-0.3-2.7,1.4-4.3,1.3c-0.2-0.6-1.3-0.6-1-1.6
	c0.8-0.6,1.8,0.8,2.6-0.7c-0.6-0.7,0-1.8-0.3-2.6c-0.8-1-1.5,0-2.1-0.2c-0.4-0.6,0.6-1.6-0.5-2.1c-1.1,0-2.2,0-3.2,0
	c-0.8,0.7-0.2,1.4-0.4,2.1c-0.7,0.2-1.8-0.8-2,0.2c-0.4,1.6,0,3.3,0.9,4.6c1.2,0.5,1.6-0.9,2.7-0.7c0.1,0.7,0.1,1.5,0.2,2.3
	C87,70.8,85.3,72,83.8,69.5L83.8,69.5z"/>
<path class="st21" d="M95.3,15.5c1.6-1.6,3.9-2.1,5.8-3.3c0.6,0.9,0.5,1.9,0.4,2.8c5.4-2.6,1.5,2.7,3.1,3c-0.3,1.4-3.6-0.4-2,2.5
	c-0.5,0.6-1.1,0.9-1.9,1.1c-1.5-2.6-1.9,1.6-3.3,0.6c-0.8-1.3-2.6-1.8-3.3-3.1c0.3-1.6,2.2-0.5,2.6-2C96.2,16.5,95.8,16,95.3,15.5z"
	/>
<path class="st20" d="M102.5,20.4c-1.6-2.8,1.8-1.1,2-2.5c-1.5-0.2,2.3-5.6-3.1-3c0.2-0.9,0.2-1.9-0.4-2.8c2.6-1.2,5.1-2.6,7.9-3.1
	c0.6,1.2,0.5,2-1.1,2.4c-1.5,0.4-2.1,1.2-1.2,3.1c1.3,2.8,2.6,2.5,4.3,0.5c0.6,1,0.3,1.9,0.3,2.8C108.3,18.3,105.5,19.5,102.5,20.4z
	"/>
<path class="st22" d="M108.4,60.1c2.2-0.9,4.5-1.3,7.1-1.3c0.6,4.3-0.7,8.1-2.5,11.5c-1.3,2.5-3.4,0.5-5.1-0.4c1-0.8,1.9-1.7,2-3
	c3.7,0.9,2.2-2.5,3.4-3.6C111.5,62.1,109.9,61.1,108.4,60.1z"/>
<path class="st23" d="M153.4,137c0.5-4.9,0.5-9.7,0.3-14.5c-0.1-1.3,0.7-1.5,1.8-1.1c1.6,0.6,2.9,1.6,2.6,3.5
	C157.4,129.3,155.8,133.3,153.4,137z"/>
<path class="st24" d="M108.4,60.1c1.6,1,3.1,2,4.9,3.1c-1.2,1.2,0.3,4.6-3.4,3.6c-0.1,1.4-1,2.2-2,3c-0.4-0.3-0.7-0.6-1.1-1
	c0.7-0.9,0.6-1.8,0.4-2.7c-0.8-0.7-1.7,0.9-2.5-0.6c1-0.7-0.3-3.1,1.5-3.1c2.1-0.1,0.7-1.3,1-1.9C107.5,60.4,107.9,60.2,108.4,60.1z
	"/>
<path class="st25" d="M95.3,15.5c0.4,0.5,0.9,1,1.3,1.5c-0.4,1.5-2.2,0.4-2.6,2c0.7,1.3,2.5,1.8,3.3,3.1c1.4,1,1.7-3.2,3.3-0.6
	c-2.9,2.2-5.9,4.4-8.8,6.6c-0.8-0.9-1-1.7,0.4-2.2c0.9-0.3,1.9-0.4,2.5-1.6c-1.2-0.9-1.1-2.7-2-3.8c-1.3,0.1-1.6,0.9-1.7,1.8
	c-0.9-0.5-1.7-1-2.5-1.4C90.3,18.5,92.9,17,95.3,15.5z"/>
<path class="st26" d="M82,125.2c-2.2-5.5-0.8-10.7,1.7-15.8c3.1-6.3,6.8-12.3,8.9-19.1c0.4-1.3,1-2.6,1-4c0.3,0.4,0.7,0.8,1,1.1
	c-2.3,7.1-5,14-9,20.4c-3.3,5.4-4.5,11.2-2.9,17.4C82.4,125.2,82.2,125.2,82,125.2z"/>
<path class="st27" d="M160.4,125.5c2,6-1,10.1-5.1,13.9c-1.2-2,0.9-3.4,1.2-5.1c0.6-2.8,2-5.5,2.8-8.4
	C159.5,125.3,159.9,125.4,160.4,125.5z"/>
<path class="st28" d="M111.4,17.9c-0.1-0.9,0.3-1.8-0.3-2.8c-1.7,1.9-3,2.2-4.3-0.5c-0.9-1.9-0.3-2.7,1.2-3.1
	c1.5-0.5,1.6-1.2,1.1-2.4c0.3,0,0.7-0.2,0.9-0.1C112.1,10.2,113.1,15.8,111.4,17.9z"/>
<path class="st29" d="M79.5,165.2c0.9,0.1,1.5,0.7,1.2,1.6c-0.2,0.9-1,0.9-1.7,0.9c-0.8,0-1.6,0-2.4,0c-5.9-0.1-6-0.2-5.1-6.4
	c1.4-0.6,2.9-0.1,4.3-0.1c1.4,0,2.8,0.2,4.2,0.7c-2.4,0.8-4.9,0.1-7.4,0.3c-0.3,1.5-0.7,3.1,1,3.8c1.7,0.7,3.7,1.1,5.2-0.6
	C79.1,165.3,79.3,165.3,79.5,165.2z"/>
<path class="st15" d="M90.4,34.7c0.5,1.8,1.9,3.3,1.1,5.4c-1,1.1,0.7,1.1,0.7,1.8c-1,1.2-2.4,2-3.9,2.4c-1.5,0.4-2.2,1.4-2.1,3l0,0
	c-0.4-0.2-0.9-0.4-1.3-0.6c0.8-1.4,2.3-2.6,1.2-4.6c-0.7,0.5-1.3,0.9-1.8,1.3c-0.1-1.1,0.9-1.7,1.3-2.5c0.4-0.9,1.5-1.8,0.1-2.7
	c0.6-0.9,1.1-0.1,1.7,0.1c-0.7,3.5-0.7,3.5,1.6,4.2c0.1-1.9,0.6-3.6,2-4.8c-0.1-1.2-1.2-1.1-1.6-1.8C89.6,35.5,90,35.1,90.4,34.7z"
	/>
<path class="st30" d="M65.1,158.1c-0.3,0-0.6,0.1-0.7,0c-2.9-1.7-0.7-4.2-0.9-6.2c-0.1-1.3,0.4-3,2-3.2c1.4-0.2,2,1.1,1.5,2.2
	C65.7,153.1,65.7,155.7,65.1,158.1z"/>
<path class="st31" d="M80.7,197.9c-5.4,2.1-12.1-1.1-15.2-7.2C70.1,194.1,74.1,198.9,80.7,197.9z"/>
<path class="st32" d="M125,98.3c-1.1-1.6-0.2-3.2,0.4-4.5c1.7-3.6,1.8-7.1,0-10.7c-1.7,0.4-0.9,2.4-2,3.2c-0.1-0.2-0.3-0.4-0.4-0.6
	c0.7-1.9,1.2-3.9,2.7-6c1.4,4.8,3.7,9.1,0.9,13.9c-0.8,1.4-0.9,3-0.8,4.6C125.5,98.2,125.2,98.2,125,98.3z"/>
<path class="st33" d="M107,60.6c-0.3,0.6,1.2,1.8-1,1.9c-1.9,0.1-0.5,2.4-1.5,3.1c0.8,1.4,1.7-0.1,2.5,0.6c0.2,0.9,0.4,1.9-0.4,2.7
	c-0.6-0.3-1.3-0.6-1.9-0.9c-4.2-2.2-4.2-3.6-0.1-6.2C105.5,61.4,106.3,61,107,60.6z"/>
<path class="st34" d="M96.1,190.6c-0.5-1.3-0.7-2.2,0.9-2.7c1.5-0.4,3-1.1,4.4-1.8c0.8-0.4,1.5-0.5,2,0.4c0.4,0.8-0.1,1.3-0.7,1.7
	C100.7,189.4,98.7,190.5,96.1,190.6z"/>
<path class="st35" d="M70.9,184.4c-3.7-0.9-4.1-10.7-0.9-15.4C68.5,174.2,68.3,179.2,70.9,184.4z"/>
<path class="st36" d="M89.3,35.9c0.4,0.6,1.5,0.6,1.6,1.8c-1.4,1.2-1.8,2.9-2,4.8c-2.3-0.7-2.3-0.7-1.6-4.2
	C87.9,37.4,87.8,36.1,89.3,35.9z"/>
<path class="st37" d="M81.1,179c3.8,0,4.6,3.7,7.4,4.4C86.2,184.9,85.2,184.3,81.1,179z"/>
<path class="st38" d="M55.8,49.7c1.2,3,3,5.7,4.8,8.3c-1.1,0.6-2.2,1.2-3.3,1.9c-1,0.6-0.9-0.2-0.9-0.8c0.3-1.1,1.5-1.5,2.2-2.5
	c-1-2.3-3.3-4.1-3.4-7C55.3,49.7,55.5,49.7,55.8,49.7z"/>
<path class="st39" d="M79.5,165.2c-0.2,0.1-0.4,0.1-0.6,0.2c-1.8-0.6-4.3,1.1-5.6-1.7C75.3,164.5,78.2,161.6,79.5,165.2z"/>
<path class="st40" d="M97,66.4c0-0.3,0-0.7,0-1c1.2-1.3,2.5-1.6,4.2-0.9c-0.2,1.2-0.6,2.3-1.2,3.1C98.6,67.9,98.1,66.3,97,66.4z"/>
<path class="st41" d="M93.2,181.1c-1.3,0.8-3-0.4-4.9-3.4C90.5,178,91.3,178.6,93.2,181.1z"/>
<path class="st42" d="M86.6,31.2c1.2-0.7,1.7-1.9,2.4-3c1.1,0.3,0.7,1.1,0.9,1.7c-0.2,0.4-0.9,0.8-0.3,1.4c-0.2,0.6-0.7,0.9-1.3,1
	C87.5,32.4,87,31.9,86.6,31.2z"/>
<path class="st43" d="M85.8,180c1.7-1.1,2.8-0.4,3.8,1C87.9,182.7,86.8,181.9,85.8,180z"/>
<path class="st44" d="M80.2,90.1c1.8-1.8,3.6-3.6,5.5-5.4c0.2,1.5-1.3,2.1-1.8,3.2c-1.2,1-2.4,2-3.6,3
	C80.2,90.6,80.2,90.4,80.2,90.1z"/>
<path class="st45" d="M164.6,57.9c-0.7,1-1.6,1.5-2.7,2c-2.2-3.1-4.4-6.2-6.7-9.5c4.1-2.9,8.1-5.7,12.3-8.7c2.5,3.5,5,6.9,7.5,10.5
	c-1,0.7-1.7,1.2-2.8,2c-1.7-2.3-3.3-4.5-4.9-6.7c-0.9,0.1-1.4,0.5-1.9,1.3c1.4,2,2.8,4.1,4.3,6.2c-0.5,1.2-1.7,1.4-2.5,2.3
	c-1.6-2.3-3-4.4-4.5-6.5C160.7,51.9,160.7,51.9,164.6,57.9z"/>
<path class="st46" d="M152.2,42.1c-0.1,1.2-0.2,2.2-0.3,3.1c-4.6,0-7.9-2.9-8.1-7c-0.2-4.3,3.2-8.5,7.5-8.9c4.5-0.5,7.3,1.9,8.1,6.8
	c-0.8,0.7-1.7,0.7-2.9,1c-1-2.5-2.3-4.5-5.4-3.8c-2,0.4-3.1,1.7-3.3,3.7C147.5,40,149.5,41.2,152.2,42.1z"/>
<path class="st47" d="M185,114.3c-1,1.7-1.6,3.7-3.5,4.8c-1.1-0.4-1.6-1.3-2.2-2.4c1.9-1.9,2.4-4.1,0.9-6.4
	c-1.1-1.6-2.8-2.3-4.7-1.6c-2.9,1-3.1,3.5-3,6c-0.9,0.9-2,0.8-3.2,1.3c-1-3.5-0.9-6.5,1.6-9c2.3-2.3,5.3-2.6,8.3-1.8
	c3.4,1,4.9,3.6,5.5,6.8C185,112.8,184.9,113.6,185,114.3L185,114.3z"/>
<path class="st47" d="M177.8,133.5c-1.5,2.1-2.8,0.6-4.2-0.3c0.5-1.9,2.2-3.5,1.2-5.5c-1.1-0.6-1.8,0-2.5,0.6
	c-1.1,0.8-2.2,1.7-3.3,2.5c-1.5,1-3.1,2.4-4.9,1.3c-2-1.1-1.3-3.4-1.1-5.2c0.1-1.7,1-3.2,2.1-4.5c0.9-1.1,1.8-1.1,3,0
	c-1.2,1.8-2.9,3.6-1.9,6.2c2.1-0.1,3.1-1.8,4.5-2.8c1.8-1.4,3.6-3.6,6-2.1c2.5,1.5,2.4,4.3,1.9,7C178.3,131.6,178,132.6,177.8,133.5
	L177.8,133.5z"/>
<path class="st46" d="M178.3,59.8c0.6,1.4,1.1,2.4,1.7,3.8c-3.1,1.3-6,2.6-9.2,4c0.9,2,1.7,3.9,2.5,5.7c-1,1.2-2.5,1.3-3.9,2.2
	c-1.5-3.3-2.9-6.4-4.4-9.9C169.4,63.7,173.7,61.8,178.3,59.8z"/>
<path class="st46" d="M172.3,85.4c-0.7-1.1-0.4-2.3-0.5-3.7c2.8-0.4,5.6-0.7,8.3-1c0.7-1.7-0.2-3.4,0.3-5.1c1.2-0.5,2.4-0.7,3.9-0.4
	c0.4,4.1,0.7,8.2,1.1,12.4c-1.3,0.8-2.5,0.3-3.8,0.7c-0.2-1.3-0.4-2.4-0.7-3.7C178,84.8,175.2,85.1,172.3,85.4z"/>
<path class="st48" d="M172.4,98.6c-0.6-1.3-0.1-2.6-0.3-4.1c4.4,0,8.6,0,13.1,0c0,1.3,0,2.6,0,4.1C181,98.6,176.7,98.6,172.4,98.6z"
	/>
<path class="st49" d="M125,98.3c0.2,0,0.5,0,0.7,0c1.7,3.1,3.6,6.2,5.2,9.3c0.8,1.6,1.7,2.2,3.5,1.6c2.3-0.8,4.7-1.4,6.9-2.6
	c0.4-0.4,0.7-0.8,1.1-1.1c2.4,2.8,2.2,6.7,3.6,9.9c0.5,1.1,1.4,2.5,0.1,3.8c-1.6,1.1-3.2,2.3-5.1,3.1c-0.9,0.3-2.6,0-2.2,1.7
	c0.5,2,1.8-0.7,3,0.8c0,0-0.3,0.6-0.6,0.8c-5.3,2.8-4,8-4.5,12.5c-1-1.3-1.4-2.6-0.8-4.1c1.2-2.7-0.5-6.1,2.2-8.4
	c0.3-0.3-0.4-2.5-2-2.8c-2.2-0.4-3.2-2.1-3.4-4c-0.9-7-3.8-13.2-7.4-19.2C125.1,99.1,125.1,98.6,125,98.3z M132.3,110.9
	c0.3,3.2,1.3,6.2,2.4,9.3c0.3,0.8,1,0.9,1.7,0.9c3.6,0.1,6.7-1,9.4-3.5c-1.2-2.8-2.1-5.5-2.6-8.3c-0.4-2-1.2-2.2-2.8-1.3
	C137.9,109.2,135.3,110.2,132.3,110.9z"/>
<path class="st50" d="M138.3,89.2c-0.8-0.2-1.2,1.1-2.4,0.4c0.7-4.7,1.2-9.5,2.1-14.2c0.3-1.8,0.1-3.3-0.7-4.8
	c-1.5-2.9-2.7-6-4.1-8.9c-0.8-1.8-1.8-2.5-3.9-1.5c-2,1-4.3,1.4-5.6-2.3c2.2,2.1,4,1.7,5.9,0.8c2.1-0.9,3.4,0.2,4.5,1.8
	c4.6,6.5,6.4,13.5,4.2,21.3c-0.4,1.4-0.3,3-0.6,4.4c-0.4,1.5,0.9,0.9,1.3,1.3C138.8,88.1,139.1,88.9,138.3,89.2z"/>
<path class="st51" d="M138.3,89.2c0.8-0.4,0.5-1.1,0.6-1.7c1.2,3.3,0.9,6.8,1.8,10.1c0.7,2.6,1.2,5.2,1.7,7.8
	c-0.4,0.4-0.7,0.8-1.1,1.1c-0.8-4.4-1.7-8.8-2.5-13.3C138.5,92,138.5,90.6,138.3,89.2z"/>
<path class="st52" d="M53.2,146.7c-3.7,3-7.1,5.9-11.1,9.2c-2-2.2-3.9-4.3-5.8-6.5c-1.4-1.6-2.9-3.3-2.2-5.5c0.8-2.4,3.2-1.8,5.1-2
	c0-0.3,0.1-0.6,0.1-0.9c-0.2-1.8,0.1-3.6,1.9-4.3c1.7-0.7,3.1,0.4,4.2,1.5C48.1,140.9,50.6,143.7,53.2,146.7z M43.2,140.5
	c-0.4,2.9,1.4,4.2,2.8,5.7c0.9-0.4,1.5-0.9,1.9-1.7C46.7,143,45.6,141.3,43.2,140.5z M42.9,148.8c-1.5-1.2-2.2-3.3-4.6-2.7
	c0.3,1.8,1.6,3.9,2.5,4.2C41.9,150.7,42.3,149.8,42.9,148.8z"/>
<path class="st53" d="M37.1,55.6c-2.9-1.9-5.4-3.5-7.8-5c0.1-1.4,1-2.1,1.8-3.3c4.3,2.5,8.5,4.9,12.8,7.3c-2,6.7-7.6,3.1-11.8,4.5
	c2,2.1,4.8,2.7,6.8,4.5c-0.6,1.2-1,2.4-2.2,3.3c-4.1-2.4-8.2-4.8-12.4-7.2c0.5-2.7,1.8-3.7,4.5-3.6C31.4,56.3,34.1,56.3,37.1,55.6z"
	/>
<path class="st46" d="M25.9,67.2c4.4,0,8.1,3.6,8.1,7.9c0,4.5-3.6,8.2-8.2,8.1c-4.4,0-7.9-3.6-7.9-8C17.9,70.8,21.5,67.2,25.9,67.2z
	 M30,75.2c0-2.2-1.8-3.9-4-4c-2.4,0-4.1,1.8-4.1,4.2c0,2.2,1.8,4,4,4C28.1,79.4,30,77.4,30,75.2z"/>
<path class="st54" d="M39,127.8c0,4.6-3.5,8.1-8.1,8.1c-4.3,0-7.9-3.7-8-8c0-4.3,3.6-8,7.9-8C35.5,119.8,39,123.2,39,127.8z
	 M31.1,131.9c2.2,0,4-1.7,4.1-3.9c0.1-2.2-2-4.2-4.2-4.2c-2.1,0-4,1.8-4.1,4C26.9,130,28.7,131.9,31.1,131.9z"/>
<path class="st47" d="M29.4,114.3c-0.1-1.6-0.1-3-0.7-4.3c-0.3-0.7-0.8-1.2-1.6-1.1c-0.7,0.1-0.8,0.8-0.9,1.4
	c-0.2,1.4-0.3,2.8-0.7,4.1c-0.4,1.3-1.1,2.6-2.7,2.8c-1.6,0.2-2.9-0.5-3.8-1.9c-1.3-2-1.6-4.2-1.4-6.6c0.2-1.9,1.1-2.7,3.1-2
	c0.3,1.9-1.4,4.4,1.3,5.9c1.3-1,0.6-2.3,0.9-3.4c0.6-2.1,1-4.5,3.8-4.7c2.9-0.2,4.3,1.7,5,4.2c0.3,0.9,0.4,1.9,0.6,2.9
	C32.6,113.8,31.9,114.8,29.4,114.3z"/>
<path class="st53" d="M20.4,92.7c3.5,0,6.7,0,10.1,0c0,1,0,1.9,0,3.2c-3.3,0-6.6,0-10.1,0c0,1.7,0,3.1,0,4.4
	c-1.1,0.6-2.1,0.4-3.3,0.3c0-3.9,0-7.8,0-11.9c0.9-0.6,1.9-0.2,3-0.1C20.1,89.9,20.2,91.1,20.4,92.7z"/>
<path class="st55" d="M76,50.3c-2.9-0.1-5.7,0.8-8.5,1.2c-1.5,0.2-3.2,0.5-3.6-1.5c-0.4-2-2.1-4.4,0-6c1.5-1.2,3.7-1.9,5.8-0.8
	c1,0.5,0.8,1.4,0.6,2.3c-0.2,1.1-1.1,2.1-0.7,3.4c1.6,0.8,3-0.6,4.6-0.3c0,0.2,0,0.3,0,0.5c-0.3,0.1-0.6,0.2-1.1,0.3
	C74,50.3,75.4,49.1,76,50.3z M68.8,50.6c-0.8-1.7,0-3.2,0.2-4.7c0.2-1.6-0.4-2.2-2-2c-2.2,0.2-3.1,1.1-2.7,3.5
	C64.7,50.5,65.4,51.1,68.8,50.6z"/>
<path class="st56" d="M76,50.3c-0.6-1.1-1.9,0.1-2.8-1c0.4-0.1,0.8-0.2,1.1-0.3c2.8-0.9,6-0.2,8.5-2.3c0,0,0.2-0.1,0.2-0.1
	c0.7,0.1,1.3,0.9,2,0.2c0.4,0.2,0.9,0.4,1.3,0.6c-0.1,0.5,0.2,1.1-0.8,1.1c-2.7,0.2-5.4,0.6-8.9,1c1.2,0.2,1.6,0.3,1.9,0.4
	C77.8,50.5,76.9,50.4,76,50.3z"/>
<path class="st15" d="M83.8,69.4c1.5,2.6,3.2,1.4,4.9,0.2c1-0.4,2.2-0.5,3-1.4c1.6,0,2.6-1.6,4.3-1.3c-2.8,2.7-6.6,3.6-10,5.1
	C84.3,72.7,83.7,71,83.8,69.4z"/>
<path class="st57" d="M84.9,46.7c-0.7,0.7-1.3,0-2-0.2c-0.6-1.5,1.1-2,1.3-3.1c0.6-0.4,1.1-0.8,1.8-1.3
	C87.2,44.1,85.7,45.4,84.9,46.7z"/>
<path class="st55" d="M85.5,80.9c-1.2-0.3-2.6-0.4-3.7-0.9c-1.5-0.6-2.1,0.1-2.8,1.1c-0.1-2.1,0.4-3.2,2.8-2.4
	c1.6,0.6,3.4,0.6,5,1.5C86.5,80.8,86,80.8,85.5,80.9z"/>
<path class="st58" d="M82.8,46.7c-2.5,2.1-5.7,1.4-8.5,2.3c0-0.2,0-0.3,0-0.5C77,47.4,79.9,47.4,82.8,46.7z"/>
<path class="st59" d="M85.5,80.9c0.5-0.1,1-0.1,1.3-0.6c0.8,0.7,1.6,0.2,2.4-0.1c-0.4,1.9-1.3,3.5-3.3,4.2c0.5-0.9,1.1-1.8,1.7-2.9
	C86.7,81.3,86.1,81.1,85.5,80.9z"/>
<path class="st8" d="M102.6,97.3c1-0.9,1.9-1.2,2.8-0.5c0.8,0.6,0.8,1.6,0.4,2.5c-0.6,1.3-0.4,2.4,0.1,3.7c0.7,2.1-0.6,3.7-2.4,3.4
	c-2.6-0.4-3,1.2-3.9,2.7c-0.2,0.3-0.3,0.8-0.6,1c-0.6,0.6-1,1.7-2.1,0.8c-0.9-0.7-0.3-1.4,0.1-2.1c0.6-1,1.6-1.8,0.8-3.3
	c-1.4,0.2-2,1.4-2.9,2.3c-0.9,1-2,1.5-3.2,0.8c-1.1-0.6-1.3-1.6-0.7-2.8c0.4-0.8,0.2-1.5-0.1-2.3c-1.1-3-0.2-4,3.4-3.9
	c-0.5-0.7-1.1-1.2-1.4-1.9c-0.5-1.4,0-3.3,1.3-3c2.3,0.5,4.2-0.5,6.3-0.8C102.8,93.7,102.3,95.7,102.6,97.3z"/>
<path class="st60" d="M93.1,122.2c-0.3,1.5,1,2.2,0.8,3.3c-0.7,0.7-1.5,1.1-2.5,1.3c-1.5-1.1-1.2-3.1-2-4.5
	c-1.1,0.4-1.1,1.4-1.6,2.1c-0.9,1-2.1,1.2-2.8,0.2c-1-1.5-1.9-3.3-2.2-5.1c-0.5-2.5,1.4-2.7,3.4-2.2c-1.7-4.2-1.7-4.1,2.6-4.8
	c0.9-0.1,1.8-0.4,2.5-0.8c1.2-0.6,2.2-1.4,3.5-0.5c1.6,1.1-0.2,2.3-0.1,3.4c1,0,1.3-0.9,2-1.2c0.8-0.3,1.5-0.4,2.4,0.4
	c-0.6,1.8-2.2,3.7,0.1,5.8c0.9,0.8-1.3,3.1-3.1,3.1C95.2,122.7,94.2,122.4,93.1,122.2z"/>
<path class="st61" d="M101.7,39.4c-0.5,1.5,1.8,1,1.6,2.4c-3.8-0.6-4.1-3.1-3.1-6.3c-2.2-0.2-3.7-1.2-4.7-2.9
	c2.4-2.7,5.8-3.2,9.1-3.6c1.8-0.2,3.2,1.8,4.5,3.2c0.3,0.4,0.3,0.7,0,1c-0.3,0.5-0.7,0.8-1.2,0.4c-0.8-0.5-1.6-0.8-2.5-0.8
	c-3.3,0-5.3,0.9-4.8,5.4C101,38.6,101.4,39,101.7,39.4z"/>
<path class="st62" d="M118.3,44.6c-1.3,0.2-1.9-0.2-2.6-1c0.7-2.1,2.1-3.6,5-5C119.6,41.1,118,42.5,118.3,44.6z"/>
<path class="st63" d="M101.7,39.4c-0.4-0.4-0.7-0.8-1.1-1.2c3.7,0.5,7-0.7,10.1-2.5C108.6,39,105,38.9,101.7,39.4z"/>
<path class="st64" d="M92.2,41.9c0-0.7-1.8-0.7-0.7-1.8c2.1,0.1,2.2-1.6,2.5-3c0.2-1-0.2-2.1-0.3-3.1C95.7,36.3,95.3,38.7,92.2,41.9
	z"/>
<path class="st7" d="M103.6,47.7c-5.3,7.9-7.9,7.6-15.3,1.8c2.4-1.1,5.2-1.1,7.6-2.1C98.7,46.3,101,47.9,103.6,47.7z"/>
<path class="st65" d="M91.7,68.3c-0.8,0.8-2,0.9-3,1.4c-0.1-0.8-0.1-1.5-0.2-2.3c-1.1-0.3-1.5,1.2-2.7,0.7c-0.9-1.3-1.3-2.9-0.9-4.6
	c0.2-1.1,1.3-0.1,2-0.2c0.3-0.7-0.3-1.4,0.4-2.1c1,0,2,0,3.2,0c1,0.5,0.1,1.4,0.5,2.1c0.7,0.1,1.3-0.8,2.1,0.2
	c0.3,0.8-0.4,1.9,0.3,2.6c-0.8,1.4-1.8,0.1-2.6,0.7C90.4,67.6,91.5,67.7,91.7,68.3z"/>
<path class="st10" d="M132.3,110.9c3-0.7,5.6-1.7,8.1-3c1.6-0.9,2.5-0.7,2.8,1.3c0.5,2.8,1.4,5.6,2.6,8.3c-2.7,2.6-5.8,3.6-9.4,3.5
	c-0.7,0-1.4-0.1-1.7-0.9C133.5,117.1,132.6,114.1,132.3,110.9z"/>
<path class="st66" d="M43.2,140.5c2.4,0.8,3.5,2.5,4.7,3.9c-0.4,0.8-1,1.3-1.9,1.7C44.7,144.7,42.8,143.4,43.2,140.5z"/>
<path class="st67" d="M42.9,148.8c-0.6,1-1,1.9-2.1,1.5c-0.9-0.3-2.2-2.5-2.5-4.2C40.6,145.5,41.4,147.6,42.9,148.8z"/>
<path class="st8" d="M30,75.2c0,2.3-1.9,4.3-4.1,4.2c-2.2-0.1-3.9-1.8-4-4c-0.1-2.4,1.7-4.2,4.1-4.2C28.1,71.2,29.9,73,30,75.2z"/>
<path class="st68" d="M31.1,131.9c-2.4,0-4.2-1.8-4.1-4.1c0.1-2.1,2-3.9,4.1-4c2.2,0,4.2,2,4.2,4.2
	C35.1,130.1,33.3,131.9,31.1,131.9z"/>
<path class="st69" d="M68.8,50.6c-3.4,0.5-4-0.1-4.6-3.3c-0.4-2.4,0.6-3.2,2.7-3.5c1.6-0.2,2.2,0.4,2,2C68.7,47.4,68,48.9,68.8,50.6
	z"/>
</svg>
