<?xml version="1.0" encoding="utf-8"?>
<!-- Generator: Adobe Illustrator 21.0.0, SVG Export Plug-In . SVG Version: 6.00 Build 0)  -->
<svg version="1.1" id="Layer_9" xmlns="http://www.w3.org/2000/svg" xmlns:xlink="http://www.w3.org/1999/xlink" x="0px" y="0px"
	 viewBox="0 0 200 200" style="enable-background:new 0 0 200 200;" xml:space="preserve">
<style type="text/css">
	.st0{fill:#0B0A09;}
	.st1{fill:#C1243C;}
	.st2{fill:#FEFEFE;}
</style>
<path class="st0" d="M98.6,1.7c6.7,0,13.4,0,20.1,0c13.1,0.1,26.1,0.1,39.2,0.1c6.8,0,13.6,0,20.4,0.1c9,0.1,17,6.3,19.4,15.1
	c1.9,6.9,1.3,13.6-2.2,19.9c-3.1,5.4-7.7,8.7-13.8,9.8c-1.4,0.3-2.9,0.3-4.4,0.3c-1.8,0-3.5,0-5.3,0c-0.1,0-0.1,0-0.2,0
	c-1.5,0-1.9,0.7-1.2,2.1c3,5.8,5.7,11.6,7.6,17.9c1.5,5.2,2.5,10.6,2.4,16c-0.3,9.9-4.5,17.8-12.6,23.6c-1,0.7-2,1.3-3,1.9
	c-0.3,0.2-0.6,0.4-0.6,0.7c0,0.4,0.4,0.5,0.7,0.5c1.3,0.4,2.5,0.8,3.7,1.4c3.6,1.7,4.5,6.1,1.9,9.1c-1.5,1.8-2.9,3.6-4.8,5
	c-4.2,3.2-8.8,5.2-14,5.9c-2.2,0.3-4.5,0.1-6.7-0.2c-1.3-0.2-2.6-0.4-3.9-0.7c-0.7-0.2-1.1,0.2-1.3,0.7c-0.4,0.9-0.7,1.8-1.1,2.7
	c-3.1,7.4-6.4,14.6-9.9,21.8c-1.4,2.8-2.7,5.6-4.1,8.5c-0.4,0.8-0.4,1.2,0.3,1.9c1.1,1.2,1.6,2.5,1.6,4.1c0,3.1-0.8,6-1.7,9
	c-1.6,5-3.9,9.7-7,13.9c-1.4,1.9-3.4,2.8-5.5,3.5c-3.8,1.3-7.8,2-11.8,2.4c-3.6,0.3-7.1,0.4-10.7,0.1c-5.1-0.4-9.9-1.5-14.7-3.3
	c-1.4-0.6-2.4-1.7-3.3-2.9c-3.5-4.3-5.7-9.2-6.9-14.7c-0.7-3-1-6.1-0.9-9.2c0-1.1,0.3-2.2,0.9-3.2c0.5-0.8,0.5-1.5,0-2.4
	c-2.9-5-5.4-10.1-7.8-15.3c-2.4-5.1-4.8-10.2-6.9-15.4c-0.5-1.2-1.3-1.6-2.5-1.3c-2.8,0.6-5.7,1.1-8.5,1c-6.6-0.3-12.3-2.6-17.2-7
	c-1.4-1.3-2.7-2.8-3.7-4.5c-1.8-2.8-0.7-6.6,2.3-8.1c0.9-0.5,1.8-0.8,2.7-1.3c0.2-0.1,0.3-0.1,0.5-0.2c0.8-0.5,0.8-1,0-1.5
	c-1-0.6-1.9-1.2-2.8-1.9c-5.2-3.9-8.6-9.1-10.2-15.4c-1.1-4.2-1.4-8.5-0.9-12.8c0.8-7,2.4-13.8,5.1-20.3c1.4-3.4,3.1-6.5,4.8-9.7
	c0.1-0.1,0.2-0.3,0.2-0.4c0.5-1,0-1.7-1.1-1.8c-4.7-0.2-8.7-2.1-12-5.5C4,38.7,2.3,35,1.3,31c-1-4.1-1.2-8.2-0.5-12.3
	c1-6.1,3.7-11.1,8.9-14.6c2.7-1.8,5.7-2.7,8.9-2.7c7.4,0,14.7,0,22.1,0c8.8,0,17.6,0.1,26.4,0.1c6.5,0,12.9,0.1,19.4,0.1
	C90.6,1.6,94.6,1.6,98.6,1.7C98.6,1.7,98.6,1.7,98.6,1.7z M164.7,116.8c-0.1-0.1-0.2-0.2-0.3-0.2c-1.3-0.5-2.6-1-3.9-1.5
	c-1.9-0.7-3.9-1.4-5.9-1.9c-1.6-0.5-3.3-0.9-5-1.2c-2.6-0.5-5.2-1-7.8-1.3c-2.5-0.3-5.1-0.5-7.6-0.7c-0.4,0-0.8,0-1.2,0
	c-0.3,0-0.5-0.1-0.5-0.5c-0.3-2.9-0.5-5.7-0.9-8.6c-0.4-2.4-0.8-4.9-1.3-7.3c-0.4-1.9-1-3.8-1.6-5.6c-0.1-0.3-0.2-0.4-0.5-0.4
	c-1.2-0.1-2.3-0.1-3.5-0.2c-1.8-0.1-3.6-0.1-5.5-0.2c-1.9-0.1-3.8-0.2-5.7-0.2c-3.4-0.1-6.8-0.2-10.1-0.3c-1.7-0.1-3.3,0-5-0.1
	c-4-0.1-8.1,0-12.1,0.2C84,87,81.6,87,79.2,87.1c-2.5,0.1-5,0.3-7.5,0.4c-3.1,0.2-6.3,0.4-9.4,0.5c-0.5,0-0.8,0.2-0.9,0.7
	c-0.2,0.6-0.4,1.3-0.6,1.9c-0.5,1.8-1.1,3.5-1.6,5.3c-0.4,1.5-0.8,3-1.1,4.6c-0.3,1.5-0.6,2.9-0.8,4.4c-0.3,1.7-0.5,3.4-0.7,5.1
	c0,0.4-0.2,0.5-0.6,0.5c-0.4,0-0.9,0-1.3,0c-1.8,0.3-3.6,0.4-5.3,0.7c-1.7,0.3-3.5,0.5-5.2,0.8c-2.5,0.5-4.9,1.1-7.3,1.6
	c-3.2,0.7-6.3,1.7-9.4,2.8c-1,0.3-1.9,0.8-2.8,1.3c0.2,0.2,0.3,0.4,0.4,0.5c1.2,1.4,2.5,2.6,4,3.6c2.9,2.1,6.2,3.2,9.8,3.4
	c2.1,0.1,4.2-0.1,6.3-0.4c2.7-0.4,5.2-1.2,7.6-2.3c0.7-0.3,0.8-0.3,1.1,0.4c0.6,1.2,1,2.5,1.4,3.8c0.4,1.4,0.9,2.7,1.4,4
	c0.3,0.9,0.9,1.7,1.4,2.5c0.9,1.6,2.3,2.5,4,2.9c1.8,0.4,3.7,0.2,5.3-1c0.8-0.6,1.5-1.1,1.9-2c-0.1,0-0.1-0.1-0.1-0.1
	c-2.3-0.2-4.6-0.5-6.7-1.7c-1.1-0.6-1.9-1.4-2.7-2.3c-1.5-1.8-2.1-4-2.4-6.2c-0.1-1.1-0.2-1.1-1.3-1.2c-0.1,0-0.1,0-0.2,0
	c-0.7-0.1-1.2-0.6-1.3-1.3c-0.2-1.2,0.2-2.2,0.9-3.1c0.4-0.6,1-1.3,1.8-1.4c1.3-0.2,2.7-0.1,4,0.3c2.2,0.7,4,2,5.7,3.5
	c2.3,2,4.4,4.2,6.7,6.2c2.4,2.1,5,3.6,8.2,4.2c2.6,0.5,5-0.1,7.1-1.5c2.1-1.4,3.5-3.5,4.5-5.8c0.5-1.1,0.8-2.2,1.1-3.4
	c0.1-0.6,0.1-0.7-0.5-0.7c-1.4,0-2.7,0-4.1-0.1c-2-0.2-3.9-0.3-5.9-0.5c-2.1-0.2-4.2-0.4-6.3-0.7c-0.8-0.1-1.6-0.1-2.4-0.5
	c0.1-0.6,0.4-0.8,1-0.7c2.1,0.3,4.1,0.5,6.2,0.7c1,0.1,2,0.2,2.9,0.3c1.6,0.2,3.1,0.2,4.7,0.4c0.9,0.1,1.9,0,2.8,0.1
	c1.7,0,1.7,0,1.7-1.7c0-0.9,0-1.9,0-2.9c-2,0.1-3.8-0.1-5.7-0.2c-1.2-0.1-2.4-0.3-3.7-0.3c-0.8,0-1.6-0.2-2.4-0.3
	c-1.6-0.2-3.1-0.4-4.7-0.7c-0.9-0.1-1.7-0.3-2.6-0.5c-0.3-0.1-0.7-0.3-0.6-0.7c0.1-0.4,0.5-0.3,0.7-0.3c1.3,0.2,2.6,0.4,3.9,0.5
	c2.1,0.3,4.1,0.5,6.2,0.7c1.4,0.1,2.7,0.3,4.1,0.4c1.5,0.1,3,0.1,4.4,0.2c0.3,0,0.4-0.1,0.4-0.4c0-0.9,0-1.9,0-2.8
	c0-0.7,0.1-1.4-0.1-2.2c-0.4,0-0.8,0-1.2,0c-2.7-0.1-5.4-0.3-8.1-0.5c-1.6-0.1-3.2-0.4-4.9-0.6c-1.4-0.2-2.9-0.4-4.3-0.6
	c-0.5-0.1-1-0.1-1-0.7c0.1-0.5,0.7-0.4,1.1-0.3c1.6,0.3,3.3,0.4,4.9,0.6c2,0.3,4,0.3,6,0.5c2.4,0.2,4.8,0.2,7.2,0.2
	c0.1,0,0.2,0,0.4-0.2c0-0.1,0-0.3,0-0.5c0-1.3,0-2.5,0-3.8c0-0.4,0.1-0.8,0.5-0.7c0.4,0,0.4,0.4,0.4,0.7c0,1.2,0,2.4,0,3.6
	c0,0.3-0.1,0.5,0.1,0.8c1.4,0.1,2.8-0.1,4.2-0.2c0.6,0,1.2,0,1.8-0.1c2-0.3,4.1-0.3,6.1-0.6c1.2-0.2,2.4-0.3,3.5-0.5
	c0.8-0.1,1.6-0.2,2.4-0.3c0.3,0,0.7-0.1,0.7,0.4c0,0.4-0.3,0.5-0.6,0.5c-2.8,0.4-5.6,1-8.4,1.3c-2,0.2-4,0.5-6.1,0.5
	c-1,0-2.1,0.2-3.1,0.1c-0.4,0-0.7,0.1-0.6,0.6c0,1.4,0,2.8,0,4.3c0,0.5,0.2,0.6,0.6,0.6c3-0.2,6.1-0.2,9.1-0.5
	c2.1-0.2,4.2-0.4,6.3-0.8c0.9-0.2,1.8-0.5,2.7-0.5c0.3,0,0.6,0,0.6,0.3c0.1,0.4-0.3,0.5-0.5,0.6c-0.5,0.1-1,0.2-1.5,0.3
	c-2,0.2-4,0.5-6.1,0.8c-2.6,0.3-5.2,0.6-7.8,0.8c-1.1,0.1-2.3,0.1-3.4,0.2c0,0.1-0.1,0.2-0.1,0.3c0,1,0,2,0.1,3
	c0.1,1.2,0.1,1.2,1.2,1.2c3.3,0,6.6-0.3,9.9-0.6c1.9-0.2,3.9-0.4,5.8-0.7c0.9-0.1,1.7-0.2,2.6-0.3c0.3,0,0.6,0.1,0.6,0.5
	c0,0.3-0.2,0.5-0.5,0.6c-0.4,0.1-0.8,0.1-1.1,0.2c-1.8,0.1-3.6,0.4-5.5,0.6c-2.2,0.3-4.5,0.5-6.7,0.7c-1.6,0.1-3.2,0.3-4.8,0.3
	c-0.4,0-0.8-0.2-1.1,0.1c-0.3,0.4,0.2,0.7,0.1,1.1c0,0,0,0,0,0.1c0.2,1.1,0.5,2.2,0.9,3.3c0.4,1,0.9,1.9,1.6,2.8
	c1.1,1.6,2.6,2.6,4.4,3.2c1.3,0.4,2.6,0.4,3.9,0.4c2.4,0,4.5-0.8,6.4-2.1c2.7-1.9,4.9-4.3,7.3-6.5c1.5-1.4,3-2.9,4.8-3.9
	c1.8-1,3.7-1.6,5.8-1.5c0.9,0.1,1.8,0.2,2.6,0.7c1,0.7,1.3,1.7,1.5,2.8c0.1,0.7-0.3,1.3-0.9,1.6c-0.5,0.3-1.1,0.2-1.6,0.4
	c-0.4,0.1-0.6,0.4-0.7,0.8c-0.2,1.4-0.5,2.8-1,4.1c-0.4,1.1-0.9,2.2-1.5,3.1c-1.5,2.3-3.9,3.3-6.4,3.9c-1.1,0.3-2.2,0.4-3.3,0.6
	c0.8,1.6,3.3,2.7,5.1,2.4c0.9-0.1,1.7-0.4,2.5-0.7c0.7-0.3,1.4-0.7,2.1-1.2c1.5-1,2.1-2.6,2.8-4.1c1.1-2.5,1.9-5,3-7.5
	c0.4-0.9,0.6-1,1.5-0.5c0.1,0.1,0.3,0.1,0.4,0.2c1.9,0.8,3.9,1.5,5.9,1.8c1.6,0.3,3.2,0.5,4.8,0.6c1.9,0.1,3.8-0.2,5.6-0.8
	c1.1-0.4,2.1-0.8,3.2-1.3c1.5-0.7,2.8-1.6,4.2-2.7C162.9,118.9,163.8,118,164.7,116.8z M74.9,165.9c14-6.4,27.8-6.3,41.5,1
	c-3.9-11.3-3.4-22.4,0.4-33.5c-0.3,0.1-0.4,0.1-0.6,0.2c-0.1,0.1-0.3,0.2-0.4,0.3c-2.5,1-5.1,1.9-7.8,2.3c-3.1,0.4-6-0.2-8.8-1.7
	c-1.7-0.9-2.9-2.3-4-3.9c-0.4,0.2-0.6,0.5-0.8,0.8c-0.4,0.5-0.8,1.1-1.2,1.5c-1.3,1.1-2.8,2.1-4.5,2.7c-2.4,0.9-4.9,1.1-7.5,0.8
	c-2.5-0.2-4.9-0.8-7.4-2C77.8,144.8,78.6,155.3,74.9,165.9z M95.7,162.1c-4.2,0-7.2,0.4-10.3,1c-3.1,0.6-5.9,1.7-8.8,2.9
	c-1.6,0.7-3,1.6-4.5,2.5c-0.6,0.4-1.3,0.7-1.2,1.8c0.3,2.8,0.5,5.5,1.3,8.2c0.4,1.4,0.8,2.7,1.4,4c0.8,2,1.9,3.8,3.3,5.5
	c0.4,0.5,0.7,1.1,1.3,1.3c1.3,0.5,2.6,1,4,1.4c1.7,0.5,3.4,0.8,5.1,1.1c2,0.3,4,0.4,6.1,0.5c1.7,0.1,3.4,0,5-0.1
	c1.5-0.1,2.9-0.2,4.4-0.5c2.6-0.5,5.2-1.1,7.7-1.9c0.9-0.3,1.7-0.6,2.2-1.5c0.6-1,1.3-1.9,1.9-2.8c1.1-1.8,2-3.6,2.7-5.5
	c0.6-1.6,1.2-3.3,1.5-5c0.3-1.3,0.5-2.6,0.7-3.9c0-0.3-0.1-0.5-0.3-0.8c-0.6-0.6-1.4-0.9-2.1-1.4c-1.4-1-2.9-1.8-4.5-2.5
	c-2.8-1.4-5.6-2.5-8.7-3.2C101,162.4,97.9,162,95.7,162.1z M129.9,88.1c0.1,0.2,0.1,0.5,0.2,0.7c1,3.4,1.7,6.8,2.4,10.3
	c0.6,3.1,1,6.1,1.3,9.2c0,0.5,0.2,0.7,0.7,0.6c4.2-0.2,8.4-0.5,12.5-1.3c4.7-0.9,9.2-2.4,13.4-4.6c4.5-2.3,8.1-5.6,10.5-10.1
	c2.5-4.9,3.1-10.2,2.3-15.6c0-0.3,0-0.8-0.3-1c-1.1-0.8-2.2-1.5-3.2-2.3c-0.2-0.1-0.4-0.2-0.6,0c-1.3,0.7-2.5,1.5-3.8,2.1
	c-1.4,0.7-1.7,2.4-2.7,3.4c-0.1,0.1-0.1,0.1-0.1,0.2c-1.8,2.7-4,4.9-6.9,6.3c-3.3,1.6-6.9,2.1-10.5,2.3c-3.5,0.2-7-0.1-10.4-0.1
	C133,88.1,131.5,87.9,129.9,88.1z M21.4,73.3c-0.1,0-0.1,0-0.2,0.1c-1.3,1.5-2.7,2.9-4,4.4c-0.1,0.2-0.2,0.3-0.2,0.5
	c-0.6,3.8-0.6,7.6,0.3,11.3c1.3,5.6,4.2,10.1,9.1,13.2c5,3.2,10.6,4.7,16.4,5.4c4.1,0.5,8.1,0.4,12.2,0.4c0.4,0,0.6-0.1,0.6-0.5
	c0.2-1.1,0.4-2.3,0.5-3.4c0.8-4.6,1.9-9.2,3.4-13.7c0.3-0.8,0.5-1.6,0.8-2.3c-0.2-0.2-0.5-0.1-0.6-0.1c-2.9,0.2-5.7,0.5-8.6,0.6
	c-3.9,0.2-7.9,0.5-11.8-0.4c-3.5-0.8-6.7-2.2-9.3-4.8c-1.5-1.5-2.8-3.1-3.4-5.1c-0.2-0.5-0.5-1-0.8-1.5
	C24.6,75.8,22.8,74.8,21.4,73.3z M41,38.6C41,38.6,41,38.6,41,38.6c1.7,0,3.5,0,5.2,0c0.6,0,0.8-0.2,0.8-0.8c0-1,0-1.9,0-2.9
	c0-1.5,0.1-1.4-1.4-1.4c-0.5,0-0.7-0.1-0.7-0.6c0-1.9,0-3.8,0-5.7c0-0.8,0.2-0.9,0.9-0.9c1.7,0,3.4,0,5.1,0c1,0,1.1,0.1,1.1,1.1
	c0,1.7,0,3.3,0,5c0,1.1,0,1.1-1.1,1.1c-0.2,0-0.4,0-0.5,0c-0.3,0-0.5,0.2-0.5,0.4c0,1.4,0,2.7,0,4.1c0,0.3,0.2,0.5,0.5,0.5
	c3.6,0,7.3,0,10.9,0c0.4,0,0.6-0.1,0.6-0.6c0-1.3,0-2.6,0-3.9c0-0.4-0.2-0.6-0.6-0.6c-0.3,0-0.7,0-1,0c-0.6,0.1-0.8-0.2-0.8-0.8
	c0-3,0-6,0-9.1c0-2.5,0-5.1,0-7.6c0-0.5,0.2-0.8,0.7-0.7c0.3,0,0.6,0,0.9,0c0.6,0,0.8-0.2,0.8-0.8c0-1.2,0-2.4,0-3.6
	c0-0.6-0.2-0.8-0.8-0.8c-3.4,0-6.8,0-10.3,0c-0.5,0-0.8,0.2-0.8,0.8c0,1,0,2,0,3c0,1.4-0.1,1.3,1.3,1.2c0.5,0,0.6,0.2,0.6,0.6
	c0,1.8,0,3.6,0,5.3c0,0.6-0.2,0.8-0.8,0.8c-1.9,0-3.7,0-5.6,0c-0.7,0-0.9-0.2-0.9-0.9c0-1.5,0-3,0-4.6c0-1.2,0-1.2,1.3-1.3
	c0.5,0,0.6-0.2,0.6-0.7c0-1.2,0-2.4,0-3.5c0-0.6-0.2-0.8-0.8-0.8c-1.5,0-2.9,0-4.4,0c-1.9,0-3.8,0-5.8,0c-0.8,0-0.9,0.1-0.9,0.9
	c0,0.9,0,1.8,0,2.7c0,1.8-0.2,1.5,1.6,1.6c0.8,0,0.8,0.1,0.8,0.9c0,5.2,0,10.5,0,15.7c0,1.6,0,1.6-1.6,1.6c-0.6,0-0.8,0.2-0.8,0.8
	c0,1.2,0,2.4,0,3.5c0,0.5,0.2,0.8,0.7,0.7C37.5,38.5,39.2,38.6,41,38.6z M51.9,59.9c0.5-0.5,1-0.8,1.5-1.3c2.2-2,3-5.1,2-7.8
	c-1.1-2.9-4.5-5-6.9-4.9c-3.1,0.1-6.2,0-9.2,0c-1.6,0-3.3,0-4.9,0c-0.9,0-0.9,0.1-0.9,0.9c0,0.9,0,1.8,0,2.7c0,1.5-0.3,1.5,1.5,1.5
	c0.9,0,0.9,0,0.9,0.9c0,5.2,0,10.4,0,15.6c0,1.6,0,1.6-1.6,1.6c-0.6,0-0.7,0.2-0.7,0.8c0,1.1,0,2.2,0,3.3c0,0.9,0,1,0.9,1
	c5.1,0,10.3,0,15.4,0c0.6,0,1.1-0.1,1.7-0.3c4.8-1.5,6.6-8.3,3-11.9C53.7,61.2,52.8,60.6,51.9,59.9z M165.6,24.5
	c0,4,1.2,7.5,3.7,10.5c4,4.7,10.6,5.6,15.5,2.1c3.3-2.4,5.1-5.7,5.7-9.7c0.7-4.6-0.2-8.9-3.2-12.6c-4.3-5.5-11.8-6.2-17-1.5
	C167.1,16.3,165.7,20.2,165.6,24.5z M115.9,33.4c0-0.1,0-0.3,0-0.4c0.3-0.9,0.6-1.9,0.9-2.8c0.1-0.4,0.3-0.6,0.7-0.6
	c2.3,0,4.6,0,6.9,0c0.3,0,0.6,0.1,0.7,0.4c0.3,1,0.6,1.9,0.9,2.9c0.1,0.3,0,0.5-0.4,0.5c-0.4,0-0.8,0-1.2,0c-0.5,0-0.6,0.2-0.6,0.6
	c0,1.2,0,2.5,0,3.7c0,0.5,0.2,0.7,0.7,0.7c3.5,0,7.1,0,10.6,0c0.5,0,0.7-0.2,0.7-0.7c0-1.1,0-2.2,0-3.3c0-1.1,0-1.1-1.1-1.1
	c-1.1,0-1.1,0-1.4-1c-1-3.1-2-6.3-3-9.4c-0.7-2.3-1.5-4.7-2.2-7c-0.2-0.7-0.2-0.8,0.6-0.8c0.4,0,0.9,0,1.3,0c0.3,0,0.5-0.2,0.5-0.5
	c0-1.3,0-2.5,0-3.8c0-0.5-0.2-0.7-0.7-0.7c-4.9,0-9.8,0-14.6,0c-0.5,0-0.8,0.2-0.8,0.7c0,1.3,0,2.6,0,3.8c0,0.4,0.2,0.6,0.6,0.6
	c0.4,0,0.8,0,1.2,0c0.9,0,0.9,0.1,0.7,0.9c-1.7,5.2-3.4,10.5-5,15.7c-0.5,1.5-0.2,1.7-2,1.6c-0.4,0-0.6,0.2-0.6,0.6
	c0,1.3,0,2.6,0,3.9c0,0.4,0.2,0.5,0.6,0.5c2.5,0,5.1,0,7.6,0c0.4,0,0.6-0.2,0.6-0.6c0-1.3,0-2.6,0-3.8c0-0.5-0.2-0.6-0.7-0.6
	C116.9,33.5,116.4,33.6,115.9,33.4z M160.6,15.1C160.6,15.1,160.6,15.1,160.6,15.1c0-1.3,0-2.6,0-3.9c0-1,0-1-1-1
	c-0.7,0-1.5,0-2.2,0c-0.6,0-0.9,0.2-1.1,0.7c-0.3,0.7-0.8,0.8-1.4,0.4c-0.1-0.1-0.2-0.2-0.3-0.3c-1.8-1.3-3.8-2.1-6-1.5
	c-3.8,1-6.2,3.5-7.7,7c-1.5,3.7-1.6,7.7-0.9,11.6c0.4,2.4,1.3,4.6,2.7,6.6c4.4,6,12.8,5.9,17.1-0.1c2-2.9,2.5-6.3,2.5-9.8
	c0-0.6-0.4-0.7-0.9-0.7c-2.3,0-4.6,0-6.9,0c-0.5,0-1,0-1.5,0c-0.4,0-0.6,0.2-0.6,0.6c0,1.2,0,2.3,0,3.5c0,0.4,0.2,0.5,0.5,0.5
	c0.7,0,1.4,0,2.1,0c1.1,0,1.2,0,1,1.3c-0.3,1.6-1.7,2.8-3.3,3c-1.7,0.2-2.8-0.3-3.7-1.9c-0.2-0.4-0.4-0.9-0.6-1.3
	c-0.9-2.7-0.8-5.4-0.6-8.2c0.1-1.4,0.4-2.8,1.2-4c0.8-1.2,2-1.7,3.4-1.5c2.1,0.3,3.4,1.5,3.9,3.5c0.1,0.4,0.3,0.5,0.7,0.5
	c0.9,0,1.7,0,2.6,0c0.5,0,0.7-0.2,0.7-0.7C160.6,17.9,160.6,16.5,160.6,15.1z M62.6,59.2c0,2.2,0,4.4,0,6.6c0,1.5,0.4,2.9,1.2,4.2
	c2.6,4.4,7.9,5.8,12.5,4.7c4.3-1,6.2-4.6,6.3-8.5c0.1-4.2,0-8.3,0-12.5c0-0.7,0-1.5,0-2.2c0-0.4,0.1-0.6,0.6-0.6c0.5,0,0.9,0,1.4,0
	c0.5,0,0.7-0.2,0.7-0.7c0-1.2,0-2.4,0-3.6c0-0.6-0.2-0.8-0.8-0.8c-2.6,0-5.3,0-7.9,0c-0.5,0-0.7,0.2-0.7,0.7c0,0.9,0,1.7,0,2.6
	c0,1.8-0.1,1.7,1.6,1.6c0.6,0,0.8,0.2,0.8,0.8c0,4.6,0,9.2,0,13.9c0,0.9-0.3,1.8-0.8,2.6c-1,1.3-3,1.9-4.8,1.3
	c-1.6-0.5-2.8-2.1-2.8-3.9c0-1.6,0-3.2,0-4.7c0-3.1,0-6.1,0-9.2c0-0.8,0-0.8,0.8-0.8c0.3,0,0.6,0,1,0c0.4,0,0.6-0.2,0.6-0.6
	c0-1.2,0-2.4,0-3.6c0-0.5-0.2-0.7-0.7-0.7c-3.4,0-6.9,0-10.3,0c-0.6,0-0.8,0.2-0.8,0.7c0,0.9,0,1.8,0,2.7c0,1.9,0,1.7,1.6,1.6
	c0.6,0,0.8,0.2,0.8,0.8C62.6,54.3,62.7,56.8,62.6,59.2z M140.6,69.5C140.6,69.5,140.6,69.5,140.6,69.5c0,1,0,2,0,3
	c0,1.8,0,1.8,1.8,1.8c0.7,0,1.1-0.1,1.4-0.8c0.5-0.9,1.1-0.9,2-0.4c1.9,1.4,4.1,2.2,6.4,1.5c6.4-1.8,8-8.1,5.5-12.8
	c-1.1-2-2.9-3.2-4.9-4.2c-1.3-0.6-2.6-1.3-3.8-2.2c-0.5-0.4-1-0.9-1.3-1.6c-0.7-1.5,0.1-2.8,1.8-2.8c2.2,0,4.5,1.6,5.2,3.7
	c0.2,0.6,0.5,0.8,1.1,0.8c0.5,0,0.9,0,1.4,0c0.6,0.1,0.7-0.2,0.7-0.7c0-2.8,0-5.6,0-8.4c0-0.4-0.2-0.6-0.6-0.6c-0.4,0-0.9,0-1.3,0
	c-0.6-0.1-1,0.1-1.3,0.7c-0.5,1-1.2,1-2.1,0.4c-1.8-1.3-3.8-2.1-6-1.5c-5.7,1.5-7.9,6.7-6,11.9c0.8,2.2,2.6,3.6,4.6,4.6
	c1.4,0.8,2.8,1.4,4.2,2.2c0.8,0.5,1.5,1.2,1.7,2.2c0.3,1.5,0.3,2.5-1.7,2.7c-2.5,0.3-4.9-1.3-5.7-3.9c-0.1-0.4-0.4-0.6-0.8-0.6
	c-0.5,0-1.1,0-1.6,0c-0.6,0-0.8,0.2-0.8,0.7C140.6,66.7,140.6,68.1,140.6,69.5z M104,15.9c0-1.7,0-3.3,0-5c0-0.5-0.2-0.7-0.7-0.7
	c-0.9,0-1.7,0-2.6,0c-0.5,0-0.7,0.2-0.9,0.5c-0.5,1-0.9,1-1.8,0.3c-2.6-1.9-5.3-2.3-8.2-0.8c-3,1.6-4.9,4-5.9,7.1
	c-1.3,4-1.2,8-0.2,12.1c0.7,3,2.2,5.5,4.6,7.4c2.6,2,5.5,2.8,8.7,1.7c4.1-1.4,6.2-4.6,7.3-8.6c0.1-0.5,0-0.9-0.5-1.1
	c-0.8-0.3-1.6-0.6-2.4-0.9c-1.3-0.5-1.2-0.7-1.8,0.8c-0.4,1.2-1,2.3-2.1,3.2c-1.5,1.3-3.4,1-4.6-0.6c-0.2-0.3-0.5-0.7-0.6-1.1
	c-1.4-3.6-1.3-7.3-0.5-11c0.2-1,0.7-2,1.5-2.7c1.7-1.4,4.2-0.9,5.5,1c0.7,1,1,2.1,1.2,3.3c0.1,0.5,0.3,0.7,0.8,0.6
	c0.8,0,1.7-0.1,2.5,0c0.6,0,0.8-0.2,0.8-0.8C104,19.2,104,17.5,104,15.9z M29.2,15.9C29.2,15.9,29.2,15.9,29.2,15.9c0-1.7,0-3.3,0-5
	c0-0.5-0.2-0.7-0.7-0.7c-0.9,0-1.7,0-2.6,0c-0.4,0-0.6,0.1-0.8,0.5c-0.6,1-1,1.1-1.9,0.4c-2.4-1.8-5-2.3-7.7-1c-3.1,1.5-5,3.9-6.1,7
	C8,20.9,8,24.8,8.8,28.7c0.6,2.9,1.8,5.5,4,7.5c1.8,1.7,4,2.8,6.5,2.8c5.3,0.1,9.2-4.3,10.2-9.2c0.1-0.4-0.1-0.7-0.5-0.9
	c-0.7-0.3-1.5-0.6-2.2-0.9c-1.7-0.6-1.4-0.8-2.1,0.9c-0.5,1.2-1.1,2.4-2.3,3.2c-1.6,1-3.3,0.7-4.3-0.8c-0.3-0.5-0.6-1-0.8-1.5
	c-0.9-2.5-1-5.2-0.8-7.8c0.1-1.4,0.3-2.8,0.9-4.1c1.2-2.6,4.5-3,6.3-0.8c0.9,1.1,1.2,2.4,1.4,3.7c0.1,0.4,0.2,0.6,0.6,0.6
	c0.9,0,1.8,0,2.7,0c0.4,0,0.6-0.1,0.6-0.6C29.2,19.3,29.2,17.6,29.2,15.9z M99.9,74.2c3,0,6.1,0,9.1,0c0.6,0,0.8-0.2,0.8-0.8
	c0-2.9,0-5.8,0-8.6c0-0.5-0.2-0.6-0.7-0.6c-1,0-1.9,0-2.9,0c-0.7,0-0.8,0.1-0.8,0.8c0,1.1,0,2.3,0,3.4c0,0.5-0.1,0.9-0.7,0.9
	c-1.5,0-3,0-4.4,0c-0.8,0-0.9-0.1-0.9-1c0-5.4,0-10.8,0-16.2c0-0.2,0-0.4,0-0.7c0-0.4,0.2-0.6,0.5-0.5c0.4,0,0.9,0,1.3,0
	c0.4,0,0.6-0.2,0.6-0.5c0-1.3,0-2.6,0-3.8c0-0.4-0.2-0.6-0.6-0.6c-3.5,0-6.9,0-10.4,0c-0.6,0-0.8,0.2-0.8,0.8c0,1,0,1.9,0,2.9
	c0,1.4,0,1.4,1.4,1.4c1,0,1,0,1,1c0,5.2,0,10.4,0,15.6c0,1.5,0,1.5-1.5,1.5c-0.7,0-0.9,0.1-0.9,0.9c0,1.1,0,2.2,0,3.3
	c0,0.8,0,0.9,0.8,0.9C93.8,74.2,96.9,74.2,99.9,74.2z M125,74.2C125,74.2,125,74.2,125,74.2c3,0,6.1,0,9.1,0c0.6,0,0.8-0.2,0.8-0.8
	c0-2.9,0-5.8,0-8.6c0-0.4-0.2-0.6-0.6-0.6c-1,0-2,0-3,0c-0.6,0-0.8,0.2-0.8,0.7c0,1.2,0,2.3,0,3.5c0,0.6-0.2,0.8-0.8,0.8
	c-1.4,0-2.9,0-4.3,0c-0.9,0-1-0.1-1-1c0-5.4,0-10.7,0-16.1c0-0.2,0-0.5,0-0.7c0-0.4,0.2-0.5,0.6-0.5c0.4,0,0.8,0,1.2,0
	c0.4,0,0.6-0.2,0.6-0.6c0-1.3,0-2.5,0-3.8c0-0.4-0.2-0.6-0.6-0.6c-3.5,0-7,0-10.5,0c-0.5,0-0.7,0.2-0.7,0.7c0,1,0,2,0,3
	c0,1.4,0,1.4,1.4,1.4c1,0,1,0,1,1c0,5.2,0,10.4,0,15.6c0,1.5,0,1.5-1.5,1.5c-0.7,0-0.8,0.1-0.8,0.8c0,1.2,0,2.3,0,3.5
	c0,0.8,0,0.8,0.8,0.8C119,74.2,122,74.2,125,74.2z M69.5,24.3C69.5,24.3,69.5,24.3,69.5,24.3c0,2.8,0,5.6,0,8.4c0,0.8,0,0.8-0.8,0.8
	c-0.3,0-0.7,0-1,0c-0.4,0-0.5,0.2-0.5,0.6c0,1.3,0,2.6,0,3.9c0,0.4,0.2,0.6,0.6,0.6c3.6,0,7.1,0,10.7,0c0.5,0,0.7-0.2,0.7-0.7
	c0-1,0-2,0-3c0-1.3,0-1.3-1.3-1.3c-0.8,0-0.9,0-0.9-0.8c0-5.3,0-10.7,0-16c0-1.4-0.1-1.2,1.2-1.3c0.5,0,0.8-0.2,0.7-0.8
	c0-1.2,0-2.4,0-3.6c0-0.6-0.2-0.8-0.8-0.8c-1.3,0-2.5,0-3.8,0c-2.1,0-4.3,0-6.4,0c-0.7,0-0.8,0.1-0.8,0.8c0,1.2,0,2.3,0,3.5
	c0,0.5,0.2,0.7,0.6,0.6c0.4,0,0.7,0,1.1,0c0.5,0,0.6,0.1,0.6,0.6C69.5,18.7,69.5,21.5,69.5,24.3z M71,136.5
	c-0.6,1.7-1.3,3.2-2.5,4.4c-1.3,1.4-3.4,1.5-5.1,0.9c-0.6-0.2-1.1-0.5-1.8-0.8c3.8,8.3,7.5,16.3,12.4,23.7c0.3-0.1,0.3-0.2,0.4-0.4
	c1.2-5.8,1.1-11.6,0.1-17.4C73.8,143.4,72.7,140,71,136.5z M116.8,165c4.2-8,8.1-15.9,11.5-24.4c-4.4,1.8-7-0.3-8.9-3.8
	c-0.5,1.1-0.7,2.2-1,3.2c-0.5,1.9-1,3.8-1.5,5.8c-0.6,2.8-1.1,5.7-1.2,8.6c-0.1,2.7-0.2,5.4,0.4,8.1
	C116.3,163.4,116.5,164.1,116.8,165z M165,74.4c0.1,0,0.2,0.1,0.2,0c1-0.5,1.9-1,2.8-1.6c0.9-0.6,1.4-0.7,2.2,0
	c0.9,0.7,1.8,1.3,2.7,2c-0.2-0.7-0.2-1.2-0.4-1.8c-0.6-2-1.2-4.1-1.8-6.1c-1.1-3.6-2.3-7.2-4.1-10.6c-0.1-0.2-0.2-0.5-0.5-0.5
	c-0.4,0.1-0.2,0.4-0.2,0.7c0,1.2,0.1,2.4,0.1,3.6c0,1.7,0,3.4-0.1,5.1c-0.1,1.8-0.3,3.7-0.5,5.5C165.4,72,165.2,73.2,165,74.4z
	 M25.6,75.5c-1.6-6.4-1.5-12.9-1.2-19.4c-0.4-0.2-0.5,0-0.7,0.3c-0.5,1.1-1,2.2-1.5,3.3c-1.3,2.8-2.2,5.7-3.1,8.6
	c-0.5,1.4-0.8,2.9-1.2,4.4c-0.3,1-0.4,2.1-0.7,3.3c1.6-1.4,2.6-3.1,4-4.4C22.9,72.9,24.1,74.4,25.6,75.5z M70.1,134.7
	c-0.3,0-0.4,0.1-0.6,0.2c-1,0.8-2.2,1.3-3.4,1.7c-1.7,0.6-3.4,0.9-5.2,0.2c-0.5-0.2-0.9-0.6-1.4-0.7c-0.1,0.2-0.1,0.4,0,0.6
	c0.6,2,1.9,3.5,3.8,4.3c1.9,0.9,3.6,0.5,5-1c1-1,1.4-2.4,1.7-3.7C70.2,135.8,70.2,135.3,70.1,134.7z M120.2,134.9
	c0.3,1.8,0.9,3.3,2.2,4.5c1.1,1,3.1,1.3,4.3,0.7c1.5-0.8,2.8-1.9,3.6-3.5c0.3-0.6,0.6-1.1,0.6-1.8
	C127.3,136.9,123.8,137.6,120.2,134.9z M58.7,122.7c-0.3,4.8,3.3,9.1,9.1,8.9c0.6,0,0.5-0.5,0.5-0.8c0-0.3-0.1-0.6-0.5-0.6
	c-0.5,0-0.9-0.1-1.4-0.1c-2.7-0.4-4.8-1.6-5.8-4.2c-0.4-1-0.5-2-0.5-3.1C59.7,122.6,59.2,122.4,58.7,122.7z M122,131.8
	c6.6,0.2,9-4.7,8.9-9.6c-1.1,0.1-1.3,0.3-1.4,1.3c0,0.4-0.1,0.8-0.1,1.2c-0.5,2.7-1.7,4.7-4.4,5.6c-1,0.3-2,0.4-3,0.4
	C121.8,131.1,121.9,131.4,122,131.8z"/>
<path class="st1" d="M164.7,116.8c-0.9,1.1-1.8,2.1-2.9,3c-1.3,1-2.7,1.9-4.2,2.7c-1,0.5-2.1,0.9-3.2,1.3c-1.8,0.6-3.7,0.9-5.6,0.8
	c-1.6-0.1-3.2-0.3-4.8-0.6c-2.1-0.4-4-1-5.9-1.8c-0.1-0.1-0.3-0.1-0.4-0.2c-0.9-0.5-1.1-0.4-1.5,0.5c-1.1,2.5-1.9,5-3,7.5
	c-0.7,1.5-1.3,3.1-2.8,4.1c-0.7,0.4-1.4,0.8-2.1,1.2c-0.8,0.4-1.6,0.6-2.5,0.7c-1.8,0.3-4.3-0.9-5.1-2.4c1.1-0.2,2.2-0.3,3.3-0.6
	c2.5-0.7,4.9-1.6,6.4-3.9c0.7-1,1.1-2,1.5-3.1c0.5-1.3,0.8-2.7,1-4.1c0.1-0.4,0.3-0.6,0.7-0.8c0.5-0.2,1.1-0.2,1.6-0.4
	c0.6-0.3,1-0.9,0.9-1.6c-0.2-1.1-0.5-2.2-1.5-2.8c-0.8-0.5-1.7-0.7-2.6-0.7c-2.1-0.1-4,0.5-5.8,1.5c-1.9,1-3.3,2.5-4.8,3.9
	c-2.4,2.3-4.6,4.7-7.3,6.5c-1.9,1.3-4.1,2.1-6.4,2.1c-1.3,0-2.6,0.1-3.9-0.4c-1.8-0.6-3.3-1.6-4.4-3.2c-0.6-0.9-1.2-1.8-1.6-2.8
	c-0.4-1.1-0.7-2.2-0.9-3.3c0,0,0,0,0-0.1c0-0.4-0.4-0.7-0.1-1.1c0.3-0.3,0.7-0.1,1.1-0.1c1.6,0,3.2-0.2,4.8-0.3
	c2.2-0.2,4.5-0.4,6.7-0.7c1.8-0.2,3.6-0.5,5.5-0.6c0.4,0,0.8-0.1,1.1-0.2c0.3-0.1,0.5-0.2,0.5-0.6c0-0.4-0.3-0.5-0.6-0.5
	c-0.9,0.1-1.7,0.2-2.6,0.3c-1.9,0.3-3.9,0.5-5.8,0.7c-3.3,0.3-6.6,0.6-9.9,0.6c-1.2,0-1.1,0-1.2-1.2c-0.1-1-0.1-2-0.1-3
	c0-0.1,0-0.2,0.1-0.3c1.1-0.1,2.3-0.1,3.4-0.2c2.6-0.2,5.2-0.4,7.8-0.8c2-0.3,4-0.6,6.1-0.8c0.5-0.1,1-0.2,1.5-0.3
	c0.3-0.1,0.6-0.2,0.5-0.6c-0.1-0.3-0.4-0.3-0.6-0.3c-0.9,0-1.8,0.3-2.7,0.5c-2.1,0.4-4.2,0.6-6.3,0.8c-3,0.3-6.1,0.3-9.1,0.5
	c-0.4,0-0.6-0.1-0.6-0.6c0-1.4,0-2.8,0-4.3c0-0.5,0.2-0.7,0.6-0.6c1,0,2.1-0.1,3.1-0.1c2,0,4.1-0.3,6.1-0.5c2.8-0.3,5.6-0.8,8.4-1.3
	c0.3,0,0.6-0.1,0.6-0.5c0-0.4-0.4-0.4-0.7-0.4c-0.8,0.1-1.6,0.2-2.4,0.3c-1.2,0.2-2.4,0.3-3.5,0.5c-2,0.3-4.1,0.4-6.1,0.6
	c-0.6,0.1-1.2,0.1-1.8,0.1c-1.4,0-2.8,0.2-4.2,0.2c-0.2-0.3-0.1-0.6-0.1-0.8c0-1.2,0-2.4,0-3.6c0-0.3,0-0.7-0.4-0.7
	c-0.4,0-0.5,0.4-0.5,0.7c0,1.3,0,2.5,0,3.8c0,0.2,0,0.4,0,0.5c-0.1,0.2-0.3,0.2-0.4,0.2c-2.4,0-4.8,0-7.2-0.2c-2-0.2-4-0.3-6-0.5
	c-1.6-0.2-3.3-0.3-4.9-0.6c-0.4-0.1-1-0.2-1.1,0.3c-0.1,0.6,0.5,0.6,1,0.7c1.4,0.2,2.9,0.4,4.3,0.6c1.6,0.2,3.2,0.4,4.9,0.6
	c2.7,0.2,5.4,0.4,8.1,0.5c0.4,0,0.8,0,1.2,0c0.2,0.8,0,1.5,0.1,2.2c0.1,0.9,0,1.9,0,2.8c0,0.3-0.2,0.4-0.4,0.4c-1.5,0-3,0-4.4-0.2
	c-1.4-0.1-2.7-0.2-4.1-0.4c-2.1-0.2-4.1-0.4-6.2-0.7c-1.3-0.2-2.6-0.4-3.9-0.5c-0.3,0-0.7-0.2-0.7,0.3c-0.1,0.5,0.3,0.7,0.6,0.7
	c0.8,0.2,1.7,0.4,2.6,0.5c1.6,0.2,3.1,0.5,4.7,0.7c0.8,0.1,1.6,0.2,2.4,0.3c1.2,0,2.4,0.3,3.7,0.3c1.9,0.1,3.8,0.3,5.7,0.2
	c0,1,0,2,0,2.9c-0.1,1.7-0.1,1.7-1.7,1.7c-0.9,0-1.9,0.1-2.8-0.1c-1.6-0.2-3.1-0.2-4.7-0.4c-1-0.1-2-0.2-2.9-0.3
	c-2.1-0.2-4.1-0.4-6.2-0.7c-0.7-0.1-0.9,0.1-1,0.7c0.7,0.4,1.6,0.4,2.4,0.5c2.1,0.3,4.2,0.5,6.3,0.7c1.9,0.2,3.9,0.3,5.9,0.5
	c1.4,0.1,2.7,0.1,4.1,0.1c0.6,0,0.6,0.1,0.5,0.7c-0.3,1.2-0.6,2.3-1.1,3.4c-1,2.3-2.4,4.4-4.5,5.8c-2.1,1.4-4.5,1.9-7.1,1.5
	c-3.2-0.6-5.8-2.1-8.2-4.2c-2.3-2-4.4-4.2-6.7-6.2c-1.7-1.5-3.6-2.7-5.7-3.5c-1.3-0.4-2.7-0.5-4-0.3c-0.8,0.1-1.4,0.8-1.8,1.4
	c-0.6,0.9-1.1,1.9-0.9,3.1c0.1,0.7,0.6,1.2,1.3,1.3c0.1,0,0.1,0,0.2,0c1.1,0.1,1.1,0.2,1.3,1.2c0.3,2.3,0.9,4.5,2.4,6.2
	c0.8,0.9,1.6,1.7,2.7,2.3c2.1,1.2,4.4,1.4,6.7,1.7c0,0,0.1,0,0.1,0.1c-0.4,0.9-1.2,1.4-1.9,2c-1.6,1.2-3.4,1.4-5.3,1
	c-1.7-0.4-3.1-1.4-4-2.9c-0.5-0.8-1-1.6-1.4-2.5c-0.5-1.3-1-2.7-1.4-4c-0.4-1.3-0.8-2.6-1.4-3.8c-0.3-0.7-0.4-0.7-1.1-0.4
	c-2.4,1.1-4.9,1.9-7.6,2.3c-2.1,0.3-4.2,0.5-6.3,0.4c-3.6-0.2-6.8-1.3-9.8-3.4c-1.5-1-2.8-2.3-4-3.6c-0.1-0.1-0.3-0.3-0.4-0.5
	c1-0.5,1.9-0.9,2.8-1.3c3.1-1.1,6.2-2.1,9.4-2.8c2.4-0.6,4.9-1.2,7.3-1.6c1.7-0.3,3.5-0.6,5.2-0.8c1.8-0.3,3.6-0.4,5.3-0.7
	c0.4-0.1,0.8,0,1.3,0c0.3,0,0.5-0.1,0.6-0.5c0.2-1.7,0.4-3.4,0.7-5.1c0.2-1.5,0.5-2.9,0.8-4.4c0.3-1.5,0.7-3.1,1.1-4.6
	c0.5-1.8,1-3.5,1.6-5.3c0.2-0.6,0.4-1.3,0.6-1.9c0.1-0.5,0.4-0.7,0.9-0.7c3.1-0.1,6.3-0.3,9.4-0.5c2.5-0.1,5-0.3,7.5-0.4
	c2.4-0.1,4.7-0.2,7.1-0.3c4-0.2,8-0.3,12.1-0.2c1.7,0,3.3,0,5,0.1c3.4,0.1,6.8,0.2,10.1,0.3c1.9,0.1,3.8,0.1,5.7,0.2
	c1.8,0.1,3.6,0.1,5.5,0.2c1.2,0.1,2.3,0.1,3.5,0.2c0.3,0,0.4,0.1,0.5,0.4c0.6,1.8,1.2,3.7,1.6,5.6c0.5,2.4,1,4.8,1.3,7.3
	c0.4,2.9,0.6,5.7,0.9,8.6c0,0.3,0.2,0.5,0.5,0.5c0.4,0,0.8,0,1.2,0c2.5,0.1,5.1,0.4,7.6,0.7c2.6,0.3,5.2,0.8,7.8,1.3
	c1.7,0.3,3.3,0.8,5,1.2c2,0.5,4,1.2,5.9,1.9c1.3,0.5,2.6,1,3.9,1.5C164.5,116.7,164.6,116.7,164.7,116.8z"/>
<path class="st1" d="M74.9,165.9c3.8-10.6,2.9-21.1-1-31.6c2.5,1.2,4.9,1.7,7.4,2c2.5,0.2,5,0,7.5-0.8c1.7-0.6,3.1-1.6,4.5-2.7
	c0.5-0.4,0.8-1,1.2-1.5c0.2-0.3,0.5-0.6,0.8-0.8c1.1,1.6,2.3,3,4,3.9c2.7,1.6,5.6,2.1,8.8,1.7c2.7-0.3,5.3-1.3,7.8-2.3
	c0.1-0.1,0.3-0.2,0.4-0.3c0.1-0.1,0.3-0.1,0.6-0.2c-3.8,11.1-4.2,22.2-0.4,33.5C102.6,159.6,88.9,159.5,74.9,165.9z M78.5,138.2
	c-0.2,0.3-0.1,0.5-0.1,0.7c0.2,1.6,0.5,3.2,1,4.8c0.8,2.6,1.9,4.9,3.7,7c0.1,0.1,0.1,0.1,0.2,0.2c1.4,1.7,3.2,3.1,5.3,3.9
	c2.4,1,4.9,1.4,7.5,1.2c1.8-0.1,3.5-0.4,5.2-1.1c2.1-0.8,3.9-2.1,5.5-3.7c0.7-0.8,1.5-1.5,2.1-2.4c1.2-1.8,2.3-3.8,3.1-5.8
	c0.6-1.5,1-3,1.5-4.5c0.1-0.3,0.2-0.6-0.4-0.7c-0.3,1-0.5,2-0.9,3c-0.7,2.1-1.6,4.1-2.7,6c-1.2,2.1-2.7,3.9-4.6,5.4
	c-2.2,1.7-4.6,2.7-7.4,3.1c-2.8,0.4-5.5,0.2-8.1-0.8c-2.7-1-4.9-2.8-6.6-5.2c-1.4-2-2.4-4.2-3.1-6.6c-0.3-1.1-0.6-2.2-0.8-3.4
	C78.8,139,79,138.5,78.5,138.2z"/>
<path class="st1" d="M95.7,162.1c2.1,0,5.2,0.4,8.3,1c3,0.6,5.9,1.8,8.7,3.2c1.5,0.7,3.1,1.5,4.5,2.5c0.7,0.5,1.4,0.9,2.1,1.4
	c0.3,0.2,0.4,0.4,0.3,0.8c-0.1,1.3-0.4,2.6-0.7,3.9c-0.4,1.7-0.9,3.4-1.5,5c-0.8,1.9-1.6,3.8-2.7,5.5c-0.6,1-1.3,1.8-1.9,2.8
	c-0.5,0.9-1.4,1.2-2.2,1.5c-2.5,0.8-5.1,1.5-7.7,1.9c-1.4,0.3-2.9,0.4-4.4,0.5c-1.7,0.1-3.4,0.2-5,0.1c-2-0.1-4.1-0.2-6.1-0.5
	c-1.7-0.3-3.4-0.6-5.1-1.1c-1.3-0.4-2.7-0.9-4-1.4c-0.6-0.2-0.9-0.9-1.3-1.3c-1.3-1.7-2.4-3.5-3.3-5.5c-0.6-1.3-1-2.7-1.4-4
	c-0.8-2.7-1-5.5-1.3-8.2c-0.1-1,0.6-1.4,1.2-1.8c1.4-0.9,2.9-1.8,4.5-2.5c2.8-1.2,5.7-2.3,8.8-2.9C88.5,162.5,91.6,162.1,95.7,162.1
	z M89.1,176.1c0.3,0.2,0.2,0.4,0.2,0.6c0.1,0.8,0,1.7-0.5,2.4c-0.1,0.2-0.3,0.4,0,0.6c0.3,0.1,0.5-0.1,0.6-0.3
	c0.4-0.9,0.9-1.8,1-2.9c0.2-1.5,0-3-1-4.2c-1.2-1.5-2.7-2.4-4.6-2.7c-2-0.3-3.8,0-5.5,1.2c-2.5,1.8-2.7,4.5-0.6,6.7
	c2.6,2.8,6.6,2.5,9.1,0C88.3,177,88.7,176.5,89.1,176.1z M100.6,175.2c0.8,1.6,2.1,2.6,3.8,3.1c2.4,0.7,4.6,0.2,6.4-1.6
	c1.1-1.1,1.7-2.4,1.4-4c-0.2-1.4-1.2-2.4-2.4-3c-2.9-1.7-6.8-1.1-9,1.3c-0.7,0.8-1.3,1.7-1.5,2.7c-0.2,1.2-0.2,2.4,0.2,3.6
	c0.3,0.7,0.5,1.4,1.3,2C100.8,177.8,99.8,176.6,100.6,175.2z M111.1,187.2c0.1,0,0.3,0,0.4-0.3c0.1-0.2-0.1-0.3-0.3-0.4
	c-2.7-1.3-5.5-2-8.4-2.6c-1.3-0.3-2.6-0.4-3.8-0.5c-3.9-0.2-7.7-0.1-11.6,0.7c-2.9,0.6-5.7,1.3-8.4,2.5c-0.2,0.1-0.5,0.1-0.4,0.4
	c0.1,0.3,0.4,0.2,0.6,0.1c1.2-0.5,2.5-0.9,3.8-1.3c1.5-0.4,3-0.8,4.5-1.1c1.6-0.3,3.2-0.4,4.9-0.6c2.8-0.3,5.5-0.1,8.3,0.2
	c1,0.1,2,0.3,3,0.5c1.4,0.3,2.7,0.7,4.1,1.1C108.9,186.4,109.9,186.9,111.1,187.2z"/>
<path class="st2" d="M129.9,88.1c1.6-0.1,3.1,0.1,4.7,0.1c3.5,0.1,7,0.3,10.4,0.1c3.6-0.2,7.2-0.7,10.5-2.3c2.9-1.4,5.2-3.6,6.9-6.3
	c0-0.1,0.1-0.1,0.1-0.2c1-1,1.3-2.7,2.7-3.4c1.3-0.7,2.5-1.4,3.8-2.1c0.2-0.1,0.4-0.1,0.6,0c1.1,0.8,2.2,1.5,3.2,2.3
	c0.3,0.2,0.3,0.7,0.3,1c0.8,5.4,0.2,10.7-2.3,15.6c-2.3,4.6-6,7.8-10.5,10.1c-4.3,2.2-8.7,3.7-13.4,4.6c-4.1,0.8-8.3,1.2-12.5,1.3
	c-0.5,0-0.7-0.2-0.7-0.6c-0.3-3.1-0.8-6.2-1.3-9.2c-0.6-3.5-1.4-6.9-2.4-10.3C130,88.5,129.9,88.3,129.9,88.1z"/>
<path class="st2" d="M21.4,73.3c1.4,1.4,3.2,2.5,4.4,4.1c0.4,0.4,0.7,0.9,0.8,1.5c0.6,2,1.9,3.6,3.4,5.1c2.6,2.6,5.8,4,9.3,4.8
	c3.9,0.9,7.9,0.6,11.8,0.4c2.9-0.1,5.7-0.4,8.6-0.6c0.2,0,0.4-0.1,0.6,0.1c-0.3,0.8-0.5,1.5-0.8,2.3c-1.5,4.5-2.6,9-3.4,13.7
	c-0.2,1.1-0.4,2.3-0.5,3.4c-0.1,0.4-0.2,0.5-0.6,0.5c-4.1,0-8.1,0.1-12.2-0.4c-5.8-0.7-11.4-2.2-16.4-5.4c-4.9-3.2-7.8-7.6-9.1-13.2
	c-0.9-3.8-0.9-7.5-0.3-11.3c0-0.2,0.1-0.4,0.2-0.5c1.3-1.5,2.7-2.9,4-4.4C21.3,73.4,21.3,73.4,21.4,73.3z"/>
<path class="st2" d="M41,38.6c-1.8,0-3.5,0-5.3,0c-0.6,0-0.7-0.2-0.7-0.7c0-1.2,0-2.3,0-3.5c0-0.6,0.2-0.8,0.8-0.8
	c1.6,0,1.6,0,1.6-1.6c0-5.2,0-10.5,0-15.7c0-0.8-0.1-0.8-0.8-0.9c-1.8,0-1.5,0.2-1.6-1.6c0-0.9,0-1.8,0-2.7c0-0.8,0.1-0.9,0.9-0.9
	c1.9,0,3.8,0,5.8,0c1.5,0,2.9,0,4.4,0c0.6,0,0.8,0.2,0.8,0.8c0,1.2,0,2.4,0,3.5c0,0.5-0.1,0.7-0.6,0.7c-1.2,0.1-1.3,0.1-1.3,1.3
	c0,1.5,0,3,0,4.6c0,0.8,0.1,0.9,0.9,0.9c1.9,0,3.7,0,5.6,0c0.5,0,0.8-0.2,0.8-0.8c0-1.8,0-3.6,0-5.3c0-0.5-0.1-0.6-0.6-0.6
	c-1.3,0-1.3,0.1-1.3-1.2c0-1,0-2,0-3c0-0.5,0.2-0.8,0.8-0.8c3.4,0,6.8,0,10.3,0c0.6,0,0.8,0.2,0.8,0.8c0,1.2,0,2.4,0,3.6
	c0,0.6-0.2,0.8-0.8,0.8c-0.3,0-0.6,0-0.9,0c-0.5,0-0.7,0.2-0.7,0.7c0,2.5,0,5.1,0,7.6c0,3,0,6,0,9.1c0,0.6,0.2,0.8,0.8,0.8
	c0.3,0,0.7,0,1,0c0.4,0,0.6,0.2,0.6,0.6c0,1.3,0,2.6,0,3.9c0,0.4-0.2,0.6-0.6,0.6c-3.6,0-7.3,0-10.9,0c-0.4,0-0.5-0.2-0.5-0.5
	c0-1.4,0-2.7,0-4.1c0-0.3,0.1-0.5,0.5-0.4c0.2,0,0.4,0,0.5,0c1.1,0,1.1,0,1.1-1.1c0-1.7,0-3.3,0-5c0-1-0.1-1.1-1.1-1.1
	c-1.7,0-3.4,0-5.1,0c-0.8,0-0.9,0.2-0.9,0.9c0,1.9,0,3.8,0,5.7c0,0.5,0.2,0.6,0.7,0.6c1.5,0,1.4-0.2,1.4,1.4c0,1,0,1.9,0,2.9
	c0,0.6-0.2,0.8-0.8,0.8C44.5,38.5,42.7,38.6,41,38.6C41,38.6,41,38.6,41,38.6z"/>
<path class="st2" d="M51.9,59.9c0.9,0.7,1.9,1.3,2.6,2.1c3.5,3.7,1.8,10.5-3,11.9c-0.5,0.2-1.1,0.3-1.7,0.3c-5.1,0-10.3,0-15.4,0
	c-0.9,0-1,0-0.9-1c0-1.1,0-2.2,0-3.3c0-0.5,0.2-0.8,0.7-0.8c1.6,0,1.6,0,1.6-1.6c0-5.2,0-10.4,0-15.6c0-0.9,0-0.9-0.9-0.9
	c-1.7,0-1.5,0-1.5-1.5c0-0.9,0-1.8,0-2.7c0-0.8,0.1-0.9,0.9-0.9c1.6,0,3.3,0,4.9,0c3.1,0,6.2,0.1,9.2,0c2.4-0.1,5.8,2,6.9,4.9
	c1,2.6,0.2,5.8-2,7.8C52.9,59,52.4,59.4,51.9,59.9z M43.3,65.4C43.3,65.4,43.3,65.4,43.3,65.4c0,0.9,0,1.7,0,2.6
	c0,0.7,0.2,0.8,0.9,0.9c0.8,0,1.5,0,2.2-0.1c1.7-0.3,2.8-1.2,2.9-2.6c0.2-1.8-0.5-3.1-2.2-3.7c-1-0.4-2-0.5-3.1-0.4
	c-0.5,0-0.8,0.3-0.8,0.8C43.3,63.7,43.3,64.6,43.3,65.4z M43.3,54.2C43.3,54.2,43.3,54.2,43.3,54.2c0,0.9,0,1.8,0,2.7
	c0,0.4,0.1,0.7,0.6,0.7c1,0,1.9,0.1,2.9-0.2c1.4-0.3,2.4-1.3,2.6-2.6c0.2-1.6-0.5-2.8-1.9-3.5c-1.1-0.5-2.2-0.6-3.4-0.6
	c-0.6,0-0.8,0.2-0.8,0.8C43.3,52.4,43.3,53.3,43.3,54.2z"/>
<path class="st2" d="M165.6,24.5c0.1-4.3,1.5-8.2,4.8-11.2c5.1-4.7,12.6-4.1,17,1.5c2.9,3.7,3.9,8,3.2,12.6c-0.6,4-2.4,7.3-5.7,9.7
	c-4.9,3.6-11.5,2.7-15.5-2.1C166.8,32,165.7,28.6,165.6,24.5z M182.8,24.7c0-1.2-0.1-2.4-0.4-3.6c-0.4-1.7-0.9-3.3-2.1-4.6
	c-1.3-1.5-2.9-1.5-4.3-0.2c-0.7,0.7-1.1,1.5-1.5,2.3c-1.2,3.1-1.4,6.4-0.7,9.7c0.4,1.7,1,3.4,2.2,4.7c1.2,1.3,2.7,1.3,4,0.1
	c0.4-0.4,0.8-0.8,1-1.3C182.4,29.6,182.8,27.2,182.8,24.7z"/>
<path class="st2" d="M115.9,33.4c0.5,0.1,1.1,0.1,1.6,0.1c0.5,0,0.7,0.2,0.7,0.6c0,1.3,0,2.6,0,3.8c0,0.4-0.2,0.6-0.6,0.6
	c-2.5,0-5.1,0-7.6,0c-0.4,0-0.6-0.2-0.6-0.5c0-1.3,0-2.6,0-3.9c0-0.4,0.2-0.6,0.6-0.6c1.8,0.1,1.5-0.1,2-1.6
	c1.7-5.2,3.4-10.4,5-15.7c0.3-0.8,0.2-0.9-0.7-0.9c-0.4,0-0.8,0-1.2,0c-0.4,0-0.6-0.1-0.6-0.6c0-1.3,0-2.6,0-3.8
	c0-0.5,0.3-0.7,0.8-0.7c4.9,0,9.8,0,14.6,0c0.5,0,0.7,0.2,0.7,0.7c0,1.3,0,2.5,0,3.8c0,0.4-0.2,0.5-0.5,0.5c-0.4,0-0.9,0-1.3,0
	c-0.8,0-0.8,0.1-0.6,0.8c0.7,2.3,1.5,4.7,2.2,7c1,3.1,2,6.3,3,9.4c0.3,1,0.3,1,1.4,1c1.1,0,1.1,0,1.1,1.1c0,1.1,0,2.2,0,3.3
	c0,0.5-0.2,0.7-0.7,0.7c-3.5,0-7.1,0-10.6,0c-0.5,0-0.7-0.1-0.7-0.7c0-1.2,0-2.5,0-3.7c0-0.5,0.2-0.7,0.6-0.6c0.4,0,0.8,0,1.2,0
	c0.4,0,0.5-0.2,0.4-0.5c-0.3-1-0.6-1.9-0.9-2.9c-0.1-0.3-0.4-0.4-0.7-0.4c-2.3,0-4.6,0-6.9,0c-0.4,0-0.6,0.2-0.7,0.6
	c-0.3,0.9-0.6,1.9-0.9,2.8C115.9,33.2,115.9,33.3,115.9,33.4z M121.1,17.6c-0.1,0-0.2,0-0.2,0c-0.9,2.7-1.7,5.4-2.6,8.2
	c1.9,0,3.6,0,5.5,0C122.8,23,122,20.3,121.1,17.6z"/>
<path class="st2" d="M160.6,15.1c0,1.4,0,2.8,0,4.1c0,0.5-0.2,0.7-0.7,0.7c-0.9,0-1.7,0-2.6,0c-0.4,0-0.6-0.1-0.7-0.5
	c-0.5-2-1.8-3.3-3.9-3.5c-1.4-0.2-2.6,0.3-3.4,1.5c-0.8,1.2-1.1,2.6-1.2,4c-0.3,2.8-0.3,5.5,0.6,8.2c0.1,0.5,0.3,0.9,0.6,1.3
	c0.8,1.6,1.9,2.2,3.7,1.9c1.6-0.2,3-1.4,3.3-3c0.2-1.3,0-1.3-1-1.3c-0.7,0-1.4,0-2.1,0c-0.4,0-0.5-0.2-0.5-0.5c0-1.2,0-2.3,0-3.5
	c0-0.4,0.2-0.6,0.6-0.6c0.5,0,1,0,1.5,0c2.3,0,4.6,0,6.9,0c0.5,0,0.9,0.1,0.9,0.7c0,3.5-0.5,6.8-2.5,9.8c-4.2,6.1-12.7,6.1-17.1,0.1
	c-1.4-2-2.3-4.2-2.7-6.6c-0.7-3.9-0.6-7.8,0.9-11.6c1.4-3.5,3.9-6,7.7-7c2.2-0.6,4.2,0.2,6,1.5c0.1,0.1,0.2,0.2,0.3,0.3
	c0.6,0.4,1.1,0.3,1.4-0.4c0.2-0.5,0.5-0.7,1.1-0.7c0.7,0,1.5,0,2.2,0c0.9,0,1,0,1,1C160.6,12.5,160.6,13.8,160.6,15.1
	C160.6,15.1,160.6,15.1,160.6,15.1z"/>
<path class="st2" d="M62.7,59.2c0-2.5,0-4.9,0-7.4c0-0.6-0.2-0.8-0.8-0.8c-1.7,0-1.7,0.2-1.6-1.6c0-0.9,0-1.8,0-2.7
	c0-0.5,0.2-0.7,0.8-0.7c3.4,0,6.9,0,10.3,0c0.5,0,0.7,0.2,0.7,0.7c0,1.2,0,2.4,0,3.6c0,0.4-0.1,0.6-0.6,0.6c-0.3,0-0.6,0-1,0
	c-0.8,0-0.8,0-0.8,0.8c0,3.1,0,6.1,0,9.2c0,1.6,0,3.2,0,4.7c0,1.7,1.2,3.3,2.8,3.9c1.8,0.6,3.9,0,4.8-1.3c0.6-0.8,0.8-1.7,0.8-2.6
	c0-4.6,0-9.2,0-13.9c0-0.6-0.2-0.8-0.8-0.8c-1.7,0-1.6,0.1-1.6-1.6c0-0.9,0-1.7,0-2.6c0-0.5,0.2-0.7,0.7-0.7c2.6,0,5.3,0,7.9,0
	c0.6,0,0.8,0.2,0.8,0.8c0,1.2,0,2.4,0,3.6c0,0.5-0.2,0.7-0.7,0.7c-0.5,0-0.9,0-1.4,0c-0.4,0-0.6,0.2-0.6,0.6c0,0.7,0,1.5,0,2.2
	c0,4.2,0,8.3,0,12.5c-0.1,3.9-2,7.5-6.3,8.5c-4.6,1.1-9.9-0.3-12.5-4.7c-0.8-1.3-1.2-2.7-1.2-4.2C62.7,63.6,62.6,61.4,62.7,59.2z"/>
<path class="st2" d="M140.6,69.5c0-1.4,0-2.8,0-4.2c0-0.5,0.2-0.8,0.8-0.7c0.5,0,1.1,0,1.6,0c0.4,0,0.6,0.2,0.8,0.6
	c0.8,2.6,3.3,4.2,5.7,3.9c2-0.3,2-1.2,1.7-2.7c-0.2-1-0.9-1.7-1.7-2.2c-1.3-0.8-2.8-1.5-4.2-2.2c-2-1.1-3.8-2.4-4.6-4.6
	c-1.9-5.2,0.4-10.4,6-11.9c2.2-0.6,4.2,0.2,6,1.5c0.9,0.7,1.6,0.6,2.1-0.4c0.3-0.5,0.7-0.7,1.3-0.7c0.4,0,0.9,0,1.3,0
	c0.4,0,0.6,0.2,0.6,0.6c0,2.8,0,5.6,0,8.4c0,0.5-0.2,0.7-0.7,0.7c-0.5,0-0.9,0-1.4,0c-0.6,0.1-0.9-0.1-1.1-0.8
	c-0.7-2.1-3-3.7-5.2-3.7c-1.6,0-2.5,1.3-1.8,2.8c0.3,0.6,0.8,1.1,1.3,1.6c1.1,0.9,2.5,1.6,3.8,2.2c2,1,3.8,2.2,4.9,4.2
	c2.5,4.7,0.9,11-5.5,12.8c-2.4,0.7-4.5-0.1-6.4-1.5c-0.8-0.6-1.5-0.5-2,0.4c-0.3,0.6-0.8,0.8-1.4,0.8c-1.8,0-1.8,0-1.8-1.8
	C140.6,71.5,140.6,70.5,140.6,69.5C140.6,69.5,140.6,69.5,140.6,69.5z"/>
<path class="st2" d="M104,15.9c0,1.6,0,3.2,0,4.9c0,0.5-0.1,0.8-0.8,0.8c-0.8-0.1-1.7,0-2.5,0c-0.5,0-0.7-0.2-0.8-0.6
	c-0.2-1.2-0.5-2.3-1.2-3.3c-1.3-1.9-3.8-2.4-5.5-1c-0.8,0.7-1.3,1.7-1.5,2.7c-0.8,3.7-0.9,7.4,0.5,11c0.2,0.4,0.4,0.8,0.6,1.1
	c1.2,1.6,3.1,1.8,4.6,0.6c1-0.8,1.6-2,2.1-3.2c0.6-1.5,0.5-1.3,1.8-0.8c0.8,0.3,1.6,0.6,2.4,0.9c0.5,0.2,0.7,0.6,0.5,1.1
	c-1,4-3.1,7.2-7.3,8.6c-3.2,1.1-6.1,0.2-8.7-1.7c-2.5-1.9-3.9-4.5-4.6-7.4c-1-4-1.1-8.1,0.2-12.1c1-3.1,2.9-5.6,5.9-7.1
	c2.9-1.5,5.6-1.1,8.2,0.8c0.9,0.7,1.3,0.6,1.8-0.3c0.2-0.4,0.5-0.6,0.9-0.5c0.8,0,1.7,0,2.6,0c0.5,0,0.7,0.2,0.7,0.7
	C104,12.6,104,14.3,104,15.9z"/>
<path class="st2" d="M29.2,15.9c0,1.7,0,3.4,0,5c0,0.5-0.2,0.6-0.6,0.6c-0.9,0-1.8,0-2.7,0c-0.4,0-0.6-0.2-0.6-0.6
	c-0.2-1.3-0.6-2.6-1.4-3.7c-1.8-2.3-5.1-1.9-6.3,0.8c-0.6,1.3-0.8,2.7-0.9,4.1c-0.2,2.6-0.1,5.3,0.8,7.8c0.2,0.5,0.4,1,0.8,1.5
	c1,1.6,2.8,1.9,4.3,0.8c1.1-0.8,1.8-1.9,2.3-3.2c0.7-1.8,0.5-1.6,2.1-0.9c0.7,0.3,1.5,0.6,2.2,0.9c0.4,0.2,0.5,0.5,0.5,0.9
	c-1,4.8-4.9,9.3-10.2,9.2c-2.5-0.1-4.7-1.1-6.5-2.8c-2.2-2-3.4-4.6-4-7.5C8,24.8,8,20.9,9.3,17.1c1.1-3.1,3.1-5.6,6.1-7
	c2.8-1.3,5.3-0.8,7.7,1c0.9,0.7,1.3,0.7,1.9-0.4c0.2-0.3,0.4-0.5,0.8-0.5c0.9,0,1.7,0,2.6,0c0.5,0,0.7,0.2,0.7,0.7
	C29.2,12.6,29.2,14.3,29.2,15.9C29.2,15.9,29.2,15.9,29.2,15.9z"/>
<path class="st2" d="M99.9,74.2c-3,0-6,0-9.1,0c-0.8,0-0.8,0-0.8-0.9c0-1.1,0-2.2,0-3.3c0-0.7,0.2-0.8,0.9-0.9c1.5,0,1.5,0,1.5-1.5
	c0-5.2,0-10.4,0-15.6c0-1,0-1-1-1C90,51,90,51,90,49.7c0-1,0-1.9,0-2.9c0-0.6,0.2-0.8,0.8-0.8c3.5,0,6.9,0,10.4,0
	c0.4,0,0.6,0.2,0.6,0.6c0,1.3,0,2.6,0,3.8c0,0.4-0.2,0.5-0.6,0.5c-0.4,0-0.9,0-1.3,0c-0.4,0-0.6,0.2-0.5,0.5c0,0.2,0,0.4,0,0.7
	c0,5.4,0,10.8,0,16.2c0,0.9,0.1,1,0.9,1c1.5,0,3,0,4.4,0c0.6,0,0.8-0.4,0.7-0.9c0-1.1,0-2.3,0-3.4c0-0.7,0.1-0.8,0.8-0.8
	c1,0,1.9,0,2.9,0c0.5,0,0.7,0.1,0.7,0.6c0,2.9,0,5.8,0,8.6c0,0.6-0.2,0.8-0.8,0.8C105.9,74.2,102.9,74.2,99.9,74.2z"/>
<path class="st2" d="M125,74.2c-3,0-6,0-9.1,0c-0.8,0-0.8,0-0.8-0.8c0-1.2,0-2.3,0-3.5c0-0.7,0.1-0.8,0.8-0.8c1.5,0,1.5,0,1.5-1.5
	c0-5.2,0-10.4,0-15.6c0-1,0-1-1-1c-1.4,0-1.4,0-1.4-1.4c0-1,0-2,0-3c0-0.5,0.2-0.7,0.7-0.7c3.5,0,7,0,10.5,0c0.4,0,0.6,0.2,0.6,0.6
	c0,1.3,0,2.5,0,3.8c0,0.5-0.2,0.6-0.6,0.6c-0.4,0-0.8,0-1.2,0c-0.4,0-0.6,0.2-0.6,0.5c0,0.2,0,0.5,0,0.7c0,5.4,0,10.7,0,16.1
	c0,0.8,0.1,1,1,1c1.4,0,2.9,0,4.3,0c0.6,0,0.8-0.2,0.8-0.8c0-1.2,0-2.3,0-3.5c0-0.6,0.2-0.8,0.8-0.7c1,0,2,0,3,0
	c0.4,0,0.6,0.2,0.6,0.6c0,2.9,0,5.8,0,8.6c0,0.6-0.2,0.8-0.8,0.8C131.1,74.2,128,74.2,125,74.2C125,74.2,125,74.2,125,74.2z"/>
<path class="st2" d="M69.5,24.3c0-2.8,0-5.6,0-8.4c0-0.5-0.2-0.7-0.6-0.6c-0.4,0-0.7,0-1.1,0c-0.4,0-0.7-0.2-0.6-0.6
	c0-1.2,0-2.3,0-3.5c0-0.7,0.1-0.8,0.8-0.8c2.1,0,4.3,0,6.4,0c1.3,0,2.5,0,3.8,0c0.6,0,0.8,0.2,0.8,0.8c0,1.2,0,2.4,0,3.6
	c0,0.5-0.2,0.7-0.7,0.8c-1.4,0-1.2-0.2-1.2,1.3c0,5.3,0,10.7,0,16c0,0.8,0,0.8,0.9,0.8c1.3,0,1.3,0,1.3,1.3c0,1,0,2,0,3
	c0,0.5-0.2,0.7-0.7,0.7c-3.6,0-7.1,0-10.7,0c-0.4,0-0.6-0.1-0.6-0.6c0-1.3,0-2.6,0-3.9c0-0.4,0.1-0.6,0.5-0.6c0.3,0,0.7,0,1,0
	c0.8,0,0.8,0,0.8-0.8C69.5,29.9,69.5,27.1,69.5,24.3C69.5,24.3,69.5,24.3,69.5,24.3z"/>
<path class="st1" d="M71,136.5c1.7,3.4,2.8,6.9,3.4,10.5c1,5.8,1.1,11.6-0.1,17.4c0,0.2-0.1,0.3-0.4,0.4
	c-4.9-7.4-8.6-15.5-12.4-23.7c0.7,0.3,1.3,0.6,1.8,0.8c1.7,0.6,3.8,0.5,5.1-0.9C69.7,139.7,70.4,138.3,71,136.5z"/>
<path class="st1" d="M116.8,165c-0.4-0.9-0.5-1.7-0.7-2.4c-0.7-2.7-0.5-5.4-0.4-8.1c0.1-2.9,0.6-5.8,1.2-8.6c0.4-2,0.9-3.9,1.5-5.8
	c0.3-1.1,0.5-2.1,1-3.2c2,3.5,4.5,5.6,8.9,3.8C124.9,149.1,121,157,116.8,165z"/>
<path class="st1" d="M165,74.4c0.2-1.3,0.4-2.5,0.5-3.7c0.2-1.8,0.4-3.6,0.5-5.5c0.1-1.7,0.2-3.4,0.1-5.1c0-1.2-0.1-2.4-0.1-3.6
	c0-0.2-0.1-0.6,0.2-0.7c0.3-0.1,0.4,0.3,0.5,0.5c1.8,3.4,3,7,4.1,10.6c0.6,2,1.2,4.1,1.8,6.1c0.2,0.6,0.3,1.1,0.4,1.8
	c-1-0.7-1.9-1.3-2.7-2c-0.8-0.6-1.3-0.5-2.2,0c-0.9,0.6-1.9,1.1-2.8,1.6C165.2,74.5,165.1,74.5,165,74.4z"/>
<path class="st1" d="M25.6,75.5c-1.5-1.2-2.7-2.6-4.3-3.9c-1.4,1.3-2.4,3-4,4.4c0.2-1.2,0.4-2.3,0.7-3.3c0.4-1.5,0.7-2.9,1.2-4.4
	c0.9-2.9,1.8-5.8,3.1-8.6c0.5-1.1,1-2.2,1.5-3.3c0.1-0.3,0.3-0.5,0.7-0.3C24.1,62.6,24,69.1,25.6,75.5z"/>
<path class="st1" d="M70.1,134.7c0.1,0.5,0.1,1.1,0,1.6c-0.3,1.4-0.7,2.7-1.7,3.7c-1.4,1.5-3.2,1.8-5,1c-1.9-0.9-3.2-2.3-3.8-4.3
	c-0.1-0.2-0.1-0.4,0-0.6c0.5,0.1,0.9,0.5,1.4,0.7c1.8,0.7,3.5,0.4,5.2-0.2c1.2-0.4,2.3-1,3.4-1.7C69.7,134.8,69.8,134.7,70.1,134.7z
	"/>
<path class="st1" d="M120.2,134.9c3.7,2.6,7.2,2,10.8-0.1c-0.1,0.7-0.4,1.3-0.6,1.8c-0.8,1.5-2,2.7-3.6,3.5
	c-1.2,0.6-3.2,0.3-4.3-0.7C121,138.3,120.4,136.8,120.2,134.9z"/>
<path class="st2" d="M58.7,122.7c0.5-0.2,1-0.1,1.5,0c0,1.1,0.2,2.1,0.5,3.1c1,2.7,3.1,3.9,5.8,4.2c0.5,0.1,0.9,0.1,1.4,0.1
	c0.4,0,0.5,0.3,0.5,0.6c0,0.3,0.1,0.8-0.5,0.8C62,131.8,58.4,127.5,58.7,122.7z"/>
<path class="st2" d="M122,131.8c-0.1-0.4-0.2-0.7-0.1-1.1c1,0,2-0.1,3-0.4c2.7-0.9,4-3,4.4-5.6c0.1-0.4,0.1-0.8,0.1-1.2
	c0-1,0.3-1.3,1.4-1.3C131,127.1,128.5,132,122,131.8z"/>
<path class="st0" d="M78.5,138.2c0.5,0.3,0.3,0.8,0.4,1.2c0.2,1.1,0.4,2.3,0.8,3.4c0.7,2.3,1.7,4.6,3.1,6.6c1.7,2.4,3.8,4.1,6.6,5.2
	c2.6,1,5.3,1.2,8.1,0.8c2.7-0.4,5.2-1.4,7.4-3.1c1.9-1.5,3.4-3.3,4.6-5.4c1.1-1.9,2-3.9,2.7-6c0.3-1,0.6-2,0.9-3
	c0.6,0,0.5,0.3,0.4,0.7c-0.4,1.5-0.9,3.1-1.5,4.5c-0.8,2.1-1.9,4-3.1,5.8c-0.6,0.9-1.4,1.6-2.1,2.4c-1.5,1.7-3.4,2.9-5.5,3.7
	c-1.7,0.6-3.4,0.9-5.2,1.1c-2.6,0.2-5.1-0.3-7.5-1.2c-2.1-0.8-3.8-2.2-5.3-3.9c-0.1-0.1-0.1-0.1-0.2-0.2c-1.8-2-2.9-4.4-3.7-7
	c-0.5-1.6-0.8-3.1-1-4.8C78.3,138.7,78.3,138.4,78.5,138.2z"/>
<path class="st0" d="M89.1,176.1c-0.4,0.4-0.8,0.9-1.2,1.3c-2.5,2.4-6.5,2.7-9.1,0c-2.1-2.2-1.9-4.9,0.6-6.7
	c1.6-1.2,3.4-1.5,5.5-1.2c1.9,0.3,3.4,1.3,4.6,2.7c1,1.2,1.2,2.7,1,4.2c-0.1,1-0.6,2-1,2.9c-0.1,0.2-0.3,0.4-0.6,0.3
	c-0.3-0.1-0.1-0.4,0-0.6c0.4-0.8,0.5-1.6,0.5-2.4C89.3,176.5,89.4,176.2,89.1,176.1z"/>
<path class="st0" d="M100.6,175.2c-0.9,1.3,0.2,2.5,0.2,4c-0.7-0.6-1-1.3-1.3-2c-0.4-1.2-0.5-2.4-0.2-3.6c0.2-1,0.8-1.9,1.5-2.7
	c2.3-2.5,6.1-3,9-1.3c1.2,0.7,2.1,1.6,2.4,3c0.3,1.6-0.4,2.9-1.4,4c-1.8,1.8-4,2.3-6.4,1.6C102.7,177.9,101.5,176.8,100.6,175.2z"/>
<path class="st0" d="M111.1,187.2c-1.2-0.3-2.2-0.8-3.3-1.2c-1.3-0.4-2.7-0.9-4.1-1.1c-1-0.2-2-0.4-3-0.5c-2.8-0.3-5.5-0.5-8.3-0.2
	c-1.6,0.2-3.3,0.3-4.9,0.6c-1.5,0.3-3,0.6-4.5,1.1c-1.3,0.4-2.6,0.8-3.8,1.3c-0.2,0.1-0.5,0.2-0.6-0.1c-0.1-0.3,0.2-0.3,0.4-0.4
	c2.7-1.1,5.5-1.9,8.4-2.5c3.8-0.7,7.7-0.8,11.6-0.7c1.3,0.1,2.6,0.2,3.8,0.5c2.9,0.6,5.7,1.3,8.4,2.6c0.2,0.1,0.3,0.2,0.3,0.4
	C111.4,187.2,111.2,187.2,111.1,187.2z"/>
<path class="st0" d="M43.3,65.4c0-0.9,0-1.7,0-2.6c0-0.5,0.2-0.8,0.8-0.8c1.1,0,2.1,0.1,3.1,0.4c1.7,0.6,2.4,2,2.2,3.7
	c-0.2,1.4-1.3,2.4-2.9,2.6c-0.7,0.1-1.5,0.2-2.2,0.1c-0.7,0-0.8-0.2-0.9-0.9C43.3,67.2,43.3,66.3,43.3,65.4
	C43.3,65.4,43.3,65.4,43.3,65.4z"/>
<path class="st0" d="M43.3,54.2c0-0.9,0-1.8,0-2.7c0-0.6,0.2-0.8,0.8-0.8c1.2,0,2.3,0.1,3.4,0.6c1.4,0.7,2.1,1.9,1.9,3.5
	c-0.2,1.3-1.1,2.2-2.6,2.6c-1,0.2-1.9,0.2-2.9,0.2c-0.4,0-0.6-0.3-0.6-0.7C43.3,56,43.3,55.1,43.3,54.2
	C43.3,54.2,43.3,54.2,43.3,54.2z"/>
<path class="st0" d="M182.8,24.7c0,2.5-0.4,4.9-1.7,7.1c-0.3,0.5-0.6,0.9-1,1.3c-1.3,1.2-2.8,1.2-4-0.1c-1.3-1.3-1.9-3-2.2-4.7
	c-0.7-3.3-0.5-6.5,0.7-9.7c0.3-0.9,0.8-1.7,1.5-2.3c1.4-1.4,3-1.3,4.3,0.2c1.2,1.3,1.7,2.9,2.1,4.6
	C182.7,22.3,182.8,23.5,182.8,24.7z"/>
<path class="st0" d="M121.1,17.6c0.9,2.7,1.7,5.4,2.6,8.2c-1.8,0-3.6,0-5.5,0c0.9-2.8,1.8-5.5,2.6-8.2
	C120.9,17.6,121,17.6,121.1,17.6z"/>
</svg>
