<?xml version="1.0" encoding="utf-8"?>
<!-- Generator: Adobe Illustrator 21.0.0, SVG Export Plug-In . SVG Version: 6.00 Build 0)  -->
<svg version="1.1" id="Layer_8" xmlns="http://www.w3.org/2000/svg" xmlns:xlink="http://www.w3.org/1999/xlink" x="0px" y="0px"
	 viewBox="0 0 200 200" style="enable-background:new 0 0 200 200;" xml:space="preserve">
<defs>
<style type="text/css">
	.st0{fill:#F7B833;}
	.st1{fill:#1E315F;}
	.st2{fill:#FFFFFE;}
	.st3{fill:#86163B;}

#mouth {
display:none;
}

.clickit #mouth {
display:block;
}

</style>
<script>

var clicker = document.querySelector('#logo');

clicker.addEventListener('click', function() {
this.classList.toggle('clickit');
});

</script>
</defs>
<path class="st0" d="M0.2,86.9c1.6-0.2,3.2-0.5,4.8-0.7c3.5-0.3,6.9-0.2,10.3,0.3c7,0.9,13.7,2.8,20.5,4.5c3.3,0.8,6.6,1.6,9.9,2.5
	c0.4,0.1,0.7,0,1-0.1c5-2.9,10.1-5.4,15.6-7.3c0.5-0.2,0.7-0.5,0.9-1C66.9,72.7,74.2,62.8,85,55.7c6.4-4.2,13.3-6.8,20.9-7.9
	c1.3-0.2,2.7-0.4,4-0.5c0.1,0,0.3,0,0.4-0.1c2.2,0,4.4,0,6.6,0c1.2,0.3,2.5,0.3,3.8,0.4c9.2,1.2,17.4,4.6,24.8,10.1
	c4.9,3.7,9.1,8.1,12.5,13.3c0.3,0.5,0.6,0.6,1.2,0.5c6.1-1.5,12.2-3,18.4-4.5c0.3-0.1,0.5-0.2,0.9-0.1c-1,3.1-2,6.2-3.1,9.4
	c8.2-2,16.3-3.9,24.5-5.9c-0.3,0.7-0.5,1.2-0.7,1.7c-2.4,6-4.8,12-7.2,17.9c-0.2,0.6-0.3,1.1-0.1,1.7c0.9,4.3,1,8.5-0.4,12.7
	c-1.1,3.2-3.1,5.8-5.7,8c-0.2,0.2-0.5,0.3-0.5,0.7c-0.1,2.2-1.3,3.7-2.9,4.9c-2,1.6-4.2,2.7-6.5,3.8c-1.9,0.9-3.8,1.7-5.6,2.8
	c-0.1,0.1-0.3,0.2-0.5,0.4c1.7,0.5,3.2,0.9,4.8,1.3c4.6,1.2,9.3,2.5,13.9,3.7c0.4,0.1,0.8,0.1,1.3,0c2.4-0.7,4.8-0.9,7.2-0.8
	c0.7,0,1,0.3,0.9,1c-0.5,4.5-2,8.5-5.3,11.7c-1.3,1.2-2.9,1.8-4.7,1.7c-0.7,0-1.2-0.2-1.4-1c0-0.1-0.1-0.3-0.2-0.4
	c-7.5,6.2-15.4,7.2-23.8,1.6c-0.1,2-0.1,4,0.1,5.9c-3.1-0.4-6-1.1-8.7-2.6c-2.7-1.5-4.7-3.7-6-6.6c-11.1,9-23.7,13.2-37.9,12.2
	c-14.2-1-26-7.2-35.7-17.6c-1.2,1.3-2.4,2.7-3.7,4c-4.2,4.2-8.8,7.8-14.2,10.4c-3.3,1.6-6.8,2.9-10.5,3.3c-2,0.2-4.1,0.1-6.2,0.1
	c-4.3,0-8-1.6-11.1-4.5c-2.9-2.8-4.3-6.3-4.6-10.3c-0.5-5.4,0.9-10.4,3-15.3c1.2-2.7,2.5-5.3,4.1-7.8c0.1-0.2,0.2-0.4,0.5-0.8
	c-3.6,0.6-7.1,1.1-10.7,1.7c4.2-5.6,8.9-10.4,14.4-14.6c-2.5-0.7-5-1.3-7.4-1.9c-6-1.6-11.9-3.2-17.5-5.8c-3.6-1.6-6.9-3.7-9.9-6.3
	c-0.1-0.1-0.2-0.1-0.3-0.1C0.2,87,0.2,87,0.2,86.9z M112.8,130.7c-1.2,0.5-2.3,1.1-3.4,1.8c-0.1,0-0.2,0.1-0.4,0.1
	c-2.3,1.4-4.5,2.9-6.6,4.5c-0.8,0.6-1.5,1.3-2.5,1.9c0.3-4.7,1.3-9,4.1-12.9c-0.3,0-0.4,0.1-0.5,0.1c-3.8,1-7.6,2-11.3,3
	c-3.9,1-7.9,2.1-11.8,3.1c-1.4,0.4-2.8,0.7-4.3,1.1c1.3,1.5,2.5,2.8,3.9,4c8.5,7.7,18.5,12,30,12.9c8.2,0.7,16.1-0.7,23.7-3.9
	c4.7-2,9-4.7,12.9-7.9c0.3-0.3,0.6-0.5,0.5-1c-0.4-1.4-0.5-2.8-0.6-4.2c0-1,0-2,0-3c0,0-0.1,0-0.2-0.1c-5.9-1.6-11.8-3.1-17.7-4.6
	c-0.4-0.1-0.8-0.1-1.2,0c-2.7,0.6-5.4,1.3-8,2.3C117.1,128.7,114.9,129.5,112.8,130.7z M98.1,83.5c1,0.4,2.1,0.6,3,1.1
	c1.3,0.6,2.5,0.7,3.9,0.3c2.4-0.7,5-1.2,7.4-1.9c1.4-0.2,2.7-0.6,4-1c0.1,0,0.1,0,0.2,0c7.8-1.9,15.7-3.9,23.5-5.8
	c1.5-0.4,3-0.7,4.5-1.1c2.5-0.5,4.9-1.1,7.4-1.8c1.3-0.3,2.6-0.6,4-0.9c-9-14.5-29.1-26.7-52.7-21.8C91.8,53,82.3,58.9,74.8,68
	c-4.1,5-7.1,10.6-9.1,17c0.8-0.2,1.4-0.4,2-0.6c2.1-0.5,4.3-1.1,6.4-1.6c0.1,0,0.3,0,0.4,0c2.6-0.5,5.2-0.7,7.8-1
	c1.2,0,2.3-0.1,3.5-0.1c1.2,0.1,2.5,0.2,3.7,0.2c1.8,0.1,3.5,0.5,5.3,0.7C95.8,83,97,83.3,98.1,83.5z M56.2,106.7
	c-0.1,0-0.2-0.1-0.4-0.1c-4.6-1.2-9.2-2.4-13.9-3.6c-1.4-0.6-3-0.9-4.5-1.3c-0.3-0.1-0.4,0.2-0.6,0.3c-3.8,3-7.4,6.2-10.7,9.8
	c-0.5,0.5-0.9,1-1.4,1.7c3.3-0.4,6.5-0.8,9.7-1.3c-0.2,0.3-0.3,0.6-0.5,0.8c-1.9,3.1-3.6,6.3-5,9.6c-1.9,4.6-3.3,9.3-3.2,14.3
	c0.1,2.7,0.7,5.3,2.2,7.6c2.7,4.2,6.9,5.9,11.7,6.3c5.3,0.4,10.3-0.9,15-3.1c7.3-3.3,13.2-8.4,17.9-14.8c0.3-0.4,0.7-0.7,1.2-0.8
	c9.6-2.4,19.3-4.8,28.9-7.3c1.6-0.4,3.2-0.8,5-1.2c-3.1,3.5-4.8,7.4-5.9,11.8c0.5-0.4,0.8-0.7,1.2-1c8.4-6.7,18.1-10.1,28.6-11.3
	c5.5-0.7,11.1-0.9,16.7-1.6c0.4-0.1,0.7-0.2,1-0.5c1.3-1.8,2.7-3.5,4.5-4.9c0.1-0.1,0.1-0.2,0.2-0.3c1-0.7,2-1.4,3-1.9
	c3.7-2,7.8-2.6,12-2.6c1,0,2,0.1,3,0.4c2.2,0.6,4.5,1,6.7,1.5c1.8,0.4,3.2-0.2,4.7-1.2c3.6-2.7,6.1-6,7-10.4
	c0.7-3.3,0.4-6.6-0.3-9.9c-0.1-0.7-0.1-1.2,0.1-1.9c2-5.3,4-10.7,6-16c0.1-0.2,0.3-0.5,0.1-0.8c-7.8,1.9-15.7,3.8-23.6,5.7
	c1.1-3.2,2.1-6.3,3.1-9.5c-0.3,0-0.5,0.1-0.7,0.1c-8.5,2.1-16.9,4.2-25.4,6.3c-15.4,3.8-30.8,7.6-46.2,11.5
	c-0.6,0.2-1.2,0.1-1.8-0.1c-4.2-1.8-8.6-2.8-13.1-3.1c-6.8-0.5-13.5,0.4-20.1,2.2c-6.9,1.9-13.4,4.7-19.6,8.1
	c-0.2,0.1-0.4,0.1-0.5,0.4c1.5,0.4,3.1,0.8,4.6,1.1c0.4,0.1,0.8,0.3,1.2,0.2c4,1,8.1,2.1,12.1,3.1c0.1,0.2,0.4,0.2,0.6,0.2
	c3.8,1,7.6,1.9,11.5,2.9c0.8,0.2,1.6,0.3,2.3,0.7c-0.1,0.7-0.3,0.9-1.1,0.7c-5.4-1.4-10.7-2.7-16.1-4.1c-11.3-2.8-22.6-5.7-33.9-8.5
	c-6.2-1.6-12.4-3.2-18.9-3.4c-2.4-0.1-4.7,0.1-7.1,0.7c0.1,0.1,0.2,0.2,0.2,0.2c0.5,0.4,1,0.8,1.5,1.1c4.2,3,8.9,4.9,13.8,6.3
	c6.2,1.9,12.6,3.4,18.8,5c7.2,1.9,14.3,3.8,21.5,5.7c2.1,0.5,4.1,1.1,6.2,1.6c-0.8,0.7-1.6,0.7-2.6,0.4c-1.9-0.6-3.7-1-5.6-1.5
	C57.2,106.8,56.7,106.6,56.2,106.7z M186.9,139.5c0.3,0.7,0.6,1.4,0.8,2c0.1,0.4,0.4,0.5,0.8,0.5c1.6,0,2.8-0.8,3.9-1.9
	c1.6-1.7,2.6-3.7,3.3-5.8c0.4-1.2,0.9-2.3,0.9-3.6c-1.8-0.6-4.6-0.3-6.7,0.6c-0.5,0.2-0.9,0.2-1.4,0.1c-4.4-1.2-8.8-2.4-13.2-3.6
	c-3-0.8-5.9-1.6-8.9-2.4c0.2-0.5,0.6-0.8,1-1.1c0.9-0.7,1.9-1.3,2.9-1.8c2.7-1.2,5.4-2.4,8.1-3.6c1.9-0.9,3.5-2.1,4.9-3.7
	c0.2-0.3,0.5-0.5,0.4-1c-0.1,0-0.3,0-0.4,0c-3.4,0.1-6.7-0.5-10-1.3c-5.9-1.4-11.5-0.4-16.7,2.8c-3,1.8-5,4.5-7.1,7.3
	c0.6,0.2,1.1,0.3,1.7,0.4c0.5,0.1,0.7,0.4,0.7,0.9c-0.1,1-0.8,1.5-1.9,1.2c-2.2-0.6-4.4-1.1-6.6-1.7c-0.4-0.1-0.9-0.2-1.3-0.1
	c-2.9,0.2-5.8,0.4-8.6,0.7c-0.8,0.1-1.7,0.1-2.5,0.5c5.6,1.5,11.2,2.9,16.8,4.4c-0.1,2-0.2,3.9,0.1,5.7c0.6,4.1,2.2,7.5,5.6,10.1
	c2.2,1.7,4.8,2.6,7.7,2.8c0-2.5,0-5,0-7.5C168.9,147.6,178.5,147.9,186.9,139.5z"/>
<path class="st1" d="M154.2,115.8c-0.1,0.1-0.1,0.2-0.2,0.3c-1.8,1.4-3.2,3.2-4.5,4.9c-0.3,0.3-0.5,0.5-1,0.5
	c-5.6,0.6-11.1,0.9-16.7,1.6c-10.5,1.3-20.3,4.6-28.6,11.3c-0.3,0.3-0.7,0.6-1.2,1c1.1-4.4,2.8-8.4,5.9-11.8c-1.8,0.4-3.4,0.8-5,1.2
	c-9.6,2.4-19.2,4.9-28.9,7.3c-0.5,0.1-0.9,0.4-1.2,0.8c-4.8,6.4-10.6,11.5-17.9,14.8c-4.8,2.2-9.7,3.5-15,3.1
	c-4.8-0.4-8.9-2.1-11.7-6.3c-1.5-2.3-2.1-4.9-2.2-7.6c-0.2-5,1.3-9.7,3.2-14.3c1.4-3.3,3.1-6.5,5-9.6c0.1-0.2,0.3-0.5,0.5-0.8
	c-3.2,0.4-6.4,0.8-9.7,1.3c0.5-0.7,1-1.2,1.4-1.7c3.2-3.6,6.8-6.9,10.7-9.8c0.2-0.1,0.3-0.4,0.6-0.3c1.5,0.4,3,0.6,4.5,1.3
	c-0.2,0.1-0.4,0.2-0.5,0.3c-2.1,1.4-4.2,2.9-6.1,4.5c-0.4,0.3-0.8,0.5-1.2,1.1c2-0.3,3.9-0.8,5.7-1.2c1.9-0.5,3.7-0.9,5.6-1.4
	c-0.2,0.5-0.5,0.8-0.8,1.1c-4.3,4.7-8.2,9.7-11,15.4c-2.1,4.2-3.7,8.6-3.4,13.4c0.3,6.3,4.6,10.4,10.8,10.9c4.5,0.3,8.6-1,12.6-2.9
	c5.5-2.7,10-6.8,14.3-11.2c0.1,0,0.2-0.1,0.3-0.1c-0.1-0.1-0.1-0.1-0.2-0.2c-0.1,0.1-0.1,0.1-0.2,0.2c-0.3,0.2-0.7,0.3-1,0.5
	c-4,2.1-8.1,3.8-12.5,4.8c-2.9,0.6-5.8,1-8.7,0.4c-3.9-0.8-5.8-3.4-5.2-7.4c0.3-2.1,1-4.1,2-5.9c2.4-4.8,5.7-9,9.2-13.1
	c1.6-1.8,3.2-3.5,4.8-5.3c0.5-0.1,1,0.1,1.4,0.2c1.9,0.5,3.8,1,5.6,1.5c0.9,0.3,1.8,0.3,2.6-0.4c-2.1-0.6-4.2-1.1-6.2-1.6
	c-7.2-1.9-14.3-3.8-21.5-5.7c-6.3-1.7-12.6-3.2-18.8-5c-4.9-1.5-9.6-3.3-13.8-6.3C5,89,4.5,88.6,4,88.2c-0.1-0.1-0.2-0.1-0.2-0.2
	c2.4-0.6,4.7-0.7,7.1-0.7c6.5,0.2,12.7,1.8,18.9,3.4c11.3,2.8,22.6,5.7,33.9,8.5c5.4,1.4,10.8,2.7,16.1,4.1c0.7,0.2,1,0,1.1-0.7
	c-0.7-0.3-1.5-0.5-2.3-0.7c-3.8-1-7.6-1.9-11.5-2.9c-0.2,0-0.4,0-0.6-0.2c2.7-1.6,5.4-3,8.2-4.1c2.6-1,5.2-1.9,8.1-1.8
	c2.5,0.1,3.8,1.4,3.8,3.9c0,1.3-0.4,2.6-0.9,3.8c-0.4,1-0.8,2-1.3,3.1c6-3.7,11.9-7.3,18.1-10.7c-2.1-2-4.5-3.3-7.2-4.1
	c-6.2-2-12.5-1.7-18.8-0.7c-6.2,1-12.1,2.9-17.8,5.4c-1.5,0.6-3,1.2-4.3,2.1c-0.4,0.1-0.8-0.1-1.2-0.2c-1.5-0.4-3.1-0.8-4.6-1.1
	c0.1-0.3,0.3-0.3,0.5-0.4c6.2-3.4,12.8-6.2,19.6-8.1c6.6-1.8,13.3-2.7,20.1-2.2c4.5,0.3,8.9,1.3,13.1,3.1c0.6,0.3,1.1,0.3,1.8,0.1
	c15.4-3.8,30.8-7.7,46.2-11.5c8.5-2.1,16.9-4.2,25.4-6.3c0.2,0,0.3-0.1,0.7-0.1c-1.1,3.2-2.1,6.3-3.1,9.5c7.9-1.9,15.8-3.8,23.6-5.7
	c0.2,0.4,0,0.6-0.1,0.8c-2,5.3-4,10.7-6,16c-0.2,0.6-0.3,1.2-0.1,1.9c0.7,3.3,1,6.6,0.3,9.9c-0.9,4.4-3.4,7.8-7,10.4
	c-1.4,1.1-2.8,1.6-4.7,1.2c-2.3-0.4-4.5-0.8-6.7-1.5c1.8-0.6,3.6-1.3,5.3-2.2c2.1-1,4.1-2.1,5.7-3.8c2.5-2.7,3.7-5.8,2.9-9.4
	c-0.6-2.6-2-4.6-3.9-6.3c-0.7-0.7-1.5-1.3-2.2-2.1c-1.2-1.3-0.7-3.1,0.9-3.9c0.6-0.3,1.2-0.4,1.8-0.4c1.9,0,3.6,0.7,4.9,2.3
	c0.7-1.8,1.4-3.6,2.1-5.4c-1.8-0.4-3.6-0.5-5.4-0.2c-3.1,0.5-5.8,1.7-8,4c-2.6,2.8-2.6,6.1,0,9c0.6,0.7,1.4,1.3,2.1,1.9
	c2.1,1.9,2.4,5.3,0.8,7.6c-0.9,1.2-2.1,2.1-3.3,2.9c-3.7,2.2-7.7,3.4-11.8,4.4c-6,1.5-12.2,2.5-18.3,3.4c-7.2,1.1-14.4,2.4-21.3,4.6
	c-4.8,1.4-9.4,3.1-13.3,6.5c0.3,0.2,0.5,0,0.7-0.1c3.8-1.7,7.7-2.9,11.8-3.9c4.8-1.2,9.7-2,14.6-2.6c3.4-0.5,6.9-0.9,10.3-1.3
	C150.2,116.5,152.2,116.1,154.2,115.8z M72.5,128.8c2.9-0.7,5.8-1.6,8.7-2.2c1.5-0.3,2.7-1.1,3.8-2.2c5.1-5.1,8.8-11,11.7-17.5
	c0.5-1.3,1.1-2.5,1.5-3.9c-3.3,0.9-6.6,1.7-9.9,2.5c1.1,0.7,2,1.2,3,1.9c-3,6.2-6.9,11.6-11.8,16.3c-0.1,0-0.1-0.1-0.2-0.1
	c2.2-5.8,4.4-11.6,6.6-17.5c-1.6,0.4-3,0.8-4.5,1.2c-0.5,0.1-0.8,0.4-1,0.9c-1.8,4.6-3.6,9.1-5.3,13.7c-0.9,2.3-1.9,4.6-2.7,6.9
	c0,0-0.1,0.1-0.1,0.1C72.4,128.8,72.4,128.8,72.5,128.8z M65.4,123.9c-1,2.5-2,5-3,7.5c1.8-0.5,3.5-0.9,5.2-1.3
	c0.5-0.1,0.6-0.4,0.7-0.7c2.8-6.8,5.5-13.6,8.2-20.4c0.1-0.2,0.2-0.3,0.1-0.6c-2.4,0.6-4.8,1.1-7.1,2.1c-4.9,2.2-8.4,5.8-10.9,10.4
	c-2.3,4.1-4.2,8.4-6.3,12.7c-0.1,0.2-0.2,0.3-0.3,0.6c1.6-0.4,3.2-0.9,4.7-1.2c0.5-0.1,0.7-0.3,0.9-0.7c1-2.2,2.1-4.3,3.1-6.4
	c0.2-0.3,0.3-0.5,0.7-0.6C62.8,124.7,64,124.3,65.4,123.9z M104,114.1c-1,2.5-1.9,4.9-2.9,7.4c1.8-0.5,3.4-0.9,5.1-1.3
	c0.5-0.1,0.7-0.4,0.8-0.8c2.7-6.6,5.4-13.2,8-19.8c0.1-0.3,0.4-0.7,0.4-1.1c-2.1,0.4-4.1,0.8-6,1.6c-5,1.9-8.6,5.4-11.4,9.8
	c-1.9,3.1-3.3,6.4-4.9,9.6c-0.7,1.5-1.4,2.9-2.2,4.5c1.7-0.4,3.2-0.8,4.8-1.2c0.4-0.1,0.7-0.3,0.9-0.7c1-2.1,2-4.2,3-6.2
	c0.1-0.2,0.2-0.5,0.5-0.6C101.2,115,102.5,114.6,104,114.1z M174.4,100.8c-2,0.6-2.6,0.7-4.3,0.4c-2.6-0.5-4.4-1.9-5.4-4.4
	c-0.1-0.3-0.3-0.5,0.2-0.8c3.4-2.1,5.5-5.3,6.8-9c0.3-0.9,0.5-1.9,0.5-3c-4.1,1.1-8.2,2.2-12.2,3.3c-0.7,0.2-1,0.5-1.2,1.1
	c-1.8,4.9-3.6,9.8-5.4,14.7c-0.7,1.9-1.4,3.9-2.1,5.9c1.5-0.4,2.9-0.8,4.4-1.1c0.5-0.1,0.8-0.4,1-0.9c1-2.8,2-5.6,3.1-8.5
	c0.6,1.3,1.2,2.4,1.9,3.3c1.1,1.5,2.5,2.7,4.3,3.1C169,105.6,172.6,103.8,174.4,100.8z M134.7,113c4.4-1.2,8.7-2.3,12.9-3.4
	c0.2-0.1,0.3-0.1,0.4-0.3c0.9-2,1.7-4,2.6-6.1c-2.8,2.7-5.9,4.9-10,5.6c0.9-2.1,1.8-4.1,2.6-6.1c0.1-0.3,0.4-0.3,0.6-0.5
	c2-1.1,3.9-2.1,5.9-3.2c0.2-0.1,0.5-0.1,0.6-0.5c-1.8,0.1-3.7,0.3-5.6,0.4c0.8-2.2,1.7-4.4,2.5-6.5c0.1-0.2,0.2-0.3,0.4-0.4
	c2.1-0.8,4.1-0.2,5.5,1.5c0.1,0.2,0.2,0.4,0.5,0.4c0.8-1.9,1.5-3.8,2.4-5.8c-0.2,0-0.4,0-0.5,0c-4,1-7.9,2-11.9,3
	c-0.5,0.1-0.7,0.4-0.8,0.8c-1.6,4.2-3.2,8.5-4.9,12.7C136.9,107.4,135.9,110.1,134.7,113z M123.9,96.3c-0.3,0-0.5,0.1-0.7,0.1
	c-1.4,0.3-2.8,0.7-4.1,1c-0.6,0.1-0.9,0.4-1.1,0.9c-2.2,5.9-4.5,11.7-6.7,17.5c-0.4,1.1-0.8,2.2-1.3,3.4c4.7-1.2,9.3-2.4,13.9-3.6
	c0.4-0.1,0.5-0.3,0.6-0.6c0.7-1.8,1.5-3.6,2.2-5.4c0.2-0.4,0.4-0.9,0.5-1.5c-1.5,1.6-2.8,3.2-4.5,4.5c-1.7,1.2-3.6,1.9-5.8,2.2
	C119.3,108.6,121.6,102.5,123.9,96.3z M126.5,115c1.6-0.4,3.1-0.8,4.5-1.1c0.6-0.1,0.9-0.4,1.1-1c2.2-5.7,4.5-11.5,6.7-17.2
	c0.5-1.2,0.9-2.3,1.4-3.6c-1.8,0.5-3.4,0.9-5,1.3c-0.4,0.1-0.4,0.4-0.5,0.7c-2,5.2-4,10.3-6,15.5C127.9,111.3,127.3,113.1,126.5,115
	z M78,104.8c-18.2-4.7-36.2-9.3-54.4-14c0.8,0.7,1.6,1.1,2.3,1.5c3.4,1.7,7,2.9,10.7,3.9c11.5,3,23.1,6,34.6,9
	c0.7,0.2,1.4,0.5,2.1,0.5C74.9,105.5,76.4,105.2,78,104.8z M159.1,77.1c-1.6,0-1.9,0.3-2.4,1.6c-0.3,0.8-0.7,1.7-1,2.5
	c-0.5,1.2-0.9,2.3-1.4,3.6c0.3,0,0.5-0.1,0.7-0.1c0.9-0.1,1.4-0.6,1.6-1.4c0.4-1.5,1-2.9,1.5-4.4c0.7,1.7,1,3.4-0.1,5
	c1.5,0.1,2.3-0.6,2.6-2c0,0,0,0,0-0.1c0.7-1.9,1.5-3.7,2.2-5.6c-0.3-0.1-0.6,0.1-0.8,0.1c-0.8,0-1.2,0.5-1.4,1.2
	c-0.2,0.6-0.5,1.2-0.8,2C159.5,78.6,159.3,77.9,159.1,77.1z M154.5,78.6c-0.5-0.3-1-0.3-1.6-0.2c-1,0.1-2,0.5-2.9,0.9
	c-0.7,0.3-1.2,0.8-1.5,1.6c-0.7,1.9-1.5,3.8-2.2,5.7c1.3,0,2.3-0.5,2.5-1.8c0-0.1,0-0.1,0.1-0.2c0.5-1.3,0.7-1.4,2.2-1.4
	c-0.3,0.9-0.7,1.7-1,2.7c0.4-0.1,0.7-0.2,0.9-0.2c0.8,0,1.1-0.5,1.3-1.1c0.6-1.6,1.2-3.2,1.9-4.8C154.4,79.3,154.6,79,154.5,78.6z
	 M162.1,82.8c1.4-0.4,2.7-0.6,3.9-1c0.8-0.3,1.7-0.5,2.1-1.3c0.8-1.8,1.5-3.7,2.3-5.6c-0.4-0.4-0.8-0.4-1.2-0.4
	c-1.4,0-2.6,0.5-4,0.8c-0.2,0-0.3,0.2-0.3,0.4C164,78.1,163.1,80.4,162.1,82.8z M114.1,88.1c-1.7,0.4-3.4,0.7-5,1.5
	c-0.4,0.2-0.8,0.4-1,0.8c-0.8,1.9-1.5,3.8-2.3,5.7c1.7,0.8,5.5-0.6,5.8-2.1c-0.6,0.1-1.5,0.1-1.8,0.5c-0.5,0.9-1.2,0.8-2,0.9
	c0.7-1.8,1.4-3.6,2.1-5.3c0.1-0.3,0.3-0.4,0.6-0.5c0.5-0.1,0.9-0.3,1.6-0.1C113,90.1,113.8,89.3,114.1,88.1z M140.8,81.6
	c-1.2,0.3-2.4,0.6-3.6,0.9c-0.5,0.1-0.7,0.3-0.9,0.8c-0.8,2-1.6,3.9-2.3,5.9c-0.1,0.2-0.3,0.5-0.2,0.8c1.2-0.3,2.4-0.6,3.5-0.9
	c0.6-0.1,0.8-0.4,0.8-1c-0.7,0.2-1.4,0.3-2.3,0.5c0.1-0.4,0.3-0.6,0.3-0.9c0.3-1.4,1.1-2.2,2.5-2.3c0.6,0,0.8-0.3,0.8-0.9
	c-0.7,0.2-1.5,0.3-2.2,0.5c0-0.1,0-0.2,0-0.2c0.3-1.4,1-2.4,2.6-2.4C140.5,82.5,140.7,82.2,140.8,81.6z M122.3,92.1
	c0.1-0.3,0.3-0.6,0.3-0.9c0.3-1.4,1.1-2.2,2.6-2.3c0.5,0,0.8-0.3,0.8-0.9c-0.7,0.2-1.4,0.3-2.2,0.5c0.2-1.5,0.8-2.5,2.4-2.6
	c0.1,0,0.1-0.1,0.2-0.1c0.5,0,0.7-0.3,0.7-0.9c-1.4,0.3-2.6,0.6-3.9,0.9c-0.3,0.1-0.4,0.3-0.5,0.6c-0.4,1-0.8,2-1.2,3
	c-0.5,1.2-1,2.5-1.5,3.8c1.4-0.3,2.6-0.7,3.8-0.9c0.5-0.1,0.8-0.4,0.8-0.9C123.9,91.6,123.2,92,122.3,92.1z M128.1,84.9
	c0.3,2.2,0.5,4.2,0.8,6.5c2.1-2.8,4-5.4,6-8c-1.3,0.1-2.3,0.4-2.8,1.6c-0.3,0.6-0.7,1.2-1.1,1.8c-0.3,0.5-0.7,1-1,1.5
	c-0.1,0-0.2,0-0.2-0.1c0-1.2,0-2.4,0-3.6C129.1,84.7,128.7,84.8,128.1,84.9z M144.6,80.7c-1.1,0.2-2,0.3-2.4,1.6
	c-0.6,1.8-1.4,3.6-2.1,5.4c-0.1,0.2-0.3,0.4-0.1,0.7c1.5-0.4,3-0.8,4.5-1.1c0.5-0.1,0.5-0.4,0.6-0.9c-1.1,0.3-2,0.5-3.1,0.7
	C142.9,85,143.7,82.9,144.6,80.7z M118.3,87.3c-1.6,0.1-1.8,0.2-2.3,1.6c-0.7,1.8-1.4,3.6-2.1,5.3c-0.1,0.2-0.3,0.5-0.2,0.8
	c1.4-0.4,2.9-0.7,4.3-1c0.5-0.1,0.8-0.4,0.8-0.9c-1,0.2-1.9,0.5-3,0.7C116.6,91.5,117.5,89.4,118.3,87.3z"/>
<path class="st1" d="M85.7,81.8c-1.2,0-2.3,0.1-3.5,0.1c1.1-1.9,1.8-4,2.4-6.1c-0.2-0.1-0.3,0-0.4,0c-2.6,1.4-5.2,3-7.6,4.8
	c-0.9,0.7-2,1.2-2.6,2.2c-2.1,0.5-4.3,1.1-6.4,1.6c-0.6,0.2-1.2,0.3-2,0.6c2-6.4,5-12,9.1-17c7.5-9.1,17-15,28.6-17.4
	c23.5-5,43.7,7.2,52.7,21.8c-1.4,0.3-2.7,0.6-4,0.9c-0.2-0.3-0.3-0.6-0.5-0.8c-2.2-2.9-4.7-5.6-7.5-8c-6.2-5.2-13.2-8.6-21.1-10.3
	c-1.7-0.4-3.3-0.5-5,0.5c-3.9,2.3-6.8,5.3-7.8,9.9c-0.1,0.3-0.2,0.6,0,0.9c0.3,0,0.7,0,1,0c3.6-0.1,7.2,0.2,10.8,0.8
	c6.7,1.2,13.1,3.5,19.1,6.7c1.2,0.7,2.4,1.3,3.6,2c-1.5,0.5-3,0.8-4.5,1.1c-2.3-1.3-4.8-2.5-7.3-3.5c-4.3-1.7-8.7-2.9-13.2-3.5
	c-1.9-0.3-3.9-0.4-5.8-0.6c-1.2-0.1-2.5,0-3.7,0c-0.1,0.4,0,0.7,0,1.1c0.6,3.3,2,6.2,3.8,9c0.8,1.1,1.4,2.3,2.5,3.3
	c-1.3,0.4-2.7,0.7-4,1c-0.1-0.4-0.3-0.7-0.6-1c-1.4-1.9-2.5-3.9-3.4-6c-0.9-2-1.5-4.1-1.8-6.3c-0.1-0.7-0.3-0.8-0.9-0.8
	c-2,0.3-3.9,0.6-5.9,1c-1.3,0.3-1.3,0.3-1.4,1.7c-0.1,1.5-0.2,3.1-0.4,4.6c-0.2,2.4-0.1,4.8,0,7.2c-1.1-0.3-2.2-0.5-3.3-0.8
	c0.2-0.3,0.2-0.7,0.1-1.1c0-2.9,0.2-5.8,0.5-8.8c0-0.6,0.2-1.1,0.1-1.7c-1.9,0.5-3.6,1.3-5.4,1.9c-1.5,0.5-2.5,1.3-2.6,3
	c0,0.1,0,0.2-0.1,0.2C86.8,78.1,86.2,79.9,85.7,81.8z M99.3,66.8c0.3,0,0.5,0,0.8-0.1c1.7-0.4,3.5-0.6,5.2-0.8
	c1.3-0.1,1.3-0.1,1.5-1.4c0.7-3.6,2.5-6.6,5.3-9c0.8-0.7,1.7-1.3,2.6-2.1c-3.7-0.1-7.3,0.3-10.8,1c-0.6,0.1-0.9,0.4-1.1,0.9
	c-1.1,2-1.8,4.1-2.4,6.2C99.9,63.2,99.4,65,99.3,66.8C99.3,66.8,99.2,66.8,99.3,66.8C99.2,66.8,99.3,66.8,99.3,66.8z M99.8,55.5
	c-5.1,1.6-9.6,3.9-13.7,7c1.3,2.5,2.2,5.1,2.3,7.9c0.2,0,0.3,0,0.3,0c2.3-1,4.6-1.8,6.9-2.5c0.5-0.1,0.6-0.5,0.7-0.9
	c0.4-2.3,1-4.5,1.7-6.7C98.4,58.7,99.1,57.2,99.8,55.5z M71.2,81.1c0.4,0.1,0.5-0.1,0.6-0.3c4-3.3,8.4-6.2,13-8.7
	c0.3-0.1,0.4-0.3,0.4-0.7c0.3-1.8,0.1-3.6-0.5-5.4c-0.2-0.6-0.6-1.2-1.1-1.7C78.2,69.1,74.1,74.6,71.2,81.1z"/>
<path class="st1" d="M186.9,139.5c-8.4,8.4-17.9,8.1-25.8,1.1c0,2.5,0,5,0,7.5c-2.9-0.2-5.5-1.1-7.7-2.8c-3.3-2.5-5-6-5.6-10.1
	c-0.3-1.9-0.2-3.7-0.1-5.7c-5.6-1.5-11.2-2.9-16.8-4.4c0.8-0.5,1.7-0.5,2.5-0.5c2.9-0.3,5.8-0.5,8.6-0.7c0.4,0,0.9,0,1.3,0.1
	c2.2,0.6,4.4,1.2,6.6,1.7c1.1,0.3,1.8-0.2,1.9-1.2c0-0.5-0.2-0.8-0.7-0.9c-0.5-0.1-1-0.3-1.7-0.4c2.1-2.7,4.1-5.5,7.1-7.3
	c5.2-3.2,10.7-4.1,16.7-2.8c3.3,0.8,6.6,1.3,10,1.3c0.1,0,0.3,0,0.4,0c0.1,0.5-0.2,0.7-0.4,1c-1.3,1.6-3,2.8-4.9,3.7
	c-2.7,1.2-5.4,2.4-8.1,3.6c-1,0.5-2,1.1-2.9,1.8c-0.4,0.3-0.7,0.6-1,1.1c3,0.8,6,1.6,8.9,2.4c4.4,1.2,8.8,2.4,13.2,3.6
	c0.5,0.1,0.9,0.1,1.4-0.1c2.1-0.9,4.9-1.2,6.7-0.6c-0.1,1.2-0.5,2.4-0.9,3.6c-0.8,2.1-1.7,4.2-3.3,5.8c-1.1,1.1-2.3,1.9-3.9,1.9
	c-0.4,0-0.7-0.1-0.8-0.5C187.5,140.9,187.2,140.2,186.9,139.5z M154.2,123.2c0.2,0.7,0.5,1.4,0.7,2.1c0.1,2-0.3,3.8-2.5,4.6
	c0.2,2.4,0.7,4.6,2.4,6.7c0.5-3.4,1.6-6.5,3.5-9.2c1.9-2.7,4.2-4.9,7.2-6.4c-6.4,6-8.7,13.6-8.2,22.3c-3.6-1.3-5-4.4-6.7-7.3
	c0.4,1.6,1,3.1,1.9,4.5c1.1,1.7,2.3,3.3,4.2,4.1c0.6,0.3,1.3,0.6,2,0.5c0-0.1,0-0.2,0-0.2c0-0.6-0.1-1.2-0.1-1.8
	c-0.1-4.8,0.7-9.5,2.7-13.9c2-4.4,5-7.6,9.7-9.3c1.1-0.4,2.3-0.9,3.4-1.4c1.4-0.6,2.9-1.3,4.3-2.3c-3.1-0.1-5.9-0.9-8.8-1.2
	c-6.9-0.7-12.2,2-16.2,7.6C153.8,122.9,154,123.1,154.2,123.2z M164,129c0.1,0.1,0.2,0.1,0.2,0.1c7.7,2,15.5,3.9,23.2,5.9
	c0.6,0.1,1,0.1,1.1-0.6c0.2-0.7,0-1.1-0.7-1.3c-4-1-8-2.1-12-3.1c-3.4-0.9-6.9-1.8-10.3-2.7c-0.2-0.1-0.5-0.3-0.8,0.1
	C164.5,127.9,164.2,128.4,164,129z M163.4,133.5c0.2,2.1,1.2,3.6,2.6,4.8c3.6,2.9,7.6,3.7,12.1,2.7c2.3-0.5,4.4-1.7,6.3-3.4
	C176.9,138.6,170,137.3,163.4,133.5z M161.8,136.2c-0.2,0.8-0.3,1.5,0.2,2.2c0.7,0.9,1.4,1.8,2.4,2.5c3.5,2.5,7.4,3.3,11.6,3
	c0.8-0.1,1.6-0.1,2.4-0.6c-3.4,0.4-6.7,0-9.8-1.2C165.6,140.9,163.3,139,161.8,136.2z M193.3,132.5c-0.7,0-1.2,0.2-1.8,0.4
	c-0.7,0.2-1.4,0.4-1.4,1.4c0,0.5-0.3,0.9-0.5,1.4c-0.3,0.7-0.7,1.3-1.2,2.1c1.1-0.6,2-1.3,2.3-2.4c0.3-1.2,1.1-1.7,2-2.4
	C193,132.9,193.2,132.8,193.3,132.5z"/>
<path class="st2" d="M56.2,106.7c-1.6,1.8-3.2,3.5-4.8,5.3c-3.5,4-6.8,8.2-9.2,13.1c-0.9,1.9-1.7,3.8-2,5.9c-0.5,4,1.3,6.6,5.2,7.4
	c2.9,0.6,5.8,0.2,8.7-0.4c4.4-1,8.5-2.7,12.5-4.8c0.3-0.2,0.7-0.3,1-0.5c0,0,0.1,0.1,0.1,0.1c-4.3,4.3-8.8,8.4-14.3,11.2
	c-4,2-8.1,3.2-12.6,2.9c-6.3-0.4-10.5-4.5-10.8-10.9c-0.3-4.8,1.3-9.2,3.4-13.4c2.9-5.7,6.8-10.7,11-15.4c0.3-0.3,0.6-0.6,0.8-1.1
	c-1.9,0.5-3.7,0.9-5.6,1.4c-1.9,0.5-3.7,0.9-5.7,1.2c0.4-0.5,0.8-0.8,1.2-1.1c2-1.6,4.1-3.1,6.1-4.5c0.2-0.1,0.4-0.2,0.5-0.3
	c4.6,1.2,9.2,2.4,13.9,3.6C56,106.6,56.1,106.7,56.2,106.7z"/>
<path class="st3" d="M144.6,75.1c-1.2-0.7-2.4-1.3-3.6-2c-6-3.3-12.3-5.5-19.1-6.7c-3.6-0.6-7.1-0.9-10.8-0.8c-0.3,0-0.7,0-1,0
	c-0.2-0.3-0.1-0.6,0-0.9c1-4.6,3.9-7.6,7.8-9.9c1.7-1,3.3-0.9,5-0.5c7.9,1.7,15,5,21.1,10.3c2.8,2.4,5.3,5.1,7.5,8
	c0.2,0.2,0.3,0.5,0.5,0.8C149.5,74,147.1,74.6,144.6,75.1z"/>
<path class="st3" d="M80.4,132.3c3.9-1,7.9-2.1,11.8-3.1c3.8-1,7.6-2,11.3-3c0.1,0,0.2,0,0.5-0.1c-2.8,3.9-3.8,8.2-4.1,12.9
	c1-0.6,1.7-1.2,2.5-1.9c2.1-1.7,4.3-3.2,6.6-4.5c0.1-0.1,0.2-0.1,0.4-0.1c0.3,0.2,0.5,0.5,0.8,0.8c2.9,3.7,6.1,7.1,9.8,10.1
	c0.9,0.8,1.9,1.5,2.9,2.3c-0.2,0.1-0.3,0.1-0.4,0.1c-4.1,0.7-8.2,1-12.3,0.7c-3.2-0.2-6.4-0.8-9.5-1.7c-6.3-1.8-11.9-4.9-16.9-9.1
	C82.6,134.6,81.3,133.6,80.4,132.3z"/>
<path class="st3" d="M112.8,130.7c2.1-1.2,4.3-2,6.5-2.8c2.6-1,5.3-1.7,8-2.3c0.4-0.1,0.8-0.1,1.2,0c5.9,1.6,11.8,3.1,17.7,4.6
	c0.1,0,0.1,0.1,0.2,0.1c0,1,0,2,0,3c-1,1-2.1,2-3.2,2.9c-4.7,3.8-10,6.6-15.8,8.4c-0.5,0.2-0.9,0-1.4-0.3c-4-3-7.6-6.5-10.7-10.3
	C114.4,132.9,113.4,132,112.8,130.7z"/>
<path class="st2" d="M154.2,115.8c-2,0.3-3.9,0.6-5.9,0.9c-3.4,0.5-6.9,0.9-10.3,1.3c-4.9,0.7-9.8,1.5-14.6,2.6c-4,1-8,2.2-11.8,3.9
	c-0.2,0.1-0.4,0.3-0.7,0.1c3.9-3.4,8.5-5,13.3-6.5c7-2.1,14.2-3.4,21.3-4.6c6.1-1,12.3-1.9,18.3-3.4c4.1-1,8.1-2.2,11.8-4.4
	c1.3-0.8,2.4-1.7,3.3-2.9c1.6-2.3,1.3-5.7-0.8-7.6c-0.7-0.6-1.4-1.2-2.1-1.9c-2.5-2.8-2.5-6.2,0-9c2.1-2.3,4.9-3.5,8-4
	c1.8-0.3,3.6-0.2,5.4,0.2c-0.7,1.8-1.4,3.6-2.1,5.4c-1.3-1.6-2.9-2.3-4.9-2.3c-0.6,0-1.2,0.1-1.8,0.4c-1.6,0.8-2,2.5-0.9,3.9
	c0.7,0.8,1.4,1.4,2.2,2.1c1.9,1.7,3.4,3.8,3.9,6.3c0.8,3.7-0.4,6.7-2.9,9.4c-1.6,1.7-3.6,2.8-5.7,3.8c-1.7,0.8-3.5,1.5-5.3,2.2
	c-1-0.3-2-0.4-3-0.4c-4.2-0.1-8.2,0.6-12,2.6C156.1,114.5,155.1,115.1,154.2,115.8z"/>
<path class="st1" d="M112.8,130.7c0.5,1.3,1.5,2.3,2.4,3.3c3.2,3.9,6.7,7.3,10.7,10.3c0.4,0.3,0.8,0.4,1.4,0.3
	c5.8-1.8,11.1-4.6,15.8-8.4c1.1-0.9,2.2-1.9,3.2-2.9c0.1,1.4,0.2,2.8,0.6,4.2c0.1,0.5-0.2,0.8-0.5,1c-3.9,3.3-8.2,6-12.9,7.9
	c-7.6,3.2-15.5,4.5-23.7,3.9c-11.4-0.9-21.4-5.3-30-12.9c-1.3-1.2-2.6-2.4-3.9-4c1.5-0.4,2.9-0.7,4.3-1.1c0.9,1.3,2.2,2.3,3.4,3.3
	c5,4.2,10.6,7.3,16.9,9.1c3.1,0.9,6.3,1.5,9.5,1.7c4.1,0.3,8.2,0.1,12.3-0.7c0.1,0,0.2,0,0.4-0.1c-1-0.8-2-1.6-2.9-2.3
	c-3.7-3-6.9-6.3-9.8-10.1c-0.2-0.3-0.4-0.6-0.8-0.8C110.5,131.8,111.6,131.1,112.8,130.7z"/>
<path class="st2" d="M54.4,95.7c1.4-0.9,2.9-1.4,4.3-2.1c5.7-2.5,11.6-4.4,17.8-5.4c6.3-1,12.6-1.3,18.8,0.7
	c2.7,0.9,5.1,2.2,7.2,4.1c-6.1,3.4-12.1,7-18.1,10.7c0.4-1.1,0.9-2.1,1.3-3.1c0.5-1.2,0.9-2.5,0.9-3.8c0-2.5-1.3-3.9-3.8-3.9
	c-2.8-0.1-5.5,0.8-8.1,1.8c-2.9,1.1-5.6,2.6-8.2,4.1C62.5,97.8,58.5,96.8,54.4,95.7z"/>
<path class="st3" d="M116.4,82.1c-1-0.9-1.7-2.1-2.5-3.3c-1.8-2.8-3.2-5.7-3.8-9c-0.1-0.3-0.1-0.6,0-1.1c1.2,0,2.4-0.1,3.7,0
	c1.9,0.1,3.9,0.3,5.8,0.6c4.6,0.6,9,1.8,13.2,3.5c2.5,1,5,2.1,7.3,3.5c-7.8,1.9-15.7,3.9-23.5,5.8C116.5,82.1,116.5,82.1,116.4,82.1
	z"/>
<path class="st3" d="M98.1,83.5c-0.1-2.4-0.1-4.8,0-7.2c0.1-1.6,0.2-3.1,0.4-4.6c0.1-1.4,0.1-1.4,1.4-1.7c1.9-0.4,3.9-0.7,5.9-1
	c0.6-0.1,0.8,0.1,0.9,0.8c0.2,2.2,0.9,4.3,1.8,6.3c1,2.1,2.1,4.1,3.4,6c0.2,0.3,0.5,0.6,0.6,1c-2.4,0.7-5,1.2-7.4,1.9
	c-1.4,0.4-2.6,0.4-3.9-0.3C100.2,84.2,99.1,83.9,98.1,83.5z"/>
<path class="st3" d="M85.7,81.8c0.6-1.9,1.1-3.7,1.7-5.6c0-0.1,0-0.2,0.1-0.2c0.1-1.7,1.1-2.5,2.6-3c1.8-0.6,3.6-1.4,5.4-1.9
	c0.2,0.6,0,1.2-0.1,1.7c-0.3,2.9-0.5,5.8-0.5,8.8c0,0.4,0,0.7-0.1,1.1c-1.8-0.2-3.5-0.6-5.3-0.7C88.2,82,86.9,81.9,85.7,81.8z"/>
<path class="st3" d="M74.1,82.8c0.6-1,1.7-1.5,2.6-2.2c2.4-1.8,4.9-3.4,7.6-4.8c0.1,0,0.2-0.1,0.4,0c-0.6,2.1-1.3,4.1-2.4,6.1
	c-2.6,0.2-5.2,0.5-7.8,1C74.3,82.9,74.2,82.8,74.1,82.8z"/>
<path class="st2" d="M72.4,128.7c0.8-2.4,1.8-4.6,2.7-6.9c1.8-4.6,3.6-9.1,5.3-13.7c0.2-0.5,0.5-0.7,1-0.9c1.5-0.4,2.9-0.8,4.5-1.2
	c-2.2,5.9-4.4,11.7-6.6,17.5c0.1,0,0.1,0.1,0.2,0.1c5-4.7,8.8-10.1,11.8-16.3c-1-0.6-2-1.2-3-1.9c3.4-0.9,6.6-1.7,9.9-2.5
	c-0.4,1.4-1,2.7-1.5,3.9c-2.8,6.6-6.6,12.5-11.7,17.5c-1.1,1.1-2.2,1.8-3.8,2.2c-2.9,0.6-5.8,1.4-8.7,2.2
	C72.5,128.8,72.4,128.8,72.4,128.7z"/>
<path class="st2" d="M65.4,123.9c-1.4,0.4-2.6,0.8-3.9,1.1c-0.4,0.1-0.5,0.3-0.7,0.6c-1,2.2-2.1,4.3-3.1,6.4
	c-0.2,0.4-0.5,0.6-0.9,0.7c-1.5,0.4-3.1,0.8-4.7,1.2c0.1-0.3,0.2-0.4,0.3-0.6c2.1-4.2,4-8.6,6.3-12.7c2.6-4.6,6.1-8.2,10.9-10.4
	c2.3-1,4.7-1.5,7.1-2.1c0.1,0.2-0.1,0.4-0.1,0.6c-2.7,6.8-5.5,13.6-8.2,20.4c-0.1,0.3-0.2,0.6-0.7,0.7c-1.7,0.4-3.4,0.9-5.2,1.3
	C63.4,128.9,64.4,126.5,65.4,123.9z M62.7,122.1c1.3-0.4,2.6-0.8,3.8-1.1c0.4-0.1,0.4-0.4,0.5-0.6c0.8-1.7,1.5-3.4,2.2-5.1
	c0.1-0.3,0.4-0.6,0.3-1C67.4,114.8,64.1,119.1,62.7,122.1z"/>
<path class="st2" d="M104,114.1c-1.5,0.4-2.8,0.8-4,1.2c-0.3,0.1-0.4,0.4-0.5,0.6c-1,2.1-2,4.2-3,6.2c-0.2,0.4-0.4,0.6-0.9,0.7
	c-1.6,0.4-3.1,0.8-4.8,1.2c0.8-1.6,1.5-3.1,2.2-4.5c1.6-3.2,3-6.5,4.9-9.6c2.8-4.4,6.5-7.9,11.4-9.8c1.9-0.7,3.9-1.2,6-1.6
	c0,0.5-0.2,0.8-0.4,1.1c-2.7,6.6-5.4,13.2-8,19.8c-0.2,0.4-0.4,0.7-0.8,0.8c-1.6,0.4-3.3,0.8-5.1,1.3C102,119.1,103,116.7,104,114.1
	z M108.3,104.5c-3.5,1.6-5.2,4.7-7.1,7.9c1.5-0.4,2.7-0.8,4-1.1c0.2-0.1,0.3-0.2,0.4-0.3C106.5,108.8,107.4,106.6,108.3,104.5z"/>
<path class="st2" d="M174.4,100.8c-1.8,3-5.4,4.8-8.5,4.1c-1.9-0.4-3.2-1.7-4.3-3.1c-0.8-1-1.3-2.1-1.9-3.3
	c-1.1,2.9-2.1,5.7-3.1,8.5c-0.2,0.5-0.4,0.8-1,0.9c-1.4,0.3-2.8,0.7-4.4,1.1c0.7-2,1.4-4,2.1-5.9c1.8-4.9,3.6-9.8,5.4-14.7
	c0.2-0.6,0.5-0.9,1.2-1.1c4.1-1,8.1-2.1,12.2-3.3c0.1,1.1-0.1,2.1-0.5,3c-1.3,3.7-3.4,6.9-6.8,9c-0.5,0.3-0.3,0.5-0.2,0.8
	c1,2.5,2.8,3.9,5.4,4.4C171.8,101.4,172.5,101.3,174.4,100.8z M160.9,95.3c3-1.3,5.7-4.8,6.2-7.8c-1.1,0.3-2.3,0.6-3.4,0.9
	c-0.2,0.1-0.4,0.1-0.5,0.3C162.5,91,161.7,93.1,160.9,95.3z"/>
<path class="st2" d="M134.7,113c1.1-2.9,2.2-5.6,3.2-8.3c1.6-4.2,3.3-8.4,4.9-12.7c0.2-0.4,0.3-0.7,0.8-0.8c4-1,7.9-2,11.9-3
	c0.1,0,0.2,0,0.5,0c-0.8,2-1.6,3.9-2.4,5.8c-0.3-0.1-0.3-0.3-0.5-0.4c-1.4-1.8-3.4-2.3-5.5-1.5c-0.2,0.1-0.3,0.2-0.4,0.4
	c-0.8,2.2-1.6,4.3-2.5,6.5c1.9-0.1,3.7-0.3,5.6-0.4c-0.1,0.4-0.4,0.4-0.6,0.5c-2,1.1-3.9,2.1-5.9,3.2c-0.2,0.1-0.5,0.2-0.6,0.5
	c-0.8,2-1.7,4-2.6,6.1c4.1-0.7,7.2-2.9,10-5.6c-0.9,2-1.7,4-2.6,6.1c-0.1,0.2-0.2,0.3-0.4,0.3C143.4,110.7,139.2,111.8,134.7,113z"
	/>
<path class="st2" d="M123.9,96.3c-2.3,6.2-4.6,12.4-7,18.6c2.2-0.3,4.1-1,5.8-2.2c1.7-1.2,3-2.8,4.5-4.5c0,0.6-0.3,1-0.5,1.5
	c-0.7,1.8-1.5,3.6-2.2,5.4c-0.1,0.3-0.2,0.5-0.6,0.6c-4.6,1.2-9.2,2.4-13.9,3.6c0.4-1.2,0.9-2.3,1.3-3.4c2.2-5.8,4.5-11.7,6.7-17.5
	c0.2-0.5,0.5-0.8,1.1-0.9c1.4-0.3,2.8-0.7,4.1-1C123.4,96.3,123.6,96.3,123.9,96.3z"/>
<path class="st2" d="M126.5,115c0.7-1.9,1.4-3.7,2.1-5.5c2-5.2,4-10.3,6-15.5c0.1-0.3,0.1-0.6,0.5-0.7c1.6-0.4,3.2-0.8,5-1.3
	c-0.5,1.3-0.9,2.5-1.4,3.6c-2.2,5.7-4.5,11.5-6.7,17.2c-0.2,0.6-0.5,0.8-1.1,1C129.6,114.2,128.1,114.6,126.5,115z"/>
<path class="st0" d="M78,104.8c-1.6,0.4-3.1,0.7-4.6,0.8c-0.7,0.1-1.4-0.3-2.1-0.5c-11.5-3-23.1-6-34.6-9c-3.7-1-7.3-2.2-10.7-3.9
	c-0.8-0.4-1.5-0.8-2.3-1.5C41.8,95.5,59.8,100.1,78,104.8z"/>
<path class="st2" d="M159.1,77.1c0.2,0.7,0.4,1.5,0.6,2.4c0.3-0.8,0.6-1.4,0.8-2c0.2-0.8,0.7-1.2,1.4-1.2c0.3,0,0.5-0.2,0.8-0.1
	c-0.7,1.9-1.5,3.7-2.2,5.6c0,0,0,0,0,0.1c-0.2,1.4-1.1,2-2.6,2c1.1-1.6,0.8-3.3,0.1-5c-0.5,1.5-1,3-1.5,4.4
	c-0.2,0.9-0.7,1.4-1.6,1.4c-0.2,0-0.4,0.1-0.7,0.1c0.5-1.2,0.9-2.4,1.4-3.6c0.3-0.8,0.7-1.7,1-2.5C157.2,77.4,157.5,77.2,159.1,77.1
	z"/>
<path class="st2" d="M154.5,78.6c0.1,0.4-0.2,0.7-0.3,1c-0.6,1.6-1.3,3.2-1.9,4.8c-0.2,0.7-0.6,1.1-1.3,1.1c-0.3,0-0.5,0.1-0.9,0.2
	c0.4-0.9,0.7-1.8,1-2.7c-1.5,0-1.7,0.2-2.2,1.4c0,0.1-0.1,0.1-0.1,0.2c-0.2,1.4-1.1,1.8-2.5,1.8c0.7-1.9,1.5-3.8,2.2-5.7
	c0.3-0.8,0.8-1.3,1.5-1.6c0.9-0.4,1.9-0.8,2.9-0.9C153.5,78.3,154,78.3,154.5,78.6z M149.8,82.5c0,0.1,0.1,0.1,0.1,0.2
	c0.5-0.3,1.3-0.1,1.6-0.7c0.4-0.8,0.7-1.7,1.1-2.6c-0.8,0-1.5,0-1.9,0.7C150.4,80.8,150.1,81.7,149.8,82.5z"/>
<path class="st2" d="M162.1,82.8c1-2.4,1.9-4.8,2.8-7.1c0.1-0.2,0.1-0.3,0.3-0.4c1.3-0.3,2.6-0.8,4-0.8c0.4,0,0.8-0.1,1.2,0.4
	c-0.7,1.8-1.4,3.7-2.3,5.6c-0.4,0.8-1.3,1-2.1,1.3C164.8,82.3,163.5,82.4,162.1,82.8z M168.4,75.5c-0.7,0.1-1.5-0.1-1.8,0.5
	c-0.8,1.8-1.4,3.6-2.2,5.5c0.8-0.2,1.6-0.1,1.9-0.9C167,79,167.6,77.3,168.4,75.5z"/>
<path class="st2" d="M114.1,88.1c-0.3,1.2-1.1,2-2,1.6c-0.7-0.3-1.1-0.1-1.6,0.1c-0.2,0.1-0.5,0.2-0.6,0.5c-0.7,1.7-1.3,3.5-2.1,5.3
	c0.8-0.1,1.5-0.1,2-0.9c0.3-0.5,1.2-0.4,1.8-0.5c-0.3,1.5-4.2,2.9-5.8,2.1c0.8-1.9,1.5-3.8,2.3-5.7c0.2-0.4,0.6-0.6,1-0.8
	C110.7,88.8,112.4,88.5,114.1,88.1z"/>
<path class="st2" d="M140.8,81.6c0,0.6-0.3,0.9-0.8,0.9c-1.6,0-2.3,1-2.6,2.4c0,0,0,0.1,0,0.2c0.7-0.2,1.4-0.3,2.2-0.5
	c0,0.6-0.2,0.9-0.8,0.9c-1.4,0.1-2.3,0.8-2.5,2.3c0,0.3-0.2,0.5-0.3,0.9c0.8-0.2,1.6-0.4,2.3-0.5c0,0.6-0.3,0.8-0.8,1
	c-1.2,0.2-2.4,0.6-3.5,0.9c-0.2-0.3,0.1-0.6,0.2-0.8c0.8-2,1.6-3.9,2.3-5.9c0.2-0.5,0.4-0.7,0.9-0.8
	C138.4,82.3,139.5,81.9,140.8,81.6z"/>
<path class="st2" d="M122.3,92.1c0.9-0.1,1.6-0.4,2.3-0.5c0,0.5-0.3,0.8-0.8,0.9c-1.2,0.2-2.4,0.6-3.8,0.9c0.5-1.4,1-2.6,1.5-3.8
	c0.4-1,0.8-2,1.2-3c0.1-0.3,0.2-0.5,0.5-0.6c1.3-0.3,2.6-0.6,3.9-0.9c-0.1,0.5-0.2,0.8-0.7,0.9c-0.1,0-0.1,0.1-0.2,0.1
	c-1.6,0-2.2,1.1-2.4,2.6c0.7-0.2,1.4-0.3,2.2-0.5c0.1,0.6-0.3,0.9-0.8,0.9c-1.5,0.1-2.3,0.8-2.6,2.3
	C122.6,91.5,122.4,91.7,122.3,92.1z"/>
<path class="st2" d="M128.1,84.9c0.6-0.1,1-0.2,1.6-0.3c0,1.3,0,2.4,0,3.6c0.1,0,0.2,0,0.2,0.1c0.3-0.5,0.7-1,1-1.5
	c0.4-0.6,0.8-1.1,1.1-1.8c0.5-1.2,1.5-1.5,2.8-1.6c-2,2.7-3.9,5.3-6,8C128.6,89.1,128.4,87,128.1,84.9z"/>
<path class="st2" d="M144.6,80.7c-0.9,2.2-1.7,4.3-2.5,6.5c1.1-0.2,2-0.5,3.1-0.7c-0.1,0.4-0.1,0.8-0.6,0.9c-1.5,0.3-3,0.7-4.5,1.1
	c-0.2-0.3,0.1-0.5,0.1-0.7c0.7-1.8,1.5-3.6,2.1-5.4C142.5,81,143.4,80.8,144.6,80.7z"/>
<path class="st2" d="M118.3,87.3c-0.8,2.1-1.7,4.2-2.5,6.5c1.1-0.3,2-0.5,3-0.7c0,0.6-0.2,0.8-0.8,0.9c-1.4,0.3-2.9,0.7-4.3,1
	c-0.2-0.3,0.1-0.5,0.2-0.8c0.7-1.8,1.4-3.6,2.1-5.3C116.5,87.5,116.7,87.4,118.3,87.3z"/>
<path class="st2" d="M67.7,132.8c0.1-0.1,0.1-0.1,0.2-0.2c0.1,0.1,0.1,0.1,0.2,0.2c-0.1,0-0.2,0.1-0.3,0.1
	C67.8,132.9,67.8,132.9,67.7,132.8z"/>
<path class="st2" d="M72.5,128.8c-0.1,0-0.1,0-0.2,0c0,0,0.1-0.1,0.1-0.1C72.4,128.8,72.5,128.8,72.5,128.8z"/>
<path class="st3" d="M99.8,55.5c-0.7,1.7-1.4,3.2-1.9,4.7c-0.7,2.2-1.2,4.4-1.7,6.7c-0.1,0.4-0.1,0.8-0.7,0.9
	c-2.4,0.7-4.7,1.5-6.9,2.5c-0.1,0-0.1,0-0.3,0c-0.1-2.8-1-5.4-2.3-7.9C90.2,59.4,94.7,57.1,99.8,55.5z"/>
<path class="st3" d="M99.3,66.8c0.1-1.8,0.6-3.6,1.1-5.3c0.6-2.2,1.3-4.2,2.4-6.2c0.3-0.5,0.6-0.8,1.1-0.9c3.5-0.7,7.1-1.1,10.8-1
	c-0.9,0.7-1.8,1.4-2.6,2.1c-2.7,2.5-4.6,5.4-5.3,9c-0.2,1.3-0.2,1.2-1.5,1.4c-1.7,0.2-3.5,0.5-5.2,0.8
	C99.8,66.8,99.5,66.8,99.3,66.8L99.3,66.8z"/>
<path class="st3" d="M71.2,81.1c2.9-6.5,7-12,12.4-16.6c0.6,0.5,0.9,1.1,1.1,1.7c0.6,1.7,0.8,3.5,0.5,5.4c0,0.3-0.2,0.5-0.4,0.7
	c-4.6,2.4-9,5.3-13,8.7C71.7,81,71.5,81.2,71.2,81.1z"/>
<path class="st3" d="M99.3,66.8C99.3,66.8,99.2,66.8,99.3,66.8C99.2,66.8,99.3,66.8,99.3,66.8L99.3,66.8z"/>
<path class="st0" d="M154.2,123.2c-0.2-0.1-0.4-0.3-0.5-0.5c4-5.5,9.3-8.2,16.2-7.6c2.9,0.3,5.7,1.1,8.8,1.2c-1.5,1-2.9,1.7-4.3,2.3
	c-1.1,0.5-2.2,1-3.4,1.4c-4.6,1.6-7.7,4.9-9.7,9.3c-2,4.4-2.8,9-2.7,13.9c0,0.6,0,1.2,0.1,1.8c0,0,0,0.1,0,0.2
	c-0.7,0.1-1.4-0.2-2-0.5c-1.9-0.9-3.2-2.4-4.2-4.1c-0.8-1.4-1.5-2.9-1.9-4.5c1.7,2.9,3.1,6.1,6.7,7.3c-0.5-8.7,1.8-16.3,8.2-22.3
	c-3,1.5-5.3,3.6-7.2,6.4c-1.9,2.7-3,5.7-3.5,9.2c-1.6-2.1-2.1-4.3-2.4-6.7c2.1-0.8,2.6-2.6,2.5-4.6c3.5-4.9,7.9-8.3,13.9-9.6
	c-3.2-0.1-6.1,0.8-8.9,2.4C157.7,119.4,155.9,121.2,154.2,123.2z"/>
<path class="st0" d="M164,129c0.2-0.6,0.5-1,0.8-1.5c0.2-0.4,0.5-0.1,0.8-0.1c3.4,0.9,6.9,1.8,10.3,2.7c4,1,8,2.1,12,3.1
	c0.7,0.2,0.9,0.6,0.7,1.3c-0.2,0.6-0.6,0.7-1.1,0.6c-7.7-2-15.5-3.9-23.2-5.9C164.2,129.1,164.1,129,164,129z"/>
<path class="st0" d="M163.4,133.5c6.5,3.8,13.4,5.1,21,4.1c-1.9,1.8-4,2.9-6.3,3.4c-4.4,1-8.5,0.2-12.1-2.7
	C164.6,137.1,163.6,135.6,163.4,133.5z M180.7,139c-5.4,0.1-10.5-1-15.2-3.5C167.1,139.8,176.2,142,180.7,139z"/>
<path class="st2" d="M154.2,123.2c1.7-2,3.5-3.8,5.8-5.1c2.7-1.6,5.7-2.5,8.9-2.4c-5.9,1.3-10.4,4.7-13.9,9.6
	C154.7,124.6,154.5,123.9,154.2,123.2z"/>
<path class="st0" d="M161.8,136.2c1.5,2.8,3.8,4.6,6.7,5.8c3.1,1.3,6.4,1.6,9.8,1.2c-0.8,0.5-1.6,0.6-2.4,0.6
	c-4.2,0.3-8.1-0.5-11.6-3c-0.9-0.7-1.7-1.5-2.4-2.5C161.4,137.7,161.6,137,161.8,136.2z"/>
<path class="st0" d="M193.3,132.5c-0.1,0.3-0.4,0.3-0.5,0.5c-0.9,0.6-1.7,1.2-2,2.4c-0.3,1.1-1.2,1.8-2.3,2.4
	c0.4-0.8,0.8-1.4,1.2-2.1c0.2-0.4,0.5-0.9,0.5-1.4c0-1,0.6-1.2,1.4-1.4C192.1,132.7,192.7,132.5,193.3,132.5z"/>
<path class="st1" d="M62.7,122.1c1.3-3,4.7-7.4,6.9-7.9c0,0.4-0.2,0.7-0.3,1c-0.7,1.7-1.5,3.4-2.2,5.1c-0.1,0.2-0.1,0.5-0.5,0.6
	C65.3,121.4,64.1,121.7,62.7,122.1z"/>
<path class="st1" d="M108.3,104.5c-0.9,2.1-1.9,4.2-2.8,6.4c-0.1,0.2-0.2,0.3-0.4,0.3c-1.3,0.4-2.5,0.7-4,1.1
	C103.1,109.2,104.8,106.1,108.3,104.5z"/>
<path class="st1" d="M160.9,95.3c0.8-2.2,1.6-4.4,2.3-6.5c0.1-0.2,0.3-0.3,0.5-0.3c1.1-0.3,2.2-0.6,3.4-0.9
	C166.6,90.5,163.9,94,160.9,95.3z"/>
<path class="st1" d="M149.8,82.5c0.3-0.8,0.6-1.6,1-2.4c0.4-0.7,1.1-0.7,1.9-0.7c-0.4,1-0.6,1.8-1.1,2.6c-0.3,0.6-1.1,0.3-1.6,0.7
	C149.9,82.6,149.8,82.5,149.8,82.5z"/>
<path class="st1" d="M168.4,75.5c-0.7,1.8-1.4,3.5-2.1,5.1c-0.3,0.7-1.1,0.7-1.9,0.9c0.7-1.9,1.4-3.7,2.2-5.5
	C166.9,75.4,167.6,75.6,168.4,75.5z"/>
<path class="st1" d="M180.7,139c-4.4,2.9-13.6,0.8-15.2-3.5C170.2,138.1,175.2,139.1,180.7,139z"/>
</svg>
