<?xml version="1.0" encoding="utf-8"?>
<!-- Generator: Adobe Illustrator 21.0.0, SVG Export Plug-In . SVG Version: 6.00 Build 0)  -->
<svg version="1.1" id="Layer_6" xmlns="http://www.w3.org/2000/svg" xmlns:xlink="http://www.w3.org/1999/xlink" x="0px" y="0px"
	 viewBox="0 0 200 200" style="enable-background:new 0 0 200 200;" xml:space="preserve">
<style type="text/css">
	.st0{fill:#25418E;}
	.st1{fill:#27418E;}
	.st2{fill:#28418E;}
	.st3{fill:#27418D;}
	.st4{fill:#28408D;}
	.st5{fill:#293F8B;}
	.st6{fill:#28408C;}
	.st7{fill:#2B3E86;}
	.st8{fill:#293B81;}
	.st9{fill:#2C3D84;}
	.st10{fill:#2B3B80;}
	.st11{fill:#2A3A80;}
	.st12{fill:#2B3B82;}
	.st13{fill:#2C377D;}
	.st14{fill:#2B3B83;}
	.st15{fill:#2D3D84;}
	.st16{fill:#2C3C83;}
	.st17{fill:#282E6F;}
	.st18{fill:#272C6D;}
	.st19{fill:#252B67;}
	.st20{fill:#2C316E;}
	.st21{fill:#2D3168;}
	.st22{fill:#FECD34;}
	.st23{fill:#25418D;}
	.st24{fill:#293F8F;}
	.st25{fill:#F5E02D;}
	.st26{fill:#283F8F;}
	.st27{fill:#29408E;}
	.st28{fill:#28408F;}
	.st29{fill:#F4DB31;}
	.st30{fill:#29408F;}
	.st31{fill:#293F8E;}
	.st32{fill:#293E8F;}
	.st33{fill:#F4DF2D;}
	.st34{fill:#F6DF2A;}
	.st35{fill:#F3DC31;}
	.st36{fill:#2A408F;}
	.st37{fill:#2A3B91;}
	.st38{fill:#F3DE2D;}
	.st39{fill:#2A3F8F;}
	.st40{fill:#2B3E8F;}
	.st41{fill:#EFD932;}
	.st42{fill:#2F3E8F;}
	.st43{fill:#F1DC30;}
	.st44{fill:#293E90;}
	.st45{fill:#EFDA33;}
	.st46{fill:#EEDA33;}
	.st47{fill:#2B3F8E;}
	.st48{fill:#2D3E8E;}
	.st49{fill:#36438D;}
	.st50{fill:#605E79;}
</style>
<path class="st0" d="M13.5,87c1.6-15.5,7.4-29.3,17.2-41.4c12.4-15.2,28.4-24.7,47.7-27.8c23.1-3.7,44.2,1.5,62.6,16.4
	c14.7,11.9,24,27.2,27.6,45.9c4.4,22.8-0.3,43.7-14,62.3c-12.6,17.1-29.7,27.6-50.6,30.6c-27.9,4-52-4.4-71.1-25.5
	c-11.1-12.2-17.3-26.7-19.3-43C14.3,98.7,14.3,92.8,13.5,87z M163.9,93c0.1-39.9-32.1-72.3-72.1-72.5c-40.2-0.2-72.5,32-72.7,72.2
	C19,132.3,50.7,164.5,90,165.3C130.8,166.1,163.7,133.3,163.9,93z"/>
<path class="st1" d="M26.7,152.1c-1.2,3.3-2.4,6.6-3.9,10.7c3.9-2.5,8.1-3.2,11-6.5c1.6,1,3.2,2.6,4.8,4.2
	c-3.4,2.9-3.4,7.4-5.1,11.1c3.4-2.2,7.9-2.7,10.3-6.5c1.5,1.3,3.2,2.8,5.1,4.4c-3.9,0.6-6.9,2.7-10,4.4c-3,1.6-6.8,2.2-8.7,5.7
	c-1.5-1-3.1-2.5-4.3-3.9c3.6-3.4,3.6-8.3,5.6-12.4c-3.8,2.3-8.4,3-11.8,6.8c-1.2-1-2.7-2.3-4.3-3.6c1.9-1.2,7.4-14.5,7.8-18.7
	C24.6,149,26.5,149.9,26.7,152.1z"/>
<path class="st2" d="M162.8,170.3c-1,0.9-1.5,1.4-2.1,1.8c-1.3,1-2.5,2-3.8,2.9c-1.4-2.4-4.1-2.1-6.1-3.1c-2.9-1.5-4,1.4-6.1,2.3
	c1.8,2.1,2.8,4.6,5.5,5.9c-1.7,1.3-3.3,2.5-5.1,3.9c-0.4-2.7-9.9-14.8-12.4-15.7c4-3,7.7-6,11.6-8.7c3.3-2.3,5.9-2.1,8.1,0.1
	c2.4,2.4,2.5,4.4,0.1,8.4C155.9,168.9,158.8,170.7,162.8,170.3z M142.5,171.5c2.1-1.7,4.1-3.2,6.1-4.9c1.1-0.9,2-2,0.7-3.5
	c-1.2-1.4-2.5-0.9-3.7,0c-2,1.5-3.9,3-5.9,4.6C140.7,169,141.5,170.2,142.5,171.5z"/>
<path class="st1" d="M76,189.9c1.5,3.1,2.3,6.1,4.6,9.2c-2.8-0.6-5-1.1-7.2-1.6c1.1-2.5-1.1-4.2-1.4-6.3c-0.6-3.3-3.5-2.4-5.6-3.4
	c-0.7,2.7-1.9,5.1-0.9,8.2c-2.2-0.5-4.2-0.9-6-1.3c2.2-6.3,3.2-12.8,4.3-19.5c4.1,0.9,8.7,1.8,13.3,3c4.1,1,5.3,2.7,5.1,6.3
	C82,187.8,80.3,189.3,76,189.9z M66.8,184.3c2.9,0.6,5.5,1.1,8.2,1.6c1.5,0.3,2.3-0.6,2.7-1.9c0.4-1.3-0.3-2.3-1.5-2.6
	c-2.8-0.7-5.5-1.7-8.7-1.6C67.7,181.5,67.2,182.7,66.8,184.3z"/>
<path class="st3" d="M125.9,192.4c-5.7,0-10.1-4.5-10.1-10.2c-0.1-5.9,6-11.3,12.7-11.3c5.4,0,10.2,4.9,10.2,10.3
	C138.6,187.2,132.7,192.4,125.9,192.4z M127.5,175.1c-4,0-7.1,2.8-7.1,6.5c0,3.8,3,6.9,6.5,6.8c3.8,0,6.8-2.9,6.9-6.5
	C133.9,178,131.2,175.1,127.5,175.1z"/>
<path class="st4" d="M162.4,141.9c0.9,1.9,1.5,3.4,2.2,5.1c-3.6,0.2-6.2,2-7.9,4.9c-0.7,1.1-1.5,2.5-0.2,3.5
	c1.2,0.9,2.2-0.2,3.1-1.1c1.8-1.6,3.3-3.6,5.3-4.9c2.4-1.5,4.6-1.5,6.7,0.2c2.1,1.7,2.8,4,1.8,6.8c-1.4,3.9-3.9,6.8-7.5,8.8
	c-1,0.6-2.1,1.1-3,2.2c-0.9-1.7-1.7-3.2-2.5-4.9c4.2,0,6.8-2.2,8.7-5.5c0.7-1.2,1.1-2.6-0.3-3.5c-1.3-0.9-2,0.4-2.7,1.1
	c-1.7,1.5-3.2,3.1-4.9,4.5c-2.2,1.8-4.6,2.1-6.9,0.3c-2.2-1.7-2.9-4.1-2-6.8c1-3.3,3.4-5.7,6.2-7.6
	C159.7,144.1,161.2,143.6,162.4,141.9z"/>
<path class="st3" d="M102.7,189.2c-0.6,0.9-1.7,0.8-2.6,1.5c2,2.5,3.5,5.5,6.8,7.8c-2.9,0-5.2,0-7.4,0c-0.1-3-2.6-4.9-4.4-7.1
	c-1.1-1.3-3.2-0.2-5-0.4c0,2.8-0.6,5.4,1.2,8.2c-2,0-3.8,0-5.6,0c1.4-2.7,0.2-5.5,0.2-8.3c-0.1,0.5-0.2,0.9-0.3,1.4
	c-0.7-3.1-0.4-6.2-0.5-9.3c0-1.2,0.3-2.5-1.2-3.1c0.9-0.8,1.7-0.5,2.4-0.5c5.1,0.9,10.1,0.7,15.2,0.1c0.7,0.3,1.4,0.6,1.8,1.4
	C104.3,183.8,104.1,186.5,102.7,189.2z M90,187.2c2.9,0,5.3,0,7.7,0c1.5,0,2.6-0.7,2.6-2.3c0-1.5-0.9-2.3-2.2-2.4
	c-2.8-0.1-5.5,0-8.5,0C89.7,184.5,89.9,185.9,90,187.2z"/>
<path class="st5" d="M50.4,190.8c2-2.3,1.7-4.7-0.6-5.9c-1.1-0.5-2.2-1-3.3-1.6c-3.1-1.5-4.7-0.8-5.7,2.8c-1.9-0.9-3.8-1.9-5.8-2.9
	c3.5-1.7,6.2-4.3,9-6.6c2.6-2.2,6.1-3.7,7.9-7.4c1.4,0.7,3.4,1.7,5.5,2.7c-1.1,1.9-1.4,17.2-0.5,22C54.8,193,52.8,192,50.4,190.8z
	 M52.3,175.4c-2.1,1.7-3.8,3.1-5.7,4.6c1.9,0.9,3.4,1.7,5.2,2.5C52,180.2,52.1,178.1,52.3,175.4z"/>
<path class="st6" d="M106.1,177.7c1.7-0.4,3.6-0.7,5.3-1.1c0.9,6.6,2.3,13,4.3,19.5c-1.6,0.3-3.5,0.7-5.1,1.1
	C109.5,190.6,108.3,184.2,106.1,177.7z"/>
<path class="st7" d="M88.2,13.2c-1,0-1.8,0-2.7,0c0.2-3.9,0.3-7.7-0.1-12.1c5.1,0.2,6.5,5.6,10.4,7.6c-0.4-2.4,0.2-4.9-0.5-7.3
	c1.1-0.4,2-0.3,2.9-0.1c-0.3,4-0.3,7.8,0,11.7c-1.8,0.7-3,0.1-4.2-1.7c-1.5-2.2-3.8-3.8-5.8-5.9C88.2,8.2,88.2,10.6,88.2,13.2z"/>
<path class="st8" d="M55.2,21.4c-1.2-3.9-2.6-7.4-4.3-11c2.3-0.9,4.7-2,7.2-2.9c3-1,5.6,0.3,6.9,3.2c1.4,3.2,0.8,6-2.1,7.5
	C60.4,19.5,57.7,20.4,55.2,21.4z M57.1,18.5c2.4-1.2,5.4-1.2,6-4.2c0.4-1.7-0.5-3.6-2-4.5c-2.6-1.5-4.6,0.7-6.9,1.4
	C55.1,13.6,56,15.9,57.1,18.5z"/>
<path class="st9" d="M170.2,44.6c-2.5-1.9-3-5.8-7.5-6c1,2.7,2.3,4,3.8,5.3c-0.7,0.5-1.4,1.1-2.1,1.6c-1-1.5-1.9-3.2-3.5-4.5
	c-0.7,0.5-1.4,1.1-2.2,1.7c1.9,2.2,3.3,4.7,5.6,6.7c-0.8,0.6-1.6,1.1-2.3,1.6c-1.8-3.5-4.7-6.1-6.6-9.1c3.1-2.4,6-4.7,9.3-7.2
	c2.2,2.8,4.6,5.7,6.9,8.7C171.1,43.9,170.5,44.4,170.2,44.6z"/>
<path class="st10" d="M109.4,13.6c0.6-0.8,1.1-1.4,1.5-2.1c2.1,2.4,4.4,3.8,7.7,2.7c0.1-2.2-1.7-2.1-2.9-2.6
	c-4.1-1.6-5.3-2.9-4.4-5.3c0.8-2,3.8-2.8,6.9-1.5c1.6,0.6,3,1.6,4.7,2.5c-0.7,0.8-1.2,1.4-1.9,2.2c-1.2-1.9-2.8-2.9-4.8-3.3
	c-1-0.2-1.7,0.1-2.5,0.9c1,1.8,2.8,1.8,4.3,2.5c1.8,0.9,4.1,1.7,3.5,4.2c-0.6,2.6-2.8,3-5.3,2.7C113.6,16.3,111.5,15.3,109.4,13.6z"
	/>
<path class="st11" d="M70.7,15.7c-0.7-3.8-1.5-7.5-2.3-11.5c3.5-0.7,7.2-1.5,10.9-2.3c0.3,0.7,0.4,1.4,0.1,2.2
	c-2.7,0.4-5.4,0.7-7.9,1.6c0.1,0.8,0.2,1.5,0.3,2.2c2,0.2,3.9-0.2,5.5-1.3c0.6,1,0.5,1.9,0.4,2.8c-1.9-0.1-3.6,0.2-5.3,0.8
	c-0.4,1.2,0.3,1.9,0.5,2.8c2.8-0.6,5.6-0.6,8.2-1.9c0.2,0.8,0.3,1.7,0.5,2.5C78.1,14.3,74.5,15,70.7,15.7z"/>
<path class="st12" d="M32.4,24.3c3.4,0,5.5,2,5.5,5.4c0,3.8-4.1,8-7.9,8c-2.9,0-5.6-2.6-5.6-5.6C24.3,28.2,28.3,24.3,32.4,24.3z
	 M31.4,26.5c-1.9,0-4.6,2.5-4.6,5c0,2.3,1.3,3.6,3.5,3.7c2.5,0.2,5.5-2.7,5.4-5.1C35.5,27.9,34.2,26.6,31.4,26.5z"/>
<path class="st13" d="M18.6,36.5c0.6,1,1,1.8,1.4,2.6c-2.8,0.8-5.4,3.4-5.3,5.7c0.1,2,1.4,3.4,3.3,3.9c2.9,0.7,4.2-1.3,5.4-3.3
	c0.7-1.1,1.4-2.4-0.7-3.1c-0.6,0.8-1.3,1.8-2,2.7c-0.8,0.2-1.2-0.4-1.7-0.7c1.3-1.7,2.6-3.3,3.9-5c1,1,2,2.1,3.4,2.5
	c0,3.4-1.8,5.8-3.9,7.9c-2,1.9-5.2,2-7.2,0.5c-2.4-1.8-3.2-4.7-2-7.5C14.3,40,16.5,38.4,18.6,36.5z"/>
<path class="st14" d="M141.5,29.4c2.1-3-0.5-3.9-2.2-5.1c-1.5-1.1-2.6-0.7-3.4,0.9c-1-0.3-2-0.7-2.5-1.6c3.6-2.1,7.2-4.2,11.1-6.5
	c0.6,0,1.2,0.8,1.9,1.3c-1.1,4.2-1.2,8.5-2,12.9C143.5,30.6,142.7,30.1,141.5,29.4z M142.8,24.3c-0.1-1.4,1-2.5,0.5-4.1
	c-1.3,0.7-2.3,1.4-3.5,2.1C140.7,23.2,141.5,23.9,142.8,24.3z"/>
<path class="st15" d="M148,34.4c2.1-2.3,4.3-4.6,6.5-7c-1.1-1.2-2.1-2.3-3.7-2.8c0.6-0.7,1.2-1.4,1.8-2.1c3,2.8,5.9,5.5,8.8,8.2
	c-0.5,0.5-1.1,1.2-1.4,1.4c-1.3-1-2.5-1.9-3.7-2.9c-2,2.2-4.2,4.6-6.5,7.2C149.2,35.8,148.5,35.1,148,34.4z"/>
<path class="st16" d="M138.5,13.1c-0.5,0.6-0.4,1.6-1.2,2c-1.2-0.7-2.4-1.3-3.9-2.1c-1.4,3-2.8,5.8-4.3,8.7
	c-0.8-0.4-1.7-0.8-2.6-1.2c1.8-2.7,2.9-5.6,4.2-8.5c-1.3-1-2.6-1.5-4-1.9c0.1-0.9,0.6-1.6,1-2.1C131.4,9.8,134.9,11.4,138.5,13.1z"
	/>
<path class="st9" d="M44.7,25.1c2.5-1.7,5-2.8,6.9-4.8c0.9,0.6,1.1,1.5,1.3,2.2c-3.3,2-6.5,4-9.6,5.9c-1.7-3.6-3.9-6.8-6.1-10.1
	c0.7-0.5,1.7-1.1,2.6-1.7C40.9,19.8,42.9,22.2,44.7,25.1z"/>
<path class="st17" d="M13.5,87c0.9,5.9,0.8,11.7,0,17.6C12.9,98.7,12.8,92.8,13.5,87z"/>
<path class="st18" d="M101.6,179.5c-5.1,0.6-10.2,0.8-15.2-0.1C91.4,179.7,96.5,178,101.6,179.5z"/>
<path class="st19" d="M85.6,192.3c0.1-0.5,0.2-0.9,0.3-1.4c0,2.8,1.1,5.6-0.2,8.3C85.7,196.9,85.6,194.6,85.6,192.3z"/>
<path class="st20" d="M26.7,152.1c-0.3-2.2-2.1-3.1-3.6-4.3c-0.1-1.2,0.5-0.8,1-0.4c1.5,1.4,3,2.8,4.7,4.4
	C27.9,151.9,27.3,152,26.7,152.1z"/>
<path class="st21" d="M102.7,189.2c1.4-2.7,1.6-5.4,0.6-8.3C105.5,183.9,105.3,186.8,102.7,189.2z"/>
<path class="st22" d="M163.9,93c-0.2,40.3-33.1,73.1-73.9,72.3c-39.2-0.8-71-33-70.8-72.6c0.2-40.2,32.5-72.4,72.7-72.2
	C131.8,20.7,164,53.1,163.9,93z M46.3,113.6c0.2-1.8,0-3.5-0.3-5.3c1.6-8.7,1.1-17.5,1.5-26.2c0-0.6,0-1.2-0.5-1.7
	c-0.4-1.5,0.4-3.1-0.6-4.4c-0.4-1.4,1.5-2.9-0.1-4.3c0.7-1.4,1.5-2.7,1.1-4.4c0.1-2.9,0.2-5.9,0.4-8.8c0.2-2.5,2.1-3.9,5-3.6
	c0,0.9,0,1.7,0,2.6c0,0.8-0.2,1.7,0.8,3c-0.1-2.5,0.6-4.3,2.5-4.2c2.4,0,1.7,2.2,1.8,3.7c0.2,2.2-0.4,4.4,0.6,6.6
	c0,0.3-0.1,0.5-0.1,0.8c0,6.2-0.6,12.5,1.3,18.6c0,1.3,0,2.6-0.1,3.9c-1,0.3-0.6,1.2-0.6,1.8c0,4.8,0.2,9.6,1.3,14.4
	c0,1.4-0.1,2.7-0.1,4.1c-1.3,1.6,0,3.2,0,4.8c0.1,5.2,0.5,10.5,0.7,15.8c1.1,0,2,0,2.9,0c2,1.4,2.9,0,3.8-1.4
	c1.3,1.5,2.8,0.4,4.2,0.2c0.5,0.1,1,0.6,1.3-0.2c1.5,0,3,0.1,4.5,0.1c0.5-0.2,1-0.4,1.5-0.6c1.4-0.1,3,0.6,4.3-0.6
	c0.7,0.4,1.1,0.2,1.2-0.6c1.6,1.3,3.2,1.7,4.3-0.6c0.7,0.1,0.3,2,1.7,1.1c1.4-0.1,2.9,0.6,4.2-0.6c0.4,0.6,0.9,0.7,1.3,0
	c1.6,0.5,3.1,0,4.7,0c0.5,0,1,0,1.5,0c1.4,0,2.7,0,4.1,0.1c0.8,0,1.2-0.4,1.3-1.2c1.4,1.5,3.1,0.7,4.8,0.6c0.4,0,0.9,0,1.3,0
	c1.5,0,3,0,4.6,0c-0.8-2.5-1.7-4.8-2.2-7.1c-0.8-4.5-3-7.7-7.3-9.3c-1.6-0.7-1.7-3.3-4-3c-1.3,0-1.8-2.2-3.5-1.3
	c-0.9-0.9-1.2-2.3-2.5-2.9c-0.3-0.2-0.6-0.5-0.9-0.7c1.1-1,2.2,0.1,3.3,0c0.3,0.1,0.6,0.1,0.8,0.3c14.6,9.1,30.1,16,46.8,20.1
	c2.3,0.6,3.2,0,4.1-1.9c4.3-9.5,6.6-19.5,6.2-29.9c-0.6-16.2-5.9-30.7-16.8-42.9c-17.1-19-38.6-26.7-63.5-21.9
	c-26.8,5.2-44.4,22-52.5,48.2c-2.7,8.9-3.3,18.1-1.8,27.7c3.4-3.2,5.7-6.8,8.6-10c2.6,0.5,0.6,2,0.2,2.3c-1.3,1.1-2.4,2.2-2.4,4
	c-1.8,6.4-5.1,12.7-2.3,20c0.4-0.7,0.6-1.1,0.8-1.5c0.5,1.5-0.2,3-0.5,4.8c0.6-0.5,0.9-0.8,1.2-1c0.2,1.8,1.4,3.1,2,4.7
	c0.6,1.1-0.2,2.9,1.8,3.2c0.7,0.9,1.4,1.9,2.2,2.9c0.4-0.8,0-1.8,0.8-2.3c0.3,1.2-0.4,2.5,0.6,3.6c1.7,0.8,3.2,0.5,4.2-1.2
	c0.1,0.9,0.5,1.1,1.3,0.7c1.2,0,2.4,0,3.7,0c0-4.9,0.1-9.5,0-14C46.7,116.9,47.4,115.2,46.3,113.6z M97.9,138.5
	c13.6,0.1,27.1,0,40.6,1.2c1.2,0.1,2.4,0.2,2.6-1.7c-14.5,0-28.9,0-43.2,0c-3.3,0-6.6,0-9.9,0c0,0.2,0,0.3,0,0.5
	C91.3,138.5,94.6,138.5,97.9,138.5z M62.1,141.2c-0.4,4.2,0.5,7.8,0.7,11.5c0.1,1.6,1.2,2.1,2.5,2.6c17,6.9,34,7.1,51.2,0.5
	c7.5-2.9,14.3-7.1,20.6-12.9C111.8,140.5,86.9,141,62.1,141.2z M53.5,61.5c-0.8,23.3,0.1,46.6,0.8,69.8c0.4,0,0.8,0,1.3,0
	C54.9,108,54.2,84.8,53.5,61.5z M124.2,127c-2-4.3-1.3-10-7.6-11.1c1.2,3.8,2.3,7.4,3.4,11.1C121.3,127,122.5,127,124.2,127z
	 M123.3,119.2c0.5,1.7,1.1,3,1.3,4.4c0.6,3,2.1,4.4,5.2,3.3C128.6,121.9,128.6,121.9,123.3,119.2z M130.8,123
	c0.8,4.4,2.9,5.2,8.9,3.7C136.8,125.5,133.9,124.3,130.8,123z M55.5,141.6c-1,3.1-0.3,7.7,1.1,8.9C56.6,147.4,56.5,144.5,55.5,141.6
	z"/>
<path class="st23" d="M33.2,92.3c-2.9,3.1-5.2,6.8-8.6,10c-1.5-9.6-1-18.8,1.8-27.7c8.1-26.2,25.6-43,52.5-48.2
	c24.8-4.8,46.4,2.9,63.5,21.9c10.9,12.2,16.2,26.7,16.8,42.9c0.4,10.4-1.9,20.4-6.2,29.9c-0.9,2-1.8,2.5-4.1,1.9
	c-16.7-4.2-32.2-11.1-46.8-20.1c-0.2-0.1-0.6-0.2-0.8-0.3c-6.5-4.6-13-9-19.2-13.9c-3.3-2.6-6-5.9-9.7-7.9c-0.8-0.8-1.6-1.6-2.4-2.3
	c-1.2-1.5-2.1-3.3-4.2-3.7c-1.4-1.6-2.9-3.3-4.3-4.9c-1-1.1-2-2.2-3-3.3c-1-2.1-0.5-4.4-0.6-6.6c-0.1-1.5,0.5-3.7-1.8-3.7
	c-1.9,0-2.6,1.8-2.5,4.2c-0.9-1.3-0.7-2.2-0.8-3c0-0.9,0-1.8,0-2.6c-2.9-0.3-4.8,1.1-5,3.6c-0.2,2.9-0.3,5.9-0.4,8.8
	C43.2,76,38.6,84.4,33.2,92.3z"/>
<path class="st0" d="M62.1,141.2c24.8-0.2,49.7-0.7,75,1.7c-6.4,5.8-13.1,10-20.6,12.9c-17.1,6.6-34.2,6.4-51.2-0.5
	c-1.3-0.5-2.4-1-2.5-2.6C62.6,149,61.7,145.3,62.1,141.2z"/>
<path class="st24" d="M59.6,86c-1.8-6.1-1.2-12.4-1.3-18.6c3.7,11.6,7.3,23.3,11,34.9c2.8,9,5.5,18,8.3,27c-1.5,0-3-0.1-4.5-0.1
	C68.9,114.8,64.4,100.4,59.6,86z"/>
<path class="st25" d="M72.3,80.8c3.7,2,6.4,5.3,9.7,7.9c6.2,5,12.8,9.4,19.2,13.9c-1.1,0.2-2.2-0.9-3.3,0c-1.4-1-2.7-1.9-4.3-3
	c2.9,9.4,5.7,18.6,8.6,27.8c-0.5,0-1,0-1.5,0c-2.9-9.1-6-18.2-8.7-27.4c-1-3.5-4-4.5-6.2-6.5c-0.1,0.8,0,1.4,0.2,1.9
	c3.3,10.7,6.7,21.3,10,32c-0.4,0.7-0.9,0.6-1.3,0c-3.5-10.9-7.3-21.8-10.5-32.9c-1.1-3.8-3.6-6-6.8-8.7c1.2,3.8,2.2,6.9,3.2,10
	c3.3,10.7,6.6,21.4,9.9,32.2c-1.4,0.9-1-1-1.7-1.1c-3.3-10.3-6.4-20.6-10-30.8C77.1,91,76.9,84.9,72.3,80.8z"/>
<path class="st26" d="M61.4,69.9c1.4,1.6,2.9,3.3,4.3,4.9c0.4,0.9,1,1.6,1.3,2.6C68.9,83.7,71,89.8,73,96c3.5,10.8,7,21.5,10.4,32.3
	c-1.3,1.1-2.8,0.5-4.3,0.6c0-0.4,0-0.8-0.2-1.2c-5.6-17.7-11.2-35.5-16.7-53.3C61.8,73,60.7,71.6,61.4,69.9z"/>
<path class="st27" d="M72.3,80.8c4.6,4.1,4.8,10.1,6.7,15.4c3.5,10.2,6.7,20.6,10,30.8c-1.2,2.3-2.7,1.9-4.3,0.6
	c-4.8-15.3-9.6-30.7-14.3-46c-0.3-0.9-1.6-2-0.4-3.1C70.7,79.3,71.5,80.1,72.3,80.8z"/>
<path class="st24" d="M37,129.5c-0.8,0.6-0.4,1.5-0.8,2.3c-0.8-1-1.5-2-2.2-2.9c-0.3-0.7-0.9-1.4-0.5-2.2c1.5-3.4,1.5-7.2,2.3-10.8
	c3.5-14.7,3.3-30.3,10.4-44.2c1.6,1.4-0.3,2.9,0.1,4.3c-1.8,10.1-3.7,20.2-5.5,30.2C39.5,114,38.3,121.7,37,129.5z"/>
<path class="st28" d="M46.9,80.4c0.5,0.5,0.5,1.1,0.5,1.7c-0.4,8.7,0.1,17.5-1.5,26.2c-1.4,7.8-2.7,15.7-4.1,23.5
	c-1,1.7-2.5,2-4.2,1.2C40.9,115.6,44.1,98,46.9,80.4z"/>
<path class="st29" d="M46.2,71.7c-7.1,13.9-6.9,29.5-10.4,44.2c-0.8,3.6-0.8,7.4-2.3,10.8c-0.4,0.9,0.2,1.5,0.5,2.2
	c-2-0.3-1.2-2.1-1.8-3.2c0.2-0.2,0.5-0.4,0.5-0.6c1.4-8.1,2.8-16.2,4.2-24.3c0.9-5,1.7-9.9,2.5-14.9c-1.5,2.6-3.8,4.7-4.3,7.8
	c-1.6,9.1-3.3,18.2-4.9,27.2c-0.3,0.2-0.5,0.5-1.2,1c0.3-1.8,1-3.3,0.5-4.8c1.1-6.8,2.2-13.5,3.4-20.7c-0.9,1-1.4,1.6-2,2.2
	c0-1.8,1.1-2.9,2.4-4c0.4-0.3,2.4-1.9-0.2-2.3c5.4-8,10-16.4,14.1-25C47.7,69,46.9,70.3,46.2,71.7z"/>
<path class="st24" d="M90.6,128.2c-3.3-10.7-6.6-21.4-9.9-32.2c-1-3.1-2-6.2-3.2-10c3.2,2.8,5.7,4.9,6.8,8.7
	c3.3,11,7,21.9,10.5,32.9C93.5,128.8,92,128.1,90.6,128.2z"/>
<path class="st30" d="M96.1,127.6c-3.3-10.7-6.7-21.3-10-32c-0.2-0.6-0.3-1.1-0.2-1.9c2.2,2,5.2,3,6.2,6.5
	c2.7,9.2,5.8,18.3,8.7,27.4C99.2,127.6,97.7,128.1,96.1,127.6z"/>
<path class="st31" d="M60.2,106c-1-4.7-1.3-9.5-1.3-14.4c0-0.6-0.5-1.5,0.6-1.8c0,0.4-0.1,0.8,0.1,1.2c4,12.8,8.1,25.6,12.1,38.4
	c-1.4,0.2-2.8,1.3-4.2-0.2C65.4,121.5,63,113.7,60.2,106z"/>
<path class="st32" d="M30.3,121c1.6-9.1,3.3-18.2,4.9-27.2c0.5-3.1,2.8-5.2,4.3-7.8c-0.8,5-1.7,9.9-2.5,14.9
	c-1.4,8.1-2.8,16.2-4.2,24.3c0,0.2-0.3,0.4-0.5,0.6C31.7,124.1,30.5,122.7,30.3,121z"/>
<path class="st31" d="M102.3,127.6c-2.8-9.2-5.7-18.4-8.6-27.8c1.5,1.1,2.9,2.1,4.3,3c0.3,0.2,0.6,0.5,0.9,0.7
	c0.2,0.8,0.5,1.5,0.7,2.3c2.3,7.3,4.5,14.6,6.8,21.9C105,127.6,103.6,127.6,102.3,127.6z"/>
<path class="st33" d="M61.4,69.9c-0.7,1.7,0.4,3,0.9,4.5c5.5,17.8,11.1,35.5,16.7,53.3c0.1,0.4,0.1,0.8,0.2,1.2
	c-0.5,0.2-1,0.4-1.5,0.6c-2.8-9-5.5-18-8.3-27c-3.6-11.7-7.3-23.3-11-34.9c0-0.3,0.1-0.5,0.1-0.8C59.4,67.7,60.4,68.8,61.4,69.9z"/>
<path class="st34" d="M69.9,78.5c-1.2,1.2,0.1,2.2,0.4,3.1c4.7,15.4,9.5,30.7,14.3,46c-0.1,0.8-0.5,1-1.2,0.6
	C79.9,117.5,76.4,106.8,73,96c-2-6.2-4.1-12.3-5.9-18.6c-0.3-1-0.9-1.7-1.3-2.6C67.8,75.2,68.7,77,69.9,78.5z"/>
<path class="st35" d="M46.9,80.4c-2.8,17.6-6,35.1-9.3,52.6c-1-1.1-0.3-2.4-0.6-3.6c1.3-7.7,2.5-15.5,3.8-23.2
	c1.8-10.1,3.7-20.2,5.5-30.2C47.3,77.4,46.5,79,46.9,80.4z"/>
<path class="st36" d="M101.4,106.3c1.7-0.9,2.1,1.3,3.5,1.3c1.2,1,1.9,2,2.4,3.6c1.6,5.3,3.4,10.5,5.2,15.8c-1.6,0.2-3.3,1-4.8-0.6
	C105.9,119.7,103.6,113,101.4,106.3z"/>
<path class="st37" d="M53.5,61.5c0.7,23.3,1.3,46.5,2,69.8c-0.4,0-0.8,0-1.3,0C53.6,108.1,52.7,84.8,53.5,61.5z"/>
<path class="st38" d="M71.8,129.5c-4-12.8-8.1-25.6-12.1-38.4c-0.1-0.4,0-0.8-0.1-1.2c0-1.3,0-2.6,0.1-3.9
	c4.8,14.3,9.3,28.7,13.4,43.3C72.7,130.1,72.2,129.6,71.8,129.5z"/>
<path class="st39" d="M108.8,110.7c4.3,1.6,6.5,4.8,7.3,9.3c0.4,2.3,1.4,4.6,2.2,7.1c-1.6,0-3.1,0-4.6,0
	C112.1,121.6,110.5,116.1,108.8,110.7z"/>
<path class="st31" d="M63.8,130.7c-0.9,0-1.8,0-2.9,0c-0.3-5.4-0.7-10.6-0.7-15.8c0-1.6-1.4-3.2,0-4.8c2,6.5,4,13.1,6.1,19.7
	C65.4,130.1,64.6,130.4,63.8,130.7z"/>
<path class="st40" d="M31.1,98.6c0.5-0.6,1.1-1.2,2-2.2c-1.2,7.2-2.3,14-3.4,20.7c-0.2,0.4-0.4,0.8-0.8,1.5
	C25.9,111.4,29.2,105.1,31.1,98.6z"/>
<path class="st24" d="M124.2,127c-1.7,0-2.9,0-4.2,0c-1.1-3.7-2.3-7.4-3.4-11.1C123,117,122.2,122.7,124.2,127z"/>
<path class="st41" d="M63.8,130.7c0.8-0.3,1.6-0.6,2.4-0.9c-2-6.6-4-13.2-6.1-19.7c0-1.4,0.1-2.7,0.1-4.1c2.8,7.6,5.2,15.4,7.4,23.3
	C66.7,130.7,65.8,132.1,63.8,130.7z"/>
<path class="st42" d="M97.9,138.1c14.4,0,28.7,0,43.2,0c-0.2,1.9-1.4,1.8-2.6,1.7c-13.5-1.1-27.1-1.1-40.6-1.2
	C97.8,138.4,97.8,138.2,97.9,138.1z"/>
<path class="st43" d="M101.4,106.3c2.3,6.7,4.5,13.3,6.3,20.1c-0.1,0.8-0.5,1.2-1.3,1.2c-2.3-7.3-4.5-14.6-6.8-21.9
	c-0.2-0.8-0.5-1.5-0.7-2.3C100.2,104,100.5,105.4,101.4,106.3z"/>
<path class="st44" d="M46.3,113.6c1.1,1.5,0.5,3.3,0.5,4.9c0.1,4.5,0,9,0,14c-1.3,0-2.5,0-3.7,0C44.2,126.2,45.7,120,46.3,113.6z"/>
<path class="st45" d="M46.3,113.6c-0.6,6.4-2.1,12.6-3.2,18.9c-0.8,0.4-1.2,0.2-1.3-0.7c1.4-7.8,2.7-15.7,4.1-23.5
	C46.2,110.1,46.5,111.8,46.3,113.6z"/>
<path class="st46" d="M108.8,110.7c1.6,5.5,3.3,10.9,4.9,16.4c-0.4,0-0.9,0-1.3,0c-1.7-5.3-3.6-10.5-5.2-15.8
	c-0.5-1.6-1.2-2.6-2.4-3.6C107.2,107.3,107.3,110,108.8,110.7z"/>
<path class="st47" d="M123.3,119.2c5.3,2.7,5.3,2.7,6.6,7.6c-3.1,1.1-4.6-0.2-5.2-3.3C124.4,122.2,123.9,120.9,123.3,119.2z"/>
<path class="st48" d="M130.8,123c3.1,1.3,6.1,2.5,8.9,3.7C133.7,128.2,131.5,127.4,130.8,123z"/>
<path class="st49" d="M55.5,141.6c1,2.9,1.1,5.9,1.1,8.9C55.1,149.3,54.5,144.7,55.5,141.6z"/>
<path class="st50" d="M97.9,138.1c-0.1,0.2-0.1,0.3,0,0.5c-3.3,0-6.6,0-9.9,0c0-0.2,0-0.3,0-0.5C91.3,138.1,94.6,138.1,97.9,138.1z"
	/>
</svg>
