<?xml version="1.0" encoding="utf-8"?>
<!-- Generator: Adobe Illustrator 21.0.0, SVG Export Plug-In . SVG Version: 6.00 Build 0)  -->
<svg version="1.1" id="Layer_1" xmlns="http://www.w3.org/2000/svg" xmlns:xlink="http://www.w3.org/1999/xlink" x="0px" y="0px"
	 viewBox="0 0 200 200" style="enable-background:new 0 0 200 200;" xml:space="preserve">
<style type="text/css">
	.st0{fill:#234895;}
	.st1{fill:#5FC3E9;}
	.st2{fill:#FEFEFF;}
	.st3{fill:#D1204E;}
	.st4{fill:#C8E4E6;}
</style>
<path class="st0" d="M148.7,138.3c-2,4.3-5.1,7.8-8.2,11.6c2.6-0.4,3.9-2.1,5.3-3.8c0.6,2.9-1.8,6.5-5,7.4c-0.6,0.2-1.2,0.4-1.8,0.3
	c-2.3-0.5-3.8,0.9-5.4,2.2c-4.3,3.4-9,6.1-14.1,8.1c-1.1,0.4-1.7,1.1-2.2,2.1c-1.7,3.5-4.7,5.4-8.5,5.7c-2.2,0.2-4.1-0.5-5.7-2.5
	c3.1,0.3,5.8-0.2,8.2-2.6c-5.9,1.4-11.6,1.8-17.3,1.6c-0.8,0-1.1,0.5-1.6,0.9c-2.9,2.2-6.2,2.7-9.6,1.7c-1.8-0.5-2.5-1.4-2.9-3.3
	c1.5-0.2,3.2,0.3,5.1-0.5c-5.9-1.3-11.1-3.4-16.1-6c-1.6-0.8-3.4,0.2-5.1,0.3c-11.8,0.9-23.6,1.4-35.3-0.5
	c-5.4-0.9-10.7-2.4-15.4-5.4c-1.1-0.7-2.2-1.6-3.2-2.5c-0.2-0.2-0.3-0.4-0.5-0.6c-1.5-1.9-2.4-4.1-3.3-6.3c-0.1,2.7,1.1,4.8,2.9,6.7
	c0.2,0.2,0.3,0.4,0.5,0.5c3.2,3.9,7.7,6,12.2,8.1c-0.8,0.4-1.3,0-1.8-0.1c-2.7-0.9-5.2-2.1-7.7-3.7c-5.3-3.3-8.3-7.9-8.6-14.2
	c-0.4-8.9,2.8-16.1,9.4-22c0,2.4,0,4.7,0,7.1c-1.9,2.5-2.6,5.4-2.6,8.5c0,8.3,1.4,12.7,11.1,17.4c2.3,1.1,4.7,1.8,7.2,2.4
	c10.2,2.3,20.6,2.5,31,1.6c1.3-0.1,2.7,0,4.2-0.6c-6.7-4.8-12.2-10.5-16.5-17.4c0.8-0.6,1.9-0.4,2.8-0.7c0,0.2,0.1,0.4,0.2,0.5
	c4.5,6.8,10.2,12.4,17,16.8c0.6,0.4,1.1,0.4,1.7,0.3c3.6-0.6,7.2-1.1,10.8-1.7c3.2-0.5,6.3-1.2,9.6-1.9c-2.2-6.9-5.5-12.9-9.1-18.8
	c1-0.1,2-0.1,2.9-0.2c3.7,5.9,8,11.4,10.5,18c7.3-1.8,14.5-3.7,21.5-6c1-0.3,1-0.9,1-1.7c0-2.6,0-5.2,0-7.8c0-0.7-0.4-1.6,0.4-2.2
	c0.7,0.1,1.3,0.2,2,0.2c0.4,3.3,0.2,6.6,0.8,10.1c2.8-1,5.5-2,8.2-2.9c1.3-0.4,2.3-0.9,2.1-2.6c-0.1-0.9,0.4-1.9,0.6-2.9
	c1.1,0.1,2.2,0.3,3.3,0.4c-0.4,0.9-0.3,1.7-0.2,2.7c2.2-0.8,4.2-1.6,6.2-2.3c0.3,0.5,0.7,0.9,1.2,1.3c-0.2,0.9-1,0.8-1.5,1.1
	c-2,0.9-4,1.7-6.1,2.6c0.9,2.5,1,5.3,3.7,6.7c2.4-2.5,4.7-4.9,6.5-7.9c0.8,0.1,1.2-0.5,1.7-0.8C146.5,140,147.3,138.7,148.7,138.3z
	 M95.1,165.7c6.1,0.4,11.8-0.4,17.5-1.9c1.2-0.3,1.9-1,2.3-2.1c1.6-4,1.6-8.2,1.4-12.6c-7.1,2.4-14.2,4.5-21.6,6.5
	C95.7,159,96,162.3,95.1,165.7z M119,161.6c5.6-2.3,10.5-5.3,15-9.2c-2.3-2.3-3.5-5.1-4-8.2c-3.6,1.4-7.1,2.7-10.6,3.9
	C119.4,152.6,119.6,156.9,119,161.6z M73,160.3c4.9,2.4,9.6,3.8,14.4,4.7c1.2,0.2,2-0.1,2.4-1.4c0.8-2.2,0.5-4.5,0.4-6.9
	C84.5,158.1,79,159.2,73,160.3z"/>
<path class="st0" d="M49.1,75.8c1.9-2.8,4.1-5.4,6.5-7.8c0.9-0.9,1.3-1.7,1.2-2.9c-0.1-1.5,0.2-3,0.5-4.4c1.6-6.5,7.8-9,14.2-5.1
	c-5.3-0.2-8.4,2.1-10.1,7.2c4.3-3,8.4-5.5,12.8-7.4c4.5-1.9,9.2-3.2,14-4.2c-4-1.6-7.8-0.5-11.7,1.4c0.2-2,1.2-3.3,2.5-4.4
	c3.6-3.1,9.7-3.4,14.3,0c2.7,2,5.3,2.6,8.4,2.8c3.1,0.2,5.6-0.1,8.4-2c7.4-5.1,15.6-8.5,24.6-9.6c1.6-0.2,3.3-0.2,5.2-0.1
	c-2.7,3.5-6,6-9.5,8.3c1.2,0.9,1.7,0.3,2.2,0c4.3-2.3,8.7-4.4,12.9-6.9c8.5-4.9,17.7-6.8,27.3-7.1c3-0.1,5.9,0,8.9,0.1
	c1.8,0.1,3.2-0.9,4.8-1.4c2.1-0.6,4.1-1.7,6.5-1.7c-2.7,1.4-5.4,2.7-8,4.1c-0.7,0.3-1.3,0.6-1.8,1.3c-4.7,7.2-11.5,11.8-19,15.6
	c-8.1,4.1-16.8,6.5-25.4,9.2c-0.3,0.1-0.6,0.1-0.9,0.2c-0.5,0.2-1,0.3-0.7,1c0.2,0.6,0.7,0.5,1.2,0.4c2.1-0.4,4.1-0.8,6.2-1.1
	c1.3-0.2,2.7-0.3,4.3,0c-2.4,3.3-5.5,5.6-8.8,7.8c1.6,2,3.2,4.1,4.8,6.1c-0.8,0.7-1.9,0.5-2.8,0.8c-0.9-1.6-2.3-2.9-3.4-4.3
	c-0.7-0.9-1.4-0.9-2.4-0.4c-4.7,2.5-9.6,4.1-14.7,5.4c-2.4,0.6-4.9,0.9-7.2,2.3c-0.9,0.5-1.9,0.7-2.4-0.6c-0.4-1.1-1.5-2.3,0.3-3.3
	c2-1.1,4-2.2,5.9-3.4c2.2-1.4,2.4-3.1,2.2-5.3c-2.3,0-4.3,1.3-6.6,0.7c-0.9,1.9-2.3,3.5-4.2,4.4c-1.1,0.5-1.2,1.3-0.9,2.3
	c0.4,1.4,0.7,2.8,1,4.3c-1.4-0.9-1.8,0.7-2.6,1.1c-0.4-0.9-0.8-1.8-1.2-2.6c-0.5-0.3-0.8,0.6-1.3,0c0-1.1,0.7-2.3-0.5-3.4
	c-1.4,1.3-2.1,3.2-3.9,4.5c-0.1-1-0.2-1.7-0.2-2.5c-0.9,0.2-1.3,1.3-2.3,1.3c-0.1-0.2-0.2-0.5-0.2-0.7c-0.1-1.8-0.9-2.4-2.6-1.8
	c-5.9,1.8-11.6,3.9-17.1,6.6c-0.6-0.1-1.2,0.3-1.7-0.3c0.3-0.1,0.5-0.3,0.8-0.4c5.2-2.3,10.6-4.3,15.9-6.3c1.5-0.3,2.9-0.5,4.4-0.8
	c0.4,0.8,0.9,1.5,1.3,2.2c0.9-0.3,1.3-1.4,2.3-1.3c0.1,0.6,0.1,1.2,0.2,2c1.3-1.3,2-2.9,3.2-3.9c1,0.5,1.1,1.6,1.7,2.4
	c1.2-1.8,2.8-3.2,4.6-4.2c1-0.6,1.7-1.6,2.3-2.6c1.2-2.3,0.2-4.5-2.3-5.2c-4.4-1.2-8.1,0.6-11.9,2.3c0.2,0.3,0.4,0.7,0.4,0.7
	c-1.7,1.4-3.7,0.9-5.7,1.1c0.4,1,1.6,0.7,2.1,1.6c-1.1,1.4-2.5,2.2-3.9,3C86,74,80,76.8,74,79.7c-0.8,0.3-1.5,0.4-2.3,0.2
	c0.1-0.1,0.3-0.2,0.4-0.3c6.2-2.9,12.5-5.8,18.4-9.4c1.2-0.7,2.6-1.4,3.5-2.5c-1-0.8-2-1.4-2.6-2.6c1.7-0.6,3.5,0.5,5.3-0.4
	c-0.6-0.4-1.6-0.2-1.6-1.3c1.7,0.2,3.3,0.2,4.9-0.8c-1.3-2.9-3.1-5.6-5.3-7.8c-0.9-0.9-1.7-1.3-2.9-1.1c-11.2,1.1-21.2,5.4-30,12.4
	c-0.8,0.6-1,1.5-1.1,2.4c-0.1,3.2,0.2,6.3,0.9,9.4c-1.2-0.2-2.4-0.3-3.7-0.5c-0.3-2.2-0.6-4.3-1-6.7c-2,1.9-3.5,3.8-4.9,5.8
	C51,76.3,50.1,76,49.1,75.8z M165.3,49.8c2.1-0.9,4-2,5.8-3.4c0.8-0.4,1.5-0.8,2.3-1.2c-8.3-4.8-20.8-1.6-27.1,4.5
	c13.1,0.2,13.4,0.2,15.8,2.2C163.2,51.2,164.4,50.7,165.3,49.8z M174,34.7c-7-0.3-13.9,0.6-20.3,3.4c-10.1,4.4-19.8,9.7-29.1,15.6
	c-2.5,1.6-2.6,2.2-1.2,5l0,0c0,1.3,0.8,2.3,1.5,3.3c0.7,0.9,1.5,1.1,2.6,0.8c8.8-2.7,17.6-5.2,26.3-8.2c2.2-0.8,4.4-1.4,6.6-2.7
	c-2.1-1.2-4.2-1.2-6.2-1.2c-2.8-0.1-5.7,0.2-8.5,0.3c-0.7,0-1.6,0.5-2-0.4c-0.4-0.9,0.6-1.2,1.2-1.6c1.4-1,2.8-2.1,4.3-2.9
	c6.9-4,14.3-5.9,22-3c2.5,0.9,4,0.5,5.6-1.3c0.2-0.2,0.3-0.4,0.5-0.5c2.3-1.7,3.9-3.9,5.6-6.6C179.7,34.7,176.9,34.2,174,34.7z
	 M137.6,40.2c-0.7,0-1,0-1.4,0c-10.1,1.1-19.2,5.1-27.4,10.9c-0.8,0.6-1.2,1-0.8,2.1c0.5,1.2,1.3,0.7,2,0.6
	c6.3-1.3,12.4-3.3,18.1-6.5C131.5,45.5,134.7,43.2,137.6,40.2z M146.7,62.3c-0.6-0.1-0.8-0.2-0.9-0.1c-10.1,1.1-19.1,4.9-27.5,10.7
	c-1.4,1-1.6,1.8-0.4,3.3C128.5,73.8,138.5,70.4,146.7,62.3z M117.2,56.8c-3.7-1.5-7.2-2.8-11-0.5c-2.2,1.4-2.9,1.1-3.4-1.2
	c-0.5-2-1.7-2-3.4-1.8c2.1,2.4,3.5,5,5,7.6c2.1-0.3,4-0.5,6,0c0.4,0.1,1,0.2,1.2,0C113.2,59.2,115.5,58.5,117.2,56.8z M118,58.1
	c-1.7,1.1-3.2,2-4.7,3c0.8,1.7,1.5,3.2,2.2,4.8c1.9-0.4,3.7-0.8,5.6-1.3C119.4,62.6,118.7,60.5,118,58.1z M121.3,56.1
	c-1.1,0.3-1.7,0.8-2.3,1.4c0.5,1.8,1,3.6,2,5.2c0.9,1.5,2,1.8,3.6,0.8C122.7,61.3,121.9,58.8,121.3,56.1z M103.8,54.1
	c0.1,0.7,0.2,1.3,0.8,1.7c2.9-1.2,2.9-1.3,1.9-3.3C105.5,52.9,104.6,53.3,103.8,54.1z M115.8,74.7c-2.9,0.9-3.2,1.3-2,3.1
	C116.5,76.9,116.7,76.7,115.8,74.7z"/>
<path class="st1" d="M76.3,79.9c0.5,0.6,1.1,0.2,1.7,0.3c0.3,0,0.6,0,0.9,0.1c3.8,0.8,8.4-1,11.1,3.4c1.7-1.7,3.3-3.3,4.8-4.9
	c0.9-1,1.6-0.9,2.6,0c1.7,1.7,3.4,3.3,5.2,4.9c1.7-1.8,3.2-3.4,4.7-5c0.9-0.4,1.2-2,2.6-1.1c1.4,1.2,2.1,3.4,4.7,2.9
	c3.6-0.7,7.2-1.3,10.8-1.7c2.2-0.3,4.5-1.5,6.8,0c0.7-1.1,1.9-1.4,3.1-1.7c2.4-0.4,4.7-1,7-1.5c0.9-0.3,2-0.1,2.8-0.8
	c1.8,0.3,3.4-0.4,5.1-0.7c1.3-0.3,2.4-0.3,3.4,0.9c0.7-1.6,1.9-2,3.2-2.4c4.8-1.5,9.6-3.1,14.4-4.7c1.1-0.4,1.8-0.3,2.7,0.5
	c1.8,1.6,3.7,3.1,5.6,4.6c1.4,1,1.8,2.3,1.8,4c-0.1,5.3-0.1,10.5,0,15.8c0,1.6-0.4,2.7-1.6,3.7c-1.1,0.8-2,1.9-3,2.9
	c1.8,1.9,3.4,3.7,5,5.4c0,1.4-0.3,2.8,0,4.2c-0.3,0.8-0.4,1.7-0.4,2.5c0,8.9-0.1,17.8,0,26.7c0,1.3-0.3,2.2-1.4,3
	c-2,1.5-3.9,3-5.8,4.6c-0.9,0.7-1.8,0.7-2.8,0.4c-5.5-1.7-11.1-3.3-16.6-4.9c-1.2-0.3-2.1-0.9-2.7-2c-0.5-0.9-1.2-1.7-1.7-2.5
	c-0.9,0-0.9,0.8-1.4,1c-0.1,0.1-0.2,0.3-0.3,0.4l0,0c-1.5,0.4-2.2,1.7-3.4,2.5c-0.5,0.4-0.9,1-1.7,0.8c-0.9-0.8-1.7-1.7-2.6-2.5
	c-0.5-0.3-1-0.7-1.2-1.3c-0.7-0.9-1.5-1.7-2.3-2.3c-1.3,0.6-2.1,2.1-3.7,2c-1.1-0.1-2.2-0.3-3.3-0.4c-3.9-0.6-7.9-1.1-11.8-1.7
	c-0.7-0.1-1.3-0.2-2-0.2c-2.3-0.8-4.2-0.6-5.5,1.7c-0.2,0.4-0.6,0.6-0.8,1c-0.8,1.1-1.5,1-2.4,0c-1.7-2-3.4-3.9-5.2-5.8
	c-1.8,1.8-3.7,3.6-5.4,5.4c-0.9,0.9-1.4,0.8-2.2-0.1c-1.6-1.8-3.3-3.5-5.1-5.4c-1.5,2.4-3.7,2.7-6.1,2.7c-0.2,0-0.5,0.1-0.7,0.2
	c-1,0.1-2,0.1-2.9,0.2c-2,0.2-4.1,0.2-6.1,0.5c-2.8,0.5-5.3,0.4-7.2-2.1c0-0.1-0.2,0-0.3,0c-0.4,0.5-1,1-1.3,1.6
	c-1.1,2.1-3,2.7-5.2,3c-3.4,0.5-6.8,1.3-10.1,1.9c-0.9,0.3-2,0.1-2.8,0.7c-2,0-2.9-2-4.7-2.5c-1.4,2.3-2.9,4.5-4.2,6.8
	c-0.8,1.4-1.6,1.5-2.7,0.4c-1.6-1.5-3.3-2.9-5-4.5c-1.9,2.7-3.5,5.2-5.3,7.7c-1.3,1.9-1.5,1.9-3.2,0.3c-2.6-2.5-5.1-5.1-7.7-7.6
	c-0.9-0.8-1.2-1.7-1.2-2.9c0-3.2,0.3-6.4-0.4-9.6c0-2.4,0-4.7,0-7.1c0-2.3,0-4.7,0.1-7c0-0.8-0.4-1.2-0.9-1.7
	c-1.3-1.3-2.5-2.6-3.8-3.8c-1-0.9-0.8-1.6,0-2.5c0.3-0.3,0.5-0.6,0.8-0.8c3.4-2.4,4.3-5.6,4-9.6c-0.3-4-0.1-8-0.1-12.1
	c0-1-0.2-1.9-0.9-2.7c-1.3-1.5-2.5-3.2-3.8-4.8c-0.7-0.9-0.7-1.5,0.3-2.3c2.8-2,5.4-4,8.1-6.1c0.7-0.6,1.4-0.6,2.2-0.3
	c6.3,1.9,12.5,3.7,18.8,5.5c1.4,0.4,2.3,1.4,3.1,2.5c0.9,1.3,1.8,2.1,3.2,0.5c1.5-1.8,3.4-0.2,5.1-0.6c0.9,0.3,1.9,0.5,2.9,0.5
	c1.9,0.6,3.9,0.7,5.9,1c1.2,0.2,2.4,0.3,3.7,0.5c2.4,0.6,2.9,3.3,5,4.6c1.3-1.6,2.8-2.9,5.1-2.4c0.8,0.1,1.6,0.1,2.3-0.2
	C74.7,80.2,75.5,79.8,76.3,79.9z M144.3,139.7c1.3-1.1,2.8-2.4,4.3-3.7c1.9-1.7,1.9-1.6,3.4,0.5c1.1,1.6,1.9,3.3,4.2,3.8
	c3.3,0.7,6.4,1.9,9.6,2.8c2.4,0.6,4.8,2.4,7.1,1.7c2.2-0.7,3.9-2.9,5.9-4.4c0.8-0.6,1.1-1.3,1.1-2.3c0-8.8-0.2-17.6,0.2-26.4
	c0.2-4.5-0.4-8.3-4.3-11c-1-0.7-1-1.5,0-2.3c1-0.9,1.9-2,2.9-2.8c1-0.8,1.3-1.8,1.3-3.1c-0.1-4.1-0.2-8.3,0-12.4
	c0.2-3.2-0.4-5.8-3.4-7.4c-1.1-0.6-1.9-1.5-2.8-2.4c-0.8-0.7-1.5-0.8-2.5-0.5c-4.6,1.6-9.3,3.1-13.9,4.5c-1,0.3-1.8,0.8-2.2,1.8
	c-0.5,1.1-1.3,1.3-2.1,0.4c-0.8-0.8-1.6-0.9-2.7-0.6c-4.7,1-9.3,2-14,2.8c-1.5,0.3-2.4,1.4-3.6,1.9c-1.2,0.5-2.5-1-4-0.6
	c-2.8,0.6-5.6,1-8.4,1.4c-3.8,0.5-8,2.5-11.1-1.8c-0.1,0.1-0.2,0.1-0.3,0.2c-1.4,1.4-2.8,2.8-4.1,4.3c-2.1,2.2-2,2.2-4.1,0.1
	c-1.4-1.4-2.9-2.8-4.5-4.3c-1.7,1.7-3.2,3.2-4.7,4.8c-0.9,1-1.6,1.1-2.6,0.1c-1.1-1.1-2.1-2.4-4-2.4c-4.6-0.2-9.3-0.5-13.9-0.8
	c-0.8-0.1-1.4,0.1-2,0.7c-2.9,2.5-2.9,2.4-5.3-0.5c-0.8-0.9-1.2-2.2-2.7-2.4c-4.3-0.6-8.6-1.2-12.8-2c-1.7-0.3-3-0.2-4.2,1.1
	c-1.2,1.2-2.2,1-3.2-0.3c-1.4-1.8-3-3.3-5.4-3.9c-5.4-1.4-10.7-3.1-16-4.6c-0.6-0.2-1.2-0.5-1.9,0.1c-2.6,2-5.2,3.9-8,6
	c1.3,1.7,2.5,3.4,3.8,4.9c0.8,1,1.2,2.1,1.2,3.4c-0.1,4.3-0.3,8.6,0,12.8c0.3,4.2-0.6,7.5-4.1,9.9c-0.4,0.3-0.7,0.7-1.3,1.4
	c1.4,1.3,2.7,2.5,4.1,3.7c0.9,0.8,1.2,1.7,1.2,2.9c0.1,7.8,0.2,15.6,0.3,23.4c0,0.5-0.1,1.1,0.4,1.6c2.9,2.8,5.7,5.6,8.6,8.5
	c1.9-2.8,3.8-5.4,5.5-8.1c0.8-1.3,1.5-1.4,2.6-0.4c1.6,1.5,3.3,3,5.1,4.6c1.4-2.3,2.7-4.4,4.1-6.6c1.2-1.9,1.2-1.9,3.1-0.6
	c1.2,0.9,2.2,2.1,4.1,1.7c3.4-0.8,6.9-1.6,10.4-2c3-0.3,5.2-1.5,6.7-4.1c0.9-1.5,1.8-1.6,3-0.2c1.1,1.3,2.4,2.1,4.3,1.9
	c3-0.4,6.1-0.4,9-0.9c2.5-0.4,5.3,0.4,7.2-2.1c1-1.3,1.9-0.9,2.9,0.2c1.5,1.6,2.9,3.4,4.4,4.6c1.8-1.7,3.6-3.2,5.2-4.9
	c1.1-1.2,1.8-1.1,2.8,0.1c1.6,1.9,3.3,3.7,5,5.6c0.8-1,1.6-1.8,2.3-2.6c0.7-0.9,1.4-1.3,2.5-1.1c4.9,0.7,9.8,1.5,14.7,2.1
	c2.8,0.4,5.8,1.5,8.2-1.3c0.7-0.8,1.3,0.1,1.8,0.6C140.6,136.2,142.4,137.9,144.3,139.7z"/>
<path class="st0" d="M181.8,109.1c-0.3-1.4,0-2.8,0-4.2c4.8-4.8,6.8-10.8,7.4-17.3c0.4-4.8-0.1-9.5-3.3-13.5c-2.2-2.8-5-4.9-8.2-6.6
	c-0.5-0.2-1-0.5-1.6-0.8c1.6-0.3,2.6,0.6,3.9,0.9c0.2,0.1,0.3,0.2,0.5,0.3c0.2-0.3,0.1-0.5-0.2-0.7c-2.7-2-5.7-3-9.1-3.3
	c-5.1-0.4-10.2-0.6-15.3,0.5c-0.5,0.1-0.7,0-0.9-0.3c7.8-3.8,15.8-4.8,24-1.6c12.1,4.7,17.6,16.2,13.8,28.6
	C190.7,98.1,187.1,104,181.8,109.1z"/>
<path class="st0" d="M148.7,138.3c0.1-0.1,0.2-0.3,0.3-0.4C148.9,138.1,148.8,138.2,148.7,138.3z"/>
<path class="st2" d="M13,128.6c0.6,3.2,0.3,6.4,0.4,9.6c0,1.2,0.4,2.1,1.2,2.9c2.6,2.5,5.1,5.1,7.7,7.6c1.7,1.6,1.9,1.5,3.2-0.3
	c1.7-2.5,3.4-5,5.3-7.7c1.8,1.6,3.4,3,5,4.5c1.1,1.1,1.9,1.1,2.7-0.4c1.3-2.3,2.8-4.5,4.2-6.8c1.8,0.5,2.7,2.5,4.7,2.5
	c4.3,6.9,9.7,12.6,16.5,17.4c-1.5,0.6-2.9,0.5-4.2,0.6c-10.4,0.9-20.8,0.7-31-1.6c-2.5-0.6-4.9-1.3-7.2-2.4
	c-9.7-4.7-11-9.1-11.1-17.4C10.3,134,11,131.1,13,128.6z"/>
<path class="st3" d="M50.1,139.8c3.4-0.6,6.7-1.4,10.1-1.9c2.2-0.3,4-0.9,5.2-3c0.3-0.6,0.9-1,1.3-1.6c0.1,0,0.3,0,0.3,0
	c1.9,2.5,4.4,2.6,7.2,2.1c2-0.4,4-0.4,6.1-0.5c3.6,5.9,6.9,11.9,9.1,18.8c-3.3,0.7-6.5,1.4-9.6,1.9c-3.6,0.6-7.2,1.1-10.8,1.7
	c-0.7,0.1-1.2,0.1-1.7-0.3c-6.9-4.4-12.5-10-17-16.8C50.2,140.2,50.2,140,50.1,139.8z"/>
<path class="st3" d="M83.3,134.9c0.2-0.1,0.5-0.2,0.7-0.2c2.4,0,4.6-0.2,6.1-2.7c1.8,1.9,3.5,3.6,5.1,5.4c0.8,0.9,1.4,1,2.2,0.1
	c1.8-1.8,3.6-3.6,5.4-5.4c1.7,1.9,3.5,3.8,5.2,5.8c0.9,1,1.6,1,2.4,0c0.3-0.3,0.6-0.6,0.8-1c1.3-2.3,3.2-2.5,5.5-1.7
	c-0.8,0.6-0.4,1.5-0.4,2.2c-0.1,2.6,0,5.2,0,7.8c0,0.7,0,1.4-1,1.7c-7,2.3-14.2,4.2-21.5,6C91.2,146.3,87,140.7,83.3,134.9z"/>
<path class="st3" d="M95.1,165.7c0.9-3.5,0.6-6.8-0.4-10.1c7.3-1.9,14.4-4.1,21.6-6.5c0.2,4.4,0.2,8.5-1.4,12.6
	c-0.4,1.1-1.1,1.8-2.3,2.1C106.9,165.3,101.2,166.1,95.1,165.7z"/>
<path class="st3" d="M119,161.6c0.6-4.6,0.4-8.9,0.4-13.5c3.5-1.3,6.9-2.6,10.6-3.9c0.5,3.2,1.7,5.9,4,8.2
	C129.4,156.3,124.5,159.3,119,161.6z"/>
<path class="st3" d="M118.7,135.4c3.9,0.6,7.9,1.1,11.8,1.7c-0.2,1-0.7,1.9-0.6,2.9c0.1,1.7-0.8,2.2-2.1,2.6
	c-2.7,0.9-5.4,1.9-8.2,2.9C118.9,142,119.1,138.7,118.7,135.4z"/>
<path class="st3" d="M73,160.3c5.9-1.1,11.5-2.2,17.2-3.6c0.2,2.5,0.4,4.7-0.4,6.9c-0.4,1.2-1.2,1.6-2.4,1.4
	C82.6,164.1,77.9,162.7,73,160.3z"/>
<path class="st3" d="M141,139.2c0.9,0.8,1.7,1.7,2.6,2.5c-1.7,2.9-4.1,5.4-6.5,7.9c-2.8-1.4-2.8-4.1-3.7-6.7
	c2.1-0.9,4.1-1.7,6.1-2.6C140,140,140.8,140,141,139.2z"/>
<path class="st3" d="M133.7,137.5c1.6,0.1,2.3-1.4,3.7-2c0.8,0.7,1.6,1.4,2.3,2.3c-2,0.8-4,1.5-6.2,2.3
	C133.4,139.2,133.3,138.4,133.7,137.5z"/>
<path class="st4" d="M8.9,152.8c-1.8-1.9-3-3.9-2.9-6.7c0.9,2.2,1.8,4.4,3.3,6.3C9.2,152.6,9,152.7,8.9,152.8z"/>
<path class="st2" d="M8.9,152.8c0.1-0.1,0.3-0.3,0.4-0.4c0.2,0.2,0.3,0.4,0.5,0.6c-0.1,0.1-0.3,0.2-0.4,0.3
	C9.2,153.2,9.1,153,8.9,152.8z"/>
<path class="st3" d="M71.7,79.9c-2.3-0.5-3.8,0.8-5.1,2.4c-2-1.3-2.5-4-5-4.6c-0.7-3.1-1-6.2-0.9-9.4c0-1,0.3-1.8,1.1-2.4
	c8.8-7.1,18.7-11.3,30-12.4c1.2-0.1,2.1,0.3,2.9,1.1c2.3,2.3,4,4.9,5.3,7.8c-1.6,1-3.2,1-4.9,0.8c0.1,1.1,1,0.9,1.6,1.3
	c-1.7,1-3.5-0.2-5.3,0.4c0.5,1.3,1.6,1.8,2.6,2.6c-1,1.1-2.3,1.8-3.5,2.5c-5.9,3.6-12.2,6.5-18.4,9.4C71.9,79.6,71.8,79.8,71.7,79.9
	z"/>
<path class="st1" d="M177.3,41.1c-0.2,0.2-0.3,0.4-0.5,0.5c-1.5,1.8-3.1,2.2-5.6,1.3c-7.7-2.9-15.1-1-22,3c-1.5,0.9-2.9,1.9-4.3,2.9
	c-0.5,0.4-1.6,0.6-1.2,1.6c0.4,0.9,1.3,0.4,2,0.4c2.8-0.1,5.7-0.3,8.5-0.3c2,0,4.1,0,6.2,1.2c-2.2,1.4-4.4,2-6.6,2.7
	c-8.7,3-17.5,5.5-26.3,8.2c-1.1,0.3-1.9,0.1-2.6-0.8c-0.8-1-1.5-2-1.5-3.3c2.6-1,5-2.5,7.5-3.6c1.3-0.5,1.7-1.3,1.2-2.6
	c-0.2,0-0.4,0-0.5,0.1c-2.3,1.2-4.5,2.6-6.8,3.7c-1.2,0.6-1.5,1.3-1.4,2.5c-1.4-2.9-1.3-3.5,1.2-5c9.3-6,19-11.3,29.1-15.6
	c6.4-2.8,13.3-3.6,20.3-3.4C175.9,36.4,177.3,38.5,177.3,41.1z M163.2,38.3c1.2,0.2,2.7-0.7,3.6,0.9c-0.2,0.6-0.9,0.1-1.1,0.7
	c1,0.9,2.1,1,3.3,0.2c-0.9-0.6-0.9-0.6-0.7-1.6c2.2,0.7,2.2,0.7,2.8,0.4C168.7,36.7,165.4,36.5,163.2,38.3L163.2,38.3L163.2,38.3z"
	/>
<path class="st3" d="M142.4,75.8c-2.3,0.5-4.7,1.1-7,1.5c-1.3,0.2-2.4,0.5-3.1,1.7c-2.3-1.4-4.6-0.2-6.8,0c-3.6,0.4-7.2,1-10.8,1.7
	c-2.6,0.5-3.3-1.7-4.7-2.9c-0.3-1.4-0.7-2.8-1-4.3c-0.3-1-0.1-1.7,0.9-2.3c1.9-1,3.4-2.5,4.2-4.4c2.3,0.6,4.3-0.8,6.6-0.7
	c0.3,2.1,0,3.9-2.2,5.3c-1.9,1.2-3.9,2.3-5.9,3.4c-1.8,1-0.7,2.2-0.3,3.3c0.5,1.4,1.5,1.2,2.4,0.6c2.2-1.3,4.7-1.7,7.2-2.3
	c5.1-1.2,10.1-2.9,14.7-5.4c1-0.5,1.7-0.5,2.4,0.4C140.1,72.9,141.5,74.1,142.4,75.8z"/>
<path class="st3" d="M107.4,78.8c-1.5,1.6-3.1,3.2-4.7,5c-1.8-1.7-3.5-3.2-5.2-4.9c-0.9-1-1.6-1-2.6,0c-1.5,1.6-3.1,3.2-4.8,4.9
	c-2.8-4.4-7.3-2.6-11.1-3.4c-0.3-0.1-0.6-0.1-0.9-0.1c5.5-2.7,11.3-4.9,17.1-6.6c1.7-0.5,2.6,0,2.6,1.8c0,0.2,0.1,0.4,0.2,0.7
	c1,0,1.4-1,2.3-1.3c0.1,0.8,0.1,1.5,0.2,2.5c1.8-1.3,2.5-3.3,3.9-4.5c1.2,1.1,0.5,2.4,0.5,3.4c0.5,0.6,0.8-0.3,1.3,0
	C106.6,77.1,107,78,107.4,78.8z"/>
<path class="st4" d="M76.3,79.9c-0.8-0.1-1.6,0.3-2.3-0.3c6-2.9,12.1-5.7,17.7-9.2c1.4-0.9,2.9-1.7,3.9-3c-0.5-0.8-1.7-0.5-2.1-1.6
	c2-0.2,4.1,0.3,5.7-1.1c0,0-0.2-0.4-0.4-0.7c3.8-1.7,7.5-3.4,11.9-2.3c2.5,0.7,3.6,2.9,2.3,5.2c-0.6,1-1.2,2-2.3,2.6
	c-1.8,1.1-3.4,2.4-4.6,4.2c-0.6-0.8-0.7-1.9-1.7-2.4c-1.2,1-2,2.6-3.2,3.9c-0.1-0.8-0.1-1.4-0.2-2c-1.1,0-1.4,1-2.3,1.3
	c-0.4-0.7-0.9-1.5-1.3-2.2c2.3-0.9,4.8-1.2,7-2.2c2.9-1.3,5.6-3,7.8-6.1c-4.9-0.3-8.9,0.9-12.5,3c-3.6,2.1-7.1,4.4-10.6,6.6
	c1.4,0.1,2.5-0.7,3.9-0.5c-5.4,2-10.7,4-15.9,6.3C76.8,79.7,76.5,79.8,76.3,79.9z M88.2,74.2c0,0,0-0.1,0-0.1c0,0-0.1,0-0.1,0
	c0,0.1,0,0.1,0,0.2C88.1,74.2,88.2,74.2,88.2,74.2z"/>
<path class="st1" d="M137.6,40.2c-2.9,3.1-6.1,5.3-9.5,7.1c-5.7,3.1-11.8,5.1-18.1,6.5c-0.7,0.1-1.5,0.6-2-0.6
	c-0.4-1.1,0-1.5,0.8-2.1c8.3-5.8,17.3-9.8,27.4-10.9C136.6,40.2,136.9,40.2,137.6,40.2z"/>
<path class="st1" d="M146.7,62.3c-8.2,8.1-18.3,11.5-28.8,13.8c-1.2-1.4-1-2.3,0.4-3.3c8.3-5.7,17.3-9.6,27.5-10.7
	C145.9,62.1,146.1,62.2,146.7,62.3z"/>
<path class="st2" d="M165.3,49.8c-0.9,0.9-2.2,1.4-3.2,2c-2.3-2-2.6-2-15.8-2.2c6.4-6.1,18.8-9.3,27.1-4.5c-0.8,0.4-1.6,0.8-2.3,1.2
	c-1.4-0.1-2.6,0.7-3.9,0.4c-0.5-0.6,0-1.3-0.6-1.8c-0.9,0.1-1.1,1.1-1.9,1.2c-0.7-0.4-0.7-1.3-1.4-1.5c-0.6,0.5-1.2,0.9-1.7,1.3
	c-0.6-0.2-0.5-1.1-1.2-1.1c-0.5,0.4-1,0.8-1.5,1.2c-0.8,0-0.9-1-1.7-0.9c-0.8,1.6-2.7,0.8-4,1.3c-1.1,0.4-2.1,0.7-2.8,1.5
	c1.6,1.8,3.4-1.9,4.9,0.4c0.4-0.4,0.7-0.6,1-0.9c0.6,0.2,0.6,1,1.2,1c0.5-0.3,0.8-0.9,1.4-0.9c0.4,0.4,0.8,0.9,1.3,1.4
	c0.4-0.6,0.8-1.1,1.2-1.7c0.6,0.8,1,1.4,1.4,1.9c0.9-0.3,1.2-1.3,2.1-1.3C165,48.6,165.2,49.2,165.3,49.8z"/>
<path class="st2" d="M93,73.2c-1.3-0.2-2.5,0.6-3.9,0.5c3.5-2.2,7-4.6,10.6-6.6c3.7-2.1,7.7-3.3,12.5-3c-2.2,3.2-4.9,4.8-7.8,6.1
	c-2.3,1-4.7,1.3-7,2.2C95.9,72.7,94.5,73,93,73.2z"/>
<path class="st3" d="M117.2,56.8c-1.8,1.7-4,2.4-5.6,4.1c-0.2,0.2-0.8,0.1-1.2,0c-2-0.5-3.9-0.4-6,0c-1.5-2.6-3-5.2-5-7.6
	c1.8-0.2,2.9-0.2,3.4,1.8c0.6,2.3,1.2,2.6,3.4,1.2C110.1,54,113.5,55.3,117.2,56.8z"/>
<path class="st3" d="M165.3,49.8c-0.2-0.6-0.3-1.2-0.5-1.8c-0.9,0-1.2,1-2.1,1.3c-0.4-0.5-0.8-1.1-1.4-1.9c-0.4,0.5-0.7,1-1.2,1.7
	c-0.5-0.6-0.9-1-1.3-1.4c-0.6,0-0.9,0.7-1.4,0.9c-0.6,0-0.6-0.8-1.2-1c-0.3,0.3-0.6,0.5-1,0.9c-1.5-2.3-3.3,1.4-4.9-0.4
	c0.7-0.8,1.7-1.1,2.8-1.5c1.4-0.5,3.2,0.3,4-1.3c0.9-0.1,0.9,0.9,1.7,0.9c0.4-0.4,1-0.8,1.5-1.2c0.7,0,0.6,0.9,1.2,1.1
	c0.5-0.4,1.1-0.9,1.7-1.3c0.8,0.2,0.8,1.1,1.4,1.5c0.7-0.1,1-1.1,1.9-1.2c0.5,0.5,0,1.2,0.6,1.8c1.3,0.3,2.6-0.6,3.9-0.4
	C169.3,47.8,167.4,48.9,165.3,49.8z"/>
<path class="st1" d="M118,58.1c0.7,2.5,1.4,4.6,3,6.5c-2,0.4-3.7,0.8-5.6,1.3c-0.7-1.6-1.4-3.1-2.2-4.8
	C114.8,60.1,116.3,59.1,118,58.1z"/>
<path class="st3" d="M177.3,41.1c-0.1-2.7-1.5-4.7-3.3-6.5c2.9-0.5,5.7,0,8.9-0.1C181.3,37.2,179.6,39.4,177.3,41.1z"/>
<path class="st3" d="M57.9,77.2c-2-0.3-4-0.4-5.9-1c1.4-2,2.9-3.9,4.9-5.8C57.3,72.9,57.6,75.1,57.9,77.2z"/>
<path class="st1" d="M121.3,56.1c0.6,2.8,1.4,5.3,3.3,7.4c-1.6,1-2.7,0.7-3.6-0.8c-1-1.6-1.5-3.4-2-5.2
	C119.6,56.9,120.3,56.4,121.3,56.1z"/>
<path class="st1" d="M103.8,54.1c0.8-0.8,1.7-1.2,2.7-1.5c1.1,2,1,2.1-1.9,3.3C104,55.4,103.9,54.8,103.8,54.1z"/>
<path class="st1" d="M115.8,74.7c0.9,2,0.8,2.2-2,3.1C112.6,76,112.8,75.5,115.8,74.7z"/>
<path class="st0" d="M144.3,139.7c-1.9-1.8-3.7-3.5-5.5-5.1c-0.5-0.5-1.1-1.4-1.8-0.6c-2.4,2.8-5.4,1.7-8.2,1.3
	c-4.9-0.6-9.8-1.4-14.7-2.1c-1.1-0.2-1.9,0.3-2.5,1.1c-0.7,0.9-1.4,1.7-2.3,2.6c-1.7-1.9-3.4-3.7-5-5.6c-1-1.2-1.7-1.3-2.8-0.1
	c-1.6,1.7-3.4,3.2-5.2,4.9c-1.5-1.2-2.9-3-4.4-4.6c-1-1.1-1.9-1.4-2.9-0.2c-1.9,2.5-4.7,1.7-7.2,2.1c-3,0.4-6.1,0.4-9,0.9
	c-2,0.3-3.2-0.5-4.3-1.9c-1.1-1.4-2.1-1.3-3,0.2c-1.5,2.6-3.7,3.8-6.7,4.1c-3.5,0.4-6.9,1.2-10.4,2c-1.8,0.4-2.9-0.8-4.1-1.7
	c-1.8-1.3-1.9-1.3-3.1,0.6c-1.3,2.1-2.6,4.3-4.1,6.6c-1.8-1.6-3.5-3.1-5.1-4.6c-1.1-1-1.8-0.9-2.6,0.4c-1.7,2.7-3.5,5.2-5.5,8.1
	c-2.9-2.9-5.8-5.7-8.6-8.5c-0.5-0.5-0.3-1-0.4-1.6c-0.1-7.8-0.3-15.6-0.3-23.4c0-1.2-0.3-2.1-1.2-2.9c-1.4-1.2-2.8-2.5-4.1-3.7
	c0.6-0.7,0.9-1.1,1.3-1.4c3.5-2.4,4.5-5.8,4.1-9.9c-0.3-4.2-0.1-8.5,0-12.8c0-1.3-0.3-2.4-1.2-3.4c-1.3-1.5-2.5-3.2-3.8-4.9
	c2.7-2.1,5.4-4,8-6c0.7-0.5,1.3-0.3,1.9-0.1c5.3,1.6,10.6,3.3,16,4.6c2.4,0.6,4,2.1,5.4,3.9c1,1.3,2,1.5,3.2,0.3
	c1.2-1.2,2.5-1.4,4.2-1.1c4.3,0.8,8.5,1.4,12.8,2c1.5,0.2,1.9,1.5,2.7,2.4c2.4,2.9,2.4,2.9,5.3,0.5c0.6-0.5,1.2-0.7,2-0.7
	c4.6,0.3,9.3,0.6,13.9,0.8c1.9,0.1,2.9,1.3,4,2.4c1,1,1.7,0.9,2.6-0.1c1.5-1.6,3-3.1,4.7-4.8c1.5,1.5,3,2.9,4.5,4.3
	c2.1,2.1,2.1,2.1,4.1-0.1c1.4-1.4,2.8-2.8,4.1-4.3c0.1-0.1,0.2-0.1,0.3-0.2c3.1,4.3,7.2,2.3,11.1,1.8c2.8-0.3,5.6-0.7,8.4-1.4
	c1.6-0.4,2.9,1.1,4,0.6c1.2-0.5,2.1-1.6,3.6-1.9c4.7-0.8,9.3-1.8,14-2.8c1.1-0.2,1.9-0.2,2.7,0.6c0.9,0.9,1.6,0.8,2.1-0.4
	c0.4-1,1.2-1.4,2.2-1.8c4.7-1.5,9.3-3,13.9-4.5c1-0.3,1.8-0.2,2.5,0.5c0.9,0.8,1.8,1.8,2.8,2.4c3,1.7,3.6,4.2,3.4,7.4
	c-0.3,4.1-0.1,8.3,0,12.4c0,1.3-0.3,2.2-1.3,3.1c-1,0.9-1.9,1.9-2.9,2.8c-0.9,0.8-0.9,1.6,0,2.3c3.9,2.7,4.5,6.5,4.3,11
	c-0.3,8.8-0.2,17.6-0.2,26.4c0,1-0.3,1.7-1.1,2.3c-2,1.5-3.7,3.7-5.9,4.4c-2.2,0.7-4.7-1-7.1-1.7c-3.2-0.9-6.4-2.1-9.6-2.8
	c-2.3-0.5-3.1-2.3-4.2-3.8c-1.5-2.1-1.5-2.1-3.4-0.5C147.1,137.3,145.6,138.5,144.3,139.7z M167.3,84.9c0,2.1,0.1,4.2,0,6.3
	c-0.1,1.6,0.4,2.8,1.6,3.9c3.4,3.2,3.3,3.2,6.7,0c1.3-1.3,1.9-2.6,1.8-4.4c-0.1-3-0.3-6,0-8.9c0.5-4-1-6.6-4.2-8.7
	c-0.8-0.5-1.3-0.7-2.2-0.4c-3.7,1.2-7.4,2.3-11.1,3.4c-1.4,0.4-2.4,1-3.2,2.3c-0.7,1.2-1.6,2.2-2.5,3.4c-0.4-0.5-0.7-0.7-0.8-1
	c-1-1.7-2.2-2.3-4.3-1.8c-2.9,0.8-5.8,1.3-8.7,1.5c-3,0.2-5.3,1.2-6.4,4.2c-0.2,0.5-0.3,1.1-1.1,1.4c-0.5-0.5-1.1-1.1-1.6-1.7
	c-1.1-1.6-2.7-1.7-4.4-1.5c-3.1,0.4-6.3,0.8-9.4,1c-1.3,0.1-1.6,0.6-1.6,1.7c0,14.5,0,29,0,43.5c0,1.1,0.5,1.5,1.5,1.7
	c4.8,0.6,9.7,1.2,14.5,1.9c1.3,0.2,2.4-0.1,3.3-1.2c1.1-1.3,2.2-2.6,3.4-3.9c0.2,0.1,0.4,0.2,0.6,0.3c-0.5,2.4,1.1,3.7,2.4,5.1
	c2.8,3.2,2.8,3.2,6,0.3c1.4-1.3,2.1-2.6,2.1-4.6c-0.1-12.4-0.1-24.8,0-37.2c0-0.6-0.3-1.7,0.4-1.9c2-0.3,2.9-1.7,3.8-3.2
	c0.1,5.6,0.4,11.1,0.1,16.6c-0.2,3.3,0.8,5.7,3.1,7.9c0.8,0.8,1.6,1.2,2.7,1.2c2.6-0.1,5.2,0,7.8,0c0,6,0,11.8,0,17.6
	c-4.8-1.7-4.8-1.7-4.8-6.4c0-0.7,0-1.5,0-2.2c0-0.6-0.2-1.1-0.6-1.5c-1.2-1.1-2.3-2.3-3.4-3.4c-0.6-0.7-1.1-0.6-1.9,0
	c-3,2.5-5.1,5.2-4.3,9.5c0.3,1.4,0,3,0,4.5c0,3,3.1,7.3,6,8.2c3.4,1.1,6.9,2,10.2,3.4c2.9,1.2,4.9,0.8,6.9-1.7
	c1.2-1.4,1.8-2.7,1.8-4.6c-0.1-8.3-0.2-16.6,0-24.9c0.1-3.2-0.6-5.6-3.2-7.5c-1-0.8-1.8-1.3-3.1-1.2c-2.3,0.1-4.7,0-7.2,0
	c0-4.4,0-8.6,0-12.8C163.9,85.9,163.9,85.9,167.3,84.9z M38.1,107c3.2-1.8,2.5-5,2.5-7.9c0-4.8,0-9.7,0-14.5c0-2.7-3.1-6.9-5.7-7.6
	c-4.2-1.3-8.5-2.4-12.7-3.9c-2.4-0.9-4.2-0.6-6.1,1.1c-3,2.7-3.3,1.9-0.5,5.1c1.4,1.7,2,3.3,2,5.5c-0.2,5.4-0.1,10.8,0,16.2
	c0,1.6-0.4,2.8-1.6,3.9c-2.9,2.8-2.9,2.8,0.1,5.5c0.9,0.8,2,1.5,2,3.1c-0.1,7.9-0.1,15.7-0.1,23.6c0,0.7-0.1,1.5,0.5,2.1
	c1.3,1.3,2.5,2.6,3.7,3.9c0.7,0.8,1.3,0.6,1.8-0.2c0.8-1.2,1.5-2.6,2.5-3.7c1.4-1.7,1.7-3.6,1.7-5.7c-0.1-3.7,0-7.4,0-11.2
	c0-3.2,0-6.4,0-9.7c2.1,1.4,3.1,3,3,5.5c-0.2,5.2,0,10.4,0,15.6c0,1,0.3,1.6,1,2.3c1,0.9,2,1.9,2.9,2.9c0.9,1,1.6,1.1,2.4-0.2
	c0.7-1.3,1.5-2.5,2.4-3.7c1-1.3,1.3-2.7,1.3-4.3c-0.1-5-0.1-9.9,0-14.9c0.1-3.1,0.1-6.1-2.7-8.1C38.2,107.5,38.2,107.4,38.1,107z
	 M110.9,107.4c1-0.9,1.6-1.5,2.3-2.1c0.7-0.6,0.9-1.2,0.9-2.1c0-4.6,0-9.2,0-13.8c0-0.8-0.2-1.4-0.8-1.9c-1-1-2-2-3-3
	c-0.7-0.7-1.3-0.7-2,0c-2.8,2.3-4.7,4.8-4,8.7c0.3,1.4-0.1,2.9,0.1,4.3c0.3,2.3-1,3.4-2.8,4.7c0-4,0-7.8,0-11.5
	c0-0.6,0.1-1.3-0.2-1.6c-1.6-1.9-3.2-3.8-5.4-5.5c-1,1.1-1.8,2.1-2.8,2.9c-1.6,1.3-2.1,2.9-2.1,5c0.1,11.2,0.1,22.4,0,33.6
	c0,1.8,0.6,3,1.9,4.1c3.2,2.7,3.1,2.7,6.1-0.1c1.5-1.4,2.1-2.9,2.1-5c-0.2-4,0-8.1,0-12.5c1.8,1.5,3.3,2.7,3,5.2
	c-0.3,2.4,0.1,4.8-0.1,7.2c-0.2,2.1,0.5,3.6,2.1,5c3.1,2.9,3,2.9,6.1-0.1c1.4-1.3,2-2.7,1.9-4.5c-0.1-2.9,0-5.8,0-8.7
	C114,112.6,114.8,109.3,110.9,107.4z M79.8,95.3c-1.1,4,0.6,7.1,3.9,9.4c0.1,0.1,0.2,0.2,0.3,0.3c0.7,0.8,1.2,0.7,2,0.1
	c2.5-2.2,4.5-4.5,3.8-8.2c-0.2-0.8-0.2-1.8,0-2.6c0.8-3.7-1.2-6.2-3.8-8.4c-0.5-0.4-0.9-0.7-1.6-0.7c-4.1-0.2-8.1-0.5-12.2-0.7
	c-2.2-0.1-5.7,3.2-5.7,5.5c0,11.3,0.1,22.7-0.1,34c0,2.9,0.6,4.9,3,6.6c1.2,0.8,2.2,1.4,3.7,1.2c3.6-0.4,7.2-0.8,10.9-1.1
	c1.1-0.1,1.8-0.6,2.6-1.2c2.7-2,3.7-4.6,3.3-7.9c-0.2-1.7-0.2-3.5,0-5.2c0.2-2.2-0.5-3.7-2.1-5.2c-2.7-2.5-2.5-2.4-5.4-0.1
	c-2.1,1.7-3.1,3.5-2.7,6.2c0.1,0.9,0,1.8,0,2.8c-1.1,0.2-1.9,0.2-2.9,0c0-8.3,0-16.5,0-24.9C77.7,95.1,78.5,94.9,79.8,95.3z
	 M42.1,108.6c0,6.1,0,12.3,0,18.4c0,4.9,0,4.9,3.8,8c0.7,0.5,1.3,0.7,2.2,0.5c3.6-0.8,7.2-1.6,10.9-2.3c2.9-0.6,6-4.3,6-7.2
	c0-11.2-0.1-22.4,0.1-33.6c0.1-3.2-0.6-5.8-2.9-8.2c-0.9-0.9-1.8-1.6-3-1.8c-2.5-0.4-5.1-0.6-7.5-1.4c-3.5-1.1-6.4-0.7-8.9,2.3
	c-0.6,0.8-1.1,1.4-1,2.4C42.1,93.2,42,100.9,42.1,108.6z"/>
<path class="st2" d="M180.3,67.2c0.3,0.1,0.4,0.4,0.2,0.7c-0.2-0.1-0.3-0.2-0.5-0.3C180.2,67.5,180.3,67.4,180.3,67.2z"/>
<path class="st2" d="M123.4,58.7c-0.1-1.2,0.2-1.9,1.4-2.5c2.3-1.1,4.6-2.5,6.8-3.7c0.1-0.1,0.4,0,0.5-0.1c0.5,1.3,0,2.1-1.2,2.6
	C128.4,56.3,126,57.8,123.4,58.7L123.4,58.7z"/>
<path class="st0" d="M163.2,38.3c2.2-1.8,5.5-1.6,7.9,0.5c-0.7,0.3-0.7,0.3-2.8-0.4c-0.1,1.1-0.1,1.1,0.7,1.6
	c-1.2,0.8-2.3,0.7-3.3-0.2c0.2-0.5,0.9-0.1,1.1-0.7C165.9,37.6,164.4,38.5,163.2,38.3L163.2,38.3z"/>
<polygon class="st0" points="163.2,38.3 163.1,38.3 163.2,38.3 "/>
<path class="st2" d="M88.2,74.2c0,0-0.1,0-0.1,0.1c0-0.1,0-0.1,0-0.2c0,0,0.1,0,0.1,0C88.2,74.1,88.2,74.2,88.2,74.2z"/>
<path class="st3" d="M167.3,84.9c-3.3,0.9-3.3,0.9-3.3,4c0,4.2,0,8.4,0,12.8c2.5,0,4.9,0.1,7.2,0c1.3,0,2.1,0.5,3.1,1.2
	c2.5,2,3.3,4.4,3.2,7.5c-0.2,8.3-0.1,16.6,0,24.9c0,1.9-0.6,3.1-1.8,4.6c-2,2.5-4,2.9-6.9,1.7c-3.3-1.4-6.8-2.3-10.2-3.4
	c-2.9-0.9-6-5.2-6-8.2c0-1.5,0.2-3,0-4.5c-0.8-4.2,1.3-7,4.3-9.5c0.7-0.6,1.2-0.6,1.9,0c1.1,1.2,2.3,2.3,3.4,3.4
	c0.4,0.4,0.6,0.9,0.6,1.5c0,0.7,0,1.5,0,2.2c0,4.7,0,4.7,4.8,6.4c0-5.8,0-11.6,0-17.6c-2.6,0-5.2-0.1-7.8,0c-1.2,0-1.9-0.4-2.7-1.2
	c-2.3-2.2-3.3-4.6-3.1-7.9c0.3-5.5,0.1-11-0.1-16.6c-0.9,1.5-1.9,2.9-3.8,3.2c-0.7,0.1-0.4,1.2-0.4,1.9c0,12.4-0.1,24.8,0,37.2
	c0,2-0.7,3.3-2.1,4.6c-3.2,2.9-3.2,2.9-6-0.3c-1.3-1.4-2.9-2.7-2.4-5.1c-0.2-0.1-0.4-0.2-0.6-0.3c-1.1,1.3-2.3,2.6-3.4,3.9
	c-0.9,1.1-1.9,1.3-3.3,1.2c-4.8-0.7-9.7-1.3-14.5-1.9c-1-0.1-1.5-0.5-1.5-1.7c0-14.5,0-29,0-43.5c0-1.1,0.3-1.6,1.6-1.7
	c3.1-0.2,6.3-0.6,9.4-1c1.7-0.2,3.3-0.1,4.4,1.5c0.4,0.7,1.1,1.2,1.6,1.7c0.8-0.3,1-0.9,1.1-1.4c1.1-3,3.3-4,6.4-4.2
	c2.9-0.2,5.9-0.8,8.7-1.5c2.1-0.6,3.3,0.1,4.3,1.8c0.2,0.3,0.5,0.6,0.8,1c0.9-1.2,1.8-2.3,2.5-3.4c0.8-1.3,1.8-1.9,3.2-2.3
	c3.7-1.1,7.4-2.2,11.1-3.4c0.9-0.3,1.4-0.1,2.2,0.4c3.2,2.1,4.7,4.7,4.2,8.7c-0.4,2.9-0.2,5.9,0,8.9c0.1,1.8-0.5,3.1-1.8,4.4
	c-3.4,3.2-3.3,3.2-6.7,0c-1.2-1.1-1.6-2.3-1.6-3.9C167.4,89.2,167.3,87.1,167.3,84.9z M132.2,87.8c0.2-0.3,0.1-0.4-0.2-0.4
	c-1.1-1.1-1.9-3-3.5-3c-3.7,0.1-7.3,0.6-11.1,1c0,0.9,0,1.6,0,2.2c0,13,0,26,0,39c0,0.7,0.1,1.4,0.1,2c-0.4,1.3,0.8,0.9,1.2,0.9
	c4.3,0.6,8.7,1.1,13,1.6c1.8,0.2,4.6-1.8,5.3-3.8c-0.8-0.8-1.6-1.7-2.5-2.5c-0.7-0.6-1.2-1.5-2.3-1.6c-2.5-0.2-5-0.5-7.5-0.8
	c-0.9-3.8-0.1-7.6-0.4-11.5c2.7,0,5.2,0,7.6,0c1.7,0,4.6-2.2,5-3.9c0,0-0.2-0.1-0.3-0.2c-1.9-2.8-4.3-4.3-7.9-3.7
	c-1.3,0.2-2.7,0-4.1,0c-0.4-3.5-0.1-7.1-0.2-10.5c1.8-0.7,3.6,0,4.9-1.4C130.3,90.3,131.2,89.1,132.2,87.8L132.2,87.8z M134.3,87.3
	c0.7,2.6,2,3.6,4.4,3.4c0.6,0,1.2,0,1.8,0c0,0.7,0.1,1.5,0.1,2.2c0,11.7,0,23.5,0,35.2c0,0.8-0.1,1.6,0.5,2.3
	c1.2,1.2,2.3,2.5,3.5,3.7c2.5-1.6,3.9-3.5,3.8-6.8c-0.2-12.3-0.1-24.6-0.1-36.9c0-0.7-0.4-1.7,0.7-1.8c3-0.4,3.5-2.8,4.4-5
	c-2.3-3.5-2.3-3.4-6.3-2.7c-1.7,0.3-3.4,0.8-5.1,0.8C138.1,81.8,135.5,83.5,134.3,87.3z M161.7,128.9c-0.7-1.7-0.4-3.4-0.3-5.1
	c0.4-3.2-1.6-4.8-3.8-6.4c-0.9,0.8-1.7,1.5-2.5,2.3c-0.6,0.6-1.2,1.1-1.2,2.1c0.1,3.3,0.1,6.6,0.1,10c1.4,2,2.4,4.3,5,5.2
	c3.7,1.2,7.4,2.4,11.1,3.5c0.9,0.3,1.8,1.3,2.7,0.2c1.2-1.4,3.2-2.2,3.2-4.6c-0.1-9.1-0.1-18.2,0-27.2c0.1-3-1.7-4.3-3.8-5.7
	c-0.7,0-1.3-0.1-2-0.1c-2.5-0.1-4.9,0.3-7.4-0.2c0-4.1,0-8.1,0-12.2c0-1.8-0.6-4.2,0.3-5.4c1-1.4,3.4-1.7,5.2-2.4
	c0.5,0.6,0.4,1.3,0.4,1.9c0,2.2,0,4.4,0,6.7c0,0.7,0,1.3,0.6,1.9c1,0.8,1.9,1.8,2.8,2.7c1.1-0.1,1.4-1.1,2.2-1.6
	c1.6-1.1,2-2.5,1.9-4.4c-0.1-3.7,0-7.4,0-11.1c0-1.9-2.8-4.6-4.8-4.7c-3.8,1.1-7.6,2.3-11.3,3.4c-1.5,0.4-4.7,4.3-4.7,5.8
	c0,7.9,0,15.7,0.1,23.6c0.3,0.8,1,1.2,1.5,1.9c1,1.6,2.4,2,4.2,1.9c2.5-0.1,5.1,0,7.6,0c0.1,0.3,0.2,0.6,0.2,0.9
	c0,6.3,0,12.6,0,18.8c0,1.4-0.8,1.3-1.7,0.9C165.4,130.6,163.5,129.8,161.7,128.9z M125.3,101.9c2,0,3.6,0.1,5.3,0
	c2.2-0.2,3.7,0.6,5.2,2.1c3.2,3.4,3.2,3.3,0,6.6c-1.2,1.3-2.5,1.8-4.2,1.7c-2-0.1-3.9,0-5.9,0c0,3.1,0,5.9,0,9
	c2.6,0.3,5.2,0.2,7.5,0.9c2.4,0.8,3.7,3.5,5.9,4.9c0-11.7,0-23.3,0-35.1c-3.3,1.3-4.3-1.2-5.9-3.4c-0.2,0.4-0.4,0.7-0.6,0.9
	c-1.8,2.1-3.1,4.7-6.6,4.3c-0.6-0.1-0.7,0.5-0.7,1.1C125.3,97.1,125.3,99.4,125.3,101.9z"/>
<path class="st3" d="M38.1,107c0.1,0.4,0.1,0.4,0.1,0.5c2.8,2.1,2.8,5.1,2.7,8.1c-0.1,5-0.1,9.9,0,14.9c0,1.6-0.3,3-1.3,4.3
	c-0.9,1.2-1.7,2.4-2.4,3.7c-0.8,1.3-1.5,1.2-2.4,0.2c-0.9-1-1.9-2-2.9-2.9c-0.7-0.6-1-1.3-1-2.3c0-5.2-0.2-10.4,0-15.6
	c0.1-2.5-0.9-4-3-5.5c0,3.4,0,6.5,0,9.7c0,3.7,0,7.4,0,11.2c0,2.1-0.3,4-1.7,5.7c-0.9,1.2-1.6,2.5-2.5,3.7c-0.5,0.8-1.1,0.9-1.8,0.2
	c-1.2-1.3-2.4-2.6-3.7-3.9c-0.6-0.6-0.5-1.4-0.5-2.1c0-7.9,0-15.7,0.1-23.6c0-1.6-1.1-2.3-2-3.1c-2.9-2.7-3-2.8-0.1-5.5
	c1.2-1.1,1.6-2.3,1.6-3.9c-0.1-5.4-0.1-10.8,0-16.2c0.1-2.2-0.6-3.8-2-5.5c-2.8-3.2-2.5-2.4,0.5-5.1c1.9-1.7,3.7-2,6.1-1.1
	c4.2,1.5,8.5,2.6,12.7,3.9c2.6,0.8,5.7,5,5.7,7.6c0,4.8,0,9.7,0,14.5C40.6,102,41.4,105.3,38.1,107z M35.6,137.2
	c0,0.3,0.2,0.3,0.4,0.3c1.4-1.7,3.3-3.4,3.3-5.5c0.2-6.9,0-13.9,0-20.8c-1-1.1-2-2.2-2.9-3.4c0.4-0.5,0.6-1.1,1.1-1.5
	c1.5-1.6,2-3.4,1.9-5.5c-0.1-4.4-0.3-8.8,0.1-13.2c0.3-3.5-0.8-6.1-3.3-8.3c0,0-0.1-0.1-0.1-0.1c-0.3-0.7-1.1-0.7-1.7-0.9
	c-4.4-1.4-8.8-2.7-13.2-4c-2-0.6-4.5,0.6-5.6,2.7c1.2,1.5,2.3,2.9,3.5,4.4c0,5.6-0.2,11.1,0,16.7c0.1,3.6-0.2,6.7-3.3,9
	c-0.6,0.4-0.5,0.7,0,1.1c1.2,1.1,2.5,2.2,3.7,3.3c0,8.4,0,16.8-0.1,25.1c0,0.9,0.1,1.5,0.8,2.1c0.9,0.8,1.8,1.7,2.6,2.6
	c0,0.1,0.1,0.1,0.1,0.1c0,0,0.1,0,0.2,0c1.8-2.7,3.8-5.1,3.6-8.8c-0.3-6.9-0.1-13.9,0-20.8c0-0.6-0.4-1.5,0.4-1.8
	c0.9-0.3,1.3,0.5,1.8,1c1.2,1.2,2.4,2.5,3.6,3.7c0,5.3,0.2,10.5,0,15.8C32.1,133.7,33.2,135.7,35.6,137.2L35.6,137.2z"/>
<path class="st3" d="M110.9,107.4c3.8,1.9,3.1,5.2,3.1,8.2c0,2.9-0.1,5.8,0,8.7c0.1,1.9-0.5,3.2-1.9,4.5c-3.1,3-3,2.9-6.1,0.1
	c-1.5-1.4-2.2-2.9-2.1-5c0.2-2.4-0.2-4.8,0.1-7.2c0.3-2.5-1.2-3.7-3-5.2c0,4.4-0.1,8.4,0,12.5c0.1,2.1-0.5,3.6-2.1,5
	c-3.1,2.8-3,2.9-6.1,0.1c-1.3-1.1-1.9-2.3-1.9-4.1c0.1-11.2,0.1-22.4,0-33.6c0-2.1,0.5-3.7,2.1-5c1-0.8,1.8-1.9,2.8-2.9
	c2.2,1.6,3.8,3.6,5.4,5.5c0.3,0.3,0.2,1.1,0.2,1.6c0,3.8,0,7.5,0,11.5c1.8-1.3,3.1-2.5,2.8-4.7c-0.2-1.4,0.2-2.9-0.1-4.3
	c-0.7-3.9,1.2-6.4,4-8.7c0.8-0.6,1.3-0.7,2,0c1,1,2,2.1,3,3c0.6,0.5,0.8,1.1,0.8,1.9c0,4.6,0,9.2,0,13.8c0,0.9-0.2,1.5-0.9,2.1
	C112.6,105.9,111.9,106.5,110.9,107.4z M96.3,129.8L96.3,129.8c2.5-1.8,4.1-3.8,3.7-7.2c-0.3-3-0.1-6,0-9.1c0-1.4-0.1-2.9,0.3-4.5
	c1.8,1.7,3.5,3.3,5.1,4.8c0,3.7,0.1,7.4,0.1,11.1c0,1,0.2,1.8,1,2.4c0.8,0.7,1.6,1.5,2.4,2.3c1.5-0.2,3.7-2.6,3.7-4.1
	c0-4.2,0-8.4,0-12.6c0-0.7,0.3-1.5-0.3-2.1c-0.7-1.3-2.2-1.9-2.8-3.3c0.6-0.7,1.2-1.5,1.9-2c1.3-1.1,1.7-2.3,1.7-4
	c-0.1-3.4-0.2-6.9,0-10.3c0.1-2.9-1.8-4-3.7-5.3c-2.5,1.7-4.1,3.9-3.5,7.2c0.2,0.8-0.1,1.7,0,2.6c0.7,3.7-1,6.4-3.8,8.5
	c-0.5,0.4-0.9,0.8-1.6,0.6c0-4.4,0-8.9-0.1-13.3c0-1.6-2.7-5.2-4.2-5.7c0,0-0.1,0.2-0.2,0.3c-1.2,1.4-3.3,2.2-3.3,4.4
	c0,11.8,0,23.5,0,35.3c0,0.8,0.2,1.4,0.8,1.9c0.9,0.7,1.7,1.5,2.5,2.2C96,130.1,96.1,130.1,96.3,129.8z"/>
<path class="st3" d="M79.8,95.3c-1.2-0.4-2.1-0.2-3.1-0.2c0,8.3,0,16.5,0,24.9c0.9,0.2,1.8,0.2,2.9,0c0-1,0.1-1.9,0-2.8
	c-0.4-2.7,0.6-4.5,2.7-6.2c2.9-2.3,2.7-2.4,5.4,0.1c1.6,1.5,2.4,3,2.1,5.2c-0.2,1.7-0.2,3.5,0,5.2c0.4,3.3-0.6,5.9-3.3,7.9
	c-0.8,0.6-1.5,1.1-2.6,1.2c-3.6,0.3-7.3,0.6-10.9,1.1c-1.5,0.2-2.5-0.4-3.7-1.2c-2.4-1.7-3.1-3.7-3-6.6c0.2-11.3,0.1-22.7,0.1-34
	c0-2.2,3.5-5.6,5.7-5.5c4.1,0.2,8.1,0.5,12.2,0.7c0.7,0,1.1,0.3,1.6,0.7c2.6,2.2,4.5,4.7,3.8,8.4c-0.2,0.8-0.2,1.8,0,2.6
	c0.8,3.7-1.2,6-3.8,8.2c-0.8,0.7-1.4,0.7-2-0.1c-0.1-0.1-0.2-0.2-0.3-0.3C80.4,102.4,78.7,99.4,79.8,95.3z M84.8,103.7
	c0.1,0.2,0.3,0.3,0.4,0.2c1.9-1.7,3.8-3.2,3.3-6.3c-0.3-1.9-0.1-3.9-0.1-5.9c0-0.6,0.1-1.2-0.5-1.7c-1.1-1.1-2.1-2.2-3.2-3.3
	c-4.1-0.3-8.3-0.6-12.4-0.9c-1.8-0.1-4.5,2.5-4.5,4.3c0,12.2,0,24.4,0,36.6c0.4,1.6,2,2,2.9,3.1c0.5,0.6,1.2,0.7,2,0.6
	c3.5-0.4,7-0.7,10.5-1c2.2-0.2,5.2-3.3,5.2-5.4c0-2.9,0-5.8,0-8.7c0-1.3-2.3-4.3-3.5-4.5c-0.1,0-0.4,0.3-0.5,0.4
	c-2.7,1.7-4.1,4.1-3.5,7.4c0.1,0.6,0,1.2,0,1.8c0,0.9-0.4,1.4-1.3,1.4c-1.4,0-2.8,0.2-4.2-0.2c0-9.2,0-18.5,0-27.8
	c1.9,0,3.7,0,5.4,0c0.3,0.6,0.3,1.3,0.2,2c-0.7,3.5,0.8,6,3.5,7.9C84.6,103.6,84.7,103.7,84.8,103.7z"/>
<path class="st3" d="M42.1,108.6c-0.1-7.7-0.1-15.3-0.4-23c0-1,0.4-1.6,1-2.4c2.4-3,5.3-3.4,8.9-2.3c2.4,0.8,5,1,7.5,1.4
	c1.3,0.2,2.1,0.9,3,1.8c2.3,2.3,2.9,5,2.9,8.2c-0.2,11.2-0.1,22.4-0.1,33.6c0,2.9-3.1,6.7-6,7.2c-3.6,0.7-7.3,1.5-10.9,2.3
	c-0.9,0.2-1.5,0.1-2.2-0.5c-3.8-3-3.8-3-3.8-8C42.1,120.8,42.1,114.7,42.1,108.6z M47.2,133.9c0.1,0.3,0.4,0.3,0.6,0.3
	c3.9-0.8,7.7-1.6,11.6-2.5c1.7-0.4,4.2-4,4.2-5.8c0-11.3-0.2-22.5,0.1-33.8c0.1-3.4-1-5.8-3.4-7.9c-3.6-1.3-7.5-1.5-11.2-2.3
	c-1.8-0.4-5,1.2-5.8,2.9c-0.1,0.2-0.1,0.5-0.1,0.7c0.1,13.8,0.3,27.6,0.2,41.4c0,3.2,0.8,5.4,3.6,7
	C47.1,133.9,47.1,133.9,47.2,133.9z"/>
<path class="st4" d="M168.3,83c-1.8,0.8-4.2,1.1-5.2,2.4c-0.9,1.2-0.3,3.5-0.3,5.4c0,4.1,0,8.1,0,12.2c-1.3,1-2,2.4-2.8,4.1
	c2.8,0,5.2,0,7.5,0c3.8,0,3.8,0,4.6-3.8c2,1.4,3.8,2.7,3.8,5.7c-0.2,9.1-0.1,18.2,0,27.2c0,2.4-2,3.2-3.2,4.6c-0.9,1-1.8,0-2.7-0.2
	c-3.7-1.1-7.4-2.3-11.1-3.5c-2.5-0.8-3.6-3.2-5-5.2c0.4-0.1,0.8-0.3,1.2-0.2c2.3,0.2,2.5-1.1,2.4-3c-0.1-3.7,0-7.5,0-11.2
	c2.3,1.5,4.2,3.1,3.8,6.4c-0.2,1.6-0.4,3.4,0.3,5.1c-1.2,1-2.3,2-3.4,3.5c4.6,1.5,9,3.2,13.6,4.3c0-9.6,0-18.9,0-28.5
	c-1.4,0.7-2.2,1.9-3.3,2.6c-2.5,0-5.1-0.1-7.6,0c-1.8,0.1-3.2-0.3-4.2-1.9c-0.4-0.7-1.2-1.1-1.5-1.9c1-0.2,2-0.3,3.3-0.6
	c0-0.7,0-1.3,0-2c0-7,0-14,0-21c0-1.3,0.4-1.9,1.6-2.2c3.3-1,6.6-2.2,9.8-3.3c2.3-0.8,2.6-1.6,1.2-3.8c2,0.1,4.8,2.8,4.8,4.7
	c0,3.7-0.1,7.4,0,11.1c0.1,1.9-0.3,3.4-1.9,4.4c-0.8,0.5-1.1,1.6-2.2,1.6c0-5.5,0-11.1,0-17.1C170.6,80.6,169.4,81.8,168.3,83z"/>
<path class="st0" d="M125.3,101.9c0-2.5,0-4.8,0-7c0-0.5,0.1-1.2,0.7-1.1c3.5,0.5,4.8-2.2,6.6-4.3c0.2-0.2,0.3-0.5,0.6-0.9
	c1.6,2.2,2.6,4.7,5.9,3.4c0,11.8,0,23.4,0,35.1c-2.2-1.4-3.5-4.1-5.9-4.9c-2.3-0.8-5-0.7-7.5-0.9c0-3,0-5.9,0-9c2,0,3.9-0.1,5.9,0
	c1.7,0.1,3-0.4,4.2-1.7c3.2-3.4,3.2-3.2,0-6.6c-1.5-1.6-3-2.4-5.2-2.1C128.9,102,127.2,101.9,125.3,101.9z"/>
<path class="st4" d="M136.9,127.5c-0.6,2-3.4,4-5.3,3.8c-4.3-0.5-8.7-1-13-1.6c-0.4-0.1-1.6,0.4-1.2-0.9c2-1.3,2.8-3.1,2.7-5.6
	c-0.2-9.8-0.1-19.7-0.1-29.5c0-4,0-4,4.1-4.8c0.2,0,0.4-0.2,0.5-0.2c2.5-0.1,4.9-1.1,7.5-0.8c-1,1.2-1.9,2.4-2.9,3.6
	c-1.3,1.4-3.1,0.7-4.9,1.4c0,3.4-0.3,7,0.2,10.5c-1.2,1-2.4,2-3.3,3.4c0.6,0.5,1.3,0.3,1.9,0.3c3.5,0,7,0.1,10.6,0
	c0.9,0,1.9,0.9,2.8,0c0.1,0.1,0.3,0.2,0.3,0.2c-0.4,1.6-3.3,3.9-5,3.9c-2.5,0-4.9,0-7.6,0c0.3,4-0.5,7.8,0.4,11.5
	c-1.5,0.4-1.9,1.8-3.2,3.1C126.8,126.4,131.8,126.9,136.9,127.5z"/>
<path class="st4" d="M140.5,90.7c-0.6,0-1.2,0-1.8,0c-2.4,0.2-3.7-0.8-4.4-3.4c0.4,0,0.9,0,1.3-0.1c6-1.2,11.9-2.4,17.9-3.6
	c-0.9,2.1-1.4,4.6-4.4,5c-1,0.1-0.7,1.2-0.7,1.8c0,12.3-0.2,24.6,0.1,36.9c0.1,3.4-1.4,5.2-3.8,6.8c0-15.7,0-31.5,0-47.5
	C142.9,88,141.6,89.3,140.5,90.7z"/>
<path class="st2" d="M140.5,90.7c1.1-1.5,2.4-2.7,4.1-4.1c0,16.1,0,31.8,0,47.5c-1.2-1.2-2.3-2.5-3.5-3.7c-0.6-0.7-0.5-1.5-0.5-2.3
	c0-11.7,0-23.5,0-35.2C140.6,92.2,140.5,91.5,140.5,90.7z"/>
<path class="st2" d="M132.2,87.9c-2.6-0.3-5,0.7-7.5,0.8c-0.2,0-0.3,0.1-0.5,0.2c-4.1,0.7-4.1,0.7-4.1,4.8c0,9.8-0.1,19.7,0.1,29.5
	c0,2.5-0.7,4.3-2.7,5.6c0-0.7-0.1-1.4-0.1-2c0-13,0-26,0-39c0-0.7,0-1.3,0-2.2c3.8-0.4,7.4-0.9,11.1-1c1.7,0,2.4,1.9,3.5,3
	C132,87.5,132.1,87.7,132.2,87.9L132.2,87.9z"/>
<path class="st2" d="M171.3,74.3c1.4,2.2,1.1,3-1.2,3.8c-3.3,1.1-6.5,2.3-9.8,3.3c-1.2,0.4-1.6,1-1.6,2.2c0.1,7,0,14,0,21
	c0,0.7,0,1.3,0,2c-1.3,0.2-2.3,0.4-3.3,0.6c0-7.9-0.1-15.7-0.1-23.6c0-1.5,3.2-5.4,4.7-5.8C163.8,76.5,167.6,75.4,171.3,74.3z"/>
<path class="st2" d="M168.7,110.8c1.1-0.7,1.8-1.9,3.3-2.6c0,9.6,0,18.9,0,28.5c-4.6-1.1-9-2.8-13.6-4.3c1.1-1.4,2.2-2.5,3.4-3.5
	c1.8,0.8,3.7,1.7,5.5,2.5c0.9,0.4,1.7,0.5,1.7-0.9c0-6.3,0-12.6,0-18.8C168.9,111.4,168.8,111.1,168.7,110.8z"/>
<path class="st2" d="M153.4,83.6c-6,1.2-11.9,2.4-17.9,3.6c-0.4,0.1-0.9,0.1-1.3,0.1c1.2-3.8,3.8-5.5,7.7-5.6c1.7,0,3.4-0.5,5.1-0.8
	C151.2,80.2,151.2,80.2,153.4,83.6z"/>
<path class="st2" d="M157.6,117.5c0,3.7-0.1,7.5,0,11.2c0.1,1.8-0.1,3.2-2.4,3c-0.4,0-0.8,0.1-1.2,0.2c0-3.3,0-6.6-0.1-10
	c0-1,0.6-1.5,1.2-2.1C155.9,119.1,156.8,118.3,157.6,117.5z"/>
<path class="st2" d="M168.3,83c1.1-1.2,2.3-2.4,3.8-4c0,6,0,11.6,0,17.1c-0.9-0.9-1.8-1.8-2.8-2.7c-0.6-0.5-0.6-1.2-0.6-1.9
	c0-2.2,0-4.4,0-6.7C168.7,84.2,168.8,83.6,168.3,83z"/>
<path class="st2" d="M136.5,107c-0.9,0.9-1.9,0-2.8,0c-3.5,0.1-7,0.1-10.6,0c-0.6,0-1.2,0.2-1.9-0.3c0.9-1.4,2.1-2.4,3.3-3.4
	c1.4,0,2.7,0.2,4.1,0C132.1,102.7,134.6,104.2,136.5,107z"/>
<path class="st2" d="M136.9,127.5c-5-0.6-10.1-1.1-15.5-1.7c1.3-1.3,1.6-2.8,3.2-3.1c2.5,0.3,5,0.6,7.5,0.8c1.2,0.1,1.7,1,2.3,1.6
	C135.3,125.8,136.1,126.6,136.9,127.5z"/>
<path class="st2" d="M172.2,103.3c-0.8,3.8-0.8,3.8-4.6,3.8c-2.4,0-4.8,0-7.5,0c0.8-1.7,1.5-3.1,2.8-4.1c2.4,0.5,4.9,0.1,7.4,0.2
	C170.8,103.2,171.5,103.3,172.2,103.3z"/>
<path class="st4" d="M132.2,87.8c-0.1-0.1-0.1-0.3-0.2-0.4C132.2,87.4,132.4,87.5,132.2,87.8z"/>
<path class="st4" d="M19.3,111.5c-1.2-1.1-2.5-2.2-3.7-3.3c-0.5-0.4-0.6-0.8,0-1.1c1.5,0.8,3.2,0.2,4.7,0.4c1.5,0.2,2-0.3,2-1.9
	c-0.1-7.9,0-15.9,0-23.8c0-0.6,0.2-1.2-0.4-1.8c-1.2,0-1.8,1.3-2.9,1.4c-1.2-1.5-2.3-2.9-3.5-4.4c3.6,0.6,7.1,1.9,10.6,2.9
	c3,0.9,6.1,1.8,9.3,2.8c-1,1.4-2,2.3-3.1,3.2c-1.9-0.7-3.8-1.5-5.9-2.2c0,7.5,0,14.8,0,22.1c0,0.6-0.2,1.2,0.2,1.9
	c2,0.4,4,0.4,5.4-1.6c0.6-0.9,1.5-1.6,2.4-2.4c1-0.8,1.3-1.8,1.3-3.1c-0.1-6.5,0-13,0-19.5c0-0.7-0.2-1.4,0.3-2c0,0,0.1,0.1,0.1,0.1
	c2.6,2.2,3.6,4.8,3.3,8.3c-0.3,4.4-0.2,8.8-0.1,13.2c0.1,2.2-0.4,4-1.9,5.5c-0.4,0.4-0.7,1-1.1,1.5c-1.5,0-3,0-4.8,0
	c0.6,0.7,1,1,1.2,1.4c1.6,2.8,3.7,3.6,6.6,2c0,6.9,0.2,13.9,0,20.8c-0.1,2.2-1.9,3.9-3.3,5.5c-0.1-0.1-0.3-0.2-0.4-0.3c0,0,0,0,0,0
	c0-7.9,0-15.8,0-23.9c-1.4,0.3-2.4,0.8-3.4,1.5c-1.2-1.2-2.4-2.5-3.6-3.7c-0.5-0.5-0.9-1.4-1.8-1c-0.8,0.3-0.4,1.2-0.4,1.8
	c0,6.9-0.3,13.9,0,20.8c0.2,3.7-1.8,6.1-3.6,8.8c0,0-0.1,0-0.2,0c0,0-0.1-0.1-0.1-0.1c0-10.7,0-21.4,0-32.3
	C21.2,109.6,20.3,110.6,19.3,111.5z"/>
<path class="st2" d="M32.3,85.9c1.1-0.9,2.1-1.8,3.1-3.2c-3.2-1-6.2-2-9.3-2.8c-3.5-1-7-2.3-10.6-2.9c1-2.1,3.6-3.4,5.6-2.7
	c4.4,1.3,8.8,2.7,13.2,4c0.6,0.2,1.4,0.2,1.7,0.9c-0.5,0.6-0.3,1.3-0.3,2c0,6.5,0,13,0,19.5c0,1.3-0.3,2.3-1.3,3.1
	c-0.8,0.7-1.7,1.5-2.4,2.4c-1.4,2-3.4,2-5.4,1.6c-0.5-0.6-0.2-1.2-0.2-1.9c0.2,0,0.6,0.1,0.7,0c1.9-1.6,3.6-3.3,5.2-5.2
	c0.3-0.3,0.3-0.8,0.3-1.2C32.5,94.9,32.4,90.4,32.3,85.9z"/>
<path class="st2" d="M19.3,111.5c1-0.9,1.9-1.9,3.3-2.4c0,10.9,0,21.6,0,32.3c-0.9-0.9-1.7-1.8-2.6-2.6c-0.7-0.6-0.8-1.3-0.8-2.1
	C19.3,128.3,19.3,119.9,19.3,111.5z"/>
<path class="st2" d="M19,81.4c1.1-0.1,1.7-1.4,2.9-1.4c0.6,0.5,0.4,1.2,0.4,1.8c0,7.9,0,15.9,0,23.8c0,1.6-0.5,2.1-2,1.9
	c-1.6-0.2-3.2,0.4-4.7-0.4c3.1-2.2,3.5-5.4,3.3-9C18.8,92.6,19,87,19,81.4z"/>
<path class="st2" d="M32.3,114.9c0.9-0.7,1.9-1.3,3.4-1.5c0,8.1,0,16,0,23.9c-2.4-1.6-3.5-3.6-3.4-6.6
	C32.5,125.4,32.3,120.1,32.3,114.9z"/>
<path class="st2" d="M39.3,111.2c-2.9,1.7-5,0.9-6.6-2c-0.2-0.4-0.6-0.7-1.2-1.4c1.8,0,3.3,0,4.8,0C37.4,108.9,38.4,110,39.3,111.2z
	"/>
<path class="st2" d="M35.6,137.2c0.1,0.1,0.3,0.2,0.4,0.3C35.8,137.5,35.7,137.5,35.6,137.2z"/>
<path class="st4" d="M95.9,85.9c0.1-0.1,0.2-0.3,0.2-0.3c1.5,0.5,4.2,4.1,4.2,5.7c0,4.4,0,8.9,0.1,13.3c-0.1,2.5-0.1,2.2,2.3,2.2
	c2.6,0,3.7-1.8,5-3.3c0.7-0.9,1.7-1.6,1.7-3.1c-0.1-4.9-0.1-9.8-0.1-14.6c1.9,1.3,3.9,2.5,3.7,5.3c-0.2,3.4-0.1,6.9,0,10.3
	c0.1,1.7-0.4,3-1.7,4c-0.7,0.6-1.2,1.3-1.9,2c-1.4,0-2.8-0.3-4.1,0.6c3.2,3.8,3.9,4,6.9,2.7c0.6,0.6,0.3,1.4,0.3,2.1
	c0,4.2,0,8.4,0,12.6c0,1.5-2.2,3.9-3.7,4.1c-0.1-5.6,0.8-11.2,0.2-17c-1.4,0.5-2.5,0.9-3.7,1.3c-1.6-1.6-3.3-3.1-5.1-4.8
	c-0.4,1.7-0.2,3.1-0.3,4.5c-0.1,3-0.3,6.1,0,9.1c0.4,3.4-1.2,5.4-3.7,7.2c0-13.9,0-27.9-0.1-41.8C96.3,87.3,96.5,86.5,95.9,85.9z"/>
<path class="st2" d="M95.9,85.9c0.6,0.6,0.4,1.4,0.4,2.1c0,13.9,0,27.9,0.1,41.8c0,0,0,0,0,0c-0.1,0-0.2,0-0.4,0
	c-0.8-0.7-1.6-1.5-2.5-2.2c-0.7-0.5-0.8-1.1-0.8-1.9c0-11.8,0-23.5,0-35.3C92.6,88.1,94.7,87.3,95.9,85.9z"/>
<path class="st2" d="M109.3,85.7c0,4.9-0.1,9.8,0.1,14.6c0,1.5-0.9,2.3-1.7,3.1c-1.3,1.5-2.4,3.3-5,3.3c-2.3,0-2.3,0.3-2.3-2.2
	c0.7,0.3,1.1-0.2,1.6-0.6c2.8-2.2,4.5-4.8,3.8-8.5c-0.2-0.8,0.1-1.7,0-2.6C105.1,89.7,106.7,87.5,109.3,85.7z"/>
<path class="st2" d="M105.4,113.8c1.1-0.4,2.3-0.8,3.7-1.3c0.6,5.8-0.3,11.4-0.2,17c-0.8-0.8-1.6-1.6-2.4-2.3c-0.8-0.7-1-1.4-1-2.4
	C105.5,121.2,105.4,117.5,105.4,113.8z"/>
<path class="st2" d="M112.3,110.7c-3,1.3-3.7,1.1-6.9-2.7c1.3-0.8,2.7-0.5,4.1-0.6C110.1,108.8,111.6,109.5,112.3,110.7z"/>
<path class="st4" d="M95.9,129.7c0.1,0,0.2,0,0.4,0C96.1,130.1,96,130.1,95.9,129.7z"/>
<path class="st4" d="M84.4,111.1c0.2-0.1,0.4-0.4,0.5-0.4c1.2,0.3,3.5,3.3,3.5,4.5c0,2.9,0,5.8,0,8.7c0,2.1-3,5.2-5.2,5.4
	c-3.5,0.3-7,0.7-10.5,1c-0.8,0.1-1.5,0.1-2-0.6c-0.9-1.1-2.5-1.5-2.9-3.1c3.1-0.3,3.5-0.8,3.5-3.7c0-10.4,0-20.8,0-31.1
	c0-0.7-0.2-1.5,0.4-2.3c4.2,0.2,8.5,0.5,13,0.8c0-1.4,0-2.5,0-3.6c1.1,1.1,2.1,2.2,3.2,3.3c0.5,0.5,0.5,1.1,0.5,1.7
	c0,2-0.3,4,0.1,5.9c0.5,3.1-1.5,4.6-3.3,6.3c-0.2,0.1-0.3,0.1-0.4-0.2c0-3.9,0-7.8,0-11.9c-1.5,0.7-2.7,1.3-3.9,1.9
	c-1.7,0-3.4,0-5.4,0c0,9.4,0,18.6,0,27.8c-0.9,1.3-2.1,2.3-2.6,4.1c3.8,0,7.3-0.6,10.8-1c0.9-0.1,1.1-0.6,1.1-1.4
	c0-3.6,0-7.3,0-10.9C84.8,111.9,84.8,111.5,84.4,111.1z"/>
<path class="st2" d="M84.8,86.7c0,1.1,0,2.2,0,3.6c-4.5-0.3-8.8-0.5-13-0.8c-0.6,0.9-0.4,1.6-0.4,2.3c0,10.4,0,20.8,0,31.1
	c0,2.9-0.4,3.3-3.5,3.7c0-12.2,0-24.4,0-36.6c0-1.8,2.7-4.4,4.5-4.3C76.5,86.1,80.6,86.4,84.8,86.7z"/>
<path class="st2" d="M84.4,111.1c0.4,0.3,0.4,0.8,0.4,1.2c0,3.6,0,7.3,0,10.9c0,0.8-0.2,1.3-1.1,1.4c-3.5,0.4-7,1.1-10.8,1
	c0.5-1.8,1.7-2.8,2.6-4.1c1.4,0.4,2.8,0.2,4.2,0.2c0.9,0,1.3-0.5,1.3-1.4c0-0.6,0.1-1.2,0-1.8C80.4,115.2,81.7,112.9,84.4,111.1z"/>
<path class="st2" d="M80.9,93.7c1.2-0.6,2.4-1.2,3.9-1.9c0,4.1,0,8,0,11.9c-0.1,0-0.1,0-0.2-0.1c-2.8-1.9-4.2-4.4-3.5-7.9
	C81.2,95.1,81.2,94.4,80.9,93.7z"/>
<path class="st2" d="M47.2,133.9c-0.1,0-0.1,0-0.2-0.1c-2.7-1.5-3.6-3.7-3.6-7c0.1-13.8-0.1-27.6-0.2-41.4c0-0.2,0-0.5,0.1-0.7
	c0.8-1.7,4-3.3,5.8-2.9c3.7,0.9,7.6,1.1,11.2,2.3c0,0.8-0.1,1.6-0.1,2.4c0,13,0,26,0,39c0,1.6-0.2,2.5-2.1,2.7
	c-1.8,0.1-3.5,0.8-5.3,1c-1.5,0.2-3,0.9-5,0.6c1.3-1.4,1.4-3.3,3.1-4c1.2-0.2,2.3-0.6,3.5-0.6c2-0.1,2.4-1,2.4-2.9
	c-0.1-10.1,0-20.2,0-30.2c0.1-1.8,2.1-2.4,2.5-4.1c-3.2-0.8-6.4-1.4-9.7-1.9c-2.3-0.4-2.3-0.4-2.3,1.9
	C47.2,103.4,47.2,118.6,47.2,133.9z"/>
<path class="st4" d="M50.9,126c-1.7,0.7-1.8,2.6-3.1,4c2,0.3,3.5-0.4,5-0.6c1.8-0.2,3.5-0.9,5.3-1c1.9-0.1,2.1-1.1,2.1-2.7
	c0-13,0-26,0-39c0-0.8,0.1-1.6,0.1-2.4c2.4,2.1,3.4,4.5,3.4,7.9c-0.2,11.3-0.1,22.5-0.1,33.8c0,1.8-2.5,5.4-4.2,5.8
	c-3.8,0.9-7.7,1.7-11.6,2.5c-0.3,0.1-0.5,0-0.6-0.3c0-15.3,0-30.5,0-45.8c0-2.4,0-2.3,2.3-1.9c3.3,0.5,6.5,1.1,9.7,1.9
	c-0.3,1.8-2.4,2.4-2.5,4.1c-1.8-1.3-4-1.5-6-2.3c-0.1,0.4-0.1,0.7-0.1,0.9c0,11.2,0,22.5,0,33.7C50.6,125,50.6,125.5,50.9,126z"/>
<path class="st3" d="M32.3,85.9c0.1,4.5,0.2,9,0.3,13.5c0,0.4,0,0.9-0.3,1.2c-1.6,1.9-3.3,3.6-5.2,5.2c-0.1,0.1-0.5,0-0.7,0
	c0-7.3,0-14.6,0-22.1C28.5,84.4,30.4,85.2,32.3,85.9z M27.6,103.1c0.8-0.2,1.1-0.8,1.6-1.2c1.6-1.2,2.2-2.7,2-4.7
	c-0.3-2.6-0.2-5.3-0.2-7.9c0-2.9-0.2-3.1-3.4-3.6C27.6,91.4,27.6,97.2,27.6,103.1z"/>
<path class="st3" d="M50.9,126c-0.3-0.4-0.3-0.9-0.3-1.4c0-11.2,0-22.5,0-33.7c0-0.2,0.1-0.5,0.1-0.9c2,0.8,4.2,1,6,2.3
	c0,10.1-0.1,20.2,0,30.2c0,1.8-0.4,2.8-2.4,2.9C53.2,125.4,52.1,125.7,50.9,126z M51.9,91.5c0,11,0,21.8,0,32.6
	c1.2,0.2,2.2-0.3,3.3-0.5c0-0.8,0-1.5,0-2.2c0-8.7,0-17.3,0-26C55.3,92.4,55.3,92.4,51.9,91.5z"/>
<path class="st0" d="M27.6,103.1c0-5.9,0-11.7,0-17.5c3.2,0.5,3.3,0.8,3.4,3.6c0,2.7-0.1,5.3,0.2,7.9c0.2,2.1-0.4,3.6-2,4.7
	C28.7,102.3,28.4,102.9,27.6,103.1z"/>
<path class="st0" d="M51.9,91.5c3.3,0.9,3.3,0.9,3.3,4c0,8.7,0,17.3,0,26c0,0.7,0,1.3,0,2.2c-1.1,0.2-2.2,0.7-3.3,0.5
	C51.9,113.3,51.9,102.5,51.9,91.5z"/>
</svg>
