<?xml version="1.0" encoding="utf-8"?>
<!-- Generator: Adobe Illustrator 21.0.0, SVG Export Plug-In . SVG Version: 6.00 Build 0)  -->
<svg version="1.1" id="Layer_7" xmlns="http://www.w3.org/2000/svg" xmlns:xlink="http://www.w3.org/1999/xlink" x="0px" y="0px"
	 viewBox="0 0 200 200" style="enable-background:new 0 0 200 200;" xml:space="preserve">
<style type="text/css">
	.st0{fill:#234DA1;}
	.st1{fill:#FFFFFF;}
	.st2{fill:#C32227;}
	.st3{fill:#224CA0;}
	.st4{fill:#234CA0;}
	.st5{fill:#234CA1;}
	.st6{fill:#3157A7;}
	.st7{fill:#2E56A6;}
	.st8{fill:#3A5EAB;}
	.st9{fill:#2A53A4;}
	.st10{fill:#3D60AC;}
	.st11{fill:#3257A7;}
	.st12{fill:#2D56A6;}
	.st13{fill:#2C53A5;}
	.st14{fill:#3D62AE;}
	.st15{fill:#4364AE;}
	.st16{fill:#FFFEFE;}
	.st17{fill:#FFFDFD;}
	.st18{fill:#FFFEFD;}
	.st19{fill:#FFFDFC;}
	.st20{fill:#FEFCFC;}
	.st21{fill:#FEFCFB;}
	.st22{fill:#FDF8F7;}
	.st23{fill:#FCF5F4;}
	.st24{fill:#F8F9FD;}
	.st25{fill:#FBFCFE;}
	.st26{fill:#F9FAFD;}
	.st27{fill:#F8FAFD;}
	.st28{fill:#CAD6ED;}
</style>
<path class="st0" d="M200.6,109.2c-1.4,2.9-1.4,6.2-2.2,9.3c-8.5,33.2-39.7,56.1-74,53.8c-19-1.3-35.1-9.1-48.2-23
	c-1.2-1.2-2.2-1.8-3.9-1.8c-6.2,0.1-12.4,0.1-18.7,0c-1.6,0-2.7,0.4-3.7,1.6c-3.3,3.7-7.3,6.5-11.9,8.3c-11.3,4.4-22.1,1.3-29.6-8.5
	c-4-5.2-6.5-11-7.4-17.5c-0.1-0.6-0.3-1.1-0.5-1.6c0-3.1,0-6.1,0-9.2c1.2-6.1,2.5-12.3,5.1-18c3.4-7.4,8-13.9,14.4-19
	c0.3-0.2,0.5-0.5,0.7-0.8c-5.6-2.7-6.1-5.7-2.3-10.5c6.3-7.8,12.6-15.6,18.9-23.5c1.8-2.3,3.9-3.3,6.8-3.3c11.9,0.1,23.7,0,35.6,0.1
	c1.8,0,3.2-0.4,4.7-1.5c42.7-32.9,103.5-10.3,114.6,42.5c0.4,2,0.3,4.1,1.3,5.9C200.6,98.1,200.6,103.6,200.6,109.2z M28,80.8
	C14.4,88.2,7.5,99.4,4,113.1c-3.1,11.8-2.4,23.2,4.9,33.4c5.3,7.5,12.4,12.2,22.2,10.9c6.9-1,12.7-4.1,17.3-9.3
	c1.6-1.8,3.3-2.5,5.7-2.4c5.9,0.2,11.9,0.2,17.8,0c2.5-0.1,4.1,0.7,5.9,2.5c17.2,17.9,38.1,25.4,62.7,21.3
	c39-6.5,64.6-43.6,57.2-82.1c-10-51.8-71-74.4-112.4-41.5c-1.5,1.2-2.9,1.6-4.7,1.6c-12.2-0.1-24.3,0-36.5,0c-1.8,0-3.3,0.2-4.6,1.8
	c-6.8,8.5-13.7,17-20.5,25.5c-1,1.2-1.5,2.5-0.7,4c0.8,1.6,2.1,2.1,3.8,2.1C23.7,80.7,25.5,80.8,28,80.8z"/>
<path class="st1" d="M28,80.8c-2.5,0-4.2,0-5.9,0c-1.7,0-3-0.5-3.8-2.1c-0.7-1.5-0.2-2.8,0.7-4c6.8-8.5,13.7-16.9,20.5-25.5
	c1.3-1.6,2.8-1.8,4.6-1.8c12.2,0,24.3,0,36.5,0c1.8,0,3.2-0.4,4.7-1.6C126.6,13,187.6,35.6,197.6,87.4c7.4,38.5-18.2,75.6-57.2,82.1
	c-24.5,4.1-45.5-3.4-62.7-21.3c-1.8-1.8-3.4-2.6-5.9-2.5c-5.9,0.2-11.9,0.2-17.8,0c-2.4-0.1-4,0.6-5.7,2.4
	c-4.6,5.2-10.4,8.3-17.3,9.3c-9.8,1.4-16.8-3.3-22.2-10.9C1.6,136.3,1,124.9,4,113.1C7.5,99.4,14.4,88.2,28,80.8z M48.6,142.5
	c9-0.1,18-0.2,27-0.4c1.7,0,2.3,1.2,3.1,2.2c16.4,18,36.8,25.8,60.9,21.9c37.2-6,61.8-41.5,54.6-78.2
	c-9.7-49.7-68.6-70.9-107.8-38.7c-1.3,1.1-2.7,1.6-4.4,1.6c-12.4-0.1-24.7,0-37.1-0.1c-2.1,0-3.6,0.7-4.7,3c13.8,0,27.1,0,40.6,0
	c-2,3.9-4.8,5-8.9,4.9c-11.3-0.3-22.6-0.1-33.9-0.1c-2.2,0-3.5,0.7-4.5,3.1c13.8,0,27.3,0,40.8,0c-1.1,4.1-3.7,5-7.6,4.9
	c-11.9-0.3-23.7-0.1-35.6-0.1c-2.2,0-3.5,0.8-4.5,3.1c14.5,0,28.7,0,43,0c-1.9,5-1.9,5-6.6,5c-12.4,0-24.7,0-37.1,0
	c-2,0-3.3,0.6-4,2.4c52.1,0,104,0,156.3,0c-1-2.8-3.1-2.4-4.9-2.4c-14.7,0-29.3-0.2-44,0.1c-4.5,0.1-7.8-0.6-9.9-5
	c-0.8-1.7-2.5-3.1-3.9-4.6c-2.5-2.8-5.7-5-9-7.5c2.3-1.1,4.4-1.9,6.3-2.9c1.5-0.7,2.5-0.7,3.8,0.6c2.7,2.7,6,4.5,9.5,5.7
	c16.5,5.5,33.2,5.6,49.9,0.9c1.7-0.5,2.6-0.5,3.8,1.1c26.2,34.9,8.7,86.9-33.4,98.8c-0.8,0.2-1.7,0.9-2.7,0.1
	c2.4-6.3,2.9-13,3.3-19.8c6.5,0,12.7,0,18.9,0c1.8,0,3.4-0.3,4.1-2.5c-47.5,0-94.8,0-142,0c-0.4,1-0.5,1.8,0.3,3c4.9,0,10,0,15,0
	c-4.2,5.1-9.8,7.6-16.2,6.3c-5.8-1.2-8.2-6.1-9.8-11.3c-0.1-0.5-0.3-0.9-0.4-1.4c-2.3-11.2-0.4-21.8,4.4-32
	c3.6-7.7,8.6-14.3,16.5-18.1c4.9-2.3,9.7-2.6,14.4,0.5c3.8,2.5,5.8,6.2,6.9,11.2c1.7-5.1,3.1-9.6,4.8-14.7
	c-5.7,1.6-10.4-0.9-15.4-1.6c-9-1.4-17.4,0.4-24.8,5.8c-10.8,8-15.9,19.2-17.9,32.2c-1.5,9.7,0.3,18.7,6.4,26.5
	c6.3,8.2,15,10.4,24.5,6.3C41.9,150.1,45.7,146.8,48.6,142.5z M140.8,130.7c-1-1.3-3-1.4-2.6-3.3c0.8-3.8,1.6-7.7,3-11.3
	c1.7-0.2,2.4,0.8,2.8,1.9c0.7,1.5,0.7,3.1,0.7,4.8c0,2.7,0,5.4,1.2,7.9c0.9,2,2.5,2.9,4.6,2.5c2.1-0.4,4.1-1.1,4.7-3.7
	c-1.3-0.1-1.9,1.2-3.2,0.9c-2.7-4.5,1.4-10.7-3.7-14.8c2.1-0.8,3.8-1.6,5.1-3.1c3.5-4.1,2.1-10.1-2.9-11.1
	c-5.2-1.1-10.4-0.7-15.7-0.3c-0.1,0-0.1,0.3-0.3,0.7c3.7,0.4,3,2.7,2.4,5.2c-1.3,5.1-2.5,10.2-3.8,15.3c-0.8,3-0.6,6.6-4.1,8.5
	C133,130.7,136.9,130.7,140.8,130.7z M127.1,130.8c0.8-2.9,1.5-5.7,2.5-9.2c-1.7,0.8-2,1.7-2.5,2.4c-2.7,3.7-6.3,5.4-10.8,5.3
	c-2.3,0-2.9-1-2.4-3c0.7-2.7,1.5-5.3,1.9-8.1c0.4-2.3,1.5-2.6,3.6-2.3c2.2,0.4,2.7,1.9,3,3.7c0.1,0.7-0.7,1.8,1,2.3
	c1-4.1,1.9-8.2,2.9-12.2c-5.5,4.7-5.5,4.7-8.8,4.3c-0.1-1.5,1.7-9.4,2.3-10.5c0.3-0.5,0.6-0.9,1.2-1.1c3.6-1.3,7.8,1.3,8.4,5.1
	c0.1,0.6-0.4,1.7,1.2,1.7c0.5-2.7,1.1-5.4,1.6-8.1c-7.5,0-14.6,0-21.7,0c3.5,1.1,3,3.5,2.2,5.9c-2.7,7.9-2.3,16.8-7.6,23.9
	C112,130.8,119.3,130.8,127.1,130.8z M72.4,116.6c1.9,0,3.4,0,4.9,0c2.5-0.1,4.7-0.9,6.6-2.5c2.6-2.2,3.3-5.1,2.7-8.3
	c-0.5-2.7-2.5-4.3-5.2-4.7c-4.8-0.7-9.7-0.5-14.5-0.1c-0.1,0-0.1,0.3-0.2,0.8c3.5,0.4,2.9,2.6,2.3,5c-1.1,4.2-1.9,8.6-3.2,12.8
	c-1.2,3.8-0.5,8.5-5.4,11.1c4.6,0,8.4,0,12.2,0c0.3-0.2,0.5-0.4,0.8-0.6c-4.5-0.3-3.4-2.9-2.9-5.1C71,122.2,71.7,119.5,72.4,116.6z
	 M95.6,130.7c0.1-0.2,0.2-0.4,0.4-0.7c-3.4-0.5-3.2-2.6-2.6-4.9c0.6-2.1,1.1-4.2,1.5-6.4c0.3-1.7,1.1-2.3,2.9-2.2
	c3.1,0.3,6.1-0.1,8.7-2.1c2.8-2.1,4-5.5,3.1-8.9c-0.7-2.7-2.8-4.4-6.5-4.7c-3.1-0.2-6.3-0.2-9.4-0.2c-1.3,0-2.8-0.4-4.1,0.5
	c3.2,2.1,3.3,2.1,2.3,6.1c-1.1,4.5-2.2,9.1-3.4,13.6c-0.9,3.4-0.5,7.5-4.4,9.7C87.9,130.7,91.7,130.7,95.6,130.7z M158.9,121.1
	c-0.9,3.8-1.4,7-1.3,10.6c1.9-2.5,3.9-1.1,5.8-0.6c7.4,2.3,12.9-2,12.6-9.6c-0.1-3-1.7-5.2-3.6-7.3c-1.5-1.6-3.2-3.1-4.5-4.8
	c-1.3-1.9-1.3-4.2,0-6.2c0.9-1.5,2.4-1.8,4-1.4c2.4,0.6,3.1,2.6,3.4,4.8c0.1,0.9-0.3,2.1,1.3,2.7c0.8-3.1,1.5-6,1.6-9.9
	c-2.1,2.5-3.9,1.7-5.8,1.1c-6.7-2-11.9,2.5-11.1,9.4c0.3,3,2.1,5,4,7.1c1.4,1.5,3,3,3.9,4.9c1,2.3,0.9,4.5-0.6,6.5
	c-1.2,1.6-2.9,1.8-4.7,1.3c-2.3-0.6-3.2-2.6-3.7-4.7C160,124,160.2,122.7,158.9,121.1z M41.8,130.8c0.8-2.8,2-5.6,1.9-8.8
	c-1.2,1.3-2,2.7-2.8,4.1c-1.4,2.2-3.3,3.2-6,3.2c-2.5,0-3.3-0.8-2.7-3.2c1.3-5.2,2.5-10.4,3.9-15.6c0.9-3.5,0.4-8,5.2-9.6
	c-4.2,0-8.4,0-12.5,0c4.6,1.3,2.5,4.4,1.9,6.9c-0.9,4-1.8,8-3,12c-1.1,3.8-0.6,8.2-5.4,10.9C29.3,130.8,35.4,130.8,41.8,130.8z
	 M56.8,130.7c0.2-0.3,0.4-0.5,0.6-0.8c-4-0.3-3.5-2.5-2.9-4.9c1.4-5.3,2.6-10.5,3.9-15.8c0.8-3,0.6-6.5,4.1-8.2c-4,0-8,0-12.2,0
	c1.1,1.6,3.8,1,3.1,3.7c-1.2,4.5-2,9.1-3.3,13.6c-1.3,4.2-0.6,9.3-5.6,12.4C49,130.7,52.9,130.7,56.8,130.7z M123.1,83.3
	c-0.7,3-1.9,5.9-1.6,8.9c0.3,0,0.5,0.1,0.8,0.1c0.5-2,1-4.1,1.6-6.3c1.6,2.1,1.6,4.8,4,6.7c1-3.3,1.8-6.2,1.6-9.3
	c-1.6,1.7-1.2,4-2.2,6c-1-0.9-1-2.3-1.6-3.3C125,85.2,125.2,83.6,123.1,83.3z M81.8,92.6c3,0,5.5-2.6,5.5-5.8c0-2.4-1.2-3.5-3.5-3.6
	c-2.9-0.1-5.5,2.6-5.5,5.8C78.3,91.2,79.4,92.5,81.8,92.6z M145.6,83.4c-0.6,3.2-1.2,6-1.9,9.2c2.5-0.5,4.7,0.4,6.9-0.8
	c-1.6-1.5-3.6-0.2-5.1-1.2c-0.2-4.1,4-1.1,5.2-3c-1.3-0.9-2.9,0.1-4.3-0.8c-0.1-4.3,4.4-0.6,5.5-3.1c-0.4-0.1-0.8-0.3-1.1-0.3
	C149.3,83.3,147.6,83.4,145.6,83.4z M139.2,89.1c-1,2-2.6,3.1-4.4,1.9c-1.9-1.3-1-3.3-0.1-4.9c1.3-2.2,3-2.1,5.9,0.1
	c0.4-2.4-1-2.9-2.8-3c-2.8-0.1-5.4,2.7-5.5,5.9c0,2.8,0.9,3.1,7.5,2.8c0.3-1.4,0.6-2.9,1-4.8c-1.6,0.6-3-0.4-4.1,0.9
	C137.4,89,138.3,88.3,139.2,89.1z M165.5,86.8c0.4-4.1,4.3-0.9,5.8-3.1c-1.9-0.7-3.7-0.3-5.4-0.4c-0.6,0-1.2,0.2-1.3,0.8
	c-0.4,2.7-1.6,5.2-1.4,8.3c2.2-0.5,4.4,0.6,6.8-1c-1.8-1-3.5-0.2-5-0.8c-0.5-4.4,3.9-1.1,4.9-3.3C168.6,86.7,167.1,87.5,165.5,86.8z
	 M97.4,86.2c0.2-2.3-0.8-3-2.4-3.1c-1.9-0.1-3.4,0.5-4,2.5c-0.5,1.9,0.9,2.3,2.2,2.6c0.4,0.1,0.7,0.2,1.1,0.3
	c0.6,0.2,1.1,0.4,1.1,1.1c0.1,0.8-0.5,1.2-1.1,1.5c-1.8,0.8-2.9-0.3-3.9-2.1c-1,1.7-0.5,2.8,0.8,3.2c2,0.6,4.3,0.6,5.3-1.6
	c1.9-4.4-3.1-2.8-4.3-4.6C93.8,83.8,94.6,83.8,97.4,86.2z M174,89.3c-0.9,1.7-0.7,2.3,0.5,3c1.8,1,4.7,0.2,5.5-1.6
	c1.9-4.4-3.2-2.7-4.3-4.8c1.6-2.8,3.3-1.1,5.2,0.3c0.2-2.3-0.9-2.9-2.5-3c-2.1-0.1-3.6,0.8-4,2.8c-0.4,1.8,1.2,1.9,2.3,2.3
	c0.4,0.1,0.7,0.2,1.1,0.3c0.7,0.2,1.2,0.6,1.2,1.4c-0.1,0.7-0.6,1.2-1.3,1.4C175.9,91.7,174.7,91,174,89.3z M116.3,90.2
	c0.5,0.3-0.3,2,1.5,2.1c-0.1-3.1-0.6-6-1.8-9.1c-2.4,2.7-4,5.8-5.5,9.1C112.2,91.2,113.1,88.7,116.3,90.2z M155.8,90.7
	c-0.2-2.5,1.3-4.8,0.6-7.3c-1.7,2.7-1.9,5.7-2.5,8.9c2.2,0.1,4.1,0.6,6.1-0.5C158.7,90.5,157.2,91.4,155.8,90.7z M71.5,83.4
	c-1.1,2.9-2,5.8-2.2,9.1c2.2-0.4,4.1,0.6,6-0.9c-1.6-1.2-3.1-0.2-4.2-1.1C70.9,88.2,72.3,85.9,71.5,83.4z"/>
<path class="st2" d="M43.7,142.5c-5.1,0-10.1,0-15,0c-0.9-1.1-0.7-2-0.3-3c47.3,0,94.5,0,142,0c-0.7,2.3-2.3,2.5-4.1,2.5
	c-6.2,0-12.4,0-18.9,0c-0.3,6.8-0.9,13.4-3.3,19.8c1,0.8,1.9,0.1,2.7-0.1c42.1-11.9,59.6-63.9,33.4-98.8c-1.2-1.5-2.1-1.5-3.8-1.1
	c-16.7,4.7-33.4,4.7-49.9-0.9c-3.6-1.2-6.8-3.1-9.5-5.7c-1.2-1.2-2.3-1.3-3.8-0.6c-1.9,1-4,1.8-6.3,2.9c3.3,2.5,6.5,4.6,9,7.5
	c1.3,1.5,3.1,2.8,3.9,4.6c2,4.4,5.3,5.1,9.9,5c14.6-0.3,29.3-0.1,44-0.1c1.8,0,3.9-0.4,4.9,2.4c-52.3,0-104.3,0-156.3,0
	c0.7-1.8,2-2.4,4-2.4c12.4,0.1,24.7,0,37.1,0c4.7,0,4.7,0,6.6-5c-14.3,0-28.5,0-43,0c1-2.3,2.2-3.1,4.5-3.1
	c11.9,0.1,23.8-0.1,35.6,0.1c3.9,0.1,6.5-0.8,7.6-4.9c-13.4,0-26.9,0-40.8,0c1-2.3,2.3-3.1,4.5-3.1c11.3,0.1,22.6-0.2,33.9,0.1
	c4.1,0.1,7-1,8.9-4.9c-13.4,0-26.8,0-40.6,0c1.1-2.4,2.5-3.1,4.7-3c12.4,0.1,24.7,0,37.1,0.1c1.7,0,3.1-0.5,4.4-1.6
	c39.2-32.2,98.1-11,107.8,38.7c7.1,36.7-17.5,72.2-54.6,78.2c-24.1,3.9-44.5-3.9-60.9-21.9c-0.9-0.9-1.4-2.2-3.1-2.2
	c-9,0.2-18,0.3-27,0.4C46.9,142.2,45.3,142.2,43.7,142.5z M176.8,59.1c-1.7-2.4-3.5-3.8-5-5.5c-2.9-3.3-6.6-4.5-10.9-4.8
	c-2.7-0.2-5.3-0.6-8-0.8c-11.6-0.8-22.9,0.9-34,5C137.2,63,156.4,64.3,176.8,59.1z M115.8,162.9c7.7,1.7,15.1,1.8,22.6,0.7
	c1-0.2,1.7-0.6,2.2-1.6c2.9-6.3,3.5-12.9,3.2-19.7c-8.7,0-17.1,0-25.7,0C118.8,149.4,118,156.1,115.8,162.9z M160.2,45.1
	c-13.7-7.5-27.9-9.9-43-7.2c-0.6,0.1-1.2,0.3-1.4,0.9c-1.3,3.1-2.7,6.2-1,9.6c0.6,1.2,1.2,1.9,2.8,1.3c10-3.5,20.4-4.7,31-4.5
	C152.3,45.1,156.1,45.1,160.2,45.1z M115.3,142.2c-4.1,0-7.9,0-11.7,0c-0.4,0-0.8,0.1-1,0.4c-3,3.6-6,7.2-9.1,10.9
	c6.2,4.1,12.4,7,19.4,8.7C115.5,155.7,115.3,149.2,115.3,142.2z M90,50.2c4.6,1.4,8.6,3,12.5,5c0.5,0.3,1,0.6,1.6,0.3
	c3-1.5,6.1-3,9.2-4.6c-2.6-3.8-2.1-7.6-1.1-11.8C103.9,41.4,96.8,45,90,50.2z M119.2,74.6c-4.1-6.2-9-10.8-14.7-14.5
	c-0.8-0.5-1.4-0.5-2.1,0c-2.3,1.5-4.6,3-7,4.6c3.3,2.7,5.9,5.5,7.6,9c0.5,1,1.2,1,2.1,1C109.6,74.5,114.1,74.6,119.2,74.6z
	 M89.5,65.4c-3-1.9-6.1-2.9-9.2-3.7c-0.7-0.2-1.5-0.4-2.1,0.3c-2.8,3.8-5.4,7.7-7.3,12.5c2.6,0,4.8,0,7,0c1,0,2.1,0.3,3-0.6
	C83.7,71.1,86.5,68.3,89.5,65.4z M100.1,57.6c-3.9-2.3-7.7-3.5-11.7-4.6c-0.7-0.2-1.5-0.3-2.2,0.3c-1.8,1.8-3.8,3.4-5.4,5.7
	c3.8,0.6,7.1,1.6,10.2,3.3c0.9,0.5,1.6,0.7,2.6-0.1C95.7,60.6,97.8,59.3,100.1,57.6z M99.3,142.3c-6.4,0-12.2,0-18.4,0
	c3,3.6,6.2,6.6,10,9.3C93.6,148.6,96.3,145.7,99.3,142.3z M84.5,74.4c5.1,0,9.7,0,14.7,0c-2-3-4.2-5.3-6.9-7.2
	C89.5,69.3,87,71.5,84.5,74.4z"/>
<path class="st3" d="M43.7,142.5c1.6-0.2,3.3-0.3,4.9,0c-2.9,4.3-6.7,7.6-11.5,9.7c-9.5,4.1-18.1,1.9-24.5-6.3
	C6.6,138,4.8,129,6.3,119.3c2-12.9,7.1-24.2,17.9-32.2c7.4-5.4,15.8-7.2,24.8-5.8c4.9,0.8,9.6,3.2,15.4,1.6
	c-1.7,5.1-3.2,9.6-4.8,14.7c-1-5-3-8.7-6.9-11.2c-4.7-3.1-9.6-2.8-14.4-0.5c-7.9,3.8-12.8,10.4-16.5,18.1c-4.8,10.2-6.8,20.8-4.4,32
	c0.1,0.5,0.2,0.9,0.4,1.4c1.6,5.2,4,10.1,9.8,11.3C33.9,150,39.5,147.6,43.7,142.5z"/>
<path class="st3" d="M140.8,130.7c-3.9,0-7.8,0-11.6,0c3.5-1.9,3.3-5.5,4.1-8.5c1.3-5.1,2.5-10.2,3.8-15.3c0.6-2.5,1.3-4.8-2.4-5.2
	c0.1-0.4,0.2-0.7,0.3-0.7c5.2-0.5,10.5-0.8,15.7,0.3c5.1,1.1,6.5,7.1,2.9,11.1c-1.3,1.5-3,2.2-5.1,3.1c5.1,4.1,1,10.3,3.7,14.8
	c1.3,0.3,1.9-0.9,3.2-0.9c-0.7,2.6-2.7,3.3-4.7,3.7c-2.1,0.4-3.7-0.5-4.6-2.5c-1.2-2.5-1.2-5.2-1.2-7.9c0-1.6,0-3.3-0.7-4.8
	c-0.5-1-1.1-2-2.8-1.9c-1.4,3.6-2.2,7.5-3,11.3C137.7,129.3,139.8,129.4,140.8,130.7z M141.4,114.1c5.5,0.7,9.6-4.7,7.5-9.6
	c-0.6-1.5-1.8-2.2-3.3-2.2c-1.5,0.1-1.7,1.2-1.9,2.4C142.9,107.9,142.2,111,141.4,114.1z"/>
<path class="st4" d="M127.1,130.8c-7.8,0-15,0-22.1,0c5.3-7.1,4.9-16,7.6-23.9c0.8-2.4,1.3-4.8-2.2-5.9c7.1,0,14.2,0,21.7,0
	c-0.5,2.7-1.1,5.4-1.6,8.1c-1.6-0.1-1.1-1.1-1.2-1.7c-0.6-3.8-4.8-6.4-8.4-5.1c-0.6,0.2-0.9,0.6-1.2,1.1c-0.6,1.1-2.3,9-2.3,10.5
	c3.4,0.4,3.4,0.4,8.8-4.3c-1,4.1-1.9,8.1-2.9,12.2c-1.7-0.5-0.9-1.6-1-2.3c-0.3-1.8-0.8-3.3-3-3.7c-2-0.4-3.2-0.1-3.6,2.3
	c-0.4,2.7-1.2,5.4-1.9,8.1c-0.5,2,0.1,3,2.4,3c4.5,0,8.1-1.7,10.8-5.3c0.5-0.7,0.7-1.6,2.5-2.4C128.6,125.1,127.8,128,127.1,130.8z"
	/>
<path class="st4" d="M72.4,116.6c-0.7,2.9-1.4,5.6-2,8.3c-0.5,2.2-1.6,4.8,2.9,5.1c-0.3,0.2-0.5,0.4-0.8,0.6c-3.8,0-7.6,0-12.2,0
	c5-2.6,4.3-7.3,5.4-11.1c1.3-4.2,2.1-8.5,3.2-12.8c0.6-2.4,1.2-4.6-2.3-5c0.1-0.4,0.1-0.7,0.2-0.8c4.8-0.4,9.7-0.6,14.5,0.1
	c2.7,0.4,4.6,2,5.2,4.7c0.6,3.2,0,6.1-2.7,8.3c-1.9,1.6-4.1,2.4-6.6,2.5C75.8,116.6,74.3,116.6,72.4,116.6z M72.9,114.7
	c2.8,0.6,5,0.3,6.2-2.1c1.5-2.8,2.4-5.8,0.8-9c-0.5-1-1.5-1.4-2.7-1.3c-1.3,0.1-1.7,1-1.9,2.1C74.6,107.8,73.8,111.1,72.9,114.7z"/>
<path class="st4" d="M95.6,130.7c-3.9,0-7.7,0-11.6,0c3.9-2.2,3.5-6.3,4.4-9.7c1.2-4.5,2.3-9.1,3.4-13.6c1-4,1-4-2.3-6.1
	c1.4-0.9,2.8-0.5,4.1-0.5c3.1,0,6.3-0.1,9.4,0.2c3.7,0.3,5.8,2,6.5,4.7c0.9,3.4-0.3,6.9-3.1,8.9c-2.6,1.9-5.6,2.3-8.7,2.1
	c-1.8-0.2-2.6,0.5-2.9,2.2c-0.4,2.2-0.9,4.3-1.5,6.4c-0.6,2.3-0.8,4.4,2.6,4.9C95.9,130.2,95.7,130.5,95.6,130.7z M96,114.8
	c2.6,0.5,5,0.3,6.3-2.2c1.4-2.8,2.5-5.8,0.8-9c-0.6-1.1-1.7-1.4-3-1.3c-1.2,0.2-1.4,1.2-1.7,2.1C97.6,107.8,96.8,111.2,96,114.8z"/>
<path class="st5" d="M158.9,121.1c1.3,1.6,1.1,2.9,1.4,4c0.6,2.1,1.4,4.1,3.7,4.7c1.7,0.4,3.5,0.3,4.7-1.3c1.4-2,1.6-4.3,0.6-6.5
	c-0.9-1.9-2.5-3.4-3.9-4.9c-1.9-2-3.7-4.1-4-7.1c-0.7-7,4.4-11.4,11.1-9.4c1.9,0.5,3.6,1.4,5.8-1.1c-0.1,3.9-0.8,6.8-1.6,9.9
	c-1.6-0.6-1.2-1.8-1.3-2.7c-0.3-2.2-1-4.1-3.4-4.8c-1.6-0.4-3.1-0.1-4,1.4c-1.2,2-1.3,4.3,0,6.2c1.2,1.8,2.9,3.2,4.5,4.8
	c1.9,2.1,3.5,4.3,3.6,7.3c0.4,7.6-5.2,11.9-12.6,9.6c-1.9-0.6-3.9-1.9-5.8,0.6C157.5,128.2,158.1,124.9,158.9,121.1z"/>
<path class="st5" d="M41.8,130.8c-6.4,0-12.6,0-19.6,0c4.8-2.7,4.4-7.2,5.4-10.9c1.1-4,2.1-8,3-12c0.5-2.5,2.7-5.6-1.9-6.9
	c4.2,0,8.4,0,12.5,0c-4.8,1.6-4.2,6-5.2,9.6c-1.4,5.2-2.5,10.4-3.9,15.6c-0.6,2.5,0.2,3.3,2.7,3.2c2.6-0.1,4.6-1,6-3.2
	c0.9-1.4,1.7-2.8,2.8-4.1C43.8,125.2,42.7,128,41.8,130.8z"/>
<path class="st4" d="M56.8,130.7c-3.9,0-7.8,0-12.4,0c5.1-3.1,4.4-8.2,5.6-12.4c1.3-4.5,2.1-9.1,3.3-13.6c0.7-2.7-2.1-2.1-3.1-3.7
	c4.3,0,8.3,0,12.2,0c-3.5,1.8-3.3,5.2-4.1,8.2c-1.3,5.3-2.5,10.6-3.9,15.8c-0.6,2.4-1.1,4.6,2.9,4.9C57.2,130.2,57,130.5,56.8,130.7
	z"/>
<path class="st6" d="M123.1,83.3c2.1,0.4,2,1.9,2.5,2.9c0.6,1,0.6,2.4,1.6,3.3c1-1.9,0.6-4.3,2.2-6c0.2,3.1-0.6,6-1.6,9.3
	c-2.5-1.9-2.4-4.7-4-6.7c-0.6,2.2-1.1,4.3-1.6,6.3c-0.3,0-0.5-0.1-0.8-0.1C121.2,89.2,122.4,86.3,123.1,83.3z"/>
<path class="st7" d="M81.8,92.6c-2.4,0-3.5-1.3-3.5-3.6c0-3.2,2.6-5.9,5.5-5.8c2.3,0.1,3.5,1.3,3.5,3.6C87.3,90,84.8,92.6,81.8,92.6
	z M79.8,88.7c-0.1,1.6,0.6,2.6,2.2,2.6c2,0.1,4-2.2,3.9-4.5c-0.1-1.5-0.8-2.5-2.5-2.5C81.4,84.4,79.8,86.4,79.8,88.7z"/>
<path class="st8" d="M145.6,83.4c2,0,3.7,0,5.4,0c0.3,0,0.7,0.2,1.1,0.3c-1.1,2.5-5.6-1.3-5.5,3.1c1.4,0.9,3-0.1,4.3,0.8
	c-1.2,2-5.4-1.1-5.2,3c1.5,1,3.5-0.4,5.1,1.2c-2.3,1.2-4.4,0.3-6.9,0.8C144.4,89.4,144.9,86.6,145.6,83.4z"/>
<path class="st9" d="M139.2,89.1c-0.9-0.7-1.8-0.1-2.4-1c1.1-1.4,2.6-0.3,4.1-0.9c-0.4,1.9-0.7,3.4-1,4.8c-6.6,0.3-7.5-0.1-7.5-2.8
	c0-3.2,2.6-6,5.5-5.9c1.8,0.1,3.2,0.6,2.8,3c-2.9-2.2-4.7-2.2-5.9-0.1c-0.9,1.6-1.8,3.6,0.1,4.9C136.6,92.1,138.2,91.1,139.2,89.1z"
	/>
<path class="st10" d="M165.5,86.8c1.6,0.7,3.1-0.1,4.4,0.7c-1,2.2-5.4-1.2-4.9,3.3c1.5,0.6,3.2-0.2,5,0.8c-2.4,1.6-4.5,0.5-6.8,1
	c-0.2-3.1,0.9-5.7,1.4-8.3c0.1-0.6,0.7-0.9,1.3-0.8c1.7,0.1,3.5-0.3,5.4,0.4C169.8,85.9,165.9,82.8,165.5,86.8z"/>
<path class="st11" d="M97.4,86.2c-2.8-2.4-3.6-2.4-5.1-0.1c1.1,1.8,6.2,0.3,4.3,4.6c-1,2.2-3.3,2.2-5.3,1.6
	c-1.3-0.4-1.8-1.5-0.8-3.2c0.9,1.8,2,2.9,3.9,2.1c0.6-0.3,1.2-0.7,1.1-1.5c-0.1-0.7-0.6-0.9-1.1-1.1c-0.4-0.1-0.7-0.2-1.1-0.3
	c-1.3-0.4-2.7-0.8-2.2-2.6c0.6-2,2.1-2.6,4-2.5C96.6,83.2,97.6,83.9,97.4,86.2z"/>
<path class="st12" d="M174,89.3c0.7,1.8,1.9,2.5,3.6,2c0.7-0.2,1.2-0.6,1.3-1.4c0.1-0.8-0.5-1.2-1.2-1.4c-0.4-0.1-0.8-0.1-1.1-0.3
	c-1.1-0.4-2.7-0.5-2.3-2.3c0.5-2.1,2-2.9,4-2.8c1.6,0.1,2.7,0.7,2.5,3c-1.9-1.4-3.6-3-5.2-0.3c1.1,2.1,6.2,0.3,4.3,4.8
	c-0.8,1.8-3.7,2.5-5.5,1.6C173.3,91.6,173.1,91,174,89.3z"/>
<path class="st13" d="M116.3,90.2c-3.2-1.4-4.1,1-5.8,2.1c1.4-3.4,3.1-6.4,5.5-9.1c1.2,3.1,1.7,6,1.8,9.1
	C116,92.2,116.8,90.5,116.3,90.2z M115.4,85.5c-0.7,1-1.4,1.7-1.5,2.8c0.7,0.2,1.3,0.3,2-0.1C116.1,87.4,116,86.6,115.4,85.5z"/>
<path class="st14" d="M155.8,90.7c1.4,0.7,2.9-0.2,4.2,1.1c-2,1.2-3.9,0.6-6.1,0.5c0.6-3.2,0.8-6.3,2.5-8.9
	C157.1,85.9,155.6,88.1,155.8,90.7z"/>
<path class="st15" d="M71.5,83.4c0.9,2.5-0.5,4.8-0.5,7.2c1.2,0.9,2.7-0.1,4.2,1.1c-1.9,1.4-3.8,0.5-6,0.9
	C69.4,89.2,70.3,86.3,71.5,83.4z"/>
<path class="st16" d="M176.8,59.1c-20.4,5.2-39.6,3.9-57.9-6c11.1-4.1,22.4-5.8,34-5c2.7,0.2,5.3,0.7,8,0.8c4.3,0.2,8,1.4,10.9,4.8
	C173.3,55.3,175.2,56.7,176.8,59.1z"/>
<path class="st16" d="M115.8,162.9c2.2-6.8,3-13.5,2.2-20.6c8.6,0,17,0,25.7,0c0.3,6.8-0.3,13.4-3.2,19.7c-0.4,1-1.1,1.4-2.2,1.6
	C130.9,164.7,123.6,164.6,115.8,162.9z"/>
<path class="st17" d="M160.2,45.1c-4.1,0-7.9,0.1-11.7,0c-10.6-0.2-20.9,1-31,4.5c-1.7,0.6-2.2,0-2.8-1.3c-1.7-3.4-0.3-6.5,1-9.6
	c0.2-0.6,0.8-0.8,1.4-0.9C132.3,35.2,146.5,37.6,160.2,45.1z"/>
<path class="st18" d="M115.3,142.2c0,7,0.2,13.6-2.4,20c-7-1.7-13.2-4.6-19.4-8.7c3.1-3.7,6.1-7.3,9.1-10.9c0.2-0.2,0.7-0.4,1-0.4
	C107.3,142.1,111.1,142.2,115.3,142.2z"/>
<path class="st17" d="M90,50.2c6.8-5.3,13.9-8.9,22.2-11.1c-0.9,4.2-1.5,8.1,1.1,11.8c-3.2,1.6-6.2,3.1-9.2,4.6
	c-0.6,0.3-1.1,0-1.6-0.3C98.6,53.2,94.6,51.6,90,50.2z"/>
<path class="st19" d="M119.2,74.6c-5.1,0-9.6,0-14.1,0c-0.9,0-1.7,0-2.1-1c-1.7-3.5-4.3-6.3-7.6-9c2.5-1.6,4.7-3.1,7-4.6
	c0.7-0.5,1.4-0.5,2.1,0C110.2,63.8,115.1,68.4,119.2,74.6z"/>
<path class="st20" d="M89.5,65.4c-2.9,2.9-5.8,5.7-8.6,8.5c-0.9,0.9-2,0.6-3,0.6c-2.2,0-4.4,0-7,0c1.8-4.8,4.5-8.7,7.3-12.5
	c0.6-0.8,1.4-0.5,2.1-0.3C83.4,62.5,86.5,63.5,89.5,65.4z"/>
<path class="st21" d="M100.1,57.6c-2.3,1.7-4.4,3-6.4,4.5c-0.9,0.7-1.7,0.5-2.6,0.1c-3.1-1.6-6.5-2.7-10.2-3.3
	c1.6-2.3,3.5-3.9,5.4-5.7c0.6-0.6,1.4-0.5,2.2-0.3C92.4,54.1,96.3,55.3,100.1,57.6z"/>
<path class="st22" d="M99.3,142.3c-3,3.4-5.7,6.3-8.4,9.3c-3.7-2.8-6.9-5.7-10-9.3C87.1,142.3,92.9,142.3,99.3,142.3z"/>
<path class="st23" d="M84.5,74.4c2.5-2.9,5-5.1,7.7-7.2c2.7,1.9,4.9,4.2,6.9,7.2C94.2,74.4,89.6,74.4,84.5,74.4z"/>
<path class="st24" d="M141.4,114.1c0.8-3.1,1.5-6.2,2.2-9.4c0.3-1.2,0.4-2.3,1.9-2.4c1.6-0.1,2.7,0.6,3.3,2.2
	C151,109.4,146.9,114.8,141.4,114.1z"/>
<path class="st25" d="M72.9,114.7c0.8-3.6,1.6-6.9,2.4-10.3c0.3-1.1,0.6-2,1.9-2.1c1.1-0.1,2.2,0.3,2.7,1.3c1.6,3.1,0.7,6.2-0.8,9
	C77.9,115,75.7,115.3,72.9,114.7z"/>
<path class="st26" d="M96,114.8c0.8-3.6,1.6-7,2.4-10.4c0.2-0.9,0.4-1.9,1.7-2.1c1.3-0.2,2.4,0.2,3,1.3c1.7,3.1,0.6,6.1-0.8,9
	C101,115.1,98.6,115.2,96,114.8z"/>
<path class="st27" d="M79.8,88.7c0-2.3,1.6-4.3,3.6-4.3c1.7,0,2.4,1,2.5,2.5c0.1,2.2-1.9,4.5-3.9,4.5C80.4,91.3,79.8,90.3,79.8,88.7
	z"/>
<path class="st28" d="M115.4,85.5c0.6,1.1,0.7,1.9,0.5,2.7c-0.6,0.4-1.3,0.3-2,0.1C114,87.3,114.7,86.5,115.4,85.5z"/>
</svg>
