<?xml version="1.0" encoding="utf-8"?>
<!-- Generator: Adobe Illustrator 21.0.0, SVG Export Plug-In . SVG Version: 6.00 Build 0)  -->
<svg version="1.1" id="Layer_5" xmlns="http://www.w3.org/2000/svg" xmlns:xlink="http://www.w3.org/1999/xlink" x="0px" y="0px"
	 viewBox="0 0 200 200" style="enable-background:new 0 0 200 200;" xml:space="preserve">
<style type="text/css">
	.st0{fill:#24385C;}
	.st1{fill:#6289B9;}
	.st2{fill:#BBD0E3;}
	.st3{fill:#F5B42A;}
</style>
<path class="st0" d="M44.1,72.6c-0.9,1-1.6,1.8-2.4,2.7c-1.5-2.2-2.4-4.5-3.2-6.9c-2.3-7.7-1.7-15.4,0.9-22.9
	c1.8-5.2,4.4-10,7.5-14.5c0.3-0.4,0.5-0.7,0.2-1.3C40.8,19.3,47,8.4,56.6,5.1c6.8-2.3,13.6-0.1,18.1,5.8c0.3,0.5,0.6,0.7,1.3,0.6
	c8.2-1.3,16.1-0.2,23.7,2.8c0.7,0.3,1.2,0.2,1.8,0c7.7-3,15.6-4.1,23.8-2.8c0.5,0.1,0.9,0.2,1.2-0.4c4.4-6.8,12.3-8.6,19.6-5.5
	c5.5,2.3,9.3,6.2,10.5,12.2c0.9,4.2-0.2,8.1-2.2,11.8c-0.4,0.7-0.3,1.2,0.1,1.8c4,5.7,7.1,11.9,8.4,18.8c1.6,8.5,0.6,16.5-3.9,24
	c-0.2,0.3-0.4,0.6-0.7,1.1c-0.3-0.6-0.6-1-0.9-1.5c-0.3-0.5-0.6-1-0.9-1.7c-2.5,13.5-9.2,23.9-21.7,30.3c0-0.9,0-1.6,0-2.4
	c0-0.7,0-1.5,0-2.4c-1.5,1.8-2.9,3.3-4.4,4.7c-3.9,3.6-8.4,6.2-13.1,8.6c-4,2-8,4-11.5,6.7c-1.7,1.3-3.3,2.8-4.8,4.5
	c-1.2-1.3-2.5-2.6-3.8-3.7c-3.3-2.9-7-5.1-10.8-7.1c-7.7-4.1-12.3-6.7-18.4-12.9c-0.4,0.5-0.3,1.2-0.4,1.8c-0.2,0.6-0.2,1.1-0.4,1.9
	c-5.6-3.4-10.3-7.5-14.3-12.5C48.9,84.5,45.9,79,44.1,72.6z M113.6,96c-0.2,0-0.2,0.1-0.1,0.3C113.6,96.2,113.6,96.1,113.6,96
	c0.2-0.1,0.2-0.2,0.2-0.4c0.1-0.2,0.3-0.3,0.4-0.5c3.8-6.8,5.4-14.1,5.4-21.8c0-6.4-1.3-12.7-3.4-18.7c-0.1-0.3-0.3-0.5-0.1-0.8
	c4.8-0.7,8.3-4.4,8.2-8.7c-1.3,0.1-2.5,0.4-3.6,1c-2.7,0.9-5,2.5-7,4.4c-1.5,1.2-3,2.4-4.9,3.5c1.2,0,2.1,0,3,0
	c0.5,0,0.9,0.1,1.1,0.6c0.4,0.9,0.8,1.7,1.1,2.6c3.6,9.7,3.9,19.5,2,29.6c-0.6,2.9-1.5,5.8-2.3,8.6C113.6,95.7,113.6,95.9,113.6,96z
	 M110,85.3c0.7-0.6,1.2-1.4,1.6-2.2c1.2-2.4,0.5-4.3-2-5.3c-2.1-0.9-5.8-1.3-8.1-1.1c0.8,0.1,1.7,0.2,2.6,0.3c1.7,0.2,3.5,0.6,5,1.6
	c1.7,1.1,2.2,2.6,1.7,4.5c-0.2,0.7-0.6,1.5-0.8,2.2c-0.1,0.1-0.2,0.2,0,0.3C109.9,85.5,110,85.4,110,85.3z M81.4,46.1
	c-1.1-0.6-2.2-1.1-3.7-0.9c0.5,2.6,1.4,4.9,3.2,6.7c1.8,1.8,4.1,2.2,6.6,1.7c-5.2,14.7-4,28.9,1.6,43.2c3.8-1.3,7.7-1.7,11.6-1.7
	c0-1.7,0-3.2,0-4.7c0-0.4-0.2-0.7-0.4-1c-1.2-1.8-2.6-3.5-4.2-5c-0.8-0.8-1.3-0.7-2,0.2c-0.6,0.7-0.9,1.5-1.3,2.3
	c-1-1.3-1.8-2.5-2.3-4c-0.7-2.3,0-4,2.2-5c1.4-0.6,2.8-0.8,4.3-1c1.2-0.1,2.4-0.1,3.5-0.1c0-7,0-13.9,0-20.8c-3.4,0.3-6.2-1-8.7-2.8
	c-1.2-0.8-2.3-1.7-3.4-2.6C86.2,48.8,84,47.2,81.4,46.1z M136.7,41.9c0.1,0.1,0.2,0.2,0.4,0c-0.1,0-0.2-0.1-0.3-0.1
	c-5.2-3.1-10.7-4.6-16.7-2.7c-1.5,0.5-2.9,0.9-4.5,1.4c0.4-2.3,1-4.4,1.8-6.4c1.2-3,3.2-5.2,6.1-6.6c0.7-0.3,1.3-0.7,2-1.1
	c2.6-1.4,4.6-3.3,5.7-6.2c2-5.2,7.8-8.6,13.4-8c0.4,0,0.8,0,1.2,0.1c0.4,0,0.8,0.1,1.1,0.1c-3.3-1.8-6.8-2.5-10.4-1.3
	c-3.3,1.2-5.6,3.6-7.5,6.5c-0.4,0.6-0.6,0.8-1.4,0.5c-3-1.1-6.1-1.5-9.2-1.5c-5.7-0.1-11.2,1.2-16.4,3.3c-0.5,0.2-1,0.5-1.7,0.3
	c-3.3-1-6.6-1.8-10-2.4c-5.4-0.8-10.9-1.2-16.3,0c-0.5,0.1-0.8,0-1-0.4c-1.1-1.7-2.4-3.2-4-4.5c-2.6-2.2-5.4-3.5-8.9-3
	c-3.8,0.5-9,3.6-9.1,9.8c-0.1,3.1,0.5,6,1.9,8.7c0.7,1.4,0.6,2.2-0.4,3.5c-5.5,6.6-9,14-9.9,22.6c-0.4,4.1-0.1,8.2,1.2,12.4
	c1.1-1.3,2.1-2.6,3.2-3.9c0.1,0.3,0.1,0.5,0.2,0.6c1.4,5.9,3.4,11.5,6.3,16.9c1.8,3.3,3.9,6.4,6.8,9c1,0.9,2,1.8,3.3,2.4
	c0.2-1.8,0.5-3.4,0.7-5.3c0.4,0.4,0.6,0.7,0.9,0.9c3.1,3.5,6.4,6.7,10,9.8c5,4.2,10.3,7.9,16.2,10.6c3.4,1.6,6.7,3.2,9.3,5.9
	c0-3.3,0-6.6,0-10c-2.3,0-4.6,0.1-6.8-0.4c-2.5-0.6-4.8-1.3-6.2-3.8c-1.8-3.2-3.3-6.6-4.6-10c-2.1-5.6-3.6-11.3-4.2-17.2
	c-0.4-3.9-0.4-7.7,0.1-11.6c0.3-2.2,0.7-4.4,1.2-6.7c-1.5-0.4-2.6-1.2-3.5-2.3c-1.7-1.9-2.6-4.2-2.9-6.6c-0.2-1.2-0.6-1.7-1.7-2.1
	c-2.4-0.7-4.8-1.2-7.2-1.1c1.7-0.5,3.4-0.8,5.1-1c7.4-0.7,14,1,19.5,6.2c1.4,1.3,2.7,2.6,4.4,3.6c1.6,1,3.2,1,4.8,0.1
	c0.3-0.2,0.5-0.4,0.5-0.8c0.3-4.6,0.6-9.3,1-13.9c0.2-2.9,0.4-5.8,0.7-8.8c0.4,3.5,0.6,7.1,0.9,10.6c0.3,4,0.5,8.1,0.8,12.1
	c0,0.4,0.2,0.6,0.5,0.8c1.7,0.9,3.3,0.9,4.9-0.1c1.6-1,2.9-2.3,4.3-3.6c4.5-4.3,9.9-6.3,16.1-6.4C131.1,41,133.9,41.4,136.7,41.9z
	 M101,101.3c1.5,0,3.4,0,5.2-0.2c1.5-0.2,3.1-0.3,4.5-1.2c0.4-0.2,0.8-0.6,0.7-1.1c-0.1-0.5-0.6-0.4-1-0.5c-0.3-0.1-0.5-0.1-0.8-0.2
	c-4.8-0.6-9.7-0.7-14.5-0.3c-1.5,0.1-3,0.2-4.4,0.6c-0.8,0.2-0.9,0.7-0.3,1.3c0.5,0.5,1.2,0.7,1.8,0.9
	C95,101.3,97.9,101.3,101,101.3z M109.4,85.9L109.4,85.9L109.4,85.9L109.4,85.9z"/>
<path class="st0" d="M28.4,159.2c-1.1,0-2.1,0-3.2,0c-0.2-0.4-0.1-0.7-0.1-1.1c0-10.4,0-20.8,0-31.2c0-1.5-0.2-2.8-0.8-4.2
	c-0.4-1-0.7-2-1.1-3c0.3-0.3,0.7-0.2,1-0.2c7.1,0,14.1,0,21.2,0c1.2,0,2.4,0.1,3.6,0.5c3.1,1.1,5,3.5,5,6.8c0.1,10.7,0,21.4,0,32.1
	c0,0.1,0,0.1-0.1,0.3c-0.9,0.1-1.9,0.1-2.9,0c0-9.1,0-18.2,0-27.4c0-1.3,0-2.7-0.1-4c-0.3-2.9-2.5-5-5.5-5c-5.3,0-10.7,0-16,0
	c-0.3,0-0.6-0.1-1,0.2C28.4,135,28.4,147.1,28.4,159.2z"/>
<path class="st0" d="M162.9,146.3c1.1,0,2.2,0,3.4,0c0,1.2,0,2.5,0,3.7c0,0.7,0.2,1.3,1,1.5c0.9,0.2,1.7-0.3,1.8-1.3
	c0.1-1.8,0.1-3.5,0-5.3c-0.1-1.3-0.7-1.8-2.1-1.8c-2-0.1-3.9-0.5-5.6-1.5c-2.1-1.3-3.6-3.2-3.7-5.7c-0.2-3.1-0.2-6.2,0-9.3
	c0.2-3,1.9-5.1,4.7-6.2c3.4-1.3,6.9-1.4,10.3-0.1c3.1,1.2,4.8,3.6,4.9,7c0,1.7,0,3.4,0,5.2c-1.2,0-2.4,0.1-3.6-0.1
	c0-1.1,0.1-2.3,0-3.4c-0.1-1.6-0.6-3.1-1.8-4.3c-2-1.8-4.4-2-6.8-1.4c-2.5,0.6-3.8,2.6-3.9,5.1c0,2.1,0.1,4.1,0,6.2
	c-0.1,2.6,1.4,4.3,3.7,5c1.4,0.5,2.8,0.4,4.2,0.6c2.2,0.3,3.3,1.3,3.3,3.5c0,2.3,0,4.6,0,6.9c0,1.7-0.8,2.9-2.4,3.6
	c-1.1,0.5-2.3,0.7-3.5,0.6c-2.4-0.3-3.9-1.2-3.9-4.3C162.9,149.2,162.9,147.8,162.9,146.3z"/>
<path class="st0" d="M172.6,132.4c-1.2,0.1-2.3,0.1-3.6,0.1c0-1.1,0-2,0-3c0-1.1-0.4-1.6-1.3-1.6c-0.9,0-1.4,0.5-1.4,1.6
	c0,1.3,0,2.6,0,3.9c0,1.4,0.6,2.1,2.1,2.1c1.3,0.1,2.7,0,4,0.4c3,0.7,5,2.8,5.3,5.9c0.3,3.4,0.3,6.9,0,10.3
	c-0.3,3.8-2.6,6.3-6.3,7.1c-2.8,0.6-5.6,0.7-8.3-0.3c-3.1-1.1-4.9-3.3-5.2-6.6c-0.1-2,0-4,0-6c1.2,0,2.4,0,3.6,0c0,1.3-0.1,2.7,0,4
	c0.1,2.1,0.5,4,2.5,5.2c1.6,0.9,3.3,0.9,4.9,0.7c3.2-0.3,5.3-2.6,5.3-5.6c0-2.4,0-4.9,0-7.3c0-2.4-1.4-4.1-3.8-4.5
	c-1.1-0.2-2.3-0.3-3.5-0.4c-2.5-0.2-3.9-1.7-3.9-4.2c0-1.9,0-3.8,0-5.7c0-2.2,1.2-3.7,3.3-4c0.6-0.1,1.3,0,2,0
	c2.4,0,4.2,1.7,4.3,4.1C172.6,130,172.6,131.2,172.6,132.4z"/>
<path class="st0" d="M49.5,159.2c-1.1,0-2.3,0-3.4,0c-0.2-0.3-0.1-0.7-0.1-1c0-9.5,0-19,0-28.4c0-1.8-0.5-2.2-2.3-1.9
	c0,10.4,0,20.9,0,31.4c-1.1,0-2.1,0-3.2,0c0-11.6,0-23.2,0-34.8c2,0,4,0,5.9,0c0.4,0,0.7,0.2,1.1,0.4c1.5,0.9,2,2.4,2,4.1
	C49.5,139,49.5,149.1,49.5,159.2z"/>
<path class="st0" d="M38.9,159.2c-1,0-2.1,0-3.2,0c0-10.5,0-20.9,0-31.4c-0.9,0-1.7,0-2.6,0c0,10.5,0,20.9,0,31.5
	c-1.1,0-2.2,0-3.2,0c0-11.6,0-23.3,0-34.9c3.1,0,6.1,0,9.1,0C38.9,136,38.9,147.6,38.9,159.2z"/>
<path class="st0" d="M80.4,159.4c-0.9,0-1.9,0-2.8,0c-0.2-0.3-0.1-0.7-0.1-1c0-7.7,0-15.4,0-23.1c0-1.5-0.1-3-0.8-4.4
	c-0.4-0.8-0.6-1.7-1-2.5c0.3-0.2,0.5-0.1,0.8-0.1c6.5,0,13,0,19.5,0c0.7,0,1.5,0,2.2,0.2c3.3,0.8,5.4,3.1,5.4,6.5c0.1,8,0,16,0.1,24
	c0,0.1,0,0.2-0.1,0.4c-0.9,0.1-1.8,0.1-2.6,0c0-7.4,0-14.9,0-22.3c0-3.8-1.7-6.2-6.1-6.1c-4.4,0.1-8.9,0-13.3,0
	c-0.3,0-0.7-0.1-1.1,0.2C80.4,140.6,80.4,150,80.4,159.4z"/>
<path class="st0" d="M109.1,159.5c-0.9,0-1.7,0-2.7,0c0-0.4,0-0.8,0-1.1c0-7.8,0-15.5,0-23.3c0-1.5-0.2-2.9-0.8-4.3
	c-0.4-0.8-0.6-1.6-0.9-2.4c0.3-0.3,0.5-0.2,0.8-0.2c3.7,0,7.4,0,11.1,0c2.1,0,4,0.5,5.6,1.9c1.3,1.1,2.1,2.6,2.1,4.3
	c0,2.2,0.2,4.5-0.2,6.7c-0.6,3.2-3,6-6.9,5.9c-1.1,0-2.3,0-3.5,0c0,4.2,0,8.3,0,12.4c-1.1,0-2.1,0-3.1,0c0-4.9,0-9.8,0-14.8
	c1.9,0,3.8,0,5.7,0c2.9,0,4.9-1.6,5.4-4.5c0.3-1.5,0.2-3.1,0-4.7c-0.4-2.9-2.5-4.6-5.4-4.5c-1.5,0-3.1,0-4.6,0
	c-0.9,0-1.7-0.1-2.7,0.1c0,0.4,0,0.8,0,1.2C109.1,141.4,109.1,150.5,109.1,159.5z"/>
<path class="st0" d="M74.3,156.1c0,1,0,2.1,0,3.2c-5.7,0-11.4,0-17,0c-0.2-0.3-0.1-0.7-0.1-1.1c0-7.8,0-15.6,0-23.3
	c0-1.6-0.2-3.1-0.8-4.5c-0.3-0.7-0.5-1.4-0.8-2.2c6.3,0,12.5,0,18.8,0c0,1.1,0,2.2,0,3.3c-4.6,0-9.2,0-13.8,0c0,8.3,0,16.5,0,24.6
	C65.2,156.1,69.7,156.1,74.3,156.1z"/>
<path class="st1" d="M38.9,159.2c0-11.6,0-23.2,0-34.9c-3,0-5.9,0-9.1,0c0,11.6,0,23.3,0,34.9c-0.5,0-1,0-1.5,0
	c0-12.1,0-24.2,0-36.2c0.4-0.2,0.7-0.2,1-0.2c5.3,0,10.7,0,16,0c2.9,0,5.2,2.1,5.5,5c0.1,1.3,0.1,2.7,0.1,4c0,9.1,0,18.2,0,27.4
	c-0.5,0-1,0-1.5,0c0-10.1,0-20.2,0-30.3c0-1.7-0.5-3.1-2-4.1c-0.3-0.2-0.7-0.4-1.1-0.4c-1.9,0-3.8,0-5.9,0c0,11.6,0,23.2,0,34.8
	C40,159.2,39.5,159.2,38.9,159.2z"/>
<path class="st0" d="M90,159.4c-0.9,0-1.9,0-2.9,0c0-7.9,0-15.8,0-23.7c-0.8,0-1.6,0-2.4,0c0,7.9,0,15.8,0,23.8c-1,0.1-2,0.1-2.9,0
	c0-8.9,0-17.8,0-26.7c2.8,0,5.5,0,8.2,0C90,141.6,90,150.5,90,159.4z"/>
<path class="st0" d="M99.4,159.4c-1,0-1.9,0-2.9,0c-0.2-0.4-0.1-0.7-0.1-1.1c0-6.9,0-13.9,0-20.8c0-1.6-0.4-2-2-1.9
	c0,7.9,0,15.8,0,23.8c-1,0-1.9,0-2.8,0c0-8.9,0-17.8,0-26.8c1.7,0,3.3-0.1,4.9,0c1.7,0.1,2.9,1.8,2.9,3.9
	C99.4,144.2,99.4,151.8,99.4,159.4z"/>
<path class="st1" d="M62.6,191.2c-1.3-0.5-2.5-0.9-3.7-1.3c0.1-1,0.6-1.8,0.9-2.7c0.2-0.7,0.5-1.5,0.8-2.2c0.6-1.5,0.5-1.7-1.2-2.1
	c-0.8,2-1.5,4.1-2.3,6.3c-1.3-0.5-2.5-0.9-3.8-1.4c0.2-1.1,0.7-2.1,1-3.1c1.2-3.3,2.4-6.7,3.6-10c0.4-1.1,0.1-2.2,0.3-3.4
	c2.5,0.9,5,1.6,7.4,2.8c1.9,1,2.4,2.8,1.7,4.8c-0.2,0.5-0.4,1.1-0.6,1.6c-0.4,1.1-0.9,2-2,2.6c0.6,1,0.3,2-0.1,3
	C63.8,187.8,63.2,189.4,62.6,191.2z M60.6,179.2c0.7,0.3,1.2,0.8,1.9,0.3c0.6-0.5,0.9-1.2,0.7-1.9c-0.2-0.8-0.9-0.9-1.7-1
	C61.2,177.5,60.9,178.3,60.6,179.2z"/>
<path class="st1" d="M99.4,159.4c0-7.6,0-15.2,0-22.9c0-2.1-1.2-3.8-2.9-3.9c-1.6-0.1-3.2,0-4.9,0c0,9,0,17.9,0,26.8
	c-0.5,0-1,0-1.5,0c0-8.9,0-17.8,0-26.7c-2.8,0-5.4,0-8.2,0c0,8.9,0,17.8,0,26.7c-0.5,0-0.9,0-1.4,0c0-9.4,0-18.8,0-28.2
	c0.4-0.2,0.8-0.2,1.1-0.2c4.4,0,8.9,0.1,13.3,0c4.4-0.1,6.1,2.3,6.1,6.1c0.1,7.4,0,14.9,0,22.3C100.4,159.4,99.9,159.4,99.4,159.4z"
	/>
<path class="st1" d="M52.2,175.1c-1.1-0.7-2.2-1.5-3.2-2.2c0-0.5,0.3-0.7,0.5-1c0.3-0.5,0.4-1-0.2-1.3c-0.5-0.4-1-0.3-1.3,0.3
	c-1.5,2.3-3.1,4.6-4.6,6.9c-0.3,0.5-0.5,1,0.2,1.4c0.6,0.4,1,0.1,1.4-0.4c0.2-0.3,0.4-0.6,0.7-1c0.3-0.4,0.7-0.8-0.1-1.1
	c0.5-0.8,1-1.5,1.6-2.3c1.3,0.9,2.6,1.7,3.8,2.5c0.1,0.4-0.1,0.5-0.2,0.7c-1,1.4-1.9,2.9-2.9,4.3c-1.4,1.9-3.5,2.3-5.5,1.1
	c-0.7-0.4-1.3-0.9-1.9-1.3c-1.7-1.3-2.2-3.5-1-5.3c1.9-2.9,3.8-5.8,5.8-8.7c1-1.5,2.8-2,4.5-1.3c1.3,0.6,2.5,1.3,3.4,2.4
	c1,1.1,1.3,2.5,0.7,3.9C53.4,173.5,52.8,174.3,52.2,175.1z"/>
<path class="st1" d="M133.7,174.9c3.3-1.1,6.4-2.2,9.6-3.4c0.5,1.3,0.9,2.5,1.4,3.9c-1.6,0.6-3.2,1.2-4.9,1.7
	c0.3,0.8,0.5,1.5,0.8,2.2c1.1-0.4,2-0.7,3.1-1.1c0.5,1.3,0.9,2.6,1.4,3.9c-1,0.4-2,0.7-3,1.1c0.1,0.8,0.4,1.5,0.8,2.3
	c1.6-0.5,3.2-1.1,4.8-1.6c0.5,1.3,0.9,2.5,1.4,3.8c-3,1-5.8,2-8.9,3.1c-0.5-1.5-1.1-3-1.6-4.5c-1-2.8-2-5.5-2.9-8.3
	C135.2,176.8,134.4,176,133.7,174.9z"/>
<path class="st1" d="M156.9,169.7c-1,0.7-2,1.3-3,2c-0.5-0.2-0.6-0.6-0.8-1c-0.3-0.5-0.7-0.5-1.2-0.2c-0.5,0.3-0.5,0.7-0.2,1.1
	c0.1,0.1,0.1,0.2,0.2,0.3c1.2,1.8,1.2,1.8,3.1,0.7c1.9-1.1,3.5-0.8,4.7,1c0.7,1,1.4,2.1,2.1,3.2c0.8,1.4,0.8,2.9-0.3,4.1
	c-1.2,1.3-2.5,2.3-4.4,2.5c-1.2,0.1-2.1-0.3-2.8-1.2c-0.6-0.7-1-1.5-1.6-2.3c1.1-0.7,2.1-1.4,3.1-2.1c0.5,0.4,0.7,0.8,0.9,1.2
	c0.3,0.5,0.7,0.5,1.2,0.2c0.5-0.3,0.5-0.7,0.2-1.2c-0.1-0.2-0.2-0.3-0.3-0.5c-0.9-1.4-1-2-3.1-0.9c-1.9,1.1-3.8,0.5-5-1.3
	c-0.5-0.8-1.1-1.6-1.6-2.4c-1.1-1.6-0.9-3.3,0.5-4.7c0.9-0.9,1.9-1.6,3.2-2c1.5-0.5,2.8-0.1,3.8,1.2
	C156.1,168.2,156.6,168.9,156.9,169.7z"/>
<path class="st1" d="M96,196.3c1.6-4.5,3-8.9,4.6-13.3c-1.6-0.5-2.9,0.5-4.4,0.9c0-1.6,0-3.1,0-4.7c3.4,0,6.8,0,10.3,0
	c-1.5,4.4-3,8.6-4.5,13.1c1.5,0,2.9,0,4.3,0c0.3,1.2,0.2,2.4,0.2,3.5c0,0.4-0.2,0.5-0.6,0.5C102.5,196.3,99.3,196.3,96,196.3z"/>
<path class="st1" d="M90.3,195.9c-3.4-0.3-6.7-0.7-10.2-1c2-4.3,3.9-8.5,5.8-12.7c-1.6-0.6-2.9,0.1-4.5,0.4c0.1-1.5,0.3-3,0.4-4.7
	c3.4,0.4,6.8,0.7,10.3,1.1c-2,4.2-3.9,8.3-5.8,12.6c1.5,0.2,2.9,0.3,4.4,0.5C90.6,193.4,90.4,194.6,90.3,195.9z"/>
<path class="st0" d="M150.8,159.5c-1,0-2.1,0-3.1,0c-0.3-0.4-0.2-0.8-0.2-1.1c0-7.6,0-15.3,0-22.9c0-1.5-0.1-3-0.8-4.4
	c-0.4-0.9-0.7-1.9-1.1-3c1.8,0,3.5,0,5.1,0c0,9.3,0,18.6,0,27.9C150.8,157.2,150.8,158.3,150.8,159.5z"/>
<path class="st0" d="M128.8,159.7c-1,0-2.1,0-3.1,0c-0.2-0.4-0.1-0.7-0.1-1.1c0-7.5-0.1-15,0-22.6c0-2.2-0.2-4.3-1.1-6.3
	c-0.2-0.5-0.4-1-0.6-1.6c1.7,0,3.3,0,4.9,0c0,2,0,4,0,6C128.9,142.6,128.9,151.2,128.8,159.7z"/>
<path class="st1" d="M128.8,159.7c0-8.5,0-17.1,0-25.6c0-2,0-4,0-6c0.5,0,0.9,0,1.4,0c0,4.9,0,9.7,0,14.6c3.3,0,6.4,0,9.6,0
	c0-4.9,0-9.8,0-14.7c0.5-0.1,1.1-0.1,1.6,0c0,10.6,0,21.1,0,31.7c-0.5,0-1.1,0-1.6,0c0-5.2,0-10.3,0-15.5c-3.2,0-6.4,0-9.5,0
	c0,5.2,0,10.3,0,15.5C129.8,159.7,129.3,159.7,128.8,159.7z"/>
<path class="st0" d="M130.3,159.7c0-5.1,0-10.3,0-15.5c3.2,0,6.3,0,9.5,0c0,5.2,0,10.3,0,15.5c-1,0-1.9,0-3,0c0-4.1,0-8.3,0-12.4
	c-1.3,0-2.4,0-3.7,0c0,4.1,0,8.2,0,12.4C132.1,159.7,131.2,159.7,130.3,159.7z"/>
<path class="st0" d="M152.4,128.1c1.1,0,2.1,0,3.3,0c0,10.4,0,20.9,0,31.4c-1.1,0-2.2,0-3.2,0c0-0.4,0-0.8,0-1.3
	C152.4,148.2,152.4,138.2,152.4,128.1z"/>
<path class="st1" d="M172.6,132.4c0-1.2,0-2.5-0.1-3.7c-0.1-2.4-1.8-4.1-4.3-4.1c-0.7,0-1.3-0.1-2,0c-2.1,0.3-3.3,1.8-3.3,4
	c0,1.9,0,3.8,0,5.7c0,2.5,1.5,4,3.9,4.2c1.2,0.1,2.3,0.2,3.5,0.4c2.3,0.4,3.8,2.1,3.8,4.5c0,2.4,0,4.9,0,7.3
	c0.1,2.9-2.1,5.3-5.3,5.6c-1.7,0.2-3.4,0.2-4.9-0.7c-2-1.2-2.4-3.1-2.5-5.2c-0.1-1.3,0-2.7,0-4c0.5,0,1,0,1.6,0c0,1.4,0,2.9,0,4.3
	c0,3,1.5,4,3.9,4.3c1.2,0.1,2.4,0,3.5-0.6c1.5-0.7,2.3-1.9,2.4-3.6c0-2.3,0-4.6,0-6.9c0-2.2-1-3.3-3.3-3.5c-1.4-0.2-2.9-0.1-4.2-0.6
	c-2.2-0.7-3.7-2.5-3.7-5c0.1-2,0-4.1,0-6.2c0-2.5,1.4-4.4,3.9-5.1c2.5-0.6,4.8-0.4,6.8,1.4c1.3,1.1,1.7,2.6,1.8,4.3
	c0.1,1.1,0,2.3,0,3.4C173.6,132.4,173.1,132.4,172.6,132.4z"/>
<path class="st0" d="M139.8,128c0,4.9,0,9.8,0,14.7c-3.2,0-6.3,0-9.6,0c0-4.9,0-9.7,0-14.6c0.9-0.1,1.8-0.1,2.8,0
	c0,4.1,0,8.2,0,12.3c1.3,0,2.4,0,3.6,0c0-4.1,0-8.2,0-12.3C137.8,128,138.8,128,139.8,128z"/>
<path class="st1" d="M113.8,195.7c-0.1-0.9-0.2-1.8-0.3-2.7c-0.3-3.7-0.7-7.3-1-11c0-0.5-0.3-1-0.5-1.5c-0.3-0.5-0.5-1-0.8-1.7
	c1.8-0.2,3.4-0.3,5.1-0.5c0.4,4.4,0.9,8.7,1.3,13.1c1.7-0.2,3.4-0.3,5.1-0.5c0.8-0.1,1,0.1,1,0.8c0,1,0.3,1.9,0.1,3
	C120.5,195.1,117.2,195.4,113.8,195.7z"/>
<path class="st0" d="M141.4,159.7c0-10.6,0-21.1,0-31.7c0.9-0.1,1.8-0.1,2.8,0c0,10.6,0,21.1,0,31.6
	C143.2,159.7,142.3,159.7,141.4,159.7z"/>
<path class="st1" d="M74.3,156.1c-4.6,0-9.1,0-13.8,0c0-8.2,0-16.3,0-24.6c4.6,0,9.2,0,13.8,0c0,0.5,0,1,0,1.6c-4.1,0-8.2,0-12.3,0
	c0,3.4,0,6.6,0,10c3,0,5.9,0,8.8,0c0,0.5,0,1,0,1.5c-2.9,0-5.8,0-8.8,0c0,3.4,0,6.7,0,10c4.1,0,8.2,0,12.3,0
	C74.3,155,74.3,155.6,74.3,156.1z"/>
<path class="st1" d="M109.1,159.5c0-9.1,0-18.1,0-27.2c0-0.4,0-0.8,0-1.2c0.9-0.2,1.8-0.1,2.7-0.1c1.5,0,3.1,0,4.6,0
	c2.9,0,5,1.6,5.4,4.5c0.2,1.5,0.2,3.1,0,4.7c-0.5,2.9-2.5,4.4-5.4,4.5c-1.9,0-3.7,0-5.7,0c0,5,0,9.9,0,14.8
	C110.2,159.5,109.6,159.5,109.1,159.5z M110.8,132.4c0,3.6,0,7.2,0,10.7c2.2,0,4.2,0.1,6.3,0c1.8-0.1,3.2-1.6,3.2-3.4
	c0-1.2,0-2.5,0-3.7c0-1.6-1.1-3.1-2.7-3.4C115.3,132.2,113.1,132.5,110.8,132.4z"/>
<path class="st0" d="M70.8,143c-2.9,0-5.8,0-8.8,0c0-3.4,0-6.6,0-10c4.1,0,8.2,0,12.3,0c0,1,0,2,0,3.1c-3.1,0-6.3,0-9.4,0
	c0,1.3,0,2.4,0,3.7c2,0,3.9,0,6,0C70.9,140.9,70.9,142,70.8,143z"/>
<path class="st0" d="M74.3,154.5c-4.1,0-8.1,0-12.3,0c0-3.3,0-6.6,0-10c2.9,0,5.9,0,8.8,0c0.1,1.1,0.1,2.1,0,3.3c-2,0-4,0-6,0
	c0,1.3,0,2.5,0,3.8c3.1,0,6.2,0,9.4,0C74.3,152.7,74.3,153.6,74.3,154.5z"/>
<path class="st1" d="M73.6,193.7c-1.4-0.3-2.6-0.5-3.9-0.8c0.6-5.7,3-11,2.6-16.9c1.6,0.1,3.1,0.6,4.8,0.9
	C75.9,182.5,74.8,188.1,73.6,193.7z"/>
<path class="st1" d="M133.1,192.7c-1.4,0.3-2.6,0.6-3.9,0.8c-1.8-5.4-1.7-11.4-4.5-16.6c1.5-0.3,3.1-0.6,4.8-1
	C130.7,181.6,131.9,187.1,133.1,192.7z"/>
<path class="st1" d="M152.4,128.1c0,10,0,20.1,0,30.1c0,0.4,0,0.8,0,1.3c-0.5,0-1.1,0-1.6,0c0-1.2,0-2.3,0-3.5c0-9.3,0-18.6,0-27.9
	C151.3,128.1,151.8,128.1,152.4,128.1z"/>
<path class="st1" d="M136.7,41.9c-2.8-0.5-5.5-0.9-8.3-0.9c-6.2,0.1-11.6,2.1-16.1,6.4c-1.3,1.3-2.7,2.6-4.3,3.6
	c-1.6,1-3.2,1.1-4.9,0.1c-0.3-0.2-0.5-0.4-0.5-0.8c-0.3-4-0.5-8.1-0.8-12.1c-0.2-3.5-0.5-7.1-0.9-10.6c-0.2,2.9-0.4,5.8-0.7,8.8
	c-0.3,4.6-0.7,9.3-1,13.9c0,0.4-0.2,0.6-0.5,0.8c-1.6,0.9-3.2,0.9-4.8-0.1c-1.6-1-3-2.3-4.4-3.6c-5.5-5.2-12.1-6.9-19.5-6.2
	c-1.7,0.2-3.5,0.4-5.1,1c2.5-0.1,4.9,0.4,7.2,1.1c1.1,0.3,1.6,0.9,1.7,2.1c0.3,2.5,1.2,4.7,2.9,6.6c0.9,1.1,2.1,1.9,3.5,2.3
	c-0.5,2.3-1,4.4-1.2,6.7c-0.5,3.9-0.5,7.7-0.1,11.6c0.6,5.9,2.1,11.6,4.2,17.2c1.3,3.4,2.9,6.8,4.6,10c1.3,2.5,3.7,3.2,6.2,3.8
	c2.2,0.5,4.5,0.5,6.8,0.4c0,3.4,0,6.7,0,10c-2.7-2.7-6-4.3-9.3-5.9c-5.9-2.7-11.2-6.4-16.2-10.6c-3.6-3-6.9-6.3-10-9.8
	c-0.3-0.3-0.5-0.6-0.9-0.9c-0.3,1.8-0.5,3.5-0.7,5.3c-1.3-0.6-2.3-1.5-3.3-2.4c-2.8-2.6-5-5.7-6.8-9c-2.9-5.3-4.9-11-6.3-16.9
	c0-0.1-0.1-0.2-0.2-0.6c-1.1,1.3-2.1,2.6-3.2,3.9c-1.3-4.2-1.6-8.2-1.2-12.4c0.9-8.6,4.5-16.1,9.9-22.6c1-1.2,1.2-2.1,0.4-3.5
	c-1.4-2.7-2-5.6-1.9-8.7c0.2-6.2,5.4-9.3,9.1-9.8c3.5-0.5,6.3,0.9,8.9,3c1.5,1.3,2.9,2.8,4,4.5c0.3,0.4,0.5,0.5,1,0.4
	c5.4-1.2,10.9-0.9,16.3,0c3.4,0.5,6.7,1.3,10,2.4c0.6,0.2,1.1,0,1.7-0.3c5.3-2.2,10.7-3.4,16.4-3.3c3.1,0,6.2,0.4,9.2,1.5
	c0.7,0.3,1,0,1.4-0.5c1.8-2.9,4.1-5.3,7.5-6.5c3.7-1.3,7.1-0.6,10.4,1.3c-0.4,0-0.8-0.1-1.1-0.1c-0.4,0-0.8,0-1.2-0.1
	c-5.5-0.6-11.4,2.9-13.4,8c-1.1,2.8-3.2,4.7-5.7,6.2c-0.7,0.4-1.3,0.8-2,1.1c-2.9,1.4-4.9,3.6-6.1,6.6c-0.8,2-1.4,4.1-1.8,6.4
	c1.6-0.5,3.1-1,4.5-1.4c6-1.9,11.5-0.4,16.7,2.7C136.7,41.8,136.7,41.9,136.7,41.9z M63.3,18.6c-0.7-0.1-1.5-0.3-2.2-0.4
	c-2.2-0.1-4.7,0.5-5.9,3.2c1.5-0.4,3-0.8,4.4,0.3c-3.7,4.5-3.9,4.9-3.6,6.5c4.1-3.7,8.4-7.2,13.9-8.9c-2.1-2.4-4.4-4.5-7.6-5.1
	c-2.1-0.4-4,0.2-5.7,2c0.9-0.1,1.5,0,2.2,0.1C60.5,16.8,62.2,17.2,63.3,18.6C63.4,18.6,63.3,18.6,63.3,18.6z"/>
<path class="st2" d="M88.3,50.6c1.1,0.9,2.3,1.8,3.4,2.6c2.6,1.8,5.4,3,8.7,2.8c0,6.9,0,13.8,0,20.8c-1.1,0-2.3,0-3.5,0.1
	c-1.5,0.1-2.9,0.4-4.3,1c-2.2,1-3,2.7-2.2,5c0.5,1.5,1.3,2.7,2.3,4c0.4-0.8,0.7-1.6,1.3-2.3c0.7-0.9,1.2-0.9,2-0.2
	c1.6,1.5,3,3.2,4.2,5c0.2,0.3,0.4,0.6,0.4,1c0,1.5,0,3.1,0,4.7c-3.9,0-7.7,0.5-11.6,1.7c-5.6-14.2-6.9-28.5-1.6-43.2
	c-2.5,0.5-4.8,0.1-6.6-1.7c-1.8-1.8-2.7-4.1-3.2-6.7c1.4-0.1,2.6,0.3,3.7,0.9c-0.1,3.6,1.4,6.4,3.8,6.8C86,51.7,86.8,50.6,88.3,50.6
	z"/>
<path class="st1" d="M120.7,46.2c1.1-0.6,2.3-0.9,3.6-1c0.1,4.3-3.4,8-8.2,8.7c-0.2,0.3,0,0.6,0.1,0.8c2.2,6,3.4,12.3,3.4,18.7
	c0,7.7-1.6,15-5.4,21.8c-0.1,0.2-0.2,0.3-0.4,0.5c0,0-0.1-0.1-0.1-0.1c0.8-2.9,1.8-5.7,2.3-8.6c1.9-10,1.6-19.9-2-29.6
	c-0.3-0.9-0.8-1.7-1.1-2.6c-0.2-0.5-0.5-0.6-1.1-0.6c-0.9,0-1.8,0-3,0c1.8-1.2,3.3-2.4,4.9-3.5c1.7,0,2.5,1.2,3.3,2.4
	c1.4-0.5,2.3-1.4,2.9-2.6C120.5,49,120.7,47.6,120.7,46.2z"/>
<path class="st2" d="M101,101.3c-3.1,0-6,0-8.7-0.8c-0.7-0.2-1.3-0.4-1.8-0.9c-0.6-0.6-0.5-1.1,0.3-1.3c1.5-0.4,3-0.4,4.4-0.6
	c4.8-0.3,9.7-0.3,14.5,0.3c0.3,0,0.5,0.1,0.8,0.2c0.4,0.1,0.9,0.1,1,0.5c0.1,0.5-0.3,0.8-0.7,1.1c-1.4,0.8-2.9,1-4.5,1.2
	C104.4,101.3,102.5,101.4,101,101.3z"/>
<path class="st3" d="M120.7,46.2c0,1.4-0.2,2.8-0.8,4.2c-0.6,1.3-1.5,2.2-2.9,2.6c-0.9-1.1-1.7-2.4-3.3-2.4
	C115.7,48.6,118,47,120.7,46.2z"/>
<path class="st3" d="M88.3,50.6c-1.6,0.1-2.4,1.2-3.2,2.3c-2.3-0.4-3.9-3.2-3.8-6.8C84,47.2,86.2,48.8,88.3,50.6z"/>
<path class="st1" d="M109.9,85.3c0.3-0.7,0.6-1.4,0.8-2.2c0.6-1.9,0-3.4-1.7-4.5c-1.5-1-3.2-1.3-5-1.6c-0.9-0.1-1.7-0.2-2.6-0.3
	c2.3-0.3,6,0.2,8.1,1.1c2.5,1,3.3,2.9,2,5.3c-0.4,0.8-0.8,1.6-1.6,2.2C110,85.3,109.9,85.3,109.9,85.3z"/>
<path class="st1" d="M113.6,96c0,0.1,0,0.2-0.1,0.3C113.4,96.1,113.5,96,113.6,96L113.6,96z"/>
<path class="st1" d="M113.6,96c-0.1-0.2,0-0.3,0.1-0.5c0,0,0.1,0.1,0.1,0.1C113.8,95.8,113.8,96,113.6,96L113.6,96z"/>
<path class="st1" d="M110,85.3c0,0.1-0.1,0.2-0.2,0.3c-0.2-0.2-0.1-0.3,0-0.3C109.9,85.3,110,85.3,110,85.3z"/>
<path class="st1" d="M136.8,41.8c0.1,0,0.2,0.1,0.3,0.1c-0.1,0.2-0.3,0.1-0.4,0C136.7,41.9,136.7,41.8,136.8,41.8z"/>
<polygon class="st1" points="109.4,85.9 109.5,86 109.4,86 "/>
<path class="st0" d="M110.8,132.4c2.3,0.1,4.6-0.2,6.8,0.2c1.6,0.3,2.7,1.8,2.7,3.4c0,1.2,0,2.5,0,3.7c0,1.8-1.4,3.3-3.2,3.4
	c-2.1,0.1-4.2,0-6.3,0C110.8,139.6,110.8,136.1,110.8,132.4z M113.8,135.1c0,1.9,0,3.6,0,5.3c1.2-0.1,2.6,0.4,3.3-1
	c0.6-1.1,0.6-2.4-0.1-3.6C116.3,134.6,115,135.2,113.8,135.1z"/>
<path class="st0" d="M63.4,18.6c-1.2-1.4-2.9-1.8-4.6-2.1c-0.6-0.1-1.3-0.3-2.2-0.1c1.7-1.8,3.6-2.4,5.7-2c3.2,0.6,5.4,2.6,7.6,5.1
	c-5.5,1.7-9.8,5.1-13.9,8.9c-0.3-1.6-0.1-2,3.6-6.5c-1.4-1.1-2.9-0.7-4.4-0.3c1.2-2.7,3.7-3.3,5.9-3.2
	C61.8,18.3,62.6,18.5,63.4,18.6c0,0.2,0,0.2,0.1,0.1C63.5,18.7,63.4,18.6,63.4,18.6z"/>
<path class="st1" d="M63.4,18.6c0,0,0.1,0.1,0.1,0.1C63.4,18.8,63.4,18.7,63.4,18.6C63.3,18.6,63.4,18.6,63.4,18.6z"/>
</svg>
