<?xml version="1.0" encoding="utf-8"?>
<!-- Generator: Adobe Illustrator 21.0.0, SVG Export Plug-In . SVG Version: 6.00 Build 0)  -->
<svg version="1.1" id="Layer_4" xmlns="http://www.w3.org/2000/svg" xmlns:xlink="http://www.w3.org/1999/xlink" x="0px" y="0px"
	 viewBox="0 0 200 200" style="enable-background:new 0 0 200 200;" xml:space="preserve">
<style type="text/css">
	.st0{fill:#FEFEFE;}
	.st1{fill:#203462;}
	.st2{fill:#167FC3;}
	.st3{fill:#F05633;}
	.st4{fill:#9D9CB3;}
	.st5{fill:#FABA33;}
	.st6{fill:#F47D54;}
</style>
<path class="st0" d="M0.2,8c66.7,0,133.4,0,200.1,0c0,61.1,0,122.2,0,183.3c-66.7,0-133.4,0-200.1,0C0.2,130.3,0.2,69.2,0.2,8z
	 M96.5,34.4c0.1,0,0.2,0,0.3,0c0.4,3.4,0.9,6.7,1.5,10.1c1.2,6.7,2.5,13.5,3.7,20.2c0.3,1.7,0.6,3.4,0.9,5.1c1.9,0,3.7,0,5.6,0
	c0.3-19.1,0.7-38.1,1-57.2c-2,0-4,0-5.9,0c-0.3,11.9-0.5,23.8,0,35.7c-1.6-12-4.4-23.9-6.3-35.9c-1.9,0-3.8,0-5.6,0
	c-0.3,19.1-0.7,38.1-1,57.2c2,0,3.9,0,5.9,0C96.9,57.8,97.1,46.1,96.5,34.4z M50.6,159.5c-0.1,0.5-0.6,0.6-0.9,0.8
	c-6.2,4-12.2,8.2-18,12.7c-4.9,3.7-9.7,7.6-14.3,11.8c18-9.9,36.4-19.1,55-27.8c0.1,0.1,0.2,0.2,0.3,0.3
	c8.2,8.1,17.3,14.9,27.1,20.9c0.5,0.3,0.8,0.3,1.3,0c7.3-4.5,14.3-9.4,20.9-15c7.9-6.8,14.9-14.4,20.8-23c3.5-5.1,6.5-10.6,9.3-16.1
	c0.4,0.1,0.7-0.2,1.1-0.3c11.9-4.3,23.8-8.3,35.9-12.1c1.3-0.4,2.7-0.8,4-1.3c-0.5-0.1-1-0.1-1.5-0.1c-4.4,0.4-8.8,0.9-13.1,1.5
	c-5.9,0.8-11.7,1.9-17.6,3c-1.8,0.3-3.5,0.9-5.3,1c0.3-0.7,0.6-1.4,0.8-2.1c0.9-2.6,1.9-5.2,2.8-7.8c3.5-0.6,7-1.2,10.5-1.8
	c5.8-1,11.7-1.9,17.5-2.8c2.1-0.3,4.1-0.6,6.2-0.9c-7.3-0.6-14.5-0.9-21.8-0.8c-3.5,0-7,0.1-10.5,0.3c0.5-1.9,1-3.8,1.4-5.8
	C121,72,79.8,72,38.5,94c1.6,7,3.5,13.9,6.1,20.6c1.4,3.5,3,7,4.5,10.5c-0.2,0.1-0.4,0.1-0.6,0.2C37,130.1,25.8,135.6,15,141.9
	c-2.4,1.4-4.7,2.8-7.2,4.3c0.4,0.2,0.7,0,1-0.1c8-2.9,16-5.7,24.1-8.3c5.1-1.6,10.1-3.3,15.2-4.8c-0.1,0.2-0.1,0.4-0.2,0.6
	c-3,6.2-5.8,12.5-8.6,18.7c-0.7,1.6-1.5,3.2-1.8,4.9c-0.7,3.4,1.1,5.5,4.3,5.4c2.1-0.1,4-0.8,5.9-1.7
	C48.6,160.4,49.5,159.7,50.6,159.5z M158.8,83c3.8-7.7,7.5-15.4,11.3-23.1c0.6,0.3,1.1,0.6,1.7,0.9c-2.1,8.5-4.2,17-6.4,25.5
	c1.8,0.9,3.5,1.7,5.4,2.6c2.1-8.5,4.2-17,6.4-25.5c1.4,0.6,2.7,0.6,3.9-0.3c0.8-0.6,1.3-1.4,1.7-2.2c0.9-1.8,1.7-3.5,2.6-5.3
	c2.2-4.5,4.4-9,6.6-13.5c1.4-2.9,0.5-6.3-2.2-7.8c-3.6-1.9-7.4-3.7-11.1-5.5c-8.4,17.2-16.8,34.4-25.2,51.6
	C155.2,81.3,156.9,82.1,158.8,83z M112.8,69.8c0.1,0.1,0.2,0.1,0.2,0.1c3.7,0.6,7.5,1.2,11.2,1.8c3.8,0.5,6.6-1.5,7.2-5.3
	c0.7-4.2,1.3-8.3,2-12.5c1.7-10.5,3.3-21,5-31.5c0.6-3.7-1.4-6.6-5.1-7.2c-2.2-0.4-4.3-0.7-6.5-1c-1.7-0.3-3.3-0.5-5-0.8
	C118.8,32.2,115.8,51,112.8,69.8z M36.3,22.7c-1.9,0.6-3.8,1.2-5.7,1.8C36.5,42.8,42.4,60.9,48.3,79c1.9-0.6,3.8-1.2,5.7-1.9
	C51.3,69,48.7,61,46,52.8c1.9-0.6,3.7-1.2,5.6-1.8c2.6,8.1,5.3,16.2,7.9,24.4c1.9-0.6,3.8-1.2,5.7-1.8
	c-5.9-18.2-11.8-36.3-17.7-54.5c-1.9,0.6-3.8,1.2-5.7,1.9c2.7,8.2,5.3,16.3,7.9,24.4c-1.9,0.6-3.7,1.2-5.6,1.8
	C41.6,39,38.9,30.9,36.3,22.7z M60.6,16.1c0,0.2,0,0.3,0,0.4c0.5,3,0.9,5.9,1.4,8.9c2,12.9,4.1,25.8,6.1,38.7
	c0.8,5,5.2,8.3,10.3,7.6c4.7-0.6,8.1-5.2,7.4-10.1c-0.9-6.1-1.9-12.2-2.9-18.3c-1.2-7.7-2.5-15.5-3.7-23.2c-0.4-2.3-0.7-4.5-1.1-6.8
	c-2,0.3-3.9,0.6-5.9,0.9c2.7,16.9,5.4,33.8,8,50.7c-1.9,0.3-3.9,0.6-5.8,0.9c-2.7-16.9-5.3-33.8-8-50.7
	C64.4,15.5,62.5,15.8,60.6,16.1z M168.5,24.7c-0.3-0.1-0.5-0.2-0.7-0.3c-3.4-1.1-6.9-2.3-10.3-3.4c-3.5-1.1-6.6,0.5-7.8,4
	c-4.7,14.3-9.3,28.5-13.9,42.8c-1.1,3.4,0.6,6.6,4,7.7c1.6,0.5,3.2,1,4.8,1.6c2.1,0.7,4.1,1.3,6.2,2c0.6-1.9,1.2-3.8,1.8-5.7
	c-3.8-1.2-7.5-2.4-11.3-3.7c2-6.3,4.1-12.5,6.1-18.8c2.9,0.9,5.6,1.8,8.5,2.7c0.6-1.9,1.2-3.7,1.8-5.6c-2.8-0.9-5.6-1.8-8.5-2.8
	c2-6.3,4-12.5,6.1-18.7c3.8,1.2,7.5,2.4,11.3,3.6C167.2,28.5,167.8,26.6,168.5,24.7z M14,38.7c7.5,15.4,15,30.7,22.5,46.1
	c1.8-0.9,3.6-1.7,5.3-2.6c-7.5-15.4-15-30.7-22.5-46.1c1.8-0.9,3.5-1.7,5.3-2.6c-0.9-1.8-1.7-3.5-2.6-5.3c-5.4,2.6-10.7,5.2-16,7.8
	c0.9,1.8,1.7,3.6,2.6,5.3C10.4,40.4,12.2,39.6,14,38.7z"/>
<path class="st1" d="M159.1,105.8c-0.9,2.6-1.9,5.2-2.8,7.8c-0.3,0.7-0.6,1.4-0.8,2.1c-1.2,2.7-2.4,5.5-3.5,8.2
	c-2.7,5.6-5.7,11-9.3,16.1c-5.9,8.6-12.8,16.3-20.8,23c-6.5,5.6-13.5,10.5-20.9,15c-0.5,0.3-0.8,0.3-1.3,0
	c-9.8-6-18.9-12.8-27.1-20.9c-0.1-0.1-0.2-0.2-0.3-0.3c-1.7-1.8-3.4-3.6-5.1-5.4c-0.3-0.3-0.5-0.3-0.9-0.1
	c-5.1,2.5-10.3,4.8-15.2,7.7c-0.3,0-0.5,0-0.5,0.3l0,0c-1.1,0.2-1.9,0.9-2.9,1.4c-1.9,0.9-3.8,1.7-5.9,1.7c-3.2,0.1-5-1.9-4.3-5.4
	c0.4-1.7,1.1-3.3,1.8-4.9c2.8-6.3,5.7-12.5,8.6-18.7c0.1-0.2,0.1-0.4,0.2-0.6c0.4-0.7,0.8-1.5,1.1-2.2c0.5-1,1.3-1.9,1.3-2.9
	c0-1-0.9-1.9-1.4-2.9c0,0,0,0-0.1-0.1c-1.6-3.5-3.2-6.9-4.5-10.5C42,107.9,40.1,101,38.5,94c41.3-22,82.6-22,123.9,0
	c-0.5,1.9-1,3.8-1.4,5.8C160.4,101.8,159.7,103.8,159.1,105.8z M132.7,127L132.7,127c-0.2,0-0.3,0.1-0.4,0.3c-4.4,5-9.9,8.5-16.1,11
	c-1.5,0.6-1.5,0.6-1.3,2.2c0.3,2.8,1.7,4.2,4.2,4.3c-1,0.9-2,1.8-3.2,2.4c-2.8-1.6-3.5-4.4-3.8-7.4c-3.1,1-6.3,1.9-9.4,2.7
	c-0.2,4.1-0.3,8.1-1.9,11.8c-1.4,0.6-2.9,1-4.4,1.1c0.7-0.7,1.4-1.3,1.8-2.2c1.4-3.2,1.6-6.5,1.7-10c-3.6,0.8-7.2,1.1-10.7,1.2
	c-0.1,2.5-0.8,4.8-2.7,6.5c-0.7-0.6-1.3-1.3-1.8-2.1c1.2-1.2,1.6-2.7,1.6-4.4c-1.1-0.1-2.2-0.1-3.2-0.2c-0.7-0.1-1.3,0.1-1.9,0.5
	c-1.3,0.6-2.7,1.2-3.9,1.9c-2.2,1-4.3,2-6.5,3c0.2,0.2,0.3,0.3,0.3,0.4c8.5,9.3,18.3,17.1,29,23.7c0.4,0.3,0.7,0.2,1.1-0.1
	c4.1-2.5,8-5.2,11.8-8.1c10.2-7.7,19.2-16.7,26.4-27.3c8.7-12.7,14.4-26.7,18.4-41.4c0.1-0.5,0-0.7-0.4-1c-4.2-2-8.4-4-12.8-5.7
	c-10.1-4.1-20.6-6.8-31.5-7.9c-8.1-0.8-16.1-0.8-24.2-0.1c-6.6,0.6-13,1.8-19.4,3.5c-9,2.5-17.5,6.1-25.8,10.1
	c-0.5,0.2-0.5,0.5-0.4,1c2.1,8.1,4.8,16,8.3,23.7c0.5,1.1,1,2.1,1.6,3.2c0.7-1.2,1.4-2.2,2.2-3.1c1-1.2,2.1-2.3,3.2-3.5
	c1.5-1.5,2.9-2.9,4.4-4.4c1.8-1.3,3.6-2.5,5.6-3.4c-0.1-0.2-0.1-0.3-0.2-0.4c-2-3-3.9-6-5.5-9.3c-0.1-0.2-0.2-0.3-0.3-0.4
	c0.8-0.5,1.8-0.9,2.7-1.2c1.7,3.6,3.8,6.9,6,10.2c0.2,0,0.2-0.1,0.3-0.1c4.8-1.4,9.5-2.7,14.4-3.7c1.8-0.4,3.6-0.4,5.2,0.9
	c1.6-1.4,2.6-3.6,5.3-3.5c-0.7-4.1-1.3-7.9-2-11.8c0.9-0.1,1.9-0.4,2.8-0.3c0.6,3.8,1.3,7.6,1.9,11.4c3.3-0.7,6.4-1.3,9.7-2
	c-0.4,1-0.7,1.8-1,2.7c0-0.1-0.1-0.1-0.1-0.2c0.9-0.8,1.9-1.6,2.8-2.5c0.3-0.3,0.6-0.5,1.1-0.6c1.5-0.3,3-0.6,4.5-0.8
	c1.5-0.3,3.1-0.6,4.6-0.8c0.1,0.5-0.3,0.9-0.1,1.4c1.5-1.2,3.3-1.8,5.2-2.1c0.4-0.1,0.5-0.4,0.5-0.7c0.5-1.9,0.7-3.7,1-5.6
	c1,0.2,2,0.4,3,0.7c-0.2,1.6-0.5,3.3-0.7,4.9c2.1-0.3,4-0.6,6.1-0.9c-0.8,3.2-1.6,6.3-2.4,9.4c0,0.1-0.1,0.3-0.1,0.4
	c-0.1,0.4-0.4,0.6-0.6,0.9c-1.1,1.2-2.2,2.3-3.5,3.7c1.3-0.4,2.3-0.7,3.3-1c0.1,0.2,0,0.4,0,0.6c-0.6,2.4-1.4,4.8-1.8,7.3
	c-0.6,3.4-1.8,6.4-4.7,8.6c-0.1,0.1-0.2,0.2-0.2,0.3c-0.5,0.7-1.2,1.1-2,1.4c-2.1,0.9-4.2,1.8-6.3,2.8c-0.2,0.1-0.5,0.2-0.6,0.5
	c-0.6,2-1.2,4-1.5,6.1c0.1,0,0.2,0,0.2,0c4.5-1.8,8.7-4.2,12.3-7.5c3.2-3,5.8-6.5,8.2-10.2c-0.5,3.1-1.6,6-3,8.9
	C132.7,126.7,132.6,126.8,132.7,127z M87.4,105.9C87.4,105.9,87.3,105.8,87.4,105.9c-0.4,0-0.9,0-1.3,0.1c-3.5,0.8-7,1.8-10.5,2.7
	c-3,0.8-6,1.7-8.7,3.3c-4.3,2.4-7.2,6.1-9.4,10.4c-4.5,9.1-8.8,18.3-12.9,27.5c-0.6,1.3-1.1,2.6-1.1,4.1c0,1.5,0.8,2.3,2.3,2.4
	c1.7,0.1,3.3-0.4,4.7-1.1c5.7-2.9,11.5-5.7,17.1-8.7c6.2-3.3,10.9-8,13.5-14.7c2.7-6.8,5.5-13.6,8.5-20.3c0.3-0.7,0.5-1.5,0.7-2.2
	c0.4-2.2-0.5-3.3-2.7-3.3C87.5,105.9,87.4,105.9,87.4,105.9z M82.8,139.2c0.4-0.2,0.6-0.3,0.8-0.4c3.2-1.5,6.3-3,9.5-4.4
	c0.5-0.2,0.8-0.5,1-1c1.5-4,2.9-8.1,4.4-12.1c0.1-0.3,0.1-0.6,0.4-0.8c1.5,3.1,3,6.1,4.6,9.2c2.4-1.1,4.8-2.1,7.1-3.2
	c-1.4-3.1-2.7-6.1-4.1-9.1c-0.3-0.6-0.2-1.1,0.1-1.6c2.2-3.2,4.4-6.4,6.4-9.7c0.7-1.1,1.5-1.8,2.8-1.9c0.3,0,0.5-0.2,0.6-0.5
	c0.5-1.5,1-3.1,1.6-4.8c-2,0.4-4,0.7-5.9,1.1c-0.5,0.1-0.8,0.3-1.1,0.7c-2.6,3.5-5.3,7-7.9,10.5c-0.6,0.8-1.2,1.6-1.8,2.4
	c0,0-0.1-0.1-0.1-0.1c1.5-4.1,3.1-8.1,4.7-12.2c-0.3,0-0.5,0.1-0.7,0.1c-2.6,0.6-5.3,1.3-7.9,1.7c-1.7,0.3-2.7,0.9-3.2,2.7
	c-0.5,1.5-1.2,3-1.9,4.5c0.8-0.2,1.5-0.4,2.3-0.6C90.5,119.6,86.7,129.3,82.8,139.2z M120.5,117.4c0-0.2,0-0.3,0-0.4
	c1.4-4.7,2.7-9.4,4.1-14.1c0.1-0.2,0.1-0.4,0.3-0.5c0.9-0.2,1.9-0.5,2.9-0.5c-0.2,0.9-0.4,1.7-0.7,2.5c1.4-0.3,2.7-0.6,4-0.9
	c0.4-0.1,0.5-0.3,0.6-0.7c0.4-1.8,0.9-3.7,1.4-5.5c0.1-0.2,0.2-0.5-0.1-0.7c-2.3,0.4-4.7,0.8-7.1,1.1c-3.9,0.5-6.4,2.7-7.6,6.5
	c-1.7,5.3-3.4,10.7-5.1,16c-0.3,0.8-0.5,1.7-0.5,2.5c0,1.5,1,2.3,2.5,2c0.5-0.1,1.1-0.3,1.6-0.5c2.8-1.1,5.5-2.4,8.3-3.4
	c1.9-0.6,2.8-1.7,3.1-3.6c0.4-2.2,1.1-4.4,1.7-6.8c-1.7,0.5-3.2,1-4.7,1.5c-0.4,0.1-0.4,0.4-0.5,0.7c-0.3,1-0.6,2.1-0.9,3.1
	c-0.1,0.3-0.2,0.6-0.6,0.7C122.5,116.7,121.6,117.1,120.5,117.4z M113.4,130.4c-1.4,0.3-2.5,0.9-3.8,0.7c-0.2,0-0.4,0.2-0.5,0.3
	c-0.4,0.6-1.1,0.8-1.7,1.1c-1.4,0.6-2.8,1.2-4.2,1.8c-0.3,0.1-0.7,0.2-0.7,0.6c0,1.5,0,3,0,4.6c3.2-0.8,6.2-1.7,9.2-2.7
	c0.3-0.1,0.5-0.3,0.5-0.6C112.5,134.3,112.9,132.5,113.4,130.4z M99.9,135.9c-0.7,0.3-1.1,0.5-1.6,0.7c-0.6-1.1-1.1-2.1-1.8-3.3
	c-0.2,0.6-0.4,1.1-0.6,1.5c-0.2,0.5-0.2,1.2-0.8,1.6c-2,1.4-3.6,3.3-5.9,4.3c-0.4,0.2-0.6,0.4-0.3,0.9c3.5,0,6.9-0.4,10.3-1.1
	c0.4-0.1,0.6-0.3,0.5-0.8C99.9,138.4,99.9,137.2,99.9,135.9z"/>
<path class="st1" d="M96.5,34.4c0.6,11.7,0.4,23.4,0.1,35.1c-2,0-3.9,0-5.9,0c0.3-19.1,0.7-38.1,1-57.2c1.9,0,3.7,0,5.6,0
	c1.9,12,4.6,23.9,6.3,35.9c-0.5-11.9-0.3-23.8,0-35.7c2,0,3.9,0,5.9,0c-0.3,19.1-0.7,38.2-1,57.2c-1.9,0-3.7,0-5.6,0
	c-0.3-1.7-0.6-3.4-0.9-5.1c-1.2-6.7-2.5-13.5-3.7-20.2c-0.6-3.3-1.1-6.7-1.5-10.1c0-0.5,0-1-0.3-1.5C96.4,33.4,96.3,33.9,96.5,34.4z
	"/>
<path class="st1" d="M158.8,83c-1.8-0.9-3.6-1.7-5.4-2.6c8.4-17.2,16.8-34.4,25.2-51.6c3.8,1.9,7.5,3.6,11.1,5.5
	c2.7,1.4,3.6,4.8,2.2,7.8c-2.2,4.5-4.4,9-6.6,13.5c-0.9,1.8-1.7,3.5-2.6,5.3c-0.4,0.9-1,1.6-1.7,2.2c-1.2,0.9-2.5,0.8-3.9,0.3
	c-2.1,8.5-4.2,17-6.4,25.5c-1.8-0.9-3.6-1.7-5.4-2.6c2.1-8.5,4.2-17,6.4-25.5c-0.6-0.3-1.1-0.6-1.7-0.9
	C166.3,67.6,162.5,75.2,158.8,83z M181.3,36.7c-2.9,6-5.8,11.8-8.7,17.8c1.8,0.9,3.5,1.7,5.3,2.6c2.9-5.9,5.8-11.8,8.7-17.8
	C184.9,38.5,183.2,37.6,181.3,36.7z"/>
<path class="st1" d="M112.8,69.8c3-18.8,6-37.6,9-56.5c1.7,0.3,3.4,0.5,5,0.8c2.2,0.3,4.4,0.7,6.5,1c3.7,0.7,5.6,3.5,5.1,7.2
	c-1.7,10.5-3.3,21-5,31.5c-0.7,4.2-1.3,8.3-2,12.5c-0.6,3.8-3.3,5.9-7.2,5.3c-3.7-0.5-7.5-1.2-11.2-1.8
	C113,69.9,112.9,69.9,112.8,69.8z M126.7,20.1c-2.4,15-4.7,29.9-7.1,44.8c2,0.3,3.9,0.6,5.9,0.9c2.4-15,4.7-29.8,7.1-44.8
	C130.6,20.7,128.7,20.4,126.7,20.1z"/>
<path class="st1" d="M36.3,22.7c2.7,8.2,5.3,16.3,7.9,24.4c1.9-0.6,3.7-1.2,5.6-1.8c-2.6-8.1-5.3-16.2-7.9-24.4
	c1.9-0.6,3.7-1.2,5.7-1.9c5.9,18.2,11.8,36.3,17.7,54.5c-1.9,0.6-3.7,1.2-5.7,1.8c-2.7-8.2-5.3-16.3-7.9-24.4
	c-1.9,0.6-3.7,1.2-5.6,1.8C48.7,61,51.3,69,54,77.2c-1.9,0.6-3.7,1.2-5.7,1.9c-5.9-18.1-11.8-36.3-17.7-54.5
	C32.5,24,34.3,23.4,36.3,22.7z"/>
<path class="st1" d="M60.6,16.1c1.9-0.3,3.8-0.6,5.8-0.9c2.7,16.9,5.4,33.8,8,50.7c2-0.3,3.9-0.6,5.8-0.9c-2.7-16.9-5.3-33.8-8-50.7
	c2-0.3,3.9-0.6,5.9-0.9c0.4,2.3,0.7,4.6,1.1,6.8c1.2,7.7,2.5,15.5,3.7,23.2c1,6.1,2,12.2,2.9,18.3c0.7,4.8-2.7,9.4-7.4,10.1
	c-5,0.7-9.5-2.6-10.3-7.6c-2-12.9-4.1-25.8-6.1-38.7c-0.5-3-0.9-5.9-1.4-8.9C60.6,16.4,60.6,16.3,60.6,16.1z"/>
<path class="st1" d="M168.5,24.7c-0.6,1.9-1.2,3.7-1.8,5.6c-3.8-1.2-7.5-2.4-11.3-3.6c-2,6.3-4,12.5-6.1,18.7
	c2.8,0.9,5.6,1.8,8.5,2.8c-0.6,1.9-1.2,3.7-1.8,5.6c-2.8-0.9-5.6-1.8-8.5-2.7c-2,6.2-4,12.5-6.1,18.8c3.8,1.2,7.5,2.4,11.3,3.7
	c-0.6,1.9-1.2,3.7-1.8,5.7c-2.1-0.7-4.2-1.3-6.2-2c-1.6-0.5-3.2-1-4.8-1.6c-3.4-1.1-5.1-4.3-4-7.7c4.6-14.3,9.3-28.5,13.9-42.8
	c1.1-3.5,4.3-5.1,7.8-4c3.5,1.1,6.9,2.2,10.3,3.4C167.9,24.5,168.2,24.6,168.5,24.7z"/>
<path class="st1" d="M14,38.7c-1.8,0.9-3.5,1.7-5.3,2.6C7.8,39.5,6.9,37.8,6,36c5.3-2.6,10.6-5.2,16-7.8c0.9,1.8,1.7,3.5,2.6,5.3
	c-1.8,0.9-3.5,1.7-5.3,2.6c7.5,15.4,15,30.7,22.5,46.1c-1.8,0.9-3.5,1.7-5.3,2.6C29,69.4,21.5,54.1,14,38.7z"/>
<path class="st2" d="M51.1,159.2c4.9-2.9,10.1-5.2,15.2-7.7c0.3-0.2,0.6-0.2,0.9,0.1c1.7,1.8,3.4,3.6,5.1,5.4
	c-18.6,8.7-37,18-55,27.8c4.6-4.2,9.4-8,14.3-11.8c5.9-4.5,11.9-8.7,18-12.7c0.3-0.2,0.8-0.3,0.9-0.8c0,0,0,0,0,0
	C50.9,159.6,51,159.4,51.1,159.2z"/>
<path class="st3" d="M49.1,125C49.1,125,49.1,125,49.1,125c0.6,1,1.4,2,1.4,3c0,0.9-0.8,1.9-1.3,2.9c-0.4,0.7-0.7,1.5-1.1,2.2
	c-5.1,1.5-10.1,3.2-15.2,4.8c-8.1,2.6-16.1,5.4-24.1,8.3c-0.3,0.1-0.5,0.3-1,0.1c2.4-1.5,4.8-2.9,7.2-4.3
	c10.8-6.3,22-11.9,33.5-16.7C48.7,125.1,48.9,125.1,49.1,125z"/>
<path class="st2" d="M152,123.9c1.2-2.7,2.4-5.5,3.5-8.2c1.8-0.1,3.5-0.7,5.3-1c5.8-1.1,11.7-2.2,17.6-3c4.4-0.6,8.7-1.1,13.1-1.5
	c0.5,0,1-0.1,1.5,0.1c-1.3,0.4-2.7,0.9-4,1.3c-12.1,3.7-24,7.8-35.9,12.1C152.7,123.8,152.4,124,152,123.9z"/>
<path class="st3" d="M159.1,105.8c0.6-2,1.2-4,1.8-6c3.5-0.2,7-0.3,10.5-0.3c7.3-0.1,14.5,0.2,21.8,0.8c-2.1,0.3-4.1,0.6-6.2,0.9
	c-5.9,0.8-11.7,1.8-17.5,2.8C166.1,104.6,162.6,105.2,159.1,105.8z"/>
<path class="st4" d="M96.5,34.4c-0.2-0.5-0.1-0.9-0.1-1.6c0.3,0.6,0.4,1,0.3,1.5C96.7,34.4,96.6,34.4,96.5,34.4z"/>
<path class="st0" d="M130.2,90.6c-1-0.3-2-0.5-3-0.7c-0.7-0.1-1.4-0.3-2.1-0.4c-1.1-0.3-2.3-0.4-3.4-0.6c-1.7-0.3-3.4-0.6-5.1-0.8
	c-1.9-0.2-3.8-0.5-5.8-0.6c-2.2-0.1-4.5-0.4-6.7-0.5c-6.5-0.1-13,0.5-19.4,1.6c-11.3,1.8-22,5.3-32.3,10c-0.7,0.3-0.8,0.6-0.6,1.3
	c1.1,3.5,2.2,7,3.6,10.5c0.9,2.3,1.7,4.6,2.9,6.8c-1.1,1.2-2.1,2.3-3.2,3.5c-0.8,0.9-1.5,1.9-2.2,3.1c-0.5-1.1-1.1-2.2-1.6-3.2
	c-3.5-7.6-6.2-15.5-8.3-23.7c-0.1-0.5-0.1-0.7,0.4-1c8.3-4.1,16.9-7.7,25.8-10.1c6.3-1.8,12.8-2.9,19.4-3.5
	c8.1-0.7,16.1-0.7,24.2,0.1c10.9,1.1,21.4,3.8,31.5,7.9c4.3,1.7,8.6,3.7,12.8,5.7c0.5,0.2,0.6,0.5,0.4,1c-4,14.7-9.7,28.8-18.4,41.4
	c-7.3,10.6-16.2,19.6-26.4,27.3c-3.8,2.9-7.8,5.6-11.8,8.1c-0.4,0.2-0.7,0.3-1.1,0.1c-10.7-6.7-20.5-14.4-29-23.7
	c-0.1-0.1-0.2-0.2-0.3-0.4c2.2-1,4.4-2,6.5-3c3,3.6,6.3,6.9,9.7,10.1c4.4,4,9,7.8,14,11.1c0.3,0.2,0.5,0.4,0.9,0.1
	c0.6-0.5,1.2-0.9,1.8-1.3c0.2-0.1,0.4-0.2,0.5-0.3c8.6-5.9,16.3-12.8,23.2-20.6c11.8-13.6,20.2-29,25.3-46.2c0.2-0.6,0-0.9-0.5-1.1
	c-4.5-2.1-9.1-3.8-13.8-5.4c-0.3-0.1-0.6-0.4-1-0.1c0,0.2,0.1,0.4,0.1,0.6c1.9,7.2,2.2,14.5,0.9,21.8c-2.3,12.9-8.7,23.4-18.9,31.6
	c-6,4.8-12.8,8-20.3,9.7c-2,0.5-4,0.8-6,1.2c-0.5-0.4-1-0.9-1.4-1.4c1.6-0.3,3.2-0.3,4.8-0.8c1.5-0.1,3-0.5,4.4-1.1
	c0.2,0.1,0.4,0,0.6-0.1c3.5-1,6.8-2.4,9.9-4.2c1.6-0.9,3.2-1.7,4.5-2.9c1.2-0.6,2.2-1.5,3.2-2.4c0.1-0.1,0.3-0.1,0.4-0.2
	c4.1-3.5,7.6-7.5,10.4-12.1c1.1-1.7,2.1-3.5,2.8-5.4l0,0c0.2-0.1,0.2-0.2,0.2-0.3c1.4-2.8,2.5-5.8,3-8.9c0.2-0.2,0.2-0.4,0.3-0.7
	c0.6-2.4,0.9-4.9,1.1-7.4c0.4-5.8-0.1-11.6-1.6-17.2c-0.1-0.3-0.2-0.5-0.5-0.6C133.4,91.4,131.8,90.9,130.2,90.6z"/>
<path class="st0" d="M87.4,105.9c0.1,0,0.1,0,0.2,0c2.2,0,3.2,1.2,2.7,3.3c-0.2,0.8-0.4,1.5-0.7,2.2c-3,6.7-5.8,13.5-8.5,20.3
	c-2.6,6.7-7.3,11.4-13.5,14.7c-5.7,3-11.4,5.9-17.1,8.7c-1.5,0.7-3,1.2-4.7,1.1c-1.5-0.1-2.3-0.9-2.3-2.4c0-1.5,0.5-2.8,1.1-4.1
	c4.1-9.2,8.4-18.4,12.9-27.5c2.2-4.3,5.1-8,9.4-10.4c2.7-1.5,5.7-2.5,8.7-3.3c3.5-0.9,7-1.9,10.5-2.7
	C86.5,105.9,86.9,105.9,87.4,105.9C87.3,105.8,87.4,105.9,87.4,105.9z M60.2,142.1c2.4-1.1,4.6-2.1,6.9-3.1c0.5-0.2,0.8-0.6,1.1-1.1
	c3.2-7.6,6.5-15.1,9.9-22.6c0.1-0.2,0.3-0.4,0.2-0.8c-2,0.6-4,1.3-5.9,1.8c-0.4,0.1-0.7,0.4-0.9,0.8
	C67.6,125.3,63.9,133.6,60.2,142.1z"/>
<path class="st0" d="M82.8,139.2c3.9-9.9,7.7-19.6,11.8-29.5c-0.8,0.2-1.5,0.4-2.3,0.6c0.7-1.6,1.4-3,1.9-4.5
	c0.5-1.7,1.5-2.4,3.2-2.7c2.7-0.4,5.3-1.1,7.9-1.7c0.2,0,0.4-0.1,0.7-0.1c-1.6,4.1-3.1,8.2-4.7,12.2c0,0,0.1,0.1,0.1,0.1
	c0.6-0.8,1.2-1.6,1.8-2.4c2.6-3.5,5.3-7,7.9-10.5c0.3-0.4,0.6-0.6,1.1-0.7c1.9-0.3,3.8-0.7,5.9-1.1c-0.6,1.7-1.1,3.2-1.6,4.8
	c-0.1,0.3-0.3,0.5-0.6,0.5c-1.3,0.1-2.1,0.8-2.8,1.9c-2.1,3.3-4.3,6.5-6.4,9.7c-0.4,0.6-0.4,1-0.1,1.6c1.4,3,2.7,6,4.1,9.1
	c-2.4,1-4.7,2.1-7.1,3.2c-1.5-3.1-3-6.1-4.6-9.2c-0.4,0.2-0.3,0.5-0.4,0.8c-1.5,4-3,8.1-4.4,12.1c-0.2,0.5-0.5,0.8-1,1
	c-3.2,1.5-6.4,3-9.5,4.4C83.4,139,83.2,139.1,82.8,139.2z"/>
<path class="st3" d="M94.2,90c0.7,3.9,1.3,7.8,2,11.8c-2.7-0.1-3.7,2.1-5.3,3.5c-1.5-1.4-3.4-1.3-5.2-0.9c-4.8,1-9.6,2.3-14.4,3.7
	c-0.1,0-0.2,0-0.3,0.1c-2.2-3.2-4.4-6.6-6-10.2c5.9-2.5,12-4.4,18.2-5.9C86.9,91.2,90.6,90.6,94.2,90z"/>
<path class="st5" d="M94.2,90c-3.7,0.5-7.3,1.2-10.9,2.1C77.1,93.6,71,95.5,65.1,98c-1,0.3-1.9,0.6-2.7,1.2c-1.3,0.4-2.5,1-3.7,1.7
	c0.6,2.4,1.4,4.7,2.2,6.9c0.6,1.6,1.1,3.3,1.9,4.9c-1.5,1.5-2.9,2.9-4.4,4.4c-1.2-2.2-2-4.5-2.9-6.8c-1.4-3.4-2.5-6.9-3.6-10.5
	c-0.2-0.7-0.1-1,0.6-1.3c10.3-4.8,21.1-8.2,32.3-10c6.4-1,12.9-1.7,19.4-1.6c2.2,0,4.5,0.3,6.7,0.5c1.9,0.1,3.9,0.3,5.8,0.6
	c1.7,0.2,3.4,0.5,5.1,0.8c1.1,0.2,2.3,0.3,3.4,0.6c-0.3,0-0.7,0-1,0c-2.6-0.3-5.2-0.5-7.9-0.5c-0.2-0.2-0.4-0.2-0.6-0.2
	c-2.1,0-4.3,0-6.4,0c-0.2,0-0.4,0-0.6,0.2c-3.9,0-7.8,0.3-11.7,0.8C96.1,89.7,95.2,89.9,94.2,90z"/>
<path class="st3" d="M116.3,88.9c2.6,0,5.2,0.2,7.9,0.5c0.3,0,0.7,0,1,0c0.7,0.1,1.4,0.3,2,0.4c-0.3,1.9-0.6,3.8-1,5.6
	c-0.1,0.3-0.1,0.6-0.5,0.7c-1.9,0.3-3.6,0.9-5.2,2.1c-0.2-0.5,0.2-0.9,0.1-1.4c-1.5,0.3-3.1,0.5-4.6,0.8c-1.5,0.3-3,0.6-4.5,0.8
	c-0.4,0.1-0.8,0.3-1.1,0.6c-0.9,0.8-1.9,1.6-2.8,2.5c0,0.1,0.1,0.1,0.1,0.2c0.3-0.9,0.6-1.7,1-2.7c-3.3,0.7-6.5,1.4-9.7,2
	c-0.6-3.8-1.3-7.6-1.9-11.4c3.9-0.5,7.8-0.8,11.7-0.8C111.2,88.9,113.8,88.9,116.3,88.9z"/>
<path class="st0" d="M120.5,117.4c1-0.4,2-0.7,2.9-1.1c0.4-0.1,0.5-0.4,0.6-0.7c0.3-1,0.6-2.1,0.9-3.1c0.1-0.3,0.1-0.6,0.5-0.7
	c1.5-0.5,3-0.9,4.7-1.5c-0.6,2.3-1.3,4.5-1.7,6.8c-0.3,1.9-1.3,3-3.1,3.6c-2.8,1-5.5,2.3-8.3,3.4c-0.5,0.2-1.1,0.4-1.6,0.5
	c-1.5,0.3-2.5-0.4-2.5-2c0-0.9,0.2-1.7,0.5-2.5c1.7-5.3,3.4-10.7,5.1-16c1.2-3.8,3.6-5.9,7.6-6.5c2.4-0.3,4.7-0.8,7.1-1.1
	c0.3,0.3,0.1,0.5,0.1,0.7c-0.5,1.8-0.9,3.7-1.4,5.5c-0.1,0.4-0.2,0.6-0.6,0.7c-1.3,0.3-2.6,0.6-4,0.9c0.2-0.9,0.4-1.6,0.7-2.5
	c-1,0-1.9,0.3-2.9,0.5c-0.2,0.1-0.3,0.3-0.3,0.5c-1.4,4.7-2.7,9.4-4.1,14.1C120.5,117.2,120.5,117.2,120.5,117.4z"/>
<path class="st3" d="M130.2,90.6c1.7,0.3,3.3,0.8,4.9,1.3c0.4,0.1,0.4,0.3,0.5,0.6c1.6,5.6,2.1,11.4,1.6,17.2
	c-0.2,2.5-0.5,5-1.1,7.4c-0.1,0.2-0.1,0.5-0.3,0.7c-2.4,3.7-5,7.2-8.2,10.2c-3.6,3.3-7.8,5.7-12.3,7.5c0,0-0.1,0-0.2,0
	c0.3-2.1,0.9-4.1,1.5-6.1c0.1-0.3,0.4-0.4,0.6-0.5c2.1-0.9,4.2-1.9,6.3-2.8c0.8-0.3,1.5-0.8,2-1.4c0.1-0.1,0.1-0.2,0.2-0.3
	c2.8-2.2,4-5.2,4.7-8.6c0.5-2.4,1.2-4.8,1.8-7.3c0-0.2,0.1-0.3,0-0.6c-1,0.3-2,0.6-3.3,1c1.3-1.4,2.4-2.5,3.5-3.7
	c0.2-0.3,0.5-0.5,0.6-0.9c0-0.1,0.1-0.3,0.1-0.4c0.8-3.1,1.5-6.2,2.4-9.4c-2.1,0.3-4,0.6-6.1,0.9C129.7,93.8,130,92.2,130.2,90.6z"
	/>
<path class="st3" d="M96.3,155.4c-1.5,0.5-3.2,0.5-4.8,0.8c-1.8-1.7-3.5-3.5-5.2-5.3c1.9-1.7,2.5-4,2.7-6.5
	c3.6-0.1,7.1-0.4,10.7-1.2c-0.2,3.5-0.3,6.9-1.7,10C97.7,154,97,154.7,96.3,155.4z"/>
<path class="st3" d="M115.8,147.1c-1.4,1.2-3,2.1-4.5,2.9c-3.1,1.8-6.4,3.2-9.9,4.2c-0.2,0.1-0.4,0.2-0.6,0.1
	c1.5-3.8,1.7-7.8,1.9-11.8c3.1-0.8,6.3-1.7,9.4-2.7C112.4,142.8,113.1,145.5,115.8,147.1z"/>
<path class="st5" d="M86.4,150.8c1.6,1.9,3.3,3.7,5.2,5.3c0.4,0.5,0.9,1,1.4,1.4c0.3,0.3,0.5,0.6,0.8,0.8c3.1,2.9,6.4,5.5,9.8,8.1
	c-0.6,0.4-1.2,0.8-1.8,1.3c-0.4,0.3-0.6,0.1-0.9-0.1c-4.9-3.4-9.6-7.1-14-11.1c-3.4-3.2-6.7-6.5-9.7-10.1c1.3-0.7,2.6-1.3,3.9-1.9
	c1.2,1.4,2.2,2.9,3.5,4.2C85.1,149.5,85.7,150.2,86.4,150.8z"/>
<path class="st3" d="M132.7,127c-0.7,1.9-1.8,3.7-2.8,5.4c-2.8,4.6-6.3,8.6-10.4,12.1c-0.1,0.1-0.2,0.2-0.4,0.2
	c-2.5-0.1-4-1.5-4.2-4.3c-0.2-1.6-0.2-1.6,1.3-2.2c6.2-2.5,11.7-5.9,16.1-11C132.4,127.1,132.5,126.9,132.7,127z"/>
<path class="st3" d="M62.8,112.7c-0.8-1.6-1.3-3.2-1.9-4.9c-0.8-2.3-1.5-4.5-2.2-6.9c1.2-0.6,2.4-1.2,3.7-1.7
	c0.1,0.1,0.3,0.2,0.3,0.4c1.6,3.3,3.4,6.3,5.5,9.3c0.1,0.1,0.1,0.2,0.2,0.4C66.4,110.2,64.5,111.4,62.8,112.7z"/>
<path class="st3" d="M113.4,130.4c-0.5,2-1,3.9-1.1,5.8c0,0.3-0.2,0.5-0.5,0.6c-2.9,1-5.9,1.9-9.2,2.7c0-1.6,0-3.1,0-4.6
	c0-0.4,0.4-0.5,0.7-0.6c1.4-0.6,2.8-1.2,4.2-1.8c0.6-0.3,1.2-0.5,1.7-1.1c0.1-0.2,0.3-0.3,0.5-0.3
	C110.9,131.3,112.1,130.8,113.4,130.4z"/>
<path class="st3" d="M99.9,135.9c0,1.4,0,2.6,0,3.8c0,0.4-0.1,0.7-0.5,0.8c-3.4,0.7-6.9,1.1-10.3,1.1c-0.3-0.4-0.1-0.7,0.3-0.9
	c2.3-0.9,3.9-2.8,5.9-4.3c0.5-0.4,0.5-1,0.8-1.6c0.2-0.4,0.3-0.9,0.6-1.5c0.6,1.1,1.2,2.2,1.8,3.3C98.8,136.3,99.2,136.1,99.9,135.9
	z"/>
<path class="st3" d="M84.6,148.7c-1.3-1.3-2.4-2.8-3.5-4.2c0.6-0.4,1.2-0.5,1.9-0.5c1.1,0.1,2.1,0.1,3.2,0.2
	C86.2,146,85.8,147.5,84.6,148.7z"/>
<path class="st0" d="M51.1,159.2c-0.1,0.2-0.3,0.4-0.5,0.3C50.6,159.2,50.9,159.2,51.1,159.2z"/>
<path class="st3" d="M132.8,126.7c0,0.1,0,0.3-0.2,0.3C132.6,126.8,132.7,126.7,132.8,126.7z"/>
<path class="st2" d="M103.6,166.5c-3.4-2.6-6.7-5.2-9.8-8.1c-0.3-0.3-0.5-0.5-0.8-0.8c2-0.4,4-0.7,6-1.2c7.5-1.7,14.3-4.9,20.3-9.7
	c10.3-8.2,16.6-18.7,18.9-31.6c1.3-7.3,1-14.6-0.9-21.8c-0.1-0.2-0.1-0.4-0.1-0.6c0.4-0.2,0.7,0,1,0.1c4.7,1.6,9.3,3.3,13.8,5.4
	c0.6,0.3,0.7,0.5,0.5,1.1c-5.2,17.2-13.5,32.7-25.3,46.2c-6.9,7.9-14.6,14.7-23.2,20.6C103.9,166.3,103.7,166.4,103.6,166.5z"/>
<path class="st1" d="M60.2,142.1c3.7-8.5,7.4-16.7,11.2-24.9c0.2-0.4,0.4-0.6,0.9-0.8c2-0.6,4-1.2,5.9-1.8c0.1,0.4-0.1,0.6-0.2,0.8
	c-3.4,7.5-6.7,15-9.9,22.6c-0.2,0.5-0.5,0.9-1.1,1.1C64.9,139.9,62.6,141,60.2,142.1z"/>
<path class="st6" d="M116.3,88.9c-2.5,0-5,0-7.5,0c0.2-0.2,0.4-0.2,0.6-0.2c2.1,0,4.3,0,6.4,0C115.9,88.7,116.1,88.7,116.3,88.9z"/>
</svg>
