<?xml version="1.0" encoding="utf-8"?>
<!-- Generator: Adobe Illustrator 21.0.0, SVG Export Plug-In . SVG Version: 6.00 Build 0)  -->
<svg version="1.1" id="Layer_3" xmlns="http://www.w3.org/2000/svg" xmlns:xlink="http://www.w3.org/1999/xlink" x="0px" y="0px"
	 viewBox="0 0 200 200" style="enable-background:new 0 0 200 200;" xml:space="preserve">
<style type="text/css">
	.st0{fill:#F8F8F7;}
	.st1{fill:#BFC7CA;}
	.st2{fill:#020202;}
</style>
<path class="st0" d="M200.2,175.3c0-50,0-100,0-150.1c-66.7,0-133.3,0-200,0c0-0.1-0.1-0.2,0.1-0.2c0.3,0,0.5,0,0.8,0
	c66.4,0,132.9,0,199.3,0c0,49.8,0,99.6,0,149.4C200.4,174.7,200.6,175.1,200.2,175.3z"/>
<path class="st1" d="M86.1,151.8c-3.1-7.6-6.1-14.9-9.2-22.4c-7.7,2.5-15.5,5-23.4,7.6c2.6-3.8,5-7.4,7.5-11.2
	c-8.1,2.2-15.8,4.7-23.2,8.2c-0.3-0.9-0.6-1.8-0.9-2.7c-3,1.2-6,2.4-9,3.7c-0.7-1.8-1.3-3.5-2-5.4c-2.1,0.8-4.2,1.5-6.3,2.3
	C14.4,116.2,9.2,100.6,4,84.8c2.1-0.8,4.2-1.5,6.3-2.3c-0.5-1.8-1-3.6-1.6-5.5c2.7-1.1,5.3-2.1,8.1-3.2c-0.4-1.2-0.8-2.4-1.2-3.7
	c2.2-0.7,4.4-1.4,6.7-2.2c-0.5-1.9-1-3.7-1.6-5.6c25.5-9.2,51.8-13.5,78.8-13.6c27.4-0.1,54.1,4.2,80,13.6c-0.5,1.9-1,3.7-1.6,5.6
	c2.3,0.7,4.5,1.4,6.9,2.2c-0.4,1.2-0.9,2.4-1.3,3.7c2.7,1.1,5.5,2.1,8.2,3.2c-0.5,1.9-1.1,3.6-1.6,5.5c2.1,0.8,4.1,1.5,6.2,2.3
	c-5.1,15.7-10.2,31.4-15.4,47.1c-2.2-0.8-4.3-1.5-6.5-2.3c-0.7,1.8-1.3,3.6-2,5.4c-2.9-1.2-5.9-2.4-8.8-3.6
	c-0.5,0.7-0.6,1.7-1.1,2.5c-17.6-7.7-35.8-12.3-55.3-12.7c4.1,4.8,8.1,9.4,12.1,14c0,0.1-0.1,0.1-0.1,0.2
	c-8.7-2.3-17.5-4.5-26.3-6.8C90.7,136.2,88.4,143.9,86.1,151.8z M39.7,130.1c8.8-3.8,17.9-6.5,27.3-8.6c-2.5,3.7-4.9,7.2-7.4,10.9
	c6.4-2.1,12.5-4.1,18.7-6.1c2.5,5.9,4.9,11.8,7.3,17.7c0.1,0,0.1,0,0.2,0c1.8-6.1,3.6-12.3,5.5-18.5c7.1,1.8,14,3.6,20.9,5.4
	c0-0.1,0-0.1,0.1-0.2c-3.5-4-7-8.1-10.7-12.3c10.4-0.5,20.5,0.6,30.4,2.6c9.9,2,19.6,5,29,9c0.3-1,0.5-1.8,0.8-2.8
	c3,1.2,6,2.6,9,3.7c0.7-1.8,1.3-3.6,2-5.3c2.1,0.8,4.1,1.5,6.2,2.3c4.5-13.8,9-27.5,13.5-41.2c-2.1-0.8-4.1-1.5-6.2-2.3
	c0.5-1.6,0.9-3.2,1.3-4.7c0.2-0.7,0-0.9-0.6-1.2c-2.4-1-4.8-2-7.3-2.9c0.4-1.2,0.9-2.4,1.3-3.7c-2.3-0.7-4.5-1.4-6.7-2.2
	c0.4-2,1.2-3.8,1.5-5.8C125.4,47.5,75,47.5,24.4,64c0.6,2.1,1.2,3.9,1.8,5.8c-2.3,0.7-4.5,1.5-6.7,2.2c0.4,1.3,0.8,2.4,1.2,3.6
	c-2.7,1.1-5.4,2.1-8.1,3.3c0.5,1.9,1.1,3.7,1.6,5.5c-2.1,0.8-4.1,1.5-6.2,2.3c4.5,13.8,9,27.4,13.5,41.2c2.1-0.8,4.2-1.5,6.3-2.3
	c0.7,1.8,1.4,3.6,2.1,5.4c3-1.3,5.9-2.5,8.9-3.8C39,128.2,39.3,129.1,39.7,130.1z"/>
<path class="st2" d="M39.7,130.1c-0.3-1-0.6-1.8-1-2.8c-3,1.3-5.9,2.5-8.9,3.8c-0.7-1.8-1.4-3.6-2.1-5.4c-2.1,0.8-4.2,1.5-6.3,2.3
	c-4.5-13.8-9-27.5-13.5-41.2c2.1-0.8,4.1-1.5,6.2-2.3c-0.5-1.8-1-3.6-1.6-5.5c2.6-1.2,5.3-2.2,8.1-3.3c-0.4-1.2-0.8-2.4-1.2-3.6
	c2.2-0.7,4.4-1.4,6.7-2.2c-0.6-1.9-1.1-3.7-1.8-5.8C75,47.5,125.4,47.5,176,64c-0.3,2.1-1.1,3.9-1.5,5.8c2.2,0.7,4.4,1.4,6.7,2.2
	c-0.4,1.2-0.9,2.4-1.3,3.7c2.5,0.9,4.9,1.9,7.3,2.9c0.6,0.2,0.8,0.5,0.6,1.2c-0.5,1.5-0.9,3.1-1.3,4.7c2.1,0.8,4.1,1.5,6.2,2.3
	c-4.5,13.7-9,27.4-13.5,41.2c-2.1-0.8-4.1-1.5-6.2-2.3c-0.7,1.8-1.3,3.5-2,5.3c-3.1-1.1-6-2.5-9-3.7c-0.3,1-0.5,1.8-0.8,2.8
	c-9.4-3.9-19.1-6.9-29-9c-9.9-2.1-20-3.1-30.4-2.6c3.7,4.2,7.2,8.2,10.7,12.3c0,0.1,0,0.1-0.1,0.2c-6.9-1.8-13.8-3.6-20.9-5.4
	c-1.8,6.2-3.6,12.3-5.5,18.5c-0.1,0-0.1,0-0.2,0c-2.4-5.9-4.9-11.7-7.3-17.7c-6.2,2-12.3,4-18.7,6.1c2.5-3.8,4.9-7.3,7.4-10.9
	C57.5,123.5,48.5,126.2,39.7,130.1z M76.2,115.1c-2.1,3.2-4.2,6.3-6.4,9.7c3.8-1.3,7.4-2.4,10.9-3.6c1.5,3.5,2.9,7,4.3,10.6
	c1.2-3.8,2.2-7.4,3.4-11.1c4.1,1,8,2,12.2,3.1c-2.8-3.2-5.4-6.2-8-9.3c1.3-1.1,2.6-2.1,3.8-3.2c0.4-0.4,0.9-0.6,1.5-0.6
	c10.6-0.2,21.2,0.7,31.6,2.6c12.4,2.3,24.4,5.9,36.1,10.6c0.8,0.3,1.6,0.6,2.4,0.9c0.7-1.7,1.4-3.3,2.1-5c2,0.7,3.9,1.4,6,2.1
	c3.6-10.8,7.1-21.5,10.7-32.3c-2.1-0.8-4.1-1.5-6.1-2.2c0.6-2,1.2-3.8,1.8-5.9c-54.8-21.3-109.5-21.3-164.3,0
	c0.6,2.1,1.1,3.9,1.6,5.9c-2.1,0.7-4,1.5-6,2.2c3.6,10.9,7.1,21.6,10.6,32.4c2.1-0.7,4-1.4,6.1-2.1c0.7,1.7,1.3,3.3,1.9,5
	c0.2-0.1,0.3-0.1,0.5-0.1c0.4-0.2,0.9-0.3,1.3-0.5c12.4-5,25-8.9,38.2-11.2c0.4-0.1,0.8-0.2,1.1,0.1
	C74.3,113.7,75.3,114.4,76.2,115.1z M164.4,71.5c1.4,0.1,2-0.3,2.4-1.4c0.3-0.8,0.4-1.6,0.6-2.4c0.2-1.2-0.1-1.8-1.3-2.2
	c-1.4-0.5-2.9-0.9-4.4-1.2c-1.1-0.2-1.9,0.2-2.3,1.3c-0.3,0.9-0.5,1.8-0.7,2.7c-0.1,0.8,0.2,1.4,1,1.7
	C161.2,70.7,162.9,71.2,164.4,71.5z M97.9,58.3c1.1,1.4,2.1,2.6,3.1,3.9c0.2,0.2,0.3,0.5,0.6,0.5c0.9,0,1.7,0,2.6,0c0-2.1,0-4,0-6
	c-0.6,0-1.1,0-1.8,0c0,1.4,0,2.7,0,4.2c-1.2-1.4-2.2-2.6-3.2-3.8c-0.2-0.3-0.4-0.6-0.9-0.5c-0.8,0-1.5,0-2.4,0c0,2.1,0,4,0,6
	c0.6,0,1.2,0,1.9,0C97.9,61.2,97.9,59.9,97.9,58.3z M125.8,57.7c-2.2-0.1-2.9,0.4-3.1,1.9c-0.1,0.7-0.1,1.4-0.2,2.1
	c-0.1,1.1,0.4,1.9,1.5,2c1.5,0.3,3,0.5,4.4,0.6c1.4,0.1,2-0.4,2.3-1.8c0.1-0.6,0.2-1.2,0.3-1.8c0.2-1.4-0.3-2.2-1.7-2.5
	C128,58,126.7,57.8,125.8,57.7z M34.9,69.9c0.3,1.5,0.6,1.7,2,1.6c1.4-0.2,2.8-0.7,4.1-1.1c1.3-0.4,1.6-0.9,1.3-2.3
	c-0.3-1.3-0.8-1.6-2.1-1.3c-0.7,0.1-1.4,0.4-2.2,0.5c-0.4,0.1-0.9,0.2-1.3,0.3c-0.3,0-0.4-0.1-0.5-0.3c-0.1-0.2,0-0.4,0.1-0.5
	c1-0.4,2.1-1,3.1-0.7c0.9,0.3,1.4,0.1,2.1-0.2c-0.3-1.2-0.7-1.6-1.7-1.4c-1.6,0.2-3.1,0.7-4.6,1.2c-0.7,0.3-1.1,0.9-0.9,1.7
	c0.3,1.6,0.9,2,2.5,1.6c1-0.2,2.1-0.5,3.1-0.7c0.3-0.1,0.6,0,0.7,0.3c0.1,0.4-0.1,0.6-0.4,0.7c-0.5,0.2-1.1,0.3-1.6,0.4
	c-0.5,0.1-1.1,0.5-1.5,0.2C36.1,69.2,35.5,69.8,34.9,69.9z M68.1,62.8c-0.4,0-0.6-0.3-0.8-0.5c-1-0.9-2-1.8-2.9-2.7
	c-0.2-0.2-0.5-0.4-0.8-0.3c-0.8,0.2-1.6,0.3-2.4,0.5c0.3,2,0.6,3.9,0.9,5.9c0.6,0,1.2,0,1.7-0.3c-0.2-1.3-0.4-2.6-0.6-4.2
	c1.1,1,2.1,1.7,2.9,2.6c1.2,1.5,2.6,1,4.1,0.6c-0.3-2-0.6-4-0.9-6c-0.6,0.1-1.1,0.2-1.7,0.3C67.7,60,67.9,61.4,68.1,62.8z
	 M138.3,65.5c0.3-1.3,0.5-2.7,0.8-4.3c0.8,1.6,1.5,2.9,2.3,4.2c0.2,0.3,0.3,0.7,0.8,0.8c0.8,0.1,1.6,0.3,2.5,0.4
	c0.4-2.1,0.7-4,1.1-6c-0.6-0.2-1.2-0.3-1.7-0.2c-0.3,1.3-0.5,2.6-0.8,4.2c-0.9-1.5-1.6-2.9-2.3-4.2c-0.2-0.4-0.4-0.7-0.8-0.7
	c-0.8-0.1-1.5-0.3-2.4-0.4c-0.4,2-0.7,3.9-1.1,5.9C137.1,65.3,137.6,65.6,138.3,65.5z M90.6,62.8c-1.1-1.9-2.2-3.5-3.2-5.2
	c-0.3-0.5-0.6-0.6-1.2-0.7c-1.3-0.1-2,0.3-2.4,1.5c-0.3,1-0.9,1.9-1.3,2.9c-0.3,0.6-0.7,1.2-0.8,1.9c1.5,0,1.5,0,2.4-1
	c0.3-0.3,3.8-0.5,3.9-0.2C88.5,63.4,89.5,62.8,90.6,62.8z M47.9,68.5c1-0.4,2.3,0,2.3-1.5c0-0.2,0.4-0.2,0.6-0.3
	c0.5-0.1,1-0.2,1.5-0.2c0.8-0.1,1.7-0.7,2.3,0.5c0.1,0.2,0.3,0.1,0.4,0.1c0.5-0.1,1-0.3,1.6-0.5c-1.3-1.5-2.4-2.9-3.6-4.3
	c-0.7-0.9-2.2-1.1-3.2-0.4c-0.2,0.1-0.2,0.3-0.2,0.4C49.1,64.3,48.5,66.3,47.9,68.5z M112.5,62.9c0.7,0,1.2,0,1.8,0
	c0.4-1.5,0-3.1,0.4-4.5c0.9-0.1,1.7,0.2,2.5,0c0-0.5,0-0.9,0-1.4c-2.4-0.1-4.7-0.3-7-0.4c-0.1,0.5-0.2,1-0.2,1.5
	c0.8,0.3,1.7,0,2.6,0.3C112.6,59.9,112.5,61.3,112.5,62.9z M152.4,68.3c0.4-2,0.8-3.9,1.2-5.9c-0.6-0.1-1.1-0.3-1.8-0.4
	c-0.5,2-0.9,3.9-1.3,5.9C151.2,68.1,151.8,68.2,152.4,68.3z"/>
<path class="st0" d="M76.2,115.1c-1-0.7-1.9-1.4-2.8-2c-0.4-0.3-0.7-0.1-1.1-0.1c-13.2,2.3-25.9,6.1-38.2,11.2
	c-0.4,0.2-0.8,0.3-1.3,0.5c-0.1,0-0.2,0.1-0.5,0.1c-0.6-1.6-1.3-3.3-1.9-5c-2,0.7-4,1.4-6.1,2.1c-3.5-10.8-7.1-21.5-10.6-32.4
	c2-0.7,4-1.4,6-2.2c-0.5-1.9-1.1-3.8-1.6-5.9c54.8-21.3,109.5-21.3,164.3,0c-0.6,2-1.2,3.9-1.8,5.9c2,0.7,4,1.5,6.1,2.2
	c-3.6,10.8-7.1,21.6-10.7,32.3c-2-0.7-3.9-1.4-6-2.1c-0.7,1.7-1.4,3.3-2.1,5c-0.8-0.3-1.6-0.6-2.4-0.9c-11.7-4.7-23.7-8.4-36.1-10.6
	c-10.5-1.9-21-2.7-31.6-2.6c-0.6,0-1.1,0.2-1.5,0.6c-1.2,1.1-2.4,2.1-3.8,3.2c2.7,3.1,5.3,6.1,8,9.3c-4.2-1.1-8.2-2.1-12.2-3.1
	c-1.1,3.7-2.2,7.3-3.4,11.1c-1.5-3.6-2.9-7-4.3-10.6c-3.6,1.2-7.1,2.4-10.9,3.6C72,121.4,74.1,118.3,76.2,115.1z M96.8,91.9
	c0.9,0.3,1.4-0.1,1.8-0.8c1-1.8,2-3.6,3.1-5.3c0.6-1,1.2-2,1.2-3.2c0.1-1.5,0.3-3.1,1.2-4.5c1.1-1.7,2-3.5,3-5.3
	c0.3-0.5,0.6-0.6,1.1-0.6c2.5,0,5.1,0,7.6,0c0.8,0,1,0.3,1,1c0,1.6,0,3.2,0,4.8c0.4-1.5,0.7-3.1,1-4.7c0.1-0.5,0.1-1.1,0.9-0.9
	c1.6,0.3,3.2,0.6,4.8,0.8c3.3,0.6,6.6,1.1,9.9,1.7c3.2,0.6,6.4,1.2,9.6,1.7c1.7,0.3,3.6,2.7,3.3,4.5c-0.8,5.3-1.8,10.6-2.7,15.8
	c-0.2,1.3-0.5,2.6-0.7,3.9c1.3-3.4,2.4-6.7,3.5-10.1c0.9-2.7,1.8-5.3,2.6-8c0.7-2.2,3.6-3.8,6.1-2.9c0.8,0.3,1.7,0.6,2.6,0.8
	c5.2,1.6,10.4,3.2,15.5,5c2.5,0.8,3.7,3.5,2.9,6c-0.6,2-1.3,4-2,6c-1.5,4.5-2.9,9-4.4,13.6c-1,3-3.4,4.3-6.5,3.3
	c-1.8-0.6-3.6-1.1-5.4-1.7c-4.4-1.4-8.7-3-13.1-4.3c-3.4-1-6.9-1.7-10.4-2.4c-1.8-0.4-3.6-1.7-3-4.4c0.5-2,0.7-4.1,1-6.4
	c-1.9-0.3-3.9-0.6-5.8-0.9c-0.7-0.1-1,0-1.1,0.8c-0.4,2.7-0.9,5.3-1.4,8c-0.1,0.8-0.4,1.1-1.3,0.8c-0.9-0.3-1.9-0.3-2.9-0.5
	c-2.4-0.4-4.7-0.8-7.1-1.3c0.7-4.4,1.5-8.7,2.2-13.3c-0.3,0.3-0.4,0.3-0.4,0.4c-2.7,4.8-5.4,9.5-8,14.3c-0.4,0.6-0.7,0.9-1.4,0.8
	c-2.3,0-4.6,0.1-6.8,0c-1.3-0.1-1.8,0.6-2.4,1.7c2.2,0,4.2,0,6.3,0c-0.4,0.7-1.2,0.9-1.6,1.7c23,0,45,4.8,66.2,13.5
	c0.6-1.5,1.1-2.9,1.6-4.3c0.2-0.6,0.5-0.7,1.1-0.5c1.5,0.6,2.9,1.1,4.4,1.6c0.5,0.2,0.8,0.1,0.9-0.4c0.3-1.1,0.7-2.1,1-3.2
	c2.2-6.8,4.4-13.5,6.6-20.3c0.4-1.1,0.7-2.3,1.1-3.4c-1.8-0.6-3.4-1.3-5.1-1.8c-0.6-0.2-0.8-0.5-0.6-1.2c0.5-1.6,0.9-3.3,1.4-5
	c-3-1.1-5.9-2.2-8.9-3.2c-8.4-2.8-16.8-5.2-25.5-7c-4.5-0.9-8.9-1.8-13.4-2.4c-4.9-0.7-9.8-1.3-14.8-1.7c-4.5-0.4-9-0.5-13.4-0.7
	c-4-0.2-8,0.1-12,0.2c-2.2,0-4.5,0.2-6.7,0.4c-4,0.4-8,0.8-12,1.3c-4,0.5-8,1.2-12,1.9c-6.7,1.2-13.3,2.8-19.8,4.6
	c-6.3,1.8-12.4,3.8-18.5,6.2c-0.7,0.3-0.9,0.6-0.7,1.3c0.5,1.6,1,3.2,1.5,4.8c-2,0.7-4,1.5-6,2.2c3,9.2,6,18.3,9,27.5
	c1.8-0.6,3.4-1.2,5.1-1.8c0.7-0.3,1-0.1,1.3,0.6c0.5,1.3,1,2.7,1.6,4.1c11.7-4.7,23.7-8.4,36.1-10.8c-1-0.9-2.1-1.5-3-2.5
	c3.9,0,7.7-0.2,11.5-0.4c-0.1-1.5-0.2-2.8-0.3-4.2c-0.2-2.7-0.8-5.4,1.2-7.8c0.5-0.7,1.1-1.5,1.2-2.5c-4.2,0.8-8.4,1.6-12.6,2.5
	c0.6,3.3,1.2,6.5,1.8,9.8c-0.3,0.1-0.5,0.2-0.7,0.2c-2.9,0.5-5.8,1.1-8.7,1.6c-1.6,0.3-1.6,0.2-2-1.4c0-0.1,0-0.2-0.2-0.1
	c-0.5,1.6-1.6,2.6-3.2,3.2c-0.7,0.3-1.4,0.5-2.1,0.7c-5.2,1.7-10.4,3.3-15.5,5c-2.7,0.9-5.7-0.5-6.6-3.1c-2-6.4-4.1-12.8-6.2-19.1
	c-1-3.2,0.3-5.9,3.5-6.9c5.7-1.8,11.3-3.7,17-5.5c3-1,5.7,0.2,6.7,3.2c1.1,3.3,2.1,6.6,3.2,9.8c0.5,1.6,1,3.2,1.6,4.8
	c0.1,0,0.2,0,0.3-0.1c-1.3-6.7-2.5-13.3-3.8-20.1c1.2-0.2,2.4-0.5,3.5-0.7c6.8-1.3,13.5-2.6,20.3-3.9c2.9-0.5,5.2,0.8,5.8,3.3
	c0.3,1.1,0.5,2.2,0.7,3.3c0.4,2.1,0.8,4.2,1.3,6.4c0.8-0.9,1.4-2.1,1.5-3c0.3-1.9,0.3-3.8,1.4-5.5c1-1.6,1.8-3.2,2.7-4.9
	c0.2-0.5,0.5-0.6,1.1-0.6c2.7,0,5.3,0,8,0c0.7,0,0.9,0.2,0.9,1c0,4,0,8,0,11.9c0,0.4-0.1,0.7-0.3,1.1C98.8,88.1,97.8,89.9,96.8,91.9
	z M97.7,74.8c-0.9,0-1.5,0-2.2,0c-1.1,0-2.5-0.4-3.3,0.2c-0.8,0.6-1.2,1.9-1.8,2.9c-0.9,1.5-1.6,3-1.6,4.8c0,1.3-0.5,2.6-1.2,3.8
	c-1.9,3.3-3.7,6.8-5.7,10c-1.1,1.8-1.3,3.4-0.3,5.2c0.3,0.5,0.5,0.7,1.1,0.7c1.4,0,2.7,0,4.2,0c-0.8,1.9-1.5,3.7-2.3,5.6
	c-1.4-1.5-2.7-2.9-4.2-4.5c0.1,2.4,0.3,4.5,0.4,6.8c-2.4,0.1-4.7,0.1-7.2,0.3c2,1.4,3.8,2.7,5.7,4c-1.3,2.1-2.6,4-4,6.2
	c2.3-0.8,4.5-1.4,6.6-2.1c0.9,2.2,1.8,4.3,2.8,6.6c0.7-2.6,1.4-4.9,2-7.3c2.5,0.7,4.8,1.3,7.1,1.9c0-0.1,0.1-0.1,0.1-0.2
	c-1.5-1.8-3-3.6-4.5-5.4c1.9-1.6,3.7-3.1,5.7-4.8c-2.1,0.1-3.9,0.2-6,0.3c2.2-2.5,4.3-4.8,6.3-7.1c0.3-0.3,0.6-0.3,1-0.3
	c2.3,0,4.7,0,7,0c0.6,0,1-0.2,1.3-0.7c3-5.2,6-10.5,9-15.7c0.3-0.4,0.4-0.9,0.4-1.4c0-2.9,0-5.9,0-8.8c0-0.3,0.1-0.6-0.2-0.9
	c-0.5,0-1.1,0-1.6,0c-1.2,0-2.6-0.4-3.5,0.2c-0.9,0.6-1.2,2-1.8,2.9c-1,1.5-1.7,3.1-1.7,4.9c0,1.4-0.6,2.6-1.3,3.7
	c-1,1.7-2,3.4-3,5.2c-0.5,1-0.9,2.2-1.7,2.8c-0.9,0.6-2.2,0.2-3.3,0.2c-1.2,0-2.5,0-3.9,0c1.1-2,2.1-3.9,3.2-5.6
	c1.9-2.6,2.6-5.5,2.3-8.7C97.6,78.6,97.7,76.7,97.7,74.8z M51,89.1c-0.6-1.9-1.1-3.6-1.8-5.3c-0.5-1.4-1.6-1.8-3-1.4
	c-5.9,1.9-11.7,3.9-17.6,5.8c-1.7,0.6-2.2,1.6-1.7,3.3c1,3.1,2,6.2,3,9.4c0.6,1.9,1.6,2.4,3.6,1.8c4.2-1.3,8.5-2.7,12.7-4
	c0.9-0.3,1.4,0,1.6,0.8c0.2,0.6,0.3,1.1,0.5,1.7c0.3,1.1,0.2,1.4-0.9,1.7c-2.5,0.8-5,1.7-7.5,2.5c-1.7,0.6-1.8,0.5-2.4-1.2
	c-0.1-0.2-0.2-0.3-0.3-0.6c-1.9,0.6-3.8,1.2-5.8,1.9c0.7,2,1.2,3.9,1.9,5.8c0.5,1.3,1.6,1.6,2.9,1.2c5.9-1.9,11.7-3.8,17.6-5.8
	c1.7-0.5,2.2-1.6,1.6-3.3c-1-3.2-2-6.3-3-9.5c-0.7-2.1-1.6-2.6-3.8-1.9c-4.1,1.3-8.2,2.6-12.4,3.9c-1.3,0.4-1.5,0.3-1.9-1
	c-0.2-0.5-0.4-1-0.5-1.5c-0.2-0.8,0-1.3,0.8-1.6c2.8-0.9,5.6-1.8,8.4-2.6c0.8-0.2,1.3,0,1.5,0.8c0.1,0.4,0.2,0.8,0.5,1.1
	C47.2,90.5,49,89.8,51,89.1z M146.5,98.1c-0.6,2-1.2,3.8-1.7,5.6c-0.4,1.3,0.1,2.3,1.4,2.8c6,2,12,3.9,18,5.9c1.4,0.5,2.6,0,3-1.5
	c1.2-3.5,2.4-7,3.4-10.6c0.2-0.8,0-1.4-0.5-2c-0.3-0.4-0.7-0.5-1.2-0.7c-4.3-1.4-8.6-2.9-13-4.3c-0.9-0.3-1.2-0.7-0.8-1.6
	c0.2-0.5,0.3-1.1,0.5-1.7c0.4-1.1,0.6-1.2,1.7-0.9c2.4,0.8,4.8,1.6,7.2,2.4c2.1,0.7,2.1,0.7,1.4,2.7c0,0,0,0.1,0,0.2
	c0.9,0.3,1.9,0.7,2.9,1c1,0.3,1.9,0.6,2.9,1c0.6-1.8,1.2-3.5,1.7-5.2c0.4-1.5-0.2-2.6-1.6-3.1c-0.8-0.3-1.5-0.5-2.3-0.8
	c-5-1.6-10.1-3.3-15.1-4.9c-1.6-0.5-2.8-0.1-3.2,1.2c-1.2,3.5-2.3,7-3.4,10.6c-0.4,1.3,0.2,2.3,1.4,2.8c0.3,0.1,0.6,0.2,0.8,0.3
	c4.1,1.3,8.1,2.6,12.2,3.9c1.1,0.3,1.3,0.8,1,1.8c-0.2,0.6-0.4,1.1-0.5,1.7c-0.3,1-0.6,1.2-1.7,0.8c-2.4-0.8-4.8-1.6-7.1-2.3
	c-2.2-0.7-2.2-0.7-1.5-2.9c0-0.1,0-0.1,0-0.3C150.4,99.3,148.5,98.7,146.5,98.1z M140,104.6c-0.2-0.9-0.2-1.7,0-2.5
	c0.4-2.4,0.8-4.7,1.3-7.1c0.2-1.1,0.1-2.1-0.8-2.9c1.2-0.7,1.3-0.9,1.5-2.3c0.4-2.4,0.8-4.8,1.3-7.2c0.4-2.3-0.3-3.3-2.6-3.7
	c-4.6-0.7-9.1-1.5-13.7-2.3c-2.4-0.4-4.8-0.8-7.2-1.2c-1.4,8.3-2.8,16.6-4.2,25c2,0.4,4,0.7,6.1,1.1c0.6-3.4,1.2-6.6,1.8-10
	c0.5,0.1,0.8,0.1,1.2,0.2c2.9,0.5,5.8,1,8.7,1.5c1.7,0.3,1.9,0.6,1.6,2.3c-0.4,2.2-0.8,4.4-1.2,6.5c-0.2,0.9,0.1,1.5,1.1,1.6
	C136.5,103.9,138.2,104.2,140,104.6z M56,79.8c1.6,8.4,3.2,16.7,4.7,25c2.1-0.4,4.1-0.8,6.1-1.2c-0.6-3.3-1.2-6.5-1.9-9.8
	c1.4-0.3,2.8-0.5,4.1-0.8c3.7-0.7,7.5-1.4,11.2-2.1c1.6-0.3,2.3-1.3,2-2.8c-0.6-3.2-1.2-6.5-1.8-9.7c-0.5-2.4-1.4-3-3.7-2.5
	c-4.6,0.9-9.2,1.8-13.8,2.7C60.6,78.9,58.4,79.4,56,79.8z M162,102.6c-0.2-0.3-0.6-0.3-0.9-0.4c-2-0.7-4.1-1.3-6.1-2
	c-0.4-0.1-0.8-0.4-1.1,0.3c-0.2,0.6,0,0.9,0.6,1.1c0.8,0.2,1.5,0.5,2.3,0.8c1.6,0.5,3.1,1.1,4.6,1.6
	C161.8,103.5,161.9,103.1,162,102.6z M46.7,100.2c-2.3,0.7-4.7,1.5-7.1,2.2c-0.5,0.2-0.8,0.4-0.6,1c0.2,0.6,0.6,0.6,1.1,0.4
	c0.8-0.2,1.5-0.5,2.3-0.7c1.6-0.5,3.1-1,4.7-1.6C47,101.1,47,100.6,46.7,100.2z M43.7,90.8c-2.6,0.9-5,1.7-7.4,2.5
	c-0.4,0.1-0.5,0.4-0.4,0.7c0.1,0.3,0.2,0.8,0.8,0.6c0.3-0.1,0.6-0.2,0.9-0.3c2.1-0.7,4.2-1.4,6.4-2.1C43.9,91.7,43.8,91.3,43.7,90.8
	z M165.1,93.2c-2.3-0.7-4.7-1.5-7-2.2c-0.4-0.1-0.9-0.4-1.1,0.3c-0.2,0.7,0.3,0.8,0.8,1c1.9,0.7,3.9,1.3,5.8,2
	C164.7,94.7,164.8,94.6,165.1,93.2z M56.8,98.7c0.1-0.1,0.1-0.1,0.1-0.2c0-0.1,0-0.2-0.1-0.1C56.8,98.5,56.8,98.6,56.8,98.7z"/>
<path class="st0" d="M164.4,71.5c-1.4-0.3-3.1-0.7-4.8-1.4c-0.7-0.3-1.1-0.9-1-1.7c0.2-0.9,0.4-1.9,0.7-2.7c0.4-1.1,1.2-1.5,2.3-1.3
	c1.5,0.3,3,0.7,4.4,1.2c1.2,0.4,1.5,1,1.3,2.2c-0.1,0.8-0.3,1.6-0.6,2.4C166.4,71.2,165.8,71.5,164.4,71.5z M160.7,67.9
	c0,0.5,0,0.8,0.4,0.9c0.9,0.3,1.9,0.6,2.8,0.8c0.9,0.2,1.1-0.5,1.2-1.2c0.2-0.7,0.5-1.4-0.5-1.8c-0.8-0.3-1.7-0.5-2.5-0.7
	c-0.5-0.1-0.9,0.1-1.1,0.6C160.9,67.1,160.8,67.5,160.7,67.9z"/>
<path class="st0" d="M97.9,58.3c0,1.6,0,3,0,4.3c-0.7,0-1.2,0-1.9,0c0-2,0-4,0-6c0.8,0,1.6,0,2.4,0c0.4,0,0.6,0.3,0.9,0.5
	c1,1.2,2,2.4,3.2,3.8c0-1.6,0-2.9,0-4.2c0.6,0,1.2,0,1.8,0c0,2,0,3.9,0,6c-0.9,0-1.7,0-2.6,0c-0.4,0-0.5-0.3-0.6-0.5
	C100,60.9,99,59.7,97.9,58.3z"/>
<path class="st0" d="M125.8,57.7c0.9,0.1,2.2,0.3,3.5,0.5c1.4,0.3,1.9,1,1.7,2.5c-0.1,0.6-0.2,1.2-0.3,1.8c-0.3,1.4-0.9,1.9-2.3,1.8
	c-1.5-0.1-3-0.3-4.4-0.6c-1.1-0.2-1.6-0.9-1.5-2c0-0.7,0.1-1.4,0.2-2.1C122.9,58.1,123.7,57.6,125.8,57.7z M127.3,62.6
	c1.5,0.1,1.7-0.1,1.8-1.4c0.1-1.4-0.1-1.6-1.5-1.8c-0.3,0-0.6-0.1-1-0.1c-1.8-0.3-1.9-0.1-2.1,1.9c-0.1,0.7,0.3,1,0.9,1.1
	C126.1,62.5,126.8,62.6,127.3,62.6z"/>
<path class="st0" d="M34.9,69.9c0.7-0.1,1.3-0.7,2-0.1c0.4,0.3,1-0.1,1.5-0.2c0.5-0.1,1.1-0.2,1.6-0.4c0.3-0.1,0.5-0.3,0.4-0.7
	c-0.1-0.3-0.4-0.3-0.7-0.3c-1,0.2-2.1,0.5-3.1,0.7c-1.6,0.3-2.2-0.1-2.5-1.6c-0.2-0.8,0.2-1.5,0.9-1.7c1.5-0.6,3-1,4.6-1.2
	c1.1-0.1,1.4,0.2,1.7,1.4c-0.7,0.2-1.3,0.4-2.1,0.2c-1-0.3-2.1,0.2-3.1,0.7C36,66.8,36,67,36,67.2c0.1,0.2,0.3,0.4,0.5,0.3
	c0.4-0.1,0.9-0.2,1.3-0.3c0.7-0.2,1.4-0.4,2.2-0.5c1.4-0.2,1.8,0.1,2.1,1.3c0.3,1.3,0.1,1.9-1.3,2.3c-1.4,0.4-2.7,1-4.1,1.1
	C35.5,71.6,35.2,71.4,34.9,69.9z"/>
<path class="st0" d="M68.1,62.8c-0.2-1.4-0.4-2.7-0.6-4.2c0.6-0.1,1.1-0.2,1.7-0.3c0.3,2,0.6,4,0.9,6c-1.5,0.3-2.9,0.8-4.1-0.6
	c-0.8-0.9-1.8-1.7-2.9-2.6c0.2,1.5,0.4,2.8,0.6,4.2c-0.5,0.3-1.1,0.3-1.7,0.3c-0.3-1.9-0.6-3.8-0.9-5.9c0.8-0.2,1.6-0.3,2.4-0.5
	c0.4-0.1,0.6,0.1,0.8,0.3c1,0.9,1.9,1.8,2.9,2.7C67.5,62.5,67.7,62.8,68.1,62.8z"/>
<path class="st0" d="M138.3,65.5c-0.6,0.1-1.1-0.2-1.8-0.3c0.4-2,0.7-3.9,1.1-5.9c0.9,0.1,1.6,0.3,2.4,0.4c0.4,0.1,0.6,0.4,0.8,0.7
	c0.7,1.3,1.5,2.6,2.3,4.2c0.3-1.6,0.5-2.8,0.8-4.2c0.6,0,1.1,0,1.7,0.2c-0.3,2-0.7,3.9-1.1,6c-0.9-0.2-1.7-0.3-2.5-0.4
	c-0.5-0.1-0.6-0.5-0.8-0.8c-0.7-1.3-1.4-2.7-2.3-4.2C138.8,62.8,138.5,64.2,138.3,65.5z"/>
<path class="st0" d="M90.6,62.8c-1.1,0-2.1,0.5-2.6-0.8c-0.1-0.3-3.7,0-3.9,0.2c-0.9,1-0.9,1-2.4,1c0.1-0.7,0.5-1.3,0.8-1.9
	c0.4-1,1-1.9,1.3-2.9c0.4-1.2,1.1-1.6,2.4-1.5c0.6,0,0.9,0.2,1.2,0.7C88.4,59.3,89.4,61,90.6,62.8z M87,60.6
	c-0.4-0.8-0.7-1.5-1.2-2.2c-0.3,0.8-0.8,1.4-0.9,2.3C85.6,60.7,86.2,60.7,87,60.6z"/>
<path class="st0" d="M47.9,68.5c0.6-2.2,1.2-4.2,1.8-6.3c0-0.2,0.1-0.3,0.2-0.4c0.9-0.6,2.4-0.4,3.2,0.4c1.2,1.4,2.3,2.8,3.6,4.3
	C56,66.7,55.5,66.9,55,67c-0.2,0-0.4,0.1-0.4-0.1c-0.6-1.1-1.5-0.6-2.3-0.5c-0.5,0.1-1,0.2-1.5,0.2c-0.2,0-0.6,0.1-0.6,0.3
	C50.1,68.5,48.9,68.1,47.9,68.5z M51.3,63c-0.2,0.9-0.4,1.6-0.7,2.5c0.8-0.2,1.5-0.2,2.2-0.6C52.3,64.2,51.8,63.7,51.3,63z"/>
<path class="st0" d="M112.5,62.9c0.1-1.6,0.2-3,0.2-4.5c-0.9-0.2-1.8,0-2.6-0.3c-0.1-0.5,0-1,0.2-1.5c2.3,0.1,4.6,0.3,7,0.4
	c0,0.5,0,0.9,0,1.4c-0.8,0.2-1.6-0.1-2.5,0c-0.4,1.5,0,3-0.4,4.5C113.7,62.9,113.1,62.9,112.5,62.9z"/>
<path class="st0" d="M152.4,68.3c-0.7-0.1-1.2-0.3-1.9-0.4c0.5-2,0.9-3.9,1.3-5.9c0.6,0.1,1.2,0.3,1.8,0.4
	C153.2,64.4,152.8,66.3,152.4,68.3z"/>
<path class="st1" d="M96.8,91.9c1.1-1.9,2.1-3.8,3.1-5.7c0.2-0.4,0.3-0.7,0.3-1.1c0-4,0-8,0-11.9c0-0.7-0.2-1-0.9-1
	c-2.7,0-5.3,0-8,0c-0.5,0-0.8,0.2-1.1,0.6c-0.9,1.6-1.7,3.3-2.7,4.9c-1.1,1.7-1.1,3.7-1.4,5.5c-0.2,0.9-0.7,2.1-1.5,3
	c-0.4-2.2-0.8-4.3-1.3-6.4c-0.2-1.1-0.4-2.2-0.7-3.3c-0.7-2.5-3-3.8-5.8-3.3c-6.8,1.3-13.5,2.6-20.3,3.9c-1.1,0.2-2.3,0.4-3.5,0.7
	c1.3,6.7,2.5,13.4,3.8,20.1c-0.1,0-0.2,0-0.3,0.1c-0.5-1.6-1-3.2-1.6-4.8c-1.1-3.3-2.1-6.6-3.2-9.8c-1-2.9-3.7-4.1-6.7-3.2
	c-5.7,1.9-11.3,3.7-17,5.5c-3.2,1-4.6,3.7-3.5,6.9c2.1,6.4,4.1,12.8,6.2,19.1c0.8,2.6,3.9,4,6.6,3.1c5.1-1.7,10.3-3.4,15.5-5
	c0.7-0.2,1.4-0.4,2.1-0.7c1.6-0.6,2.7-1.6,3.2-3.2c0.2-0.1,0.2,0.1,0.2,0.1c0.4,1.6,0.4,1.6,2,1.4c2.9-0.5,5.8-1.1,8.7-1.6
	c0.2,0,0.4-0.1,0.7-0.2c-0.6-3.3-1.2-6.5-1.8-9.8c4.2-0.8,8.4-1.6,12.6-2.5c-0.2,1-0.7,1.8-1.2,2.5c-2,2.4-1.4,5.1-1.2,7.8
	c0.1,1.3,0.2,2.7,0.3,4.2c-3.8,0.3-7.5,0.4-11.5,0.4c1,1.1,2,1.6,3,2.5c-12.5,2.3-24.4,6-36.1,10.8c-0.5-1.4-1.1-2.7-1.6-4.1
	c-0.2-0.7-0.5-0.9-1.3-0.6c-1.6,0.6-3.3,1.2-5.1,1.8c-3-9.2-6-18.3-9-27.5c2-0.7,3.9-1.5,6-2.2c-0.5-1.7-0.9-3.3-1.5-4.8
	c-0.3-0.8-0.1-1.1,0.7-1.3c6.1-2.3,12.3-4.4,18.5-6.2c6.5-1.9,13.1-3.4,19.8-4.6c4-0.7,8-1.4,12-1.9c4-0.5,8-0.9,12-1.3
	c2.2-0.2,4.5-0.4,6.7-0.4c4-0.1,8-0.4,12-0.2c4.5,0.2,9,0.3,13.4,0.7c5,0.4,9.9,1,14.8,1.7c4.5,0.6,9,1.5,13.4,2.4
	c8.6,1.8,17.1,4.1,25.5,7c3,1,5.9,2.1,8.9,3.2c-0.5,1.7-0.9,3.4-1.4,5c-0.2,0.7-0.1,0.9,0.6,1.2c1.7,0.6,3.4,1.2,5.1,1.8
	c-0.4,1.2-0.7,2.3-1.1,3.4c-2.2,6.8-4.4,13.5-6.6,20.3c-0.3,1.1-0.7,2.1-1,3.2c-0.2,0.5-0.4,0.6-0.9,0.4c-1.5-0.6-2.9-1.1-4.4-1.6
	c-0.6-0.2-0.9-0.1-1.1,0.5c-0.5,1.4-1,2.7-1.6,4.3c-21.2-8.7-43.2-13.5-66.2-13.5c0.3-0.8,1.2-1,1.6-1.7c-2.1,0-4.1,0-6.3,0
	c0.6-1,1.2-1.7,2.4-1.7c2.3,0.1,4.6,0,6.8,0c0.7,0,1.1-0.2,1.4-0.8c2.6-4.8,5.3-9.5,8-14.3c0-0.1,0.1-0.1,0.4-0.4
	c-0.8,4.5-1.5,8.9-2.2,13.3c2.4,0.4,4.8,0.9,7.1,1.3c1,0.2,2,0.2,2.9,0.5c0.9,0.3,1.2-0.1,1.3-0.8c0.5-2.7,1-5.3,1.4-8
	c0.1-0.7,0.3-0.9,1.1-0.8c1.9,0.4,3.8,0.6,5.8,0.9c-0.3,2.2-0.6,4.3-1,6.4c-0.6,2.6,1.2,4,3,4.4c3.5,0.8,7,1.4,10.4,2.4
	c4.4,1.3,8.7,2.9,13.1,4.3c1.8,0.6,3.6,1.2,5.4,1.7c3,1,5.5-0.3,6.5-3.3c1.5-4.5,2.9-9,4.4-13.6c0.7-2,1.3-4,2-6
	c0.8-2.5-0.4-5.2-2.9-6c-5.2-1.7-10.4-3.3-15.5-5c-0.9-0.3-1.8-0.5-2.6-0.8c-2.5-1-5.4,0.6-6.1,2.9c-0.8,2.7-1.7,5.3-2.6,8
	c-1.1,3.4-2.2,6.8-3.5,10.1c0.2-1.3,0.4-2.6,0.7-3.9c0.9-5.3,1.9-10.5,2.7-15.8c0.3-1.9-1.6-4.2-3.3-4.5c-3.2-0.6-6.4-1.2-9.6-1.7
	c-3.3-0.6-6.6-1.1-9.9-1.7c-1.6-0.3-3.2-0.5-4.8-0.8c-0.8-0.2-0.8,0.4-0.9,0.9c-0.3,1.6-0.5,3.1-1,4.7c0-1.6,0-3.2,0-4.8
	c0-0.7-0.1-1-1-1c-2.5,0.1-5.1,0-7.6,0c-0.5,0-0.8,0.1-1.1,0.6c-0.9,1.8-1.9,3.6-3,5.3c-0.9,1.4-1.1,2.9-1.2,4.5
	c0,1.3-0.6,2.2-1.2,3.2c-1,1.8-2.1,3.5-3.1,5.3C98.2,91.8,97.7,92.2,96.8,91.9z"/>
<path class="st2" d="M97.7,74.8c0,1.9-0.1,3.8,0,5.6c0.3,3.2-0.5,6.1-2.3,8.7c-1.2,1.7-2.1,3.6-3.2,5.6c1.4,0,2.7,0,3.9,0
	c1.1,0,2.5,0.4,3.3-0.2c0.8-0.6,1.2-1.8,1.7-2.8c1-1.7,1.9-3.5,3-5.2c0.7-1.2,1.3-2.3,1.3-3.7c0-1.8,0.7-3.4,1.7-4.9
	c0.6-1,1-2.4,1.8-2.9c0.9-0.6,2.3-0.1,3.5-0.2c0.6,0,1.1,0,1.6,0c0.3,0.3,0.2,0.6,0.2,0.9c0,2.9,0,5.9,0,8.8c0,0.5-0.1,0.9-0.4,1.4
	c-3,5.2-6,10.4-9,15.7c-0.3,0.6-0.7,0.7-1.3,0.7c-2.3,0-4.7,0-7,0c-0.4,0-0.7,0-1,0.3c-2,2.3-4.1,4.6-6.3,7.1c2.1-0.1,3.9-0.2,6-0.3
	c-2,1.7-3.9,3.2-5.7,4.8c1.5,1.8,3,3.6,4.5,5.4c0,0.1-0.1,0.1-0.1,0.2c-2.3-0.6-4.6-1.3-7.1-1.9c-0.7,2.4-1.3,4.7-2,7.3
	c-1-2.3-1.9-4.4-2.8-6.6c-2.1,0.7-4.3,1.4-6.6,2.1c1.4-2.2,2.7-4.1,4-6.2c-1.9-1.3-3.7-2.6-5.7-4c2.5-0.2,4.8-0.2,7.2-0.3
	c-0.1-2.2-0.3-4.4-0.4-6.8c1.5,1.6,2.8,3,4.2,4.5c0.8-1.9,1.5-3.7,2.3-5.6c-1.5,0-2.8,0-4.2,0c-0.6,0-0.8-0.2-1.1-0.7
	c-1-1.8-0.9-3.4,0.3-5.2c2.1-3.2,3.8-6.7,5.7-10c0.7-1.2,1.2-2.4,1.2-3.8c0-1.8,0.7-3.3,1.6-4.8c0.6-1,0.9-2.3,1.8-2.9
	c0.9-0.6,2.2-0.1,3.3-0.2C96.2,74.8,96.9,74.8,97.7,74.8z M92.4,85.9c-0.6,0-1,0-1.5,0c-0.9-0.1-1.4,0.2-1.8,1
	c-1.9,3.5-3.9,6.9-5.9,10.4c-0.1,0.3-0.5,0.5-0.2,1c2.4,0,4.9,0,7.5,0c-1.9,4.3-3.8,8.5-5.7,13c-0.9-1-1.6-1.8-2.4-2.6
	c-0.1,1.1,0.3,2,0.1,3.1c-1.1,0.1-2.3,0.2-3.6,0.3c1.1,0.7,2,1.3,2.9,2c-0.7,1-1.3,2-2.1,3.2c1.3-0.4,2.3-0.7,3.4-1
	c0.4,1.1,0.9,2.1,1.3,3.3c0.4-1.3,0.7-2.5,1.1-3.7c1.2,0.3,2.4,0.6,3.8,1c-0.9-1.1-1.6-2-2.3-2.9c0.9-0.8,1.8-1.5,2.7-2.3
	c-1.5-0.1-2.9,0.2-4.2,0.1c0-0.1,0-0.2,0-0.3c2.8-4.3,5.6-8.5,8.4-12.8c0.3-0.4,0.6-0.4,1-0.4c2.1,0,4.2,0,6.4,0
	c0.6,0,0.9-0.2,1.1-0.7c1.6-3,3.3-6.1,5-9.1c0.4-0.8,1-1.6,1.3-2.6c-0.5,0-0.9,0-1.2,0c-0.9-0.1-1.4,0.2-1.8,1
	c-1.5,2.8-3.2,5.6-4.8,8.4c-0.3,0.6-0.7,0.8-1.3,0.7c-2.4,0-4.8,0-7.1,0c-1.9,0-3.8,0-5.9,0C88.6,92.6,90.5,89.4,92.4,85.9z
	 M95.7,76.3c-0.9,0-1.6,0-2.3,0c-0.3,0-0.5,0-0.7,0.3c-0.5,1-1.1,2-1.7,3.1c0.9,0,1.7,0,2.4,0c0.2,0,0.4,0,0.6-0.3
	C94.5,78.4,95,77.5,95.7,76.3z M112,76.3c-0.8,0-1.4,0-2,0c-0.3,0-0.5,0-0.7,0.3c-0.5,1-1.1,2-1.7,3.1c0.9,0,1.5,0,2.2,0
	c0.3,0,0.5-0.1,0.7-0.4C111,78.3,111.4,77.4,112,76.3z M92.9,83.9c0.1-0.9,0.1-1.8,0.2-2.7c-0.8,0-1.6,0-2.4,0
	c-0.1,0.9-0.2,1.8-0.3,2.7C91.2,83.9,92,83.9,92.9,83.9z M107.2,81.2c-0.1,0.9-0.2,1.8-0.2,2.7c0.9,0.1,1.7,0.1,2.5,0
	c0.1-0.9,0.2-1.8,0.1-2.7C108.8,81.2,108.1,81.2,107.2,81.2z"/>
<path class="st2" d="M51,89.1c-2,0.7-3.8,1.4-5.7,2c-0.3-0.3-0.4-0.8-0.5-1.1c-0.3-0.8-0.8-1-1.5-0.8c-2.8,0.9-5.6,1.8-8.4,2.6
	c-0.8,0.3-1,0.8-0.8,1.6c0.1,0.5,0.3,1,0.5,1.5c0.4,1.3,0.6,1.4,1.9,1c4.1-1.3,8.2-2.6,12.4-3.9c2.2-0.7,3.1-0.2,3.8,1.9
	c1,3.2,2,6.3,3,9.5c0.5,1.7,0,2.7-1.6,3.3c-5.9,1.9-11.7,3.9-17.6,5.8c-1.4,0.4-2.4,0.1-2.9-1.2c-0.7-1.9-1.3-3.8-1.9-5.8
	c2-0.7,3.9-1.3,5.8-1.9c0.1,0.2,0.2,0.4,0.3,0.6c0.6,1.8,0.7,1.8,2.4,1.2c2.5-0.8,5-1.7,7.5-2.5c1.1-0.4,1.2-0.6,0.9-1.7
	c-0.2-0.6-0.3-1.1-0.5-1.7c-0.2-0.8-0.7-1.1-1.6-0.8c-4.2,1.4-8.5,2.7-12.7,4c-1.9,0.6-3,0.1-3.6-1.8c-1-3.1-2-6.2-3-9.4
	c-0.6-1.7-0.1-2.8,1.7-3.3c5.9-1.9,11.7-3.9,17.6-5.8c1.4-0.4,2.5,0,3,1.4C49.9,85.5,50.4,87.3,51,89.1z"/>
<path class="st2" d="M146.5,98.1c2,0.6,4,1.3,5.9,1.9c0,0.2,0,0.2,0,0.3c-0.7,2.2-0.7,2.2,1.5,2.9c2.4,0.8,4.8,1.6,7.1,2.3
	c1.1,0.3,1.3,0.2,1.7-0.8c0.2-0.6,0.4-1.1,0.5-1.7c0.3-1.1,0.1-1.5-1-1.8c-4.1-1.3-8.1-2.6-12.2-3.9c-0.3-0.1-0.6-0.2-0.8-0.3
	c-1.2-0.5-1.8-1.6-1.4-2.8c1.1-3.5,2.3-7.1,3.4-10.6c0.4-1.3,1.6-1.7,3.2-1.2c5,1.6,10.1,3.3,15.1,4.9c0.8,0.3,1.6,0.5,2.3,0.8
	c1.4,0.5,2,1.6,1.6,3.1c-0.5,1.7-1.1,3.4-1.7,5.2c-1-0.3-2-0.6-2.9-1c-1-0.3-2-0.7-2.9-1c0-0.1,0-0.1,0-0.2c0.6-2,0.6-2-1.4-2.7
	c-2.4-0.8-4.8-1.6-7.2-2.4c-1.1-0.4-1.4-0.2-1.7,0.9c-0.2,0.6-0.3,1.1-0.5,1.7c-0.3,0.9,0,1.3,0.8,1.6c4.3,1.4,8.6,2.8,13,4.3
	c0.4,0.1,0.9,0.3,1.2,0.7c0.5,0.6,0.7,1.2,0.5,2c-1,3.6-2.2,7.1-3.4,10.6c-0.5,1.4-1.6,1.9-3,1.5c-6-1.9-12-3.9-18-5.9
	c-1.3-0.4-1.8-1.4-1.4-2.8C145.3,101.9,145.9,100,146.5,98.1z"/>
<path class="st2" d="M140,104.6c-1.8-0.3-3.5-0.6-5.2-1c-0.9-0.2-1.2-0.7-1.1-1.6c0.4-2.2,0.8-4.4,1.2-6.5c0.3-1.7,0.1-2-1.6-2.3
	c-2.9-0.5-5.8-1-8.7-1.5c-0.4-0.1-0.8-0.1-1.2-0.2c-0.6,3.3-1.2,6.6-1.8,10c-2.1-0.4-4.1-0.7-6.1-1.1c1.4-8.4,2.8-16.6,4.2-25
	c2.5,0.4,4.8,0.8,7.2,1.2c4.6,0.8,9.1,1.6,13.7,2.3c2.3,0.4,3,1.4,2.6,3.7c-0.4,2.4-0.8,4.8-1.3,7.2c-0.2,1.4-0.4,1.6-1.5,2.3
	c0.9,0.8,1,1.7,0.8,2.9c-0.5,2.4-0.9,4.7-1.3,7.1C139.8,102.8,139.8,103.6,140,104.6z M124.4,86c3.5,0.6,6.9,1.2,10.2,1.8
	c1.4,0.2,1.6,0.1,1.9-1.4c0.1-0.4,0.1-0.8,0.2-1.3c0.2-1.1,0-1.5-1.1-1.7c-2.1-0.4-4.2-0.8-6.3-1.1c-1.3-0.2-2.7-0.4-4-0.7
	C124.9,83.2,124.6,84.6,124.4,86z"/>
<path class="st2" d="M56,79.8c2.4-0.5,4.7-0.9,6.9-1.4c4.6-0.9,9.2-1.8,13.8-2.7c2.4-0.5,3.3,0.1,3.7,2.5c0.6,3.2,1.2,6.5,1.8,9.7
	c0.3,1.4-0.4,2.5-2,2.8c-3.7,0.7-7.5,1.4-11.2,2.1c-1.4,0.3-2.7,0.5-4.1,0.8c0.6,3.3,1.2,6.5,1.9,9.8c-2,0.4-4,0.8-6.1,1.2
	C59.1,96.5,57.6,88.3,56,79.8z M63.2,84c0.3,1.5,0.5,2.9,0.8,4.3c3.6-0.7,7.1-1.3,10.7-2c0.8-0.1,1-0.7,0.9-1.4
	c-0.1-0.7-0.3-1.3-0.4-2c-0.2-0.8-0.7-1.1-1.4-0.9C70.2,82.7,66.8,83.4,63.2,84z"/>
<path class="st1" d="M162,102.6c0,0.4-0.2,0.9-0.5,1.3c-1.5-0.5-3.1-1.1-4.6-1.6c-0.8-0.3-1.5-0.5-2.3-0.8c-0.6-0.2-0.8-0.5-0.6-1.1
	c0.2-0.7,0.6-0.5,1.1-0.3c2,0.7,4.1,1.3,6.1,2C161.4,102.3,161.7,102.3,162,102.6z"/>
<path class="st1" d="M46.7,100.2c0.4,0.4,0.3,0.9,0.5,1.4c-1.6,0.5-3.2,1-4.7,1.6c-0.8,0.3-1.5,0.5-2.3,0.7
	c-0.5,0.2-0.9,0.2-1.1-0.4c-0.2-0.6,0-0.8,0.6-1C42,101.7,44.3,100.9,46.7,100.2z"/>
<path class="st1" d="M43.7,90.8c0.1,0.5,0.2,0.9,0.4,1.4c-2.2,0.7-4.3,1.4-6.4,2.1c-0.3,0.1-0.6,0.2-0.9,0.3
	c-0.6,0.2-0.7-0.2-0.8-0.6c-0.2-0.4-0.1-0.6,0.4-0.7C38.7,92.5,41.1,91.7,43.7,90.8z"/>
<path class="st1" d="M165.1,93.2c-0.3,1.5-0.3,1.5-1.5,1.1c-1.9-0.7-3.9-1.3-5.8-2c-0.5-0.2-1-0.3-0.8-1c0.2-0.7,0.7-0.5,1.1-0.3
	C160.4,91.7,162.8,92.5,165.1,93.2z"/>
<path class="st1" d="M56.8,98.7c0-0.1-0.1-0.2,0-0.3c0.1-0.1,0.1,0,0.1,0.1C56.9,98.6,56.9,98.6,56.8,98.7z"/>
<path class="st2" d="M160.7,67.9c0.1-0.4,0.2-0.9,0.4-1.3c0.2-0.5,0.6-0.7,1.1-0.6c0.9,0.2,1.7,0.4,2.5,0.7c1,0.3,0.7,1.1,0.5,1.8
	c-0.1,0.6-0.3,1.4-1.2,1.2c-0.9-0.2-1.9-0.5-2.8-0.8C160.7,68.8,160.7,68.4,160.7,67.9z"/>
<path class="st2" d="M127.3,62.6c-0.5-0.1-1.2-0.1-1.8-0.2c-0.6-0.1-1-0.5-0.9-1.1c0.2-2,0.3-2.2,2.1-1.9c0.3,0,0.6,0.1,1,0.1
	c1.4,0.1,1.6,0.3,1.5,1.8C129,62.5,128.7,62.7,127.3,62.6z"/>
<path class="st2" d="M87,60.6c-0.8,0-1.4,0.1-2.1,0.1c0.2-0.8,0.6-1.5,0.9-2.3C86.3,59.1,86.6,59.9,87,60.6z"/>
<path class="st2" d="M51.3,63c0.6,0.7,1,1.3,1.6,1.9c-0.7,0.4-1.4,0.4-2.2,0.6C50.8,64.6,51,63.9,51.3,63z"/>
<path class="st1" d="M92.4,85.9c-2,3.4-3.8,6.7-5.8,10.2c2.1,0,4,0,5.9,0c2.4,0,4.8,0,7.1,0c0.6,0,1-0.2,1.3-0.7
	c1.6-2.8,3.2-5.6,4.8-8.4c0.4-0.8,0.9-1.2,1.8-1c0.4,0.1,0.8,0,1.2,0c-0.3,1-0.9,1.7-1.3,2.6c-1.6,3-3.3,6-5,9.1
	c-0.3,0.5-0.6,0.7-1.1,0.7c-2.1,0-4.2,0-6.4,0c-0.4,0-0.7,0-1,0.4c-2.8,4.3-5.6,8.5-8.4,12.8c0,0,0,0.1,0,0.3
	c1.4,0.1,2.7-0.3,4.2-0.1c-0.9,0.8-1.8,1.5-2.7,2.3c0.7,0.9,1.4,1.8,2.3,2.9c-1.4-0.4-2.6-0.7-3.8-1c-0.4,1.2-0.7,2.3-1.1,3.7
	c-0.5-1.2-0.9-2.2-1.3-3.3c-1.1,0.3-2.1,0.6-3.4,1c0.8-1.2,1.4-2.1,2.1-3.2c-0.9-0.6-1.8-1.2-2.9-2c1.3-0.1,2.4-0.2,3.6-0.3
	c0.2-1-0.2-2-0.1-3.1c0.8,0.8,1.5,1.6,2.4,2.6c2-4.5,3.8-8.7,5.7-13c-2.6,0-5.1,0-7.5,0c-0.2-0.5,0.1-0.7,0.2-1
	c2-3.5,4-6.9,5.9-10.4c0.4-0.8,0.9-1.1,1.8-1C91.4,86,91.8,85.9,92.4,85.9z M84.1,114.7c0.6-0.1,0.9-0.4,0.9-1
	c0-0.6-0.4-0.9-0.9-0.9c-0.6,0-1,0.4-0.9,1C83.2,114.4,83.5,114.7,84.1,114.7z"/>
<path class="st1" d="M95.7,76.3c-0.6,1.1-1.2,2.1-1.7,3c-0.1,0.2-0.3,0.3-0.6,0.3c-0.7,0-1.5,0-2.4,0c0.6-1.1,1.2-2.1,1.7-3.1
	c0.2-0.3,0.4-0.3,0.7-0.3C94.1,76.3,94.8,76.3,95.7,76.3z"/>
<path class="st1" d="M112,76.3c-0.6,1.1-1.1,2-1.5,2.9c-0.2,0.3-0.3,0.4-0.7,0.4c-0.7,0-1.4,0-2.2,0c0.6-1.1,1.2-2.1,1.7-3.1
	c0.2-0.3,0.4-0.3,0.7-0.3C110.6,76.3,111.2,76.3,112,76.3z"/>
<path class="st1" d="M92.9,83.9c-0.9,0-1.7,0-2.5,0c0.1-0.9,0.2-1.8,0.3-2.7c0.8,0,1.6,0,2.4,0C93,82.2,93,83,92.9,83.9z"/>
<path class="st1" d="M107.2,81.2c0.9,0,1.6,0,2.3,0c0.1,0.9,0,1.8-0.1,2.7c-0.8,0.1-1.6,0.1-2.5,0C107,83,107.1,82.2,107.2,81.2z"/>
<path class="st0" d="M124.4,86c0.3-1.4,0.5-2.8,0.8-4.3c1.4,0.2,2.7,0.4,4,0.7c2.1,0.4,4.2,0.8,6.3,1.1c1.1,0.2,1.3,0.5,1.1,1.7
	c-0.1,0.4-0.1,0.8-0.2,1.3c-0.2,1.4-0.5,1.6-1.9,1.4C131.2,87.2,127.9,86.7,124.4,86z M126.2,83.6c-0.4,1.4-0.3,1.6,0.9,1.7
	c2.1,0.3,4.3,0.7,6.4,1c1.2,0.2,1.5-0.1,1.1-1.4C131.8,84.5,129,84,126.2,83.6z"/>
<path class="st0" d="M63.2,84c3.6-0.7,7-1.3,10.5-2c0.8-0.2,1.3,0.1,1.4,0.9c0.1,0.7,0.3,1.3,0.4,2c0.1,0.7-0.1,1.2-0.9,1.4
	c-3.5,0.7-7,1.3-10.7,2C63.7,86.9,63.4,85.5,63.2,84z M73.5,85.1c0-1.3-0.1-1.4-1.3-1.2c-2.2,0.4-4.3,0.8-6.5,1.2
	c-1.1,0.2-1.3,0.5-0.6,1.5C67.9,86.1,70.7,85.6,73.5,85.1z"/>
<path class="st2" d="M84.1,114.7c-0.6,0-0.9-0.3-1-0.9c0-0.6,0.3-1,0.9-1c0.5,0,0.9,0.3,0.9,0.9C85,114.3,84.7,114.6,84.1,114.7z"/>
<path class="st1" d="M126.2,83.6c2.8,0.5,5.6,0.9,8.5,1.4c0.3,1.3,0.1,1.5-1.1,1.4c-2.1-0.3-4.3-0.7-6.4-1
	C125.9,85.1,125.8,84.9,126.2,83.6z"/>
<path class="st1" d="M73.5,85.1c-2.8,0.5-5.6,1-8.4,1.5c-0.7-1-0.5-1.3,0.6-1.5c2.2-0.4,4.3-0.8,6.5-1.2
	C73.4,83.7,73.5,83.7,73.5,85.1z"/>
</svg>
