<?xml version="1.0" encoding="utf-8"?>
<!-- Generator: Adobe Illustrator 21.0.0, SVG Export Plug-In . SVG Version: 6.00 Build 0)  -->
<svg version="1.1" id="Layer_2" xmlns="http://www.w3.org/2000/svg" xmlns:xlink="http://www.w3.org/1999/xlink" x="0px" y="0px"
	 viewBox="0 0 200 200" style="enable-background:new 0 0 200 200;" xml:space="preserve">
<style type="text/css">
	.st0{fill:#2B2825;}
	.st1{fill:#BE2238;}
	.st2{fill:#84888B;}
	.st3{fill:#FEFEFE;}
	.st4{fill:#8B2236;}
</style>
<path class="st0" d="M30.4,158.1c-3.7,2.4-7.8,3.4-12.2,3.1c-8-0.6-15.4-7.1-17-15.1c-0.8-4.1-0.3-8,1.3-11.8c0.1-0.3,0.3-0.6,0.2-1
	c-0.6-2.4-0.1-4.6,0.9-6.8c0.2-0.5,0.3-0.9,0.2-1.5c-0.3-1.2,0.3-2.6,1.3-3.2c1.5-0.8,2.7-1.9,3.7-3.1c0.7-0.9,1.6-1.5,2.8-1.4
	c1.2-0.1,2.4,0.6,3.7-0.1c0.7-0.4,1.8-0.4,2.3-1c0.6-0.6,0-1.7,0-2.5c-0.2-2.9-0.2-5.7-0.2-8.6c0-0.4,0-0.7-0.5-0.9
	c-1.9-0.4-3.7-0.9-5.6-1.2c-2.7-0.8-5.5-1.2-8.2-1.9c-0.1,0-0.2-0.1-0.5-0.1C4,86.6,8.7,73.3,17.1,61.3c0.3,1.5,0.6,3,0.9,4.5
	c0.3,1.5,0.4,2.9,0.8,4.3c15.6-23.8,37.2-37.6,66-37.6c28.9,0,50.4,13.8,66,37.6c0.1-0.3,0.2-0.7,0.3-1.1c0.5-2.5,1-5,1.5-7.5
	c2.9,3.9,5.2,8.2,7.3,12.6c3.7,8.1,6,16.5,7,25.3c0.1,0.6,0.1,1.1,0.1,1.8c-2.9,0.7-5.8,1.3-8.7,2c-2,0.4-4.1,0.9-6.1,1.3
	c0.2,4.2,0,8.2-0.4,12.3c2.3-0.5,4.4-1.1,6.4-1.7c15.3-4.9,29.5-11.6,41.3-23.1c0.1,0.9-0.2,1.5-0.5,2.1c-2.6,6-6.6,11-11.3,15.4
	c-9.4,8.9-20.4,15.3-31.9,20.9c-0.3,0.1-0.5,0.3-0.8,0.4c-1.4,0.6-2.8,1.3-4.3,1.7c-2.5,0.6-4,2-4.7,4.5c-0.3,1-0.9,2-1.4,3
	c1,0.5,2,0.8,2.8,1.4c0.2,0.1,0.4,0.1,0.6,0.1c0.9-0.2,1.9-0.1,2.8,0c1.9,0.9,3.9,1.8,5.9,2.4c1,0.3,1.5,1,1.9,1.9
	c1.1,2.4,0.9,4.9,0.5,7.5c-0.4,3.3-1.9,6.3-2.2,9.6c-0.2,2.4-0.7,4.7-1.6,7c-2.6,6.5-7.9,9.6-14.9,8.7c-2.4-0.3-2.4-0.3-3.5,1.8
	c-0.1,0.2-0.2,0.4-0.3,0.6c-1.2-0.5-2-1.4-2.4-2.5c-0.3-0.8-0.8-1-1.5-1.2c-2.6-0.7-2.6-0.7-4.1,1.4c-0.1,0.1-0.1,0.2-0.3,0.3
	c-1.3-1.2-1.8-2.8-2.1-4.4c-0.4-1.8-0.1-3.5,0.2-5.3c0.5-1.6,1.3-3.2,2.6-4.6c-2,0-3.2,1.5-4.7,2.1c-0.5-1.1-0.2-2.1-0.5-3.2
	c-12.6,8.7-26.5,12.7-41.6,12.2c0,0.7-0.1,1.3-0.1,1.9c-0.1,1.5-0.5,2.6-2.2,3c-1,0.2-2,0.4-2.9,0.8c-2.3,0.2-4.6,0.1-6.9,0.2
	c-1,0-1.9,0.4-2.8,0.8c-3.5,1.4-7.1,2.5-10.9,2.4c-1.9,0-3.8-0.3-5.6-1.1c-0.7,0.6-1,1.5-1.5,2.2c-1.3-0.9-2.3-2-2.8-3.5
	c-0.1-0.4-0.3-0.6-0.6-0.7c-1.1-0.5-2.1-1.1-3-2c-0.8,0.8-1.5,1.6-2.4,2.5c-1.4-1.4-2.1-3-2.3-4.7c-0.5-3.4-0.1-6.7,2-9.5
	c0.2-0.3,0.3-0.5,0.5-0.8c0.8-0.8,1.7-1.6,2-2.7c0.2-0.6,0.7-1,1.3-1.3c0.3-0.2,0.7-0.2,0.8-0.7c-3.4-2.5-6.5-5.4-9.5-8.6
	C33.6,155.6,32.1,157,30.4,158.1z M192.4,100.7c-7.3,5.5-15.1,9.9-23.5,13.3c-8.2,3.3-16.6,6-25.5,6.7c-0.6,2.3-1.2,4.5-2.3,6.7
	c-0.7,1.4-1.9,2.4-3.4,2.6c-1.1,0.1-1.9,0.6-2.6,1.2c-1.1,0.8-2.3,1.3-3.7,1.9c0.6,0.6,1.1,1.2,1.6,1.7c0.3,0.3,0.6,0.3,0.9,0.3
	c3.1-0.7,6.2-1.4,9.2-2.4c13.3-4.3,25.6-10.7,36.7-19.3c4.7-3.6,9-7.6,12.8-12.1c0.4-0.5,0.9-0.9,1.1-1.6
	C193.2,99.9,192.8,100.3,192.4,100.7z M28.1,81.9c-0.2-0.8-0.4-1.4-0.5-2.1c-0.1-0.9-0.7-1.2-1.4-1.5c-2.1-0.7-4.3-1.4-6.4-2.2
	c-1.1-0.4-2.1-0.4-3.1,0c-0.5,0.2-1,0.5-1.5,0.6c-0.8,0.2-1.1,0.7-1.3,1.3c-1.7,4.3-3.1,8.6-4.2,13.1c-0.3,1.1-0.6,2.1-0.6,3.4
	c0.7-0.2,1.2-0.4,1.8-0.5c1.1-0.2,2.1-0.8,3.3-0.3c6.2,2.2,12.4,4.3,18.7,6.5c0.7,0.2,1.2,0.7,1.7,1.3c0.5,0.6,0.9,1.3,1.8,1.9
	c0.6-3.2,1-6.3,2-9.4c-2.3-0.8-4.4-1.5-6.6-2.3c-0.3-0.1-0.8-0.2-0.9-0.5c-0.4-1.2-0.8-2.4-1-3.6c0.3-0.1,0.4-0.1,0.6,0
	c2.6,0.9,5.2,1.8,7.8,2.8c0.8,0.3,1.2,0.3,1.5-0.7c0.9-2.4,2.1-4.7,3.5-6.8c1.5-2.4,3.1-4.7,5-6.8c0.7-0.7,0.7-1.3-0.1-2
	c-0.6-0.5-1.1-1.1-1.6-1.6c-1.8-1.8-1.8-1.9,0.3-3.5c0.6-0.4,0.8-0.4,1.3,0.1c1.1,1.2,2.2,2.3,3.4,3.5c5.3-4.7,11.1-8.2,17.7-10.7
	c-1.9-1-3.8-1.7-3.7-4.4c1.2-0.5,2.6-1.1,4-1.7c0.8-0.4,1.8-0.5,2.4-1.4c0.7-1,1.4-2,2.1-3c0.3-0.4,0.3-0.7,0.2-1.1
	c-1.1-2.7-2.1-5.3-3-8c-0.4-1.1-0.9-1.6-2-1.7c-1.1-0.1-2.2-0.7-3.4-0.4c-4.1,1.2-8.1,2.8-12,4.5c-1.1,0.5-2.2,1-3.2,1.8
	c0.7,0.9,1.6,1.3,2.4,1.8c0.7,0.5,1.1,1,1.4,1.7c1.3,3.5,2.4,7.1,3.8,10.5c0.9,2.1,0.7,4,0,6.2c-0.8-0.2-1.7,0.2-2.4-0.6
	c-2.8-3-5.8-5.7-8.4-8.9c-2-2.4-4.3-3.4-7.3-3c-0.7,0.1-1.2,0.2-1.7,0.7c-0.9,0.8-1.9,1.7-2.8,2.5c-1.9,1.8-3.7,3.8-5.4,5.8
	c-1,1.2-2,2.4-2.8,3.7c0.5,0.4,1.1,0.4,1.6,0.5c1.2,0,2.1,0.3,3,1.2c3.2,3.3,6.4,6.6,9.7,9.8c1.1,1.1,1,2.4,1.1,3.6
	c-1.2,0.3-2.1,0.7-3.3,0.3c-2.5-1-5.2-1.7-7.7-2.6c-0.9-0.3-1.5-0.1-2.1,0.5C29.4,81.2,28.9,81.6,28.1,81.9z M61.7,86.2
	c-0.4,2.2,0.1,4.1,1.2,5.8c1.5,2.3,3.8,3.4,6.3,4.1c1.9,0.5,3.9,0.6,5.6,1.8c1.7,1.2,3.3,2.4,4.6,4.1c0.5,0.7,1.1,1.3,1.7,1.8
	c2.8,2.4,5.8,4.1,9.7,3.4c2.1-0.4,3.7-1.5,5.3-3.2c-2.3,0.3-4.4,0.3-6.4,0.1c-2.8-0.4-5.3-1.2-7.2-3.4c-1.8-2-3.4-4.2-5.1-6.3
	c-0.5-0.6-1.2-1-2-1.2c-1.5-0.3-3.1-0.4-4.7-0.4c-0.8,0-1.1-0.1-0.9-1.1c1-4.3,3.3-7.8,6.5-10.8c1.8-1.7,3.7-2.5,6.1-1.2
	c1.1,0.6,2.4,0.6,3.6,0.4c1.5-0.3,2.9-0.6,4.4-1c2.2-0.6,4.3-0.5,6.4,0.5c1.1,0.6,2.4,0.9,3.6,1.3c2.1,0.7,4.2,0.6,6.3-0.1
	c0.4-0.1,1-0.2,0.9-0.7c-0.2-0.9-0.1-1.8-0.6-2.6c-0.7,0-0.8,0.8-1.4,1.1c-0.2-1.2,0.4-2.1,0.7-3.1c0.6-1.4-0.3-3.3-1.7-3.8
	c-2.9-1-6-1.6-9.1-2.3c-1.9-0.4-3.8-0.6-5.6-1.5c-0.6-0.3-1.2-0.7-1.4-1.6c1,0.3,1.8,0.8,2.8,0.7c0-0.7-0.3-1-0.8-1.2
	c-1.7-0.7-3.4-1.3-5-2c-0.8-0.3-1.4-0.1-1.9,0.3c0.7,1.6,1.1,3.3,2.5,4.4c-1.4-0.2-2.3-1.1-3.2-2c-0.9-1-2-1.7-3.3-2
	c-2.2-0.5-4.4-0.5-6.6-0.5c-0.4,0-0.7,0.2-0.9,0.5c-0.9,1.1-1.8,2.2-2.8,3.3c-0.2,0.2-0.3,0.6-0.7,0.6c-0.5-0.8-0.3-1.6-0.4-2.3
	c-0.1,0-0.2-0.1-0.2-0.1c-0.1,0-0.3,0-0.4,0.1c-3.4,1.1-6.7,2.4-9.4,5c-4.5,4.4-6.1,9.7-5.6,15.8c0.3,3.4,1.7,6.5,3.5,9.4
	c2.4,3.7,4.4,7.6,5.1,12.1c0.5,3.6,2.1,6.8,4.8,9.4c1.6,1.5,3.3,2.9,5.6,3.3c0.3,0.1,0.6,0.1,0.9-0.2c0.9-1,1.6-2.1,2.1-3.4
	c-2.4,0-4.6-0.5-6.3-2.6c1.7,0.3,3.1,0.3,4.4-0.5c1.4-0.8,2.1-2,2.5-3.6c-4.9,2-10,0.9-11.2-2.4c2,0.5,3.9,0.9,5.9,0.7
	c2-0.2,3.9-0.8,5.2-2.8c-1.4-0.1-2.6,0.5-3.8,0.1c-1.2-0.3-2.4-0.4-3.5-0.9c-1.2-0.5-2.2-1.2-3.1-2.1c-0.8-0.9-1.6-1.8-2.1-3.1
	c5.4,2.5,10,3.3,11.6,2c-0.5-1-1.4-1.6-2.4-2c-1.7-0.7-3.4-1.2-5.1-1.9c-3.3-1.3-5.8-3.5-6.4-7.2C59.8,89.4,60.1,87.7,61.7,86.2z
	 M126.6,52c0,1.3,0,2.2,0,3.2c0,0.5-0.1,0.9-0.6,1.3c-3.2,2.9-6.3,5.8-9.4,8.7c-1,0.9-1.9,1.7-3.4,1.8c-0.6,0-1.4,0-1.9,0.7
	c2.5,1.7,4.9,3.6,7.2,5.7c1-0.9,2-1.8,2.9-2.7c0.2-0.2,0.4-0.5,0.7-0.4c1.4,0.4,2.9,0.5,4.3,1.2c-1.8,1.7-3.6,3.1-5.2,4.9
	c6.4,7.3,10.1,15.7,11.6,25.3c4.2-1.4,8.4-2.8,12.5-4.3c0.4-0.1,0.6-0.6,0.7-1.1c0.8-3.7,1.5-7.4,2.3-11.1c0.1-0.5,0.3-0.8,0.8-0.9
	c0.9-0.3,1.8-0.6,2.9-0.9c0.5,1.4,1,2.8,1.5,4.3c-1.4,0.5-2.8,0.9-4.1,1.4c-0.6,0.2-0.9,0.5-0.6,1.2c0.3,0.8,0.5,1.7,0.7,2.6
	c0.4,1.3,0.8,2.6,1.3,4.2c0.4-0.5,0.7-0.8,1-1.1c0.7-0.9,1.7-1.5,2.8-1.8c1.9-0.5,3.7-1.2,5.6-1.8c-1.5-6.8-3.7-13.2-6.9-19.5
	c-0.5,0.8-0.9,1.4-1.3,2c-0.4,0.8-1,1.2-1.8,1.5c-2.1,0.6-4.1,1.3-6.1,1.9c-0.7,0.2-1,0.6-1.1,1.3c-0.8,4-1.7,7.9-2.5,11.9
	c-0.1,0.5-0.3,0.8-0.8,1c-1.1,0.3-2.2,0.7-3.4,1.1c-0.3-1.5-1.2-2.8-1.3-4.3c1.5-0.6,3-0.9,4.4-1.6c-0.9-2.7-1.8-5.3-2.8-8.2
	c-1.2,1.7-2.6,2.5-4.3,3c-1.5,0.5-3.1,1-4.6,1.5c0-0.7,0.1-1.2,0-1.7c-0.1-1.1,0.3-1.9,1.1-2.6c1-0.9,2-2,3-2.9
	c0.4-0.4,0.6-0.9,0.6-1.5c0-0.9-0.2-1.7,0.1-2.7c2.1,1.1,3.5,0.4,5-1.2c1.5-1.6,3.1-3.1,2.8-5.6c-0.1-0.5,0-0.9-0.4-1.3
	c-2.7-3.2-5.7-6.2-8.7-9.1C129.6,54.2,128.3,53.1,126.6,52z M126.7,117.4c-0.2-1.2,0.1-2.4-0.3-3.6c-1.3-3.5-3-6.8-5.3-9.8
	c-0.7-0.9-1.6-1.6-2.8-1.9c-3.4-0.9-6.8-1-10.2-0.8c-1,0.1-2.1,0.1-3.1,0.9c0.7,1.2,1.6,2.5,1.2,4.2c-2.3-3.1-5.3-4.8-8.6-5.9
	c-0.8,0.8-0.5,1.2,0.2,1.7c1.4,1,1.4,1.1,0.6,2.6c-0.9,1.8-2.5,2.9-4.4,3.7c-1.6,0.7-3.3,0.9-5,1.2c-0.2,0.4,0.1,0.7,0.2,0.9
	c0.7,1.4,1.6,2.6,2.6,3.8c2.7,3.2,6.1,4.2,10.1,3.3c0.5-0.1,1-0.3,1.4-0.7c1.7-1.3,1.7-1.3,3.8-1.2c2.1,0.1,4.1-0.1,6.1-1.2
	c1.1,2,2.9,3,4.6,4.1c0.5,0.3,1.1,0.5,1,1.2c0,0.8,0.1,1.7,0.2,2.5c0.3,2.7,0.9,5.4,2.1,7.9c0.5,1,1.2,1.4,2.3,1.3
	c0.7-0.1,1.4-0.2,2.1-0.4c0.7-0.1,0.9-0.5,0.7-1.2c-0.2-0.8-0.2-1.6-0.4-2.6c1.3,1,2.4,1.9,3.5,2.8c0.3,0.2,0.5,0.5,1,0.3
	c1.1-0.4,2.1-0.9,3-1.6c-0.6-1.1-1.3-2.2-1.7-3.7c1.4,0.6,2.7,1.1,3.8,1.6c0.6,0.3,1.2,0.2,1.8-0.1c1.5-0.8,2.1-2.1,2.6-3.6
	c1.1-3.8,0.8-4.4-3.1-5.6c-0.1,0-0.1,0-0.2,0c-0.3,0.5-0.4,1,0,1.6c0.6,1,0.6,2.2,0.4,3.4c-0.4-0.1-0.5-0.3-0.7-0.5
	c-1.6-2.2-3.6-3.8-6-5.1c-1.1-0.6-2.1-0.9-3,0.2C127.2,117.4,127,117.5,126.7,117.4z M91.9,139.3c2,0.5,3.9,0.3,5.7,0
	c7.6-1.1,14-4.4,19.3-10c0.2-0.3,0.4-0.5,0.3-0.9c-0.6-2.1-0.9-4.2-1.1-6.3c0-0.3,0-0.6-0.3-0.8c-0.7-0.5-1.3-1-2-1.6
	c-0.3,0.4-0.5,0.8-0.8,1.2c-0.3,0.4-0.6,0.8-1,1.2c-4.6,4.4-10,5.7-16.1,4.7c-7.7-1.2-15.5-8-15.9-18.3c0-1.2-0.3-2-1.6-2.3
	c-0.5,2.3-0.7,4.5-0.4,6.8c0.4,4.4-1.1,7.9-4.4,10.8c-0.3,0.3-0.7,0.4-1.1,0.4c-2.9-0.3-5.6-1.3-7.8-3.3c-3.4-3-5.2-6.9-6.4-11.1
	c-0.2-0.8-0.4-1.7-0.7-2.7c-0.2,0.3-0.3,0.5-0.3,0.6c-0.1,0.2-0.2,0.5-0.2,0.7c-0.7,2.7-0.5,5.5,0.4,8.1c1.8,5.6,5.2,10,10.3,13.1
	c3.6,2.2,7.2,4.2,10.7,6.4c2,1.2,4.2,1.8,6.4,1.9c2.9,0.3,5.8-0.2,8.6-0.7c1.6-0.3,3.1-0.6,5-1C96.4,138.1,94.3,138.8,91.9,139.3z
	 M52.5,138.6c1-4.7,4.2-7.8,7.5-10.9c-4.2-4.4-6.1-9.6-6.5-15.6c-1.2,0.8-1.8,1.7-2.2,2.6c-1.1,2.6-2.8,5.1,0,7.9
	c1.3,1.3,1.8,3.1,1.7,5.2c-0.3-0.3-0.5-0.5-0.7-0.6c-1.3-1.1-2.4-2.6-4.2-3.1c-3.5-0.9-6.9-1.7-10.5-1.6c-1.1,0-2.3,0.1-3.3-0.4
	c-2.7-1.4-5.6-2.3-8.5-3.3c-2.2-0.7-4.4-0.9-6.7,0.1c-1,0.4-2,0.6-3.1,0.9c-1.9,0.5-2.5,2-3.2,3.7c2.7-0.9,3.3,1.4,4.4,2.7
	c0.7-0.4,1.2-1,1.5-1.7c0.2-0.4,0.3-0.7,0.7-0.8c1.1-0.3,2.2-0.7,3.3-1c0.8-0.2,1.5-0.2,2.3,0.4c1.1,0.8,2.3,1.4,3.2,2.3
	c2.3,2.1,4.3,4.5,3.5,8c-0.1,0.3,0.1,0.6,0.1,0.9c0.1,0.3,0.2,0.4,0.5,0.4c2,0.4,4.2-1.3,4.3-3.4c0.1-1.5-0.3-2.9-0.7-4.4
	c1.2,0.9,2.6,2.6,2.8,3.9c0.2,1.6,1.2,2.3,2.4,3.1C44.7,136.1,48.3,137.9,52.5,138.6z M107.7,65.1c1.5-0.1,2.7-0.2,4-0.2
	c0.5,0,0.6-0.3,0.8-0.7c1.7-4.4,3.5-8.8,5.3-13.1c0.5-1.3,0.6-2.2-0.4-3.2c-1.3-1.3-2.1-3.1-4-3.8c-2.2-0.8-4.4-1.7-6.6-2.5
	c-0.7-0.2-1.4-0.2-2.2-0.1c-1,0.1-1.9,0.3-2.9,0.3c-0.9,0-1.4,0.5-1.7,1.2c-1.6,4.1-3.2,8.2-4.9,12.3c-0.5,1.3-1.1,2.6,0.4,3.6
	c0.1,0,0,0.1,0.1,0.2c1.1,0.9,1.6,2.3,3,2.8c1.8,0.6,3.6,1.3,5.3,2C105.3,64.4,106.4,65.4,107.7,65.1z M75.2,148.5
	c0.1-0.3,0.2-0.3,0.2-0.4c-0.1-0.2-0.1-0.4-0.3-0.6c-1.7-2.5-3.7-4.7-6.1-6.6c-3.2-2.6-6.9-3.9-10.8-5c-0.7-0.2-1.1,0-1.4,0.5
	c-1.6,2.7-2.1,5.6-0.6,8.3c2.1,3.8,3.7,7.8,4.9,11.9c0.2,0.8,0.6,1.1,1.4,1.3c2.6,0.7,5.2,1.1,7.9,1c1.1-0.1,2.2-0.2,3.2-0.9
	c-0.4-0.9-0.2-1.8,0.1-2.7c1-3.2,0.2-5.9-2.2-8.1c-0.6-0.6-1.2-1.1-1.8-1.7C72.1,145.6,73.7,146.9,75.2,148.5z M138.1,143.7
	c0.3,0.2,0.6,0.2,0.9,0.1c2.2-0.8,3.5,0.6,4.1,2.1c1.3,3.2,0.7,6.2-1.3,9c-1.1,1.5-2.6,2.5-4.2,3.5c0.4,0.3,0.4,0.8,0.6,1.1
	c2.3-0.1,5.1,0.8,6.7,2.3c-0.2,0-0.4,0-0.5,0c-2.5-0.4-5.1-0.6-7.6-0.2c-2.2,0.4-4.1,1.3-5.4,3.4c2,0.7,3.1,2.1,3.4,4.2
	c1.1-1.9,2.4-3.1,4.6-2.7c2,0.4,3.2,1.8,3.9,3.7c0.4,0,0.8-0.1,1.2-0.2c2.7-0.9,3.9-3,4.5-5.5c0.9-4,2.2-7.9,2.9-11.9
	c0.4-2.2,0.6-4.3-0.1-6.5c-0.4-1.2-1.2-2.4-2.5-2.3c-1.7,0.1-3-0.5-4.5-1.2c-0.7-0.3-1.4-0.5-2.2-0.7
	C140.6,141.6,138.9,142.2,138.1,143.7z M81.4,42.9c0,4.8,0,9.4,0,13.9c0,0.5-0.3,0.8-0.6,1.2c-0.5,0.7-1.1,1.3-1.5,2.3
	c4-0.6,7.9-0.4,12,0c-0.5-0.7-0.8-1.2-1.1-1.5c-0.8-0.9-1.1-1.8-1.1-3c0.1-3,0-6.1,0-9.1c0-1.2,0-2.3,0-3.6c2.2,0.9,4,2.2,5.9,3.1
	c0.5-0.3,0.3-0.8,0.3-1.1c0-1.6-0.1-3.3,0-4.9c0.1-1.1-0.4-1.4-1.3-1.5c-2.7-0.2-5.3-0.5-8-0.6c-3.4-0.1-6.8,0.2-10.2,0.6
	c-0.6,0.1-0.7,0.4-0.6,0.9c0,2,0,4,0,6c0,0.2,0,0.5,0.3,0.6C77.5,45,79.4,44,81.4,42.9z M51,167.1c3.6,1.9,5.7,4.8,6,8.8
	c2,0.7,4,0.7,6,0c2.9-1,5.7-2,8.9-1.9c1.9,0,3.7-0.2,5.6-0.7c1.1-0.3,1.4-0.9,1.5-1.9c0.1-2.1-0.6-4-1.3-5.9
	c-0.3-0.8-0.5-1.5-0.2-2.4c0.2-0.8,0-1.7-0.6-2.3c-0.4-0.5-0.9-0.8-1.5-0.2c-0.4,0.3-0.8,0.5-1.3,0.7c-2.1,0.9-4.2,0.8-6.4,0.7
	c-2.2-0.2-4.3-0.4-6.3-1.4c-0.4-0.2-0.9-0.5-1.6-0.1c0.6,1.6,0.5,3.4,1.9,4.7c1.1,1,1.5,2.3,1.2,4c-0.4-0.5-0.6-0.9-0.9-1.2
	c-1.1-1.4-2.5-2.5-4.3-2.8c-3.2-0.5-6.4-0.7-9.7-0.5c-0.6,0-1.2,0.1-1.7,0.6c1.9,1.2,2.6,3.1,2.8,5.3c0.8-1.1,1.8-1.5,2.9-1.8
	C51.6,168.1,51.3,167.6,51,167.1z M80,139.6c1.9,1.9,3.2,4.1,4.3,6.4c0.2,0.5,0.5,0.6,1,0.4c2.2-0.7,4.5-1.1,6.8-1.6
	c2.5-0.5,5-0.5,7.4,0.6c3.1,1.3,6,2.9,8.8,4.8c0.6,0.4,1.1,0.6,1.7,0.5c2.7-0.2,5.1-1.2,7.5-2.3c0.9-0.4,1.8-0.8,2.6-1.5
	c-1.5-1.2-2.2-2.9-3.1-4.5c-1.1-1.9-2.2-3.7-4.2-4.9c-0.5-0.3-0.9-0.3-1.4,0c-8.1,5-16.7,5.9-25.8,3.6
	C83.7,140.7,81.9,140.1,80,139.6z M110.1,152.7c1.2,0.8,2.3,1.4,3.3,2.1c0.9,0.6,1.7,0.7,2.7,0.4c5-1.2,9.4-3.6,13.2-7
	c2.6-2.3,4.7-5.1,6-8.4c0.1-0.3,0.4-0.7-0.1-1c-1-0.6-2.1-1.2-3.1-1.9c-0.8,2.3-1.9,4.4-3.6,6.1c-2.1-1.2-3.3-2.9-4.4-4.9
	c-1.2-2.3-2.7-4.4-5.2-5.5c-0.3-0.1-0.5-0.3-0.8-0.1c-1.4,1.1-2.8,2.2-4.2,3.3c0.8,0.5,1.4,1,2.1,1.5c1.3,1.1,2.3,2.4,3,4
	c1.1,2.3,2.5,4.3,4.5,5.9C121.7,149.3,115.3,152,110.1,152.7z M82.1,108c-0.1,1.1,0.2,2.1,0.4,3c1.7,9.4,10.9,15.4,19.3,13.8
	c3.2-0.6,6.2-1.9,8.5-4.3c0.6-0.6,1.1-1.3,1.3-2.3c-1.7,0.5-3.2,0.7-4.8,0.5c-0.5-0.1-0.8,0.1-1.1,0.3c-3.6,2.4-7.4,2.4-11.2,0.7
	c-4.2-1.9-6.8-5.2-8.2-9.5c-0.1-0.4-0.1-0.9-0.7-1C84.4,108.7,83.3,108.4,82.1,108z M122.1,155.4c0.6,0.5,1.2,0.6,1.8,0.8
	c2.4,0.8,4.8,1.5,7.3,1.5c2.6,0.1,4.9-0.9,6.8-2.6c2.1-1.9,3.6-4.1,3.1-7.2c-0.2-1.4-1.1-2.6-2-2.2c-1,0.5-1.6,0-2.4-0.4
	c-0.5-0.2-0.9-0.6-1.4-0.6C132,149.7,127.2,152.8,122.1,155.4z M57.8,133.7c4.8,0.8,8.8,2.8,12.5,5.5c3.7,2.7,6.4,6.4,8.7,10.5
	c1.4-0.7,2.6-1.2,3.8-2c-0.2-0.4-0.3-0.7-0.5-1c-3-5.7-7.4-10-13-13.2c-2.1-1.2-4.2-2.4-6.6-2.9c-0.5-0.1-1-0.4-1.5,0.1
	C60.2,131.6,59.1,132.6,57.8,133.7z M13.1,145c0,0.4,0.1,0.6,0.1,0.8c0.5,2.3,0.3,2.2,2.3,1.8c5.8-1.1,10.7-3.8,14.6-8.2
	c0.5-0.6,0.7-1.4,0.1-2c-1.4-1.3-1.4-2.9-1.1-4.4c0.3-1.3-0.4-2.1-1-3c-0.4-0.5-0.7-0.5-1.2-0.1c-0.9,0.8-1.5,1.8-2.1,2.8
	c-1,2-1.9,4-2.9,6c-1,2-2.4,3.6-4.3,4.8C16.2,144.3,14.7,144.7,13.1,145z M26.1,127.6c-0.7-0.5-1.2-0.9-1.7-1.2
	c-1.1-0.7-3.3-0.1-3.8,1.1c-0.5,1-1.2,1.8-2.2,2.1c-1.6,0.4-2.5,1.6-3.4,2.9c-2.2,3-1.9,6.5-2.1,9.9c0,0.4,0.2,0.6,0.6,0.5
	c1.5-0.4,2.9-0.9,4.1-2c2-1.7,3-4.1,4-6.4C22.7,131.8,23.8,129.4,26.1,127.6z M36.4,141.9c-2.4,2.5-5.3,3.9-8.6,4.1
	c0.3-0.8,1-1.2,1.3-2.3c-4.4,3.5-9.3,5.6-14.6,6.3c0.1,0.3,0.2,0.5,0.3,0.7c0.3,0.8,0.6,1.1,1.6,0.9c1.5-0.3,3-0.5,4.5-0.4
	c2.1,0.2,4.1,0.1,6.1,0.2c2.2,0.1,4.2-0.6,6.2-1.6C36.5,148.1,36.9,144.6,36.4,141.9z M139.6,175.3c0,0.1,0.1,0.2,0.1,0.3
	c1.2,0,2.4,0.1,3.6,0c1.9-0.1,3.6-0.6,5.1-1.8c2.8-2.1,4.3-5,5-8.3c0.8-3.9,1.3-7.8,2.7-11.6c0.5-1.5,0.6-3.1,0.5-4.6
	c-0.2-2-0.7-3.4-2.5-3.2c0.5,1.5,0.7,3,0.6,4.6c-0.1,2-0.4,3.9-1.2,5.8c-1.3,3.1-1.4,6.4-2.4,9.5c-1.1,3.3-3.1,6.1-6.8,6.7
	C142.2,172.9,141,174.2,139.6,175.3z M51.4,180.9c0.1,0.1,0.2,0.1,0.3,0.2c0.2,0.1,0.3,0.1,0.5,0.2c4.2,1,8.3,0.7,12.2-0.9
	c3.3-1.4,6.7-2.1,10.2-1.6c1.3,0.2,2.6-0.2,3.7-0.8c0.3-0.2,0.5-0.4,0.5-0.8c0-0.7,0-1.4,0-2.1c-2.2,1.1-4.7,1-7.1,1.1
	c-0.6,0-1.1,0-1.7,0.1c-2,0.3-3.8,1-5.7,1.6c-3.2,1.2-6.4,1.3-9.6,0.3c-0.3-0.1-0.6-0.2-0.9,0.1C53.1,179,52.1,179.8,51.4,180.9z
	 M90.5,100.3c0.5-0.6,0.9-1.1,1.4-1.6c0.5-0.5,0.4-0.9-0.1-1.4c-0.7-0.5-1.5-1-2.3-1.4c-1.5-0.7-2.5-1.8-3.1-3.4
	c-0.6-1.5-1.2-3-2.4-4.1c-2.2-2-4.8-2.9-7.7-3.1c-0.3,0-0.6,0-0.9,0.2c-1,1-1.5,2.3-2,3.7c1.7-0.7,3.1-1.9,4.7-2.9
	c0.8,1.5,1,3.1,1.1,4.8c1.2-0.6,2.3-1.2,3.4-1.7c0.6,1.7,0.2,3.4,0.2,5.3c0.9-0.5,1.6-0.9,2.3-1.2c0.5-0.3,0.9-0.3,1,0.4
	c0.2,1,0.2,2,0.2,3c0,0.4-0.2,0.8,0.2,1.2c1-0.4,1.7-1.2,2.7-1.6C90,97.6,89.8,98.9,90.5,100.3z M32.7,152.9c0-0.1-0.1-0.2-0.1-0.3
	c-0.3,0.1-0.6,0.2-0.9,0.3c-1.9,0.6-3.8,0.8-5.7,0.7c-2.2-0.2-4.3-0.1-6.5-0.1c-0.9,0-1.7,0.2-2.8,0.3c1.7,2.3,3.7,3.7,6,4.8
	c0.3,0.2,0.7,0.1,1.1,0c2.2-0.6,4.3-1.5,6.1-2.9C30.9,154.8,32,154.1,32.7,152.9z M4.7,137.1c-0.1,0.8,0.3,1.3,0.5,1.9
	c1,2,2.2,3.6,4.6,3.8c0.5,0,0.8,0,0.7-0.5c-0.3-2.6,0.8-5.3-0.8-7.8c-0.4-0.6-0.5-1.3-0.4-2c0-0.2,0-0.5-0.3-0.6
	c-1.9,1.5-2.4,3.7-3.1,5.8C5.4,137.8,5.3,137.2,4.7,137.1z M48.5,181.4c1.5-2.6,3.5-4.4,5.8-5.8c0.4-0.2,0.5-0.5,0.3-0.9
	c-0.4-1.3-1-2.5-2.1-3.4c-0.5-0.5-1-0.5-1.6-0.1c-1.6,1-2.3,2.6-2.8,4.3C47.5,177.5,47.2,179.4,48.5,181.4z M47,172.1
	c-0.2-1.3-0.5-2.5-1.2-3.6c-0.8-1.3-1.6-1.4-2.7-0.5c-1.6,1.3-2.4,3-3,4.9c-0.4,1.5-0.5,3,0.2,4.6C42.3,175.2,44.4,173.4,47,172.1z
	 M135.9,177c1.1-2,2.5-3.4,4.2-4.6c1.4-1,1.5-1.4,0.4-2.8c-0.3-0.3-0.6-0.6-0.9-0.9c-0.9-0.8-1.6-0.8-2.5,0
	c-0.7,0.7-1.1,1.6-1.4,2.5C135,173,134.9,174.9,135.9,177z M3.3,140.7c-0.1,1.2-0.2,2.4-0.1,3.6c0.1,1.6,1,2.3,2.4,2.7
	c1.2,0.4,2.4,0.6,3.6,0.8c1.9,0.4,2.2,0.1,1.8-1.8c-0.2-0.8-0.5-1.1-1.4-1.1c-1.2,0-2.4-0.5-3.5-1.2C5,143,4.2,141.9,3.3,140.7z
	 M9.6,155.4c0.7-1.1,1.6-1.8,2.6-2.5c0.3-0.2,0.9-0.3,0.6-0.8c-0.4-0.7-0.3-1.9-1.2-2c-2.2-0.1-4.5-0.2-6.9-1
	C6,151.8,7.5,153.7,9.6,155.4z M128.6,174.7c0.9-1.7,2.1-3.1,3.5-4c0.8-0.5,0.8-1,0.7-1.8c-0.1-0.9-1.4-1.9-2.4-2.1
	c-0.7-0.1-1,0.4-1.3,0.9c-0.6,0.7-1,1.6-1.2,2.5C127.6,171.7,127.5,173.2,128.6,174.7z M128.1,139.7c0.3-0.4,0.6-0.8,0.9-1.1
	c1.2-1.7,1.2-2.4,0-4c-0.2-0.2-0.4-0.4-0.5-0.7c-0.2-0.4-0.5-0.5-0.9-0.4c-1.1,0.2-2.1,0.5-3.2,0.7
	C126.4,138.4,126.6,138.7,128.1,139.7z M11.6,133.6c0.6-0.3,0.5-0.8,0.7-1.2c0.6-1.4,1.1-2.9,2.7-3.6c0.5-0.2,0.5-0.7,0.4-1.2
	c-0.1-0.8-0.5-1.5-1.1-2.1c-0.4-0.4-0.8-0.4-1.3-0.1c-1.6,1-2.1,2.7-2.3,4.4C10.8,131.2,10.9,132.4,11.6,133.6z M5.1,134
	c0.4-0.4,0.4-0.8,0.5-1.2c0.5-1.2,1-2.4,2.2-3.1c1.1-0.7,1.4-1.3,0.8-2.4c-0.8-1.6-1.8-1.7-2.9-0.4C4.2,128.6,3.8,132,5.1,134z
	 M6.3,124.6c1.9-0.9,2.6,0.7,3.6,1.6c0.4-0.6,0.8-1.1,0.7-1.7c-0.2-1.2,0.4-2.2,1-3.2c0.3-0.4,0.8-0.8,0.8-1.5
	c-1-0.3-1.8,0.2-2.3,0.9c-0.8,1.1-1.8,1.9-3,2.6C6.8,123.5,6.4,123.8,6.3,124.6z M31.9,142.2c2.3-0.6,5.3-4.8,4.4-6.3
	c-0.8,0.4-1.7,0.7-2.5,0.8c-0.7,0-1,0.3-0.9,1c0.1,1.1-0.2,2-0.5,3C32.2,141.2,31.8,141.6,31.9,142.2z M18.1,158.6
	c-1.7-1.1-2.8-2.6-3.9-4c-1.2,0.4-1.9,1.2-2.5,2C12.7,157.7,16.8,159.1,18.1,158.6z M126.2,163c3.1-0.6,5.9-1.2,8.4-3.1
	c-0.2-0.1-0.4-0.2-0.5-0.2c-1.8,0.4-3.5,0.8-5.3,0.4c-0.1,0-0.3,0.1-0.5,0.2C127.6,161.1,126.7,161.8,126.2,163z M139.8,115.9
	c0.7-2-0.6-5.1-2.4-6c0.2,1.5-0.1,2.9-0.5,4.3c-0.1,0.4,0.1,0.6,0.4,0.7C138.2,115.1,139,115.6,139.8,115.9z M133.8,116.3
	c0-2.3-1.1-4.6-2.4-5.2c-0.2,1.1,0,2.2-0.5,3.1c-0.1,0.2,0.1,0.4,0.3,0.5C132,115.2,132.8,115.7,133.8,116.3z M91.6,81.2
	c-1.2,0.3-2.3,0.4-3.3,0.8c0.5,1,0.7,2.1,0.7,3.4C90.6,84.3,91.2,82.9,91.6,81.2z M79.3,81.1c0.5,1.3,0.5,2.5,0.5,3.9
	c1.4-0.7,2.4-1.5,3-2.9C81.6,81.7,80.5,81.4,79.3,81.1z M93,80.7c0.3,1.5,0.2,2.9-0.1,4.5c1.5-0.8,2.2-2.1,2.8-3.5
	C94.7,81.3,93.9,81,93,80.7z M101.8,87.2c1.4-1,2.1-2.4,3.1-3.6c-1.2,0-2.3,0-3.4,0C101.9,84.7,101.7,85.8,101.8,87.2z M88.7,101.8
	c0.3-1.2,0.5-2.4,0-3.7c-0.8,1.1-1.8,1.8-2.9,2.5C86.6,101.4,87.5,101.8,88.7,101.8z M84.7,85.9c1.4-1,2.1-2.2,2.4-3.8
	c-1,0.1-1.9,0.4-3,0.4C84.5,83.6,84.5,84.6,84.7,85.9z M84.1,99c0.9-1.2,1-2.5,0.7-4c-0.9,0.9-1.8,1.4-2.8,1.9
	C82.6,97.8,83.3,98.4,84.1,99z M100,83.3c-0.9-0.3-1.8-0.6-2.7-1c0,1.2,0,2.4,0,3.6C98.5,85.4,99.5,84.4,100,83.3z M80.8,95.1
	c0.7-1.2,1-2.4,1.1-3.9c-1,0.7-1.8,1.2-2.8,1.7C79.6,93.6,80.1,94.3,80.8,95.1z M93.8,102c0-1.1-0.1-2-0.5-3.1
	c-0.8,1.1-1.5,2.2-2.3,3.1C91.9,102.5,92.8,102.4,93.8,102z M77.6,88.3c-1.1,0.8-2.1,1.5-3.2,2.3c1.2,0,2.1,0.4,3.1,0.6
	C77.7,90.2,77.6,89.3,77.6,88.3z M46,175.4c-0.7,0.6-1.5,0.8-1.6,1.6c0,0.6,0.7,0.8,1.2,1.1c0.1-0.5,0.1-0.8,0.2-1.2
	C45.9,176.5,45.9,176.1,46,175.4z M133.1,174.2c0-0.6,0-1,0-1.5c-0.5,0.4-0.9,0.7-1.2,1.2C132.3,174,132.7,174.1,133.1,174.2z"/>
<path class="st1" d="M152.6,61.5c-0.5,2.5-1,5-1.5,7.5c-0.1,0.4-0.2,0.8-0.3,1.1c-15.6-23.8-37.2-37.6-66-37.6
	c-28.8,0-50.4,13.8-66,37.6c-0.4-1.3-0.6-2.8-0.8-4.3c-0.3-1.5-0.6-3-0.9-4.5c-0.9-5.1-1.9-10.1-2.8-15.3c2,0.3,3.8,0.5,5.7,0.8
	c2.9,0.4,5.9,0.8,8.8,1.2c1.8,0.2,3.5,0.6,5.5,0.6c0-1.9,0-3.6,0-5.4c0-5,0-9.9,0-15.2c2.3,1.1,4.3,2.1,6.3,3.1
	c2.4,1.2,4.9,2.3,7.3,3.5c1.6,0.8,3.3,1.6,5,2.5c0.5-1.9,1-3.6,1.5-5.3c1.4-4.9,2.8-9.9,4.2-14.9c3.7,3.6,7.4,7.1,11.1,10.6
	c1.4,1.5,2.8,2.8,4.4,4.2c1-1.8,2-3.5,3-5.2c2.6-4.5,5.2-9,7.8-13.6c2.7,4.6,5.3,9.1,7.9,13.6c0.9,1.8,1.9,3.5,3,5.3
	c1.4-1.6,3-2.7,4.2-4.2c2-1.7,3.8-3.6,5.8-5.4c1.8-1.7,3.5-3.4,5.4-5.2c1.5,5.1,2.9,10.1,4.3,15c0.5,1.7,0.9,3.5,1.5,5.3
	c1.7-0.8,3.2-1.6,4.7-2.4c3.2-1.6,6.5-3.1,9.7-4.7c1.2-0.6,2.5-1.2,3.8-1.8c0.1,5.2,0.2,10.2,0.3,15.2c0,1.7,0,3.4,0,5.3
	c1.9-0.3,3.6-0.5,5.3-0.8c3-0.4,6-0.8,9-1.2c1.8-0.2,3.7-0.5,5.7-0.8C154.4,51.3,153.5,56.4,152.6,61.5z M64.4,30.4
	c0.2-0.2,0.4-0.3,0.6-0.5c0.7-0.8,0.8-1.8,0.2-2.8c-0.5-0.9-1.4-1.1-2.2-0.9c-1.8,0.4-3.5,1-5.3,1.5c0.6,0.8,2.1,5.8,2,6.8
	c0.8-0.2,1.6-0.5,2.4-0.7c-0.5-0.8-0.7-1.6-0.8-2.4c1-0.4,2.5,0.5,3,1.8c0.8-0.4,1.7-0.3,2.5-1C65.9,31.7,65.3,31,64.4,30.4z
	 M108.1,33.8c0.6,0.1,1.3,0.5,1.9,0.5c0.4-2.3,1.1-4.5,1.8-6.8c-0.6-0.2-1.3-0.4-2.1-0.6c0,1.3-0.5,2.4-0.8,3.7
	c-0.6-1.6-1.7-2.8-1.7-4.4c-0.9-0.2-1.8-0.7-2.7-0.7c-0.5,2.3-1,4.5-1.8,6.7c0.6,0.3,1.4,0.5,2.2,0.6c0-1.4,0.6-2.7,0.9-4.2
	C106.6,30.5,107.6,31.9,108.1,33.8z M150.1,55.3c0-1.8-1.5-3.8-3.3-4.4c-2.2-0.8-4.4,1.2-4.5,3.3c0,1.8,1.6,3.9,3.3,4.4
	C147.9,59.3,150.1,57.6,150.1,55.3z M84.9,23.2c-1.4-0.1-2.6,0.3-3.5,1.5c-1,1.5-0.8,3.6,0.4,4.7c1.5,1.4,4.4,1.4,5.9,0.1
	c1.2-1.1,1.5-2.6,0.9-4.1C88.1,23.9,86.8,23.2,84.9,23.2z M42,35.8c-2.4,0-4.5,2-4.5,4.1c0,2.1,1.3,3.6,3.2,3.6
	c2.3,0.1,4.7-2.1,4.7-4.3C45.3,37.4,43.7,35.8,42,35.8z M23,53.2c0.5-0.8,1-1.4,1.9-1.8c-0.6-0.6-1.2-1.1-1.8-1.6
	c-0.2,0.8-3.8,4.9-4.5,5.3c0.4,0.6,0.9,1.2,1.4,2c0.1-1.2,0.9-1.7,1.5-2.3c1.2,1.2,2.6,2.2,3.5,3.7c0.6-0.7,1.1-1.3,1.7-2
	C25.3,55.6,24.2,54.4,23,53.2z M126.2,36.4c0.7-0.1,1.1,0.4,1.7,0.7c0.5,0.2,0.5,0.6,0.2,1c-0.4,0.5-0.6,1.1-1,1.6
	c-0.5,0.7-0.7,1.6-1.6,2.1c0.8,0.5,1.4,1,2.2,1.4c0.6-1.7,1.7-3,2.5-4.6c0.7,0.6,1.6,0.8,2,1.6c0.4-0.7,0.9-1.3,1.1-1.9
	c-2.1-1.2-4.1-2.4-6.1-3.9C126.9,35,126.5,35.5,126.2,36.4z"/>
<path class="st1" d="M76.8,181.5c0.9-0.3,1.9-0.5,2.9-0.8c1.6-0.4,2.1-1.5,2.2-3c0-0.6,0.1-1.2,0.1-1.9c15.2,0.5,29-3.6,41.6-12.2
	c0.2,1.1,0,2.2,0.5,3.2c1.5-0.6,2.7-2.1,4.7-2.1c-1.3,1.4-2.1,2.9-2.6,4.6c-5.3,3.5-10.8,6.4-16.8,8.5c-7.2,2.5-14.5,3.9-22.1,4.2
	c-3.2,0.1-6.4-0.1-9.6-0.3C77.4,181.7,77.1,181.7,76.8,181.5z"/>
<path class="st1" d="M11.3,103.2c1.9,0.3,3.7,0.8,5.6,1.2c0.5,0.1,0.5,0.5,0.5,0.9c0,2.9,0,5.7,0.2,8.6c0.1,0.8,0.7,1.9,0,2.5
	c-0.5,0.5-1.5,0.6-2.3,1c-1.2,0.7-2.4,0-3.7,0.1C11.1,112.6,10.9,107.9,11.3,103.2z"/>
<path class="st1" d="M30.4,158.1c1.7-1.1,3.2-2.5,4.6-4.2c3,3.1,6.1,6,9.5,8.6c-0.1,0.5-0.5,0.5-0.8,0.7c-0.6,0.3-1.1,0.7-1.3,1.3
	c-0.3,1.2-1.2,1.9-2,2.7C36.9,164.5,33.5,161.5,30.4,158.1z"/>
<path class="st1" d="M158.1,115c-2.1,0.6-4.2,1.3-6.4,1.7c0.4-4.1,0.6-8.1,0.4-12.3c2-0.4,4.1-0.9,6.1-1.3
	C158.6,107.2,158.5,111.1,158.1,115z"/>
<path class="st1" d="M150.6,141.4c-0.9-0.1-1.9-0.2-2.8,0c-0.2,0.1-0.4,0.1-0.6-0.1c-0.8-0.6-1.8-0.9-2.8-1.4c0.5-1,1.1-1.9,1.4-3
	c0.7-2.5,2.2-3.9,4.7-4.5c1.5-0.4,2.9-1.1,4.3-1.7C153.8,134.5,152.3,138,150.6,141.4z"/>
<path class="st0" d="M77,26.4c-1,1.7-1.9,3.4-3,5.2c-1.6-1.4-3-2.7-4.4-4.2C72.1,26.8,74.5,26.5,77,26.4z"/>
<path class="st0" d="M99.9,27.4c-1.2,1.5-2.8,2.7-4.2,4.2c-1.1-1.8-2.1-3.5-3-5.3C95.1,26.5,97.5,26.8,99.9,27.4z"/>
<path class="st0" d="M54.4,31.8c-0.5,1.7-1,3.5-1.5,5.3c-1.7-0.9-3.3-1.7-5-2.5C50,33.6,52.1,32.5,54.4,31.8z"/>
<path class="st0" d="M121.6,34.7c-1.5,0.8-3.1,1.6-4.7,2.4c-0.7-1.8-1.1-3.5-1.5-5.3C117.5,32.7,119.6,33.5,121.6,34.7z"/>
<path class="st0" d="M34.3,43.2c0,1.8,0,3.5,0,5.4c-2,0-3.8-0.4-5.5-0.6C30.5,46.2,32.3,44.7,34.3,43.2z"/>
<path class="st0" d="M140.7,47.9c-1.7,0.2-3.4,0.5-5.3,0.8c0-1.9,0-3.6,0-5.3C137.3,44.8,139.2,46.2,140.7,47.9z"/>
<path class="st2" d="M28.1,81.9c0.7-0.4,1.3-0.8,1.8-1.3c0.6-0.6,1.2-0.8,2.1-0.5c2.6,0.9,5.2,1.6,7.7,2.6c1.2,0.4,2.2,0,3.3-0.3
	c-0.1-1.3,0-2.5-1.1-3.6c-3.3-3.2-6.5-6.5-9.7-9.8c-0.9-0.9-1.9-1.2-3-1.2c-0.6,0-1.1,0-1.6-0.5c0.8-1.3,1.8-2.5,2.8-3.7
	c1.7-2,3.5-4,5.4-5.8c0.9-0.9,1.8-1.7,2.8-2.5c0.5-0.4,1-0.6,1.7-0.7c3.1-0.4,5.3,0.6,7.3,3c2.6,3.1,5.6,5.9,8.4,8.9
	c0.7,0.8,1.6,0.4,2.4,0.6c0.8-2.1,1-4,0-6.2c-1.5-3.4-2.6-7-3.8-10.5c-0.3-0.8-0.8-1.3-1.4-1.7c-0.8-0.6-1.8-1-2.4-1.8
	c1-0.8,2.1-1.3,3.2-1.8c3.9-1.8,7.9-3.4,12-4.5c1.2-0.3,2.2,0.3,3.4,0.4c1.1,0.1,1.6,0.6,2,1.7c0.9,2.7,2,5.4,3,8
	c0.2,0.5,0.1,0.8-0.2,1.1c-0.7,1-1.4,2-2.1,3c-0.6,0.8-1.6,1-2.4,1.4c-1.3,0.6-2.7,1.2-4,1.7c-0.1,2.6,1.8,3.4,3.7,4.4
	c-6.6,2.4-12.4,6-17.7,10.7c-1.2-1.2-2.3-2.3-3.4-3.5c-0.4-0.5-0.7-0.5-1.3-0.1c-2.1,1.5-2.2,1.7-0.3,3.5c0.5,0.5,1.1,1.1,1.6,1.6
	c0.8,0.7,0.7,1.2,0.1,2c-1.9,2.1-3.5,4.4-5,6.8c-1.4,2.2-2.6,4.4-3.5,6.8c-0.3,0.9-0.8,0.9-1.5,0.7c-2.6-0.9-5.2-1.8-7.8-2.8
	c-0.2-0.1-0.3-0.1-0.6,0c0.1,1.2,0.6,2.4,1,3.6c0.1,0.3,0.6,0.4,0.9,0.5c2.1,0.7,4.3,1.5,6.6,2.3c-1,3-1.4,6.2-2,9.4
	c-0.9-0.6-1.3-1.3-1.8-1.9c-0.5-0.6-1-1-1.7-1.3c-6.2-2.2-12.5-4.3-18.7-6.5c-1.2-0.4-2.2,0.1-3.3,0.3c-0.6,0.1-1.1,0.3-1.8,0.5
	c0-1.2,0.3-2.3,0.6-3.4c1.1-4.5,2.5-8.8,4.2-13.1c0.2-0.6,0.5-1.2,1.3-1.3c0.5-0.1,1-0.4,1.5-0.6c1-0.4,2-0.5,3.1,0
	c2.1,0.8,4.2,1.5,6.4,2.2c0.8,0.3,1.3,0.6,1.4,1.5C27.7,80.5,27.9,81.2,28.1,81.9z M16.4,86.7c2.8,1,5.6,1.9,8.6,2.9
	c-0.3-1.4-0.6-2.5-0.9-3.7c-0.1-0.3-0.3-0.5-0.6-0.6c-1.8-0.6-3.5-1.2-5.3-1.8c-0.3-0.1-0.7-0.2-0.9,0.2
	C17,84.8,16.6,85.7,16.4,86.7z M61.3,47.1c0.7,2,1.4,4,2.1,5.9c0.1,0.3,0.3,0.6,0.7,0.5c0.7-0.3,1.4-0.5,2.1-1
	c0.7-0.5,1-1.1,0.6-2.1c-0.5-1.1-0.9-2.3-1.3-3.5c-0.1-0.3-0.3-0.5-0.7-0.6C63.4,46,62.5,46.9,61.3,47.1z M44.2,65.2
	c-0.9-1.3-2.1-2.2-3.1-3.3c-0.5-0.5-1.1-0.8-1.6-0.6c-0.8,0.4-1.4,1-1.8,1.8c-0.1,0.2,0.1,0.4,0.2,0.5c0.8,0.8,1.5,1.7,2.3,2.5
	c1.4,1.4,1.4,1.4,2.9,0C43.4,65.9,43.8,65.6,44.2,65.2z"/>
<path class="st1" d="M61.7,86.2c-1.6,1.4-1.9,3.1-1.6,5c0.6,3.7,3.1,5.8,6.4,7.2c1.7,0.7,3.4,1.2,5.1,1.9c1,0.4,1.9,1,2.4,2
	c-1.5,1.3-6.2,0.5-11.6-2c0.4,1.3,1.2,2.2,2.1,3.1c0.9,0.9,1.9,1.6,3.1,2.1c1.1,0.5,2.4,0.6,3.5,0.9c1.3,0.4,2.4-0.2,3.8-0.1
	c-1.3,2-3.2,2.6-5.2,2.8c-2,0.2-3.9-0.2-5.9-0.7c1.1,3.3,6.2,4.4,11.2,2.4c-0.4,1.6-1.2,2.8-2.5,3.6c-1.3,0.8-2.7,0.8-4.4,0.5
	c1.7,2.1,3.9,2.6,6.3,2.6c-0.5,1.3-1.3,2.4-2.1,3.4c-0.2,0.3-0.5,0.2-0.9,0.2c-2.3-0.4-4-1.8-5.6-3.3c-2.7-2.6-4.2-5.8-4.8-9.4
	c-0.7-4.5-2.7-8.4-5.1-12.1c-1.8-2.9-3.2-6-3.5-9.4c-0.6-6.1,1-11.4,5.6-15.8c2.7-2.6,5.9-3.9,9.4-5c0.1,0,0.3,0,0.4-0.1
	c0.1,0,0.1,0,0.2,0.1c0.1,0.8,0,1.6,0.4,2.3c0.4,0.1,0.5-0.3,0.7-0.6c0.9-1.1,1.8-2.2,2.8-3.3c0.2-0.3,0.5-0.5,0.9-0.5
	c2.2,0,4.4,0,6.6,0.5c1.4,0.3,2.4,1,3.3,2c0.9,0.9,1.8,1.8,3.2,2c-1.4-1.1-1.9-2.8-2.5-4.4c0.5-0.4,1.1-0.6,1.9-0.3
	c1.7,0.7,3.3,1.4,5,2c0.5,0.2,0.9,0.5,0.8,1.2c-1,0.1-1.8-0.4-2.8-0.7c0.2,0.8,0.7,1.2,1.4,1.6c1.8,0.9,3.7,1.1,5.6,1.5
	c3,0.7,6.1,1.2,9.1,2.3c1.4,0.5,2.2,2.4,1.7,3.8c-0.4,1-0.9,1.9-0.7,3.1c0.6-0.3,0.7-1.1,1.4-1.1c0.5,0.8,0.4,1.7,0.6,2.6
	c0.1,0.5-0.5,0.6-0.9,0.7c-2.1,0.7-4.2,0.8-6.3,0.1c-1.2-0.4-2.5-0.7-3.6-1.3c-2.1-1-4.2-1.1-6.4-0.5c-1.4,0.4-2.9,0.7-4.4,1
	c-1.2,0.2-2.5,0.2-3.6-0.4c-2.4-1.3-4.2-0.5-6.1,1.2c-3.3,3-5.5,6.5-6.5,10.8c-0.2,1,0.1,1.1,0.9,1.1c1.6-0.1,3.1,0,4.7,0.4
	c0.8,0.2,1.5,0.6,2,1.2c1.7,2.1,3.3,4.3,5.1,6.3c1.9,2.2,4.4,3,7.2,3.4c2,0.3,4.1,0.2,6.4-0.1c-1.6,1.7-3.3,2.8-5.3,3.2
	c-3.8,0.7-6.9-1-9.7-3.4c-0.6-0.5-1.2-1.2-1.7-1.8c-1.2-1.7-2.9-2.9-4.6-4.1c-1.7-1.2-3.7-1.3-5.6-1.8c-2.5-0.7-4.8-1.7-6.3-4.1
	C61.8,90.3,61.3,88.5,61.7,86.2z M82.5,74.1c2.3-0.1,4.4-1.3,4.7-2.8c-2.3,1.1-3.7,0.2-4.9-1.8c-1.3-2.1-3.4-2.7-5.8-2.5
	c-1.2,0.1-2.4,0.3-3.4,1.1c0.8,0.2,1.5-0.1,2.3,0.3c-1.7,1.1-3.4,1.9-4.3,4.2c1.5-0.9,2.5-0.4,3.5,0.4c0.4,0.3,1,0.4,1.4,0.6
	C78.1,74.6,80.2,74.9,82.5,74.1z M57.6,88.7c-0.3-7.1,3.4-10.6,10.3-11.7c-1.3-0.5-2.3-0.9-3.3-1.4c0.9-1.3,1.7-2.5,2.5-3.7
	c-4.4,1.1-8.5,2.8-10.4,7.2C55.2,82.3,55.3,85.6,57.6,88.7z M73.7,80.5c-3.5,2-6.2,4.8-8.1,8.3c-0.2,0.4-0.1,0.7,0.1,1
	c0.4,0.6,0.9,1.2,1.8,1.5C68.7,87.1,70.9,83.6,73.7,80.5z M101.9,78.9c0.1-1.3-0.4-2.2-0.9-3c-0.9-1.4-1.3-1.4-2.3,0.1
	C99.9,76.6,100.9,77.6,101.9,78.9z"/>
<path class="st2" d="M126.6,52c1.7,1.1,2.9,2.2,4.1,3.3c3.1,2.9,6,5.9,8.7,9.1c0.3,0.4,0.3,0.8,0.4,1.3c0.4,2.6-1.2,4-2.8,5.6
	c-1.5,1.6-2.9,2.3-5,1.2c-0.2,1-0.1,1.8-0.1,2.7c0,0.6-0.1,1-0.6,1.5c-1,1-1.9,2-3,2.9c-0.8,0.7-1.2,1.5-1.1,2.6
	c0.1,0.5,0,1.1,0,1.7c1.6-0.5,3.1-1.1,4.6-1.5c1.7-0.5,3.2-1.2,4.3-3c1,2.9,1.9,5.5,2.8,8.2c-1.4,0.7-2.9,1-4.4,1.6
	c0.1,1.5,1,2.8,1.3,4.3c1.2-0.4,2.3-0.7,3.4-1.1c0.5-0.2,0.7-0.5,0.8-1c0.8-4,1.7-8,2.5-11.9c0.1-0.7,0.4-1.1,1.1-1.3
	c2.1-0.6,4.1-1.3,6.1-1.9c0.9-0.3,1.4-0.7,1.8-1.5c0.3-0.6,0.8-1.2,1.3-2c3.2,6.3,5.4,12.7,6.9,19.5c-1.9,0.6-3.7,1.3-5.6,1.8
	c-1.1,0.3-2.1,0.9-2.8,1.8c-0.3,0.3-0.5,0.6-1,1.1c-0.5-1.6-0.9-2.9-1.3-4.2c-0.3-0.9-0.4-1.8-0.7-2.6c-0.3-0.7,0-1,0.6-1.2
	c1.3-0.4,2.7-0.9,4.1-1.4c-0.5-1.4-1-2.8-1.5-4.3c-1,0.3-1.9,0.6-2.9,0.9c-0.4,0.1-0.7,0.4-0.8,0.9c-0.8,3.7-1.5,7.4-2.3,11.1
	c-0.1,0.5-0.3,0.9-0.7,1.1c-4.1,1.4-8.3,2.8-12.5,4.3c-1.4-9.6-5.2-18-11.6-25.3c1.6-1.7,3.5-3.2,5.2-4.9c-1.4-0.7-2.9-0.7-4.3-1.2
	c-0.3-0.1-0.5,0.2-0.7,0.4c-1,0.9-1.9,1.8-2.9,2.7c-2.3-2.1-4.7-4-7.2-5.7c0.5-0.7,1.3-0.7,1.9-0.7c1.5-0.1,2.4-0.9,3.4-1.8
	c3.1-2.9,6.3-5.8,9.4-8.7c0.4-0.4,0.6-0.8,0.6-1.3C126.6,54.2,126.6,53.2,126.6,52z M125.9,67c1,0.3,2.2,0.7,3.5,1
	c0.3,0.1,0.7,0,1-0.2c1-1,2-2,3-3c-0.7-1-1.5-2-2.5-2.5c-0.6-0.3-1.2,0.8-1.7,1.3C127.9,64.6,126.9,65.8,125.9,67z"/>
<path class="st1" d="M126.7,117.4c0.3,0.1,0.5-0.1,0.6-0.2c0.9-1.1,1.9-0.8,3-0.2c2.3,1.3,4.4,2.9,6,5.1c0.1,0.2,0.2,0.4,0.7,0.5
	c0.2-1.2,0.2-2.3-0.4-3.4c-0.3-0.6-0.3-1.1,0-1.6c0.1,0,0.2-0.1,0.2,0c3.8,1.3,4.1,1.8,3.1,5.6c-0.4,1.5-1.1,2.8-2.6,3.6
	c-0.6,0.3-1.1,0.4-1.8,0.1c-1.2-0.5-2.4-1-3.8-1.6c0.4,1.5,1.1,2.5,1.7,3.7c-0.9,0.7-2,1.2-3,1.6c-0.5,0.2-0.7,0-1-0.3
	c-1.1-0.9-2.2-1.8-3.5-2.8c0.1,1,0.2,1.8,0.4,2.6c0.2,0.7-0.1,1.1-0.7,1.2c-0.7,0.2-1.4,0.3-2.1,0.4c-1,0.1-1.8-0.3-2.3-1.3
	c-1.2-2.5-1.8-5.2-2.1-7.9c-0.1-0.8-0.3-1.6-0.2-2.5c0-0.7-0.6-0.9-1-1.2c-1.7-1.1-3.5-2.2-4.6-4.1c-1.9,1-3.9,1.3-6.1,1.2
	c-2.1-0.1-2.1-0.1-3.8,1.2c-0.4,0.3-0.9,0.5-1.4,0.7c-4,0.9-7.4-0.2-10.1-3.3c-1-1.2-1.9-2.4-2.6-3.8c-0.1-0.3-0.4-0.5-0.2-0.9
	c1.7-0.2,3.4-0.5,5-1.2c1.8-0.8,3.4-1.9,4.4-3.7c0.8-1.5,0.8-1.6-0.6-2.6c-0.7-0.5-1-1-0.2-1.7c3.3,1.1,6.4,2.8,8.6,5.9
	c0.4-1.8-0.4-3-1.2-4.2c1-0.7,2.1-0.8,3.1-0.9c3.4-0.2,6.9-0.1,10.2,0.8c1.2,0.3,2.1,1,2.8,1.9c2.2,3,4,6.3,5.3,9.8
	C126.8,115,126.5,116.2,126.7,117.4z"/>
<path class="st3" d="M91.9,139.3c2.4-0.5,4.5-1.2,6.4-2.9c-1.8,0.4-3.4,0.7-5,1c-2.8,0.5-5.7,1-8.6,0.7c-2.2-0.2-4.4-0.7-6.4-1.9
	c-3.5-2.2-7.2-4.3-10.7-6.4c-5.1-3.1-8.5-7.5-10.3-13.1c-0.9-2.6-1.1-5.4-0.4-8.1c0.1-0.2,0.1-0.5,0.2-0.7c0.1-0.2,0.2-0.3,0.3-0.6
	c0.3,1,0.5,1.8,0.7,2.7c1.3,4.2,3.1,8.1,6.4,11.1c2.2,2,4.9,3,7.8,3.3c0.5,0,0.8-0.1,1.1-0.4c3.3-2.9,4.8-6.4,4.4-10.8
	c-0.2-2.3-0.1-4.6,0.4-6.8c1.3,0.3,1.6,1.1,1.6,2.3c0.4,10.3,8.2,17.1,15.9,18.3c6.1,1,11.6-0.4,16.1-4.7c0.4-0.4,0.7-0.8,1-1.2
	c0.3-0.4,0.5-0.8,0.8-1.2c0.7,0.5,1.3,1.1,2,1.6c0.3,0.2,0.3,0.5,0.3,0.8c0.2,2.1,0.5,4.3,1.1,6.3c0.1,0.4,0,0.6-0.3,0.9
	c-5.3,5.6-11.7,8.9-19.3,10C95.8,139.6,93.9,139.9,91.9,139.3z M89.6,127.2c-1.1-0.9-2.1-1.7-3.1-2.5c-0.5-0.4-1.1-0.6-1.7-0.8
	c-1.9-0.6-3.6-0.4-5.3,0.5c-0.1,0.1-0.3,0.1-0.4,0.1c-4.1,1.4-8.3,2-12.6,1.7c0.3,0.2,0.5,0.3,0.8,0.4c1.4,0.5,2.8,1.1,4.1,2
	c2.6,1.8,5.2,3.5,7.8,5.3c0.7,0.5,1.4,0.8,1.2,1.9c4.1,0.4,7.4,0.3,9.1-0.3c-1.3-0.9-2.6-1.8-4-2.8c0.6-0.6,0.9-1.2,1.5-1.6
	c1.2,0.9,2.5,1.6,3.6,2.6c1.3,1.1,2.7,1.4,4.3,1c2-0.5,4.1-0.9,6.3-1.6c-2.2-0.5-4.4-0.4-6.1-2c-1.7-1.6-3.8-2.4-6.1-2.3
	c0,0-0.1-0.1-0.1-0.2C89,128.1,89.3,127.7,89.6,127.2z"/>
<path class="st1" d="M52.5,138.6c-4.2-0.7-7.8-2.5-11.2-4.6c-1.2-0.8-2.2-1.5-2.4-3.1c-0.2-1.3-1.7-3-2.8-3.9c0.4,1.5,0.7,3,0.7,4.4
	c-0.1,2.1-2.3,3.9-4.3,3.4c-0.3-0.1-0.5-0.2-0.5-0.4c-0.1-0.3-0.2-0.6-0.1-0.9c0.7-3.5-1.2-5.9-3.5-8c-1-0.9-2.2-1.5-3.2-2.3
	c-0.7-0.5-1.5-0.6-2.3-0.4c-1.1,0.3-2.2,0.7-3.3,1c-0.4,0.1-0.6,0.4-0.7,0.8c-0.3,0.7-0.7,1.2-1.5,1.7c-1.1-1.4-1.7-3.6-4.4-2.7
	c0.7-1.7,1.3-3.2,3.2-3.7c1-0.3,2.1-0.5,3.1-0.9c2.2-1,4.4-0.9,6.7-0.1c2.9,0.9,5.8,1.9,8.5,3.3c1,0.5,2.2,0.4,3.3,0.4
	c3.6-0.1,7.1,0.8,10.5,1.6c1.7,0.4,2.8,2,4.2,3.1c0.2,0.2,0.4,0.3,0.7,0.6c0.1-2.1-0.5-3.9-1.7-5.2c-2.7-2.7-1.1-5.3,0-7.9
	c0.4-1,1-1.9,2.2-2.6c0.4,6,2.3,11.3,6.5,15.6C56.7,130.8,53.5,133.9,52.5,138.6z"/>
<path class="st2" d="M107.7,65.1c-1.3,0.3-2.4-0.7-3.7-1.2c-1.8-0.7-3.5-1.5-5.3-2c-1.4-0.4-2-1.9-3-2.8c0,0,0-0.1-0.1-0.2
	c-1.6-1-1-2.2-0.4-3.6c1.7-4.1,3.3-8.2,4.9-12.3c0.3-0.8,0.8-1.2,1.7-1.2c1,0,1.9-0.3,2.9-0.3c0.7-0.1,1.4-0.1,2.2,0.1
	c2.2,0.8,4.4,1.7,6.6,2.5c2,0.7,2.8,2.4,4,3.8c1,1,0.9,1.9,0.4,3.2c-1.9,4.3-3.6,8.7-5.3,13.1c-0.2,0.4-0.3,0.6-0.8,0.7
	C110.4,64.9,109.2,65,107.7,65.1z M102.3,58.5c1.1,0.4,2.1,0.8,3.1,1.2c0.6,0.3,0.8,0.1,1-0.4c1.3-3.4,2.7-6.9,4-10.3
	c0.1-0.3,0.3-0.6-0.1-0.8c-1.1-0.5-2.2-1.1-3.4-1.3C105.3,50.8,103.8,54.6,102.3,58.5z"/>
<path class="st1" d="M192.6,101.1c-3.8,4.6-8.1,8.5-12.8,12.1c-11.1,8.6-23.4,14.9-36.7,19.3c-3,1-6.1,1.7-9.2,2.4
	c-0.4,0.1-0.7,0-0.9-0.3c-0.5-0.5-1-1.1-1.6-1.7c1.3-0.6,2.6-1,3.7-1.9c0.8-0.6,1.5-1.1,2.6-1.2c1.5-0.2,2.7-1.2,3.4-2.6
	c1.1-2.1,1.7-4.4,2.3-6.7c8.9-0.7,17.3-3.4,25.5-6.7c8.4-3.4,16.3-7.8,23.5-13.3C192.4,100.8,192.5,101,192.6,101.1z M148.9,128.6
	c-1.5-1.2-2.9-2.4-4.4-3.6c-1.5,2.4-2.9,4.6-4.3,6.9c0.1,0.1,0.2,0.2,0.2,0.3c12.3-4.2,24.1-9.2,34.8-17c-1.9-0.8-1.9-0.8-2.8,0.6
	c-0.1,0.2-0.2,0.3-0.3,0.5c-0.2,0.4-0.7,0.6-1.1,0.4c-1.3-0.8-1.9,0.1-2.5,1.1c-0.2,0.3-0.4,0.6-0.6,1c-0.3,0.7-0.8,0.9-1.5,0.4
	c-0.5-0.3-1-0.5-1.5-0.8c-1,1.3-1.7,2.8-2.8,4.1c-1.1-0.7-2.1-1.3-3.1-2c-1,1.7-2,3.2-3,4.8c-1.4-0.8-2.5-1.8-3.9-2.5
	C151.2,124.8,150.1,126.7,148.9,128.6z"/>
<path class="st1" d="M75.2,148.5c-1.5-1.6-3.1-2.9-5.5-2.8c0.6,0.6,1.2,1.1,1.8,1.7c2.4,2.2,3.3,4.9,2.2,8.1
	c-0.3,0.9-0.4,1.8-0.1,2.7c-1,0.7-2.1,0.8-3.2,0.9c-2.7,0.1-5.3-0.3-7.9-1c-0.7-0.2-1.2-0.6-1.4-1.3c-1.3-4.1-2.8-8.1-4.9-11.9
	c-1.5-2.7-1-5.6,0.6-8.3c0.3-0.5,0.7-0.7,1.4-0.5c3.9,1.1,7.6,2.4,10.8,5c2.4,1.9,4.4,4.1,6.1,6.6c0.1,0.2,0.2,0.4,0.3,0.6
	C75.3,148.2,75.3,148.3,75.2,148.5z"/>
<path class="st3" d="M138.1,143.7c0.8-1.4,2.5-2.1,4.5-1.7c0.7,0.2,1.5,0.3,2.2,0.7c1.4,0.7,2.8,1.3,4.5,1.2
	c1.3-0.1,2.1,1.1,2.5,2.3c0.7,2.1,0.5,4.3,0.1,6.5c-0.7,4-2,7.9-2.9,11.9c-0.6,2.5-1.8,4.6-4.5,5.5c-0.4,0.1-0.7,0.2-1.2,0.2
	c-0.6-1.9-1.9-3.3-3.9-3.7c-2.1-0.5-3.5,0.8-4.6,2.7c-0.3-2.2-1.5-3.5-3.4-4.2c1.3-2.1,3.1-3,5.4-3.4c2.5-0.4,5.1-0.2,7.6,0.2
	c0.2,0,0.3,0,0.5,0c-1.6-1.4-4.3-2.3-6.7-2.3c-0.3-0.3-0.2-0.8-0.6-1.1c1.6-1.1,3.1-2,4.2-3.5c1.9-2.8,2.6-5.7,1.3-9
	c-0.6-1.5-2-2.9-4.1-2.1C138.7,143.9,138.4,143.9,138.1,143.7z"/>
<path class="st2" d="M81.4,42.9c-2,1.1-3.9,2.1-5.8,3.1c-0.3-0.2-0.3-0.4-0.3-0.6c0-2,0-4,0-6c0-0.5,0.1-0.8,0.6-0.9
	c3.4-0.4,6.8-0.6,10.2-0.6c2.7,0.1,5.3,0.4,8,0.6c0.9,0.1,1.4,0.4,1.3,1.5c-0.1,1.6,0,3.3,0,4.9c0,0.4,0.1,0.8-0.3,1.1
	c-2-0.9-3.8-2.2-5.9-3.1c0,1.3,0,2.4,0,3.6c0,3,0.1,6.1,0,9.1c0,1.2,0.3,2.1,1.1,3c0.3,0.4,0.6,0.8,1.1,1.5c-4.1-0.4-8-0.6-12,0
	c0.4-1,1-1.6,1.5-2.3c0.3-0.4,0.6-0.7,0.6-1.2C81.4,52.3,81.4,47.7,81.4,42.9z"/>
<path class="st3" d="M51,167.1c0.3,0.5,0.5,0.9,0.8,1.5c-1.1,0.3-2.1,0.7-2.9,1.8c-0.3-2.2-0.9-4.1-2.8-5.3c0.6-0.5,1.1-0.5,1.7-0.6
	c3.2-0.2,6.5-0.1,9.7,0.5c1.8,0.3,3.1,1.4,4.3,2.8c0.3,0.3,0.5,0.7,0.9,1.2c0.4-1.7-0.1-3-1.2-4c-1.4-1.3-1.4-3.1-1.9-4.7
	c0.7-0.4,1.1-0.1,1.6,0.1c2,1,4.1,1.3,6.3,1.4c2.2,0.2,4.4,0.3,6.4-0.7c0.4-0.2,0.9-0.4,1.3-0.7c0.7-0.6,1.1-0.3,1.5,0.2
	c0.6,0.7,0.8,1.5,0.6,2.3c-0.2,0.9-0.1,1.6,0.2,2.4c0.7,1.9,1.4,3.8,1.3,5.9c0,1.1-0.4,1.7-1.5,1.9c-1.8,0.5-3.7,0.7-5.6,0.7
	c-3.1-0.1-6,0.9-8.9,1.9c-2,0.7-3.9,0.7-6,0C56.7,171.9,54.6,169,51,167.1z M66.1,162.9c0.6,0.4,0.9,0.7,1.3,1
	c1.3,1.3,1.5,2.9,0.8,4.6c-0.2,0.5-0.5,0.8-1.2,0.6c-0.4-0.1-1-0.2-1.5,0.4c1.4,0.5,2.4,1.3,3.4,2.2c2.2,2,5.2,1.3,7,0.2
	c0.6-0.3,1-0.8,1-1.6c-0.5,0-0.7,0.5-1.2,0.4C75.5,163.3,70.5,161.9,66.1,162.9z"/>
<path class="st3" d="M80,139.6c1.9,0.5,3.7,1.1,5.6,1.5c9.1,2.3,17.8,1.4,25.8-3.6c0.5-0.3,0.9-0.3,1.4,0c1.9,1.2,3.1,3,4.2,4.9
	c0.9,1.6,1.5,3.3,3.1,4.5c-0.8,0.7-1.7,1.1-2.6,1.5c-2.4,1.1-4.9,2-7.5,2.3c-0.7,0.1-1.2-0.1-1.7-0.5c-2.8-1.9-5.7-3.4-8.8-4.8
	c-2.4-1.1-4.9-1.1-7.4-0.6c-2.3,0.5-4.6,0.8-6.8,1.6c-0.5,0.2-0.7,0.1-1-0.4C83.2,143.7,81.9,141.5,80,139.6z"/>
<path class="st1" d="M110.1,152.7c5.2-0.7,11.6-3.4,13.4-5.6c-2-1.6-3.5-3.6-4.5-5.9c-0.7-1.5-1.7-2.9-3-4c-0.6-0.5-1.3-0.9-2.1-1.5
	c1.4-1.1,2.8-2.2,4.2-3.3c0.3-0.3,0.6-0.1,0.8,0.1c2.5,1.1,3.9,3.3,5.2,5.5c1.1,1.9,2.3,3.7,4.4,4.9c1.7-1.7,2.7-3.8,3.6-6.1
	c1.1,0.7,2.1,1.3,3.1,1.9c0.5,0.3,0.3,0.6,0.1,1c-1.3,3.3-3.3,6.1-6,8.4c-3.8,3.4-8.2,5.8-13.2,7c-1,0.2-1.8,0.2-2.7-0.4
	C112.5,154,111.4,153.4,110.1,152.7z"/>
<path class="st1" d="M82.1,108c1.2,0.4,2.3,0.8,3.4,1.1c0.6,0.2,0.6,0.6,0.7,1c1.4,4.3,4,7.6,8.2,9.5c3.8,1.7,7.6,1.7,11.2-0.7
	c0.3-0.2,0.7-0.4,1.1-0.3c1.6,0.2,3.2,0,4.8-0.5c-0.1,1.1-0.7,1.7-1.3,2.3c-2.4,2.4-5.3,3.6-8.5,4.3c-8.4,1.6-17.6-4.4-19.3-13.8
	C82.3,110,82,109.1,82.1,108z"/>
<path class="st1" d="M122.1,155.4c5.2-2.7,10-5.7,13.3-10.6c0.5,0,0.9,0.4,1.4,0.6c0.8,0.3,1.4,0.8,2.4,0.4c0.8-0.4,1.7,0.8,2,2.2
	c0.5,3.1-1,5.3-3.1,7.2c-1.9,1.7-4.3,2.7-6.8,2.6c-2.5-0.1-4.9-0.7-7.3-1.5C123.3,156,122.6,156,122.1,155.4z"/>
<path class="st1" d="M57.8,133.7c1.3-1.2,2.3-2.1,3.3-3.1c0.5-0.5,1-0.2,1.5-0.1c2.4,0.6,4.5,1.7,6.6,2.9c5.5,3.2,9.9,7.5,13,13.2
	c0.2,0.3,0.3,0.6,0.5,1c-1.2,0.8-2.5,1.3-3.8,2c-2.2-4.1-4.9-7.7-8.7-10.5C66.7,136.5,62.7,134.5,57.8,133.7z"/>
<path class="st2" d="M13.1,145c1.7-0.2,3.2-0.7,4.6-1.5c2-1.1,3.3-2.8,4.3-4.8c1-2,1.9-4,2.9-6c0.5-1.1,1.2-2,2.1-2.8
	c0.5-0.4,0.8-0.5,1.2,0.1c0.6,0.9,1.3,1.6,1,3c-0.3,1.5-0.3,3.2,1.1,4.4c0.6,0.5,0.4,1.4-0.1,2c-3.9,4.4-8.8,7.1-14.6,8.2
	c-2,0.4-1.8,0.5-2.3-1.8C13.1,145.6,13.1,145.3,13.1,145z"/>
<path class="st2" d="M26.1,127.6c-2.2,1.9-3.4,4.3-4.5,6.7c-1,2.3-2.1,4.6-4,6.4c-1.2,1.1-2.6,1.6-4.1,2c-0.4,0.1-0.6-0.1-0.6-0.5
	c0.1-3.4-0.1-6.9,2.1-9.9c0.9-1.2,1.8-2.4,3.4-2.9c1-0.3,1.7-1.1,2.2-2.1c0.6-1.2,2.8-1.8,3.8-1.1C24.9,126.7,25.4,127.1,26.1,127.6
	z"/>
<path class="st2" d="M36.4,141.9c0.5,2.7,0.1,6.3-3.2,7.9c-2,1-4,1.6-6.2,1.6c-2-0.1-4.1,0-6.1-0.2c-1.5-0.1-3.1,0.1-4.5,0.4
	c-1,0.2-1.3-0.1-1.6-0.9c-0.1-0.2-0.2-0.4-0.3-0.7c5.4-0.8,10.2-2.8,14.6-6.3c-0.3,1.1-1,1.5-1.3,2.3
	C31.1,145.7,34,144.3,36.4,141.9z"/>
<path class="st3" d="M139.6,175.3c1.4-1.1,2.6-2.4,4.7-2.7c3.7-0.6,5.7-3.3,6.8-6.7c1-3.1,1.1-6.5,2.4-9.5c0.8-1.8,1.1-3.8,1.2-5.8
	c0.1-1.6-0.1-3.1-0.6-4.6c1.7-0.1,2.2,1.2,2.5,3.2c0.2,1.6,0.1,3.2-0.5,4.6c-1.3,3.8-1.9,7.7-2.7,11.6c-0.7,3.3-2.2,6.2-5,8.3
	c-1.5,1.2-3.3,1.7-5.1,1.8c-1.2,0.1-2.4,0-3.6,0C139.7,175.5,139.6,175.4,139.6,175.3z"/>
<path class="st3" d="M51.4,180.9c0.7-1.1,1.7-1.9,2.6-2.7c0.3-0.2,0.6-0.2,0.9-0.1c3.2,0.9,6.4,0.8,9.6-0.3c1.8-0.7,3.7-1.3,5.7-1.6
	c0.6-0.1,1.1-0.1,1.7-0.1c2.4,0,4.9,0.1,7.1-1.1c0,0.7,0,1.4,0,2.1c0,0.4-0.2,0.6-0.5,0.8c-1.2,0.6-2.4,0.9-3.7,0.8
	c-3.6-0.4-6.9,0.3-10.2,1.6c-4,1.6-8.1,1.9-12.2,0.9c-0.2,0-0.3-0.1-0.5-0.2C51.6,181,51.6,181,51.4,180.9z"/>
<path class="st2" d="M90.5,100.3c-0.7-1.3-0.5-2.7-1.3-3.8c-1,0.4-1.7,1.2-2.7,1.6c-0.4-0.3-0.2-0.8-0.2-1.2c0-1,0-2-0.2-3
	c-0.2-0.7-0.5-0.7-1-0.4c-0.7,0.4-1.4,0.7-2.3,1.2c0-1.9,0.5-3.6-0.2-5.3c-1.1,0.5-2.1,1.1-3.4,1.7c-0.1-1.7-0.3-3.3-1.1-4.8
	c-1.6,1-3,2.2-4.7,2.9c0.5-1.4,1-2.7,2-3.7c0.3-0.3,0.6-0.2,0.9-0.2c2.9,0.2,5.5,1.1,7.7,3.1c1.2,1.1,1.8,2.6,2.4,4.1
	c0.6,1.5,1.5,2.7,3.1,3.4c0.8,0.4,1.6,0.9,2.3,1.4c0.6,0.4,0.6,0.8,0.1,1.4C91.5,99.2,91.1,99.7,90.5,100.3z"/>
<path class="st2" d="M32.7,152.9c-0.7,1.1-1.8,1.9-2.8,2.7c-1.8,1.4-3.9,2.3-6.1,2.9c-0.4,0.1-0.8,0.2-1.1,0c-2.3-1.1-4.4-2.5-6-4.8
	c1-0.1,1.9-0.3,2.8-0.3c2.2,0,4.3,0,6.5,0.1c1.9,0.1,3.9-0.1,5.7-0.7c0.3-0.1,0.6-0.2,0.9-0.3C32.6,152.7,32.6,152.8,32.7,152.9z"/>
<path class="st2" d="M4.7,137.1c0.5,0.1,0.7,0.6,1.2,0.6c0.8-2,1.2-4.3,3.1-5.8c0.4,0.1,0.4,0.4,0.3,0.6c0,0.7,0.1,1.4,0.4,2
	c1.6,2.5,0.6,5.2,0.8,7.8c0.1,0.5-0.2,0.5-0.7,0.5c-2.4-0.2-3.7-1.8-4.6-3.8C5,138.5,4.6,137.9,4.7,137.1z"/>
<path class="st2" d="M48.5,181.4c-1.3-2-1-3.9-0.4-5.9c0.5-1.7,1.2-3.3,2.8-4.3c0.6-0.4,1.1-0.4,1.6,0.1c1,0.9,1.6,2.2,2.1,3.4
	c0.1,0.3,0,0.7-0.3,0.9C51.9,177.1,49.9,178.9,48.5,181.4z"/>
<path class="st2" d="M47,172.1c-2.6,1.3-4.7,3.1-6.5,5.5c-0.7-1.6-0.7-3.2-0.2-4.6c0.6-1.9,1.4-3.6,3-4.9c1.1-0.9,1.9-0.8,2.7,0.5
	C46.5,169.6,46.8,170.8,47,172.1z"/>
<path class="st2" d="M135.9,177c-1-2.1-0.9-3.9-0.1-5.8c0.4-0.9,0.7-1.8,1.4-2.5c0.9-0.8,1.6-0.8,2.5,0c0.3,0.3,0.6,0.6,0.9,0.9
	c1.1,1.4,1,1.8-0.4,2.8C138.4,173.6,137,175,135.9,177z"/>
<path class="st2" d="M3.3,140.7c0.9,1.2,1.7,2.3,2.9,3.1c1.1,0.7,2.2,1.2,3.5,1.2c0.9,0,1.2,0.3,1.4,1.1c0.4,1.9,0.1,2.1-1.8,1.8
	c-1.2-0.2-2.4-0.4-3.6-0.8c-1.3-0.5-2.3-1.1-2.4-2.7C3.2,143.1,3.2,141.9,3.3,140.7z"/>
<path class="st2" d="M9.6,155.4c-2.1-1.7-3.7-3.6-4.9-6.2c2.4,0.8,4.7,0.9,6.9,1c1,0,0.9,1.3,1.2,2c0.3,0.5-0.3,0.6-0.6,0.8
	C11.2,153.5,10.3,154.3,9.6,155.4z"/>
<path class="st2" d="M128.6,174.7c-1.1-1.5-1-3-0.6-4.5c0.2-0.9,0.7-1.7,1.2-2.5c0.3-0.4,0.6-1,1.3-0.9c1,0.2,2.2,1.3,2.4,2.1
	c0.1,0.7,0,1.3-0.7,1.8C130.7,171.7,129.5,173,128.6,174.7z"/>
<path class="st3" d="M128.1,139.7c-1.5-1-1.7-1.3-3.8-5.4c1.1-0.2,2.1-0.5,3.2-0.7c0.4-0.1,0.7,0,0.9,0.4c0.1,0.2,0.3,0.4,0.5,0.7
	c1.2,1.6,1.2,2.3,0,4C128.7,138.9,128.4,139.3,128.1,139.7z"/>
<path class="st2" d="M11.6,133.6c-0.7-1.2-0.9-2.5-0.7-3.7c0.2-1.7,0.6-3.4,2.3-4.4c0.5-0.3,0.8-0.3,1.3,0.1c0.6,0.6,1,1.3,1.1,2.1
	c0.1,0.5,0.1,0.9-0.4,1.2c-1.6,0.7-2.1,2.2-2.7,3.6C12.2,132.8,12.2,133.3,11.6,133.6z"/>
<path class="st2" d="M5.1,134c-1.3-2-0.9-5.4,0.6-7.1c1.2-1.4,2.1-1.2,2.9,0.4c0.6,1.1,0.3,1.7-0.8,2.4c-1.1,0.7-1.7,1.9-2.2,3.1
	C5.5,133.1,5.5,133.6,5.1,134z"/>
<path class="st1" d="M6.3,124.6c0-0.8,0.5-1.1,0.9-1.3c1.2-0.7,2.2-1.5,3-2.6c0.5-0.7,1.3-1.2,2.3-0.9c-0.1,0.7-0.5,1-0.8,1.5
	c-0.6,1-1.2,2-1,3.2c0.1,0.7-0.3,1.2-0.7,1.7C8.9,125.3,8.3,123.7,6.3,124.6z"/>
<path class="st2" d="M31.9,142.2c-0.1-0.7,0.3-1.1,0.4-1.5c0.3-1,0.6-2,0.5-3c-0.1-0.7,0.2-1,0.9-1c0.9-0.1,1.7-0.4,2.5-0.8
	C37.1,137.4,34.2,141.6,31.9,142.2z"/>
<path class="st2" d="M18.1,158.6c-1.3,0.5-5.4-0.8-6.4-2c0.7-0.9,1.4-1.7,2.5-2C15.3,156,16.5,157.4,18.1,158.6z"/>
<path class="st2" d="M126.2,163c0.5-1.2,1.4-1.9,2.2-2.7c0.1-0.1,0.3-0.2,0.5-0.2c1.8,0.4,3.6-0.1,5.3-0.4c0.1,0,0.2,0.1,0.5,0.2
	C132.1,161.8,129.3,162.5,126.2,163z"/>
<path class="st2" d="M139.8,115.9c-0.9-0.4-1.6-0.8-2.4-1c-0.4-0.1-0.6-0.3-0.4-0.7c0.4-1.4,0.7-2.8,0.5-4.3
	C139.2,110.9,140.5,113.9,139.8,115.9z"/>
<path class="st2" d="M133.8,116.3c-1-0.6-1.8-1.1-2.7-1.6c-0.2-0.1-0.4-0.3-0.3-0.5c0.5-1,0.3-2.1,0.5-3.1
	C132.7,111.7,133.8,114,133.8,116.3z"/>
<path class="st3" d="M91.6,81.2c-0.4,1.8-1,3.2-2.6,4.1c0-1.2-0.1-2.3-0.7-3.4C89.3,81.5,90.4,81.5,91.6,81.2z"/>
<path class="st3" d="M79.3,81.1c1.2,0.3,2.3,0.6,3.4,1c-0.5,1.4-1.6,2.2-3,2.9C79.8,83.6,79.8,82.3,79.3,81.1z"/>
<path class="st3" d="M93,80.7c0.9,0.3,1.8,0.6,2.7,0.9c-0.5,1.5-1.2,2.7-2.8,3.5C93.1,83.6,93.2,82.2,93,80.7z"/>
<path class="st3" d="M101.8,87.2c0-1.3,0.1-2.5-0.2-3.6c1.1,0,2.1,0,3.4,0C103.9,84.8,103.2,86.1,101.8,87.2z"/>
<path class="st3" d="M88.7,101.8c-1.1,0-2.1-0.4-2.8-1.2c1-0.8,2-1.5,2.9-2.5C89.2,99.4,88.9,100.6,88.7,101.8z"/>
<path class="st3" d="M84.7,85.9c-0.2-1.3-0.2-2.3-0.6-3.4c1,0,1.9-0.3,3-0.4C86.8,83.7,86.1,84.9,84.7,85.9z"/>
<path class="st3" d="M84.1,99c-0.8-0.7-1.5-1.2-2.1-2.1c0.9-0.5,1.9-1,2.8-1.9C85.2,96.5,85,97.8,84.1,99z"/>
<path class="st3" d="M100,83.3c-0.5,1.1-1.5,2.1-2.7,2.7c0-1.2,0-2.4,0-3.6C98.2,82.6,99.1,83,100,83.3z"/>
<path class="st3" d="M80.8,95.1c-0.6-0.8-1.2-1.5-1.8-2.2c1-0.4,1.8-1,2.8-1.7C81.8,92.6,81.5,93.9,80.8,95.1z"/>
<path class="st3" d="M93.8,102c-1,0.4-1.9,0.4-2.8,0c0.8-0.9,1.5-2,2.3-3.1C93.6,100,93.7,101,93.8,102z"/>
<path class="st3" d="M77.6,88.3c0,1.1,0.1,2-0.1,2.9c-1-0.2-1.9-0.6-3.1-0.6C75.6,89.8,76.5,89.1,77.6,88.3z"/>
<path class="st3" d="M46,175.4c-0.1,0.7-0.1,1.1-0.2,1.5c-0.1,0.4-0.1,0.7-0.2,1.2c-0.5-0.3-1.3-0.5-1.2-1.1
	C44.4,176.3,45.3,176.1,46,175.4z"/>
<path class="st3" d="M133.1,174.2c-0.4-0.1-0.8-0.2-1.2-0.3c0.2-0.5,0.6-0.8,1.2-1.2C133.1,173.2,133.1,173.6,133.1,174.2z"/>
<path class="st4" d="M192.6,101.1c-0.1-0.1-0.1-0.3-0.2-0.4c0.4-0.4,0.9-0.8,1.3-1.2C193.5,100.2,193,100.6,192.6,101.1z"/>
<path class="st2" d="M64.4,30.4c0.9,0.7,1.5,1.4,2.4,1.8c-0.8,0.6-1.8,0.6-2.5,1c-0.5-1.3-1.9-2.1-3-1.8c0.1,0.8,0.3,1.6,0.8,2.4
	c-0.8,0.2-1.6,0.5-2.4,0.7c0.1-1-1.3-6-2-6.8c1.8-0.5,3.5-1.1,5.3-1.5c0.9-0.2,1.7,0,2.2,0.9c0.5,1,0.4,2-0.2,2.8
	C64.9,30.1,64.6,30.2,64.4,30.4z M60.9,29.7c0.8-0.1,1.4-0.3,2.1-0.6c0.3-0.1,0.5-0.3,0.4-0.7C63.4,28,63,28,62.7,28
	c-0.7,0.1-1.5,0.3-2.2,0.6C60.7,29,60.8,29.4,60.9,29.7z"/>
<path class="st2" d="M108.1,33.8c-0.5-1.9-1.5-3.3-2.3-5.2c-0.3,1.6-0.9,2.8-0.9,4.2c-0.8-0.1-1.6-0.3-2.2-0.6
	c0.8-2.2,1.4-4.4,1.8-6.7c0.8,0,1.7,0.5,2.7,0.7c0,1.7,1.1,2.8,1.7,4.4c0.3-1.3,0.8-2.4,0.8-3.7c0.8,0.2,1.4,0.4,2.1,0.6
	c-0.7,2.3-1.3,4.5-1.8,6.8C109.4,34.3,108.7,33.9,108.1,33.8z"/>
<path class="st2" d="M150.1,55.3c0,2.3-2.2,4-4.4,3.3c-1.7-0.5-3.3-2.7-3.3-4.4c0-2.1,2.2-4.1,4.5-3.3
	C148.6,51.5,150.1,53.5,150.1,55.3z M146.1,52.7c-1,0-1.7,0.7-1.7,1.7c0,1.1,1.1,2.3,2.1,2.3c0.8,0,1.7-1,1.7-1.8
	C148.2,53.9,147.1,52.8,146.1,52.7z"/>
<path class="st2" d="M84.9,23.2c1.9,0,3.1,0.7,3.7,2.1c0.6,1.5,0.2,3-0.9,4.1c-1.5,1.3-4.3,1.3-5.9-0.1c-1.2-1.1-1.4-3.2-0.4-4.7
	C82.3,23.5,83.5,23.1,84.9,23.2z M86.9,26.8c0-1-0.9-1.9-2-1.9c-1.1,0-2,0.8-2,1.8c0,1,0.9,1.9,2,1.9C85.9,28.7,86.8,27.7,86.9,26.8
	z"/>
<path class="st2" d="M42,35.8c1.8,0,3.3,1.6,3.3,3.5c0,2.2-2.3,4.4-4.7,4.3c-1.9,0-3.2-1.6-3.2-3.6C37.5,37.7,39.6,35.8,42,35.8z
	 M43.3,39.6c0-0.9-0.9-1.9-1.8-1.9c-1,0-2.1,1.1-2.2,2c0,0.9,0.8,1.9,1.7,1.9C42.1,41.6,43.3,40.5,43.3,39.6z"/>
<path class="st2" d="M23,53.2c1.2,1.2,2.3,2.4,3.8,3.4c-0.6,0.6-1.1,1.3-1.7,2c-1-1.5-2.3-2.5-3.5-3.7c-0.6,0.7-1.4,1.1-1.5,2.3
	c-0.6-0.8-1-1.4-1.4-2c0.7-0.4,4.3-4.5,4.5-5.3c0.6,0.5,1.1,1,1.8,1.6C24,51.7,23.4,52.3,23,53.2z"/>
<path class="st2" d="M126.2,36.4c0.2-0.8,0.7-1.4,1.1-1.9c1.9,1.4,3.9,2.7,6.1,3.9c-0.2,0.6-0.6,1.2-1.1,1.9c-0.5-0.9-1.3-1-2-1.6
	c-0.8,1.5-1.9,2.9-2.5,4.6c-0.8-0.3-1.4-0.9-2.2-1.4c0.9-0.5,1.1-1.4,1.6-2.1c0.3-0.5,0.6-1.1,1-1.6c0.3-0.4,0.3-0.7-0.2-1
	C127.3,36.8,126.9,36.2,126.2,36.4z"/>
<path class="st0" d="M16.4,86.7c0.2-1,0.6-1.9,0.9-2.8c0.2-0.5,0.5-0.3,0.9-0.2c1.8,0.6,3.5,1.2,5.3,1.8c0.3,0.1,0.6,0.2,0.6,0.6
	c0.3,1.2,0.6,2.3,0.9,3.7C22,88.6,19.3,87.7,16.4,86.7z"/>
<path class="st0" d="M61.3,47.1c1.2-0.2,2.1-1.1,3.4-0.7c0.4,0.1,0.6,0.3,0.7,0.6c0.4,1.2,0.8,2.3,1.3,3.5c0.4,0.9,0.1,1.6-0.6,2.1
	c-0.6,0.4-1.4,0.7-2.1,1c-0.4,0.1-0.6-0.1-0.7-0.5C62.7,51.1,62.1,49.2,61.3,47.1z"/>
<path class="st0" d="M44.2,65.2c-0.4,0.4-0.7,0.7-1.1,1c-1.5,1.4-1.5,1.5-2.9,0c-0.8-0.8-1.6-1.7-2.3-2.5c-0.1-0.1-0.4-0.3-0.2-0.5
	c0.4-0.8,1-1.4,1.8-1.8c0.6-0.3,1.2,0,1.6,0.6C42.1,63.1,43.3,64,44.2,65.2z"/>
<path class="st0" d="M57.6,88.7c-2.3-3.2-2.4-6.4-0.9-9.6c1.9-4.4,6-6,10.4-7.2c-0.8,1.2-1.6,2.5-2.5,3.7c1.1,0.4,2,0.8,3.3,1.4
	C61,78.1,57.3,81.6,57.6,88.7z"/>
<path class="st0" d="M76,73.6c-0.5-0.2-1-0.3-1.4-0.6c-1-0.7-2-1.3-3.5-0.4c0.9-2.3,2.6-3.2,4.3-4.2c-0.7-0.5-1.5-0.1-2.3-0.3
	c1.1-0.8,2.3-1,3.4-1.1c2.4-0.2,4.5,0.4,5.8,2.5c1.2,1.9,2.6,2.8,4.9,1.8c-0.3,1.5-2.4,2.6-4.7,2.8c0.4-0.5,1.1-0.6,1.5-1.3
	c-1.2-0.2-1.8-1.2-2.7-1.9c-1-0.9-1.4-0.8-2.1,0.4c-0.4,0.7-0.5,1.6-0.9,2.4c-0.9-1.2-0.6-2.5-0.3-3.7c-0.8-0.1-1.4,0.2-2,0.6
	c-0.9,0.5-1,1.1-0.5,2C75.7,72.9,76.1,73.1,76,73.6z"/>
<path class="st2" d="M76,73.6c0.1-0.5-0.3-0.7-0.5-1.1c-0.5-0.9-0.4-1.5,0.5-2c0.6-0.3,1.2-0.7,2-0.6c-0.3,1.3-0.5,2.5,0.3,3.7
	c0.4-0.8,0.5-1.7,0.9-2.4c0.7-1.2,1.1-1.3,2.1-0.4c0.8,0.7,1.4,1.7,2.7,1.9c-0.4,0.7-1.1,0.7-1.5,1.3C80.2,74.9,78.1,74.6,76,73.6z"
	/>
<path class="st0" d="M73.7,80.5c-2.9,3.1-5.1,6.7-6.2,10.8c-0.9-0.3-1.4-0.9-1.8-1.5c-0.2-0.3-0.3-0.6-0.1-1
	C67.6,85.3,70.2,82.5,73.7,80.5z"/>
<path class="st0" d="M101.9,78.9c-1-1.3-2-2.3-3.2-2.9c1-1.4,1.4-1.4,2.3-0.1C101.5,76.8,102,77.6,101.9,78.9z"/>
<path class="st0" d="M125.9,67c1-1.1,2-2.4,3.2-3.4c0.5-0.5,1.1-1.6,1.7-1.3c1,0.5,1.8,1.5,2.5,2.5c-1,1-2,2-3,3
	c-0.3,0.3-0.6,0.3-1,0.2C128.2,67.6,127,67.3,125.9,67z"/>
<path class="st0" d="M89.6,127.2c-0.3,0.5-0.6,0.9-0.8,1.4c0.1,0.1,0.1,0.2,0.1,0.2c2.4-0.1,4.4,0.6,6.1,2.3c1.7,1.6,3.9,1.5,6.1,2
	c-2.2,0.8-4.2,1.1-6.3,1.6c-1.7,0.4-3,0.1-4.3-1c-1.1-0.9-2.4-1.7-3.6-2.6c-0.6,0.4-0.9,1.1-1.5,1.6c1.4,1,2.7,1.8,4,2.8
	c-1.7,0.7-5,0.8-9.1,0.3c0.3-1-0.5-1.4-1.2-1.9c-2.6-1.7-5.2-3.5-7.8-5.3c-1.3-0.9-2.7-1.5-4.1-2c-0.3-0.1-0.5-0.2-0.8-0.4
	c4.3,0.3,8.5-0.4,12.6-1.7c0.1,0,0.3-0.1,0.4-0.1c1.7-0.9,3.5-1.1,5.3-0.5c0.6,0.2,1.2,0.3,1.7,0.8
	C87.5,125.5,88.5,126.3,89.6,127.2z M82.2,130.8c0.5-0.7,1-1.4,1.5-2c-0.5-0.5-0.9-1-1.3-1.5c-1,0.7-2.1,0.8-3.3,1.2
	C80.2,129.4,81.2,130.1,82.2,130.8z"/>
<path class="st0" d="M102.3,58.5c1.6-3.9,3.1-7.7,4.6-11.6c1.2,0.2,2.3,0.8,3.4,1.3c0.4,0.2,0.2,0.5,0.1,0.8
	c-1.3,3.4-2.7,6.9-4,10.3c-0.2,0.5-0.4,0.7-1,0.4C104.4,59.3,103.4,58.9,102.3,58.5z"/>
<path class="st0" d="M148.9,128.6c1.2-1.9,2.3-3.8,3.4-5.7c1.4,0.7,2.5,1.7,3.9,2.5c1-1.6,2-3.2,3-4.8c1.1,0.7,2.1,1.3,3.1,2
	c1.1-1.2,1.7-2.7,2.8-4.1c0.5,0.3,1,0.4,1.5,0.8c0.7,0.5,1.1,0.3,1.5-0.4c0.2-0.3,0.4-0.7,0.6-1c0.5-1,1.1-1.8,2.5-1.1
	c0.4,0.2,0.8,0,1.1-0.4c0.1-0.2,0.2-0.4,0.3-0.5c0.9-1.4,0.9-1.4,2.8-0.6c-10.7,7.8-22.6,12.8-34.8,17c-0.1-0.1-0.2-0.2-0.2-0.3
	c1.4-2.3,2.8-4.5,4.3-6.9C146,126.3,147.4,127.4,148.9,128.6z"/>
<path class="st0" d="M66.1,162.9c4.4-1,9.4,0.3,9.6,7.8c0.5,0.2,0.7-0.4,1.2-0.4c0,0.8-0.5,1.2-1,1.6c-1.8,1.1-4.8,1.8-7-0.2
	c-1-0.9-2.1-1.7-3.4-2.2c0.5-0.6,1.1-0.5,1.5-0.4c0.7,0.2,0.9-0.1,1.2-0.6c0.8-1.7,0.5-3.3-0.8-4.6C67,163.6,66.6,163.4,66.1,162.9z
	 M69.5,169.8c1.2,0.9,2.6,1.1,4,1c0.4,0,0.4-0.4,0.4-0.7c0-1.1-0.3-2.2-0.8-3.2c-0.6-1-1.3-1.9-2.4-2.3c-0.6-0.2-0.8-0.1-0.6,0.6
	C70.5,166.8,70.2,168.2,69.5,169.8z"/>
<path class="st1" d="M60.9,29.7c-0.1-0.3-0.2-0.7-0.3-1c0.7-0.3,1.4-0.5,2.2-0.6c0.3,0,0.6-0.1,0.7,0.4c0.1,0.4-0.1,0.6-0.4,0.7
	C62.3,29.4,61.6,29.6,60.9,29.7z"/>
<path class="st1" d="M146.1,52.7c1,0,2,1.1,2.1,2.1c0,0.9-0.9,1.8-1.7,1.8c-1.1,0-2.1-1.1-2.1-2.3C144.4,53.4,145.2,52.7,146.1,52.7
	z"/>
<path class="st1" d="M86.9,26.8c0,1-1,1.9-2,1.9c-1.1,0-2-0.9-2-1.9c0-1,0.9-1.9,2-1.8C85.9,24.9,86.9,25.8,86.9,26.8z"/>
<path class="st1" d="M43.3,39.6c0,0.9-1.2,2-2.2,2c-0.9,0-1.8-1-1.7-1.9c0-0.9,1.2-2,2.2-2C42.4,37.7,43.3,38.6,43.3,39.6z"/>
<path class="st3" d="M82.2,130.8c-1-0.7-2-1.5-3.1-2.3c1.2-0.4,2.3-0.5,3.3-1.2c0.4,0.5,0.9,0.9,1.3,1.5
	C83.3,129.4,82.7,130.1,82.2,130.8z"/>
<path class="st2" d="M69.5,169.8c0.7-1.6,1-3,0.6-4.5c-0.2-0.6,0-0.8,0.6-0.6c1.2,0.4,1.9,1.2,2.4,2.3c0.5,1,0.8,2,0.8,3.2
	c0,0.3,0,0.7-0.4,0.7C72,170.9,70.7,170.7,69.5,169.8z"/>
</svg>
